<svg height="512pt" viewBox="0 0 512 512" width="512pt" xmlns="http://www.w3.org/2000/svg"><path d="m480.648438 256c0 124.148438-100.640626 224.789062-224.789063 224.789062-124.144531 0-224.789063-100.640624-224.789063-224.789062s100.644532-224.789062 224.789063-224.789062c124.148437 0 224.789063 100.640624 224.789063 224.789062zm0 0" fill="#85afe2"/><path d="m255.859375 445.738281c-104.621094 0-189.738281-85.117187-189.738281-189.738281s85.117187-189.738281 189.738281-189.738281 189.738281 85.117187 189.738281 189.738281-85.117187 189.738281-189.738281 189.738281zm0 0" fill="#5592d7"/><path d="m430.445312 256c0 96.421875-78.164062 174.585938-174.585937 174.585938-96.417969 0-174.582031-78.164063-174.582031-174.585938s78.164062-174.585938 174.582031-174.585938c96.421875 0 174.585937 78.164063 174.585937 174.585938zm0 0" fill="#c86d3d"/><path d="m430.445312 256c0 96.417969-78.167968 174.585938-174.585937 174.585938-4.988281 0-9.925781-.207032-14.796875-.617188 89.492188-7.511719 159.789062-82.542969 159.789062-173.96875s-70.296874-166.457031-159.789062-173.957031c4.871094-.421875 9.808594-.628907 14.796875-.628907 96.417969 0 174.585937 78.167969 174.585937 174.585938zm0 0" fill="#ac5e33"/><g fill="#fbcc85"><path d="m96.695312 386.789062c-2.046874 0-4.089843-.777343-5.664062-2.339843l-.074219-.074219c-3.183593-3.15625-3.199219-8.296875-.042969-11.480469 3.160157-3.179687 8.300782-3.199219 11.480469-.039062 3.183594 3.160156 3.238281 8.335937.078125 11.515625-1.59375 1.605468-3.6875 2.417968-5.777344 2.417968zm0 0"/><path d="m133.191406 423.28125c-2.054687 0-4.109375-.78125-5.6875-2.355469l-.074218-.074219c-3.167969-3.171874-3.167969-8.3125 0-11.480468 3.171874-3.171875 8.3125-3.171875 11.480468 0 3.171875 3.167968 3.207032 8.347656.039063 11.515625-1.59375 1.59375-3.679688 2.394531-5.757813 2.394531zm0 0"/><path d="m378.492188 104.988281c-2.054688 0-4.109376-.78125-5.683594-2.359375l-.074219-.074218c-3.171875-3.167969-3.171875-8.308594 0-11.480469 3.167969-3.167969 8.308594-3.167969 11.480469 0 3.167968 3.171875 3.207031 8.347656.035156 11.519531-1.59375 1.59375-3.675781 2.394531-5.757812 2.394531zm0 0"/><path d="m414.988281 141.484375c-2.046875 0-4.089843-.773437-5.664062-2.339844l-.074219-.070312c-3.179688-3.160157-3.199219-8.300781-.039062-11.480469 3.15625-3.183594 8.296874-3.199219 11.480468-.042969 3.179688 3.160157 3.234375 8.335938.078125 11.519531-1.597656 1.605469-3.691406 2.414063-5.78125 2.414063zm0 0"/><path d="m133.191406 104.953125c-2.074218 0-4.148437-.785156-5.722656-2.359375-3.171875-3.171875-3.207031-8.273438-.039062-11.445312l.074218-.074219c3.171875-3.167969 8.3125-3.167969 11.480469 0 3.171875 3.171875 3.171875 8.3125 0 11.480469-1.59375 1.59375-3.695313 2.398437-5.792969 2.398437zm0 0"/><path d="m96.695312 141.449219c-2.085937 0-4.164062-.792969-5.742187-2.382813-3.160156-3.179687-3.179687-8.285156.003906-11.441406l.074219-.074219c3.183594-3.160156 8.320312-3.140625 11.480469.042969 3.15625 3.179688 3.136719 8.320312-.042969 11.476562-1.589844 1.582032-3.683594 2.378907-5.773438 2.378907zm0 0"/><path d="m414.988281 386.75c-2.082031 0-4.164062-.789062-5.742187-2.378906-3.15625-3.183594-3.175782-8.285156.003906-11.445313l.074219-.070312c3.183593-3.160157 8.320312-3.140625 11.480469.039062 3.15625 3.183594 3.140624 8.320313-.042969 11.480469-1.589844 1.582031-3.683594 2.375-5.773438 2.375zm0 0"/><path d="m378.492188 423.246094c-2.074219 0-4.144532-.78125-5.722657-2.359375-3.167969-3.167969-3.207031-8.273438-.035156-11.441407l.074219-.074218c3.167968-3.171875 8.308594-3.171875 11.480468 0 3.167969 3.167968 3.167969 8.308594 0 11.480468-1.59375 1.59375-3.699218 2.394532-5.796874 2.394532zm0 0"/></g><path d="m319.382812 193.210938-63.523437 62.789062-9-122.679688 9-133.320312c2.1875 0 4.375 1.265625 5.164063 3.789062zm0 0" fill="#e8b76b"/><path d="m255.859375 256-63.523437-62.789062 58.351562-189.390626c.777344-2.542968 2.976562-3.820312 5.171875-3.820312zm0 0" fill="#fbcc85"/><path d="m319.382812 318.789062-58.359374 189.421876c-.789063 2.523437-2.976563 3.789062-5.164063 3.789062l-9-154.332031 9-101.667969zm0 0" fill="#c99d5c"/><path d="m255.859375 512c-2.195313 0-4.394531-1.277344-5.171875-3.820312l-58.351562-189.390626 63.523437-62.789062zm0 0" fill="#e8b76b"/><path d="m511.71875 256c0 2.195312-1.265625 4.394531-3.820312 5.175781l-188.515626 57.613281-63.523437-62.789062 111.667969-9zm0 0" fill="#e8b76b"/><path d="m255.859375 256 63.523437-62.789062 188.515626 57.613281c2.554687.78125 3.820312 2.980469 3.820312 5.175781zm0 0" fill="#fbcc85"/><path d="m255.859375 256-63.523437 62.789062-188.515626-57.613281c-2.554687-.78125-3.820312-2.976562-3.820312-5.175781l139.191406-9zm0 0" fill="#c99d5c"/><path d="m0 256c0-2.195312 1.265625-4.394531 3.820312-5.175781l188.515626-57.613281 63.523437 62.789062zm0 0" fill="#e8b76b"/></svg>