<svg height="512pt" viewBox="0 0 512 512" width="512pt" xmlns="http://www.w3.org/2000/svg"><path d="m512 256c0 2.585938-.039062 5.160156-.113281 7.726562-1.925781 64.859376-27.980469 123.652344-69.484375 167.742188-3.535156 3.75-7.179688 7.398438-10.929688 10.929688-44.09375 41.507812-102.886718 67.5625-167.746094 69.488281-2.566406.074219-5.140624.113281-7.726562.113281s-5.160156-.039062-7.726562-.113281c-64.859376-1.925781-123.652344-27.980469-167.742188-69.484375-3.75-3.535156-7.398438-7.179688-10.929688-10.929688-41.507812-44.09375-67.5625-102.886718-69.488281-167.746094-.0742185-2.566406-.113281-5.140624-.113281-7.726562s.0390625-5.160156.113281-7.726562c1.925781-64.859376 27.980469-123.652344 69.484375-167.742188 3.535156-3.75 7.179688-7.398438 10.929688-10.929688 44.09375-41.507812 102.886718-67.5625 167.746094-69.488281 2.566406-.0742185 5.140624-.113281 7.726562-.113281s5.160156.0390625 7.726562.113281c64.859376 1.925781 123.652344 27.980469 167.742188 69.484375 3.75 3.535156 7.398438 7.179688 10.929688 10.929688 41.507812 44.09375 67.5625 102.886718 69.488281 167.746094.074219 2.566406.113281 5.140624.113281 7.726562zm0 0" fill="#fbcc85"/><path d="m263.726562.113281v50.140625c0 4.273438-3.460937 7.722656-7.726562 7.722656s-7.726562-3.449218-7.726562-7.722656v-50.140625c2.566406-.0742185 5.140624-.113281 7.726562-.113281s5.160156.0390625 7.726562.113281zm0 0" fill="#e8b76b"/><path d="m263.726562 461.746094v50.140625c-2.566406.074219-5.140624.113281-7.726562.113281s-5.160156-.039062-7.726562-.113281v-50.140625c0-4.273438 3.460937-7.722656 7.726562-7.722656 4.265625-.003907 7.726562 3.449218 7.726562 7.722656zm0 0" fill="#e8b76b"/><path d="m512 256c0 2.585938-.039062 5.160156-.113281 7.726562h-50.140625c-4.273438 0-7.722656-3.460937-7.722656-7.726562s3.449218-7.726562 7.722656-7.726562h50.140625c.074219 2.566406.113281 5.140624.113281 7.726562zm0 0" fill="#e8b76b"/><path d="m57.980469 256c0 4.265625-3.453125 7.726562-7.726563 7.726562h-50.140625c-.0742185-2.566406-.113281-5.140624-.113281-7.726562s.0390625-5.160156.113281-7.726562h50.140625c4.273438 0 7.726563 3.460937 7.726563 7.726562zm0 0" fill="#e8b76b"/><path d="m256 469.246094c-117.585938 0-213.246094-95.660156-213.246094-213.246094s95.660156-213.246094 213.246094-213.246094 213.246094 95.660156 213.246094 213.246094-95.660156 213.246094-213.246094 213.246094zm0 0" fill="#e8b76b"/><path d="m454.824219 256c0 109.808594-89.015625 198.824219-198.824219 198.824219s-198.824219-89.015625-198.824219-198.824219 89.015625-198.824219 198.824219-198.824219 198.824219 89.015625 198.824219 198.824219zm0 0" fill="#db885d"/><path d="m454.824219 256c0 109.808594-89.015625 198.824219-198.824219 198.824219-3.925781 0-7.820312-.113281-11.683594-.339844 104.378906-6.035156 187.15625-92.59375 187.15625-198.484375s-82.777344-192.449219-187.15625-198.484375c3.863282-.226563 7.757813-.339844 11.683594-.339844 109.808594 0 198.824219 89.015625 198.824219 198.824219zm0 0" fill="#c86d3d"/><path d="m442.402344 80.527344-67.335938 67.324218c-1.503906 1.511719-3.480468 2.265626-5.457031 2.265626-1.980469 0-3.957031-.753907-5.460937-2.265626-3.019532-3.007812-3.019532-7.902343 0-10.921874l67.320312-67.332032c3.753906 3.535156 7.398438 7.179688 10.933594 10.929688zm0 0" fill="#e8b76b"/><path d="m147.851562 375.066406-67.320312 67.335938c-3.75-3.535156-7.398438-7.179688-10.929688-10.929688l67.332032-67.324218c3.015625-3.015626 7.910156-3.015626 10.917968 0 3.019532 3.007812 3.019532 7.902343 0 10.917968zm0 0" fill="#e8b76b"/><path d="m442.402344 431.472656c-3.535156 3.75-7.179688 7.394532-10.929688 10.929688l-67.324218-67.335938c-3.015626-3.015625-3.015626-7.910156 0-10.917968 3.007812-3.019532 7.902343-3.019532 10.921874 0zm0 0" fill="#e8b76b"/><path d="m147.851562 147.851562c-1.503906 1.515626-3.480468 2.265626-5.460937 2.265626-1.976563 0-3.953125-.75-5.457031-2.265626l-67.335938-67.324218c3.535156-3.75 7.179688-7.394532 10.929688-10.929688l67.324218 67.335938c3.019532 3.015625 3.019532 7.910156 0 10.917968zm0 0" fill="#e8b76b"/><g fill="#c86d3d"><path d="m482.929688 293.175781c-4.269532 0-7.726563-3.460937-7.726563-7.726562v-.121094c0-4.265625 3.457031-7.722656 7.726563-7.722656 4.265624 0 7.726562 3.457031 7.726562 7.722656v.121094c0 4.265625-3.460938 7.726562-7.726562 7.726562zm0 0"/><path d="m482.929688 234.394531c-4.269532 0-7.726563-3.457031-7.726563-7.722656v-.121094c0-4.265625 3.457031-7.726562 7.726563-7.726562 4.265624 0 7.726562 3.460937 7.726562 7.726562v.121094c0 4.265625-3.460938 7.722656-7.726562 7.722656zm0 0"/><path d="m29.070312 293.175781c-4.265624 0-7.726562-3.460937-7.726562-7.726562v-.121094c0-4.265625 3.460938-7.722656 7.726562-7.722656 4.269532 0 7.726563 3.457031 7.726563 7.722656v.121094c0 4.265625-3.457031 7.726562-7.726563 7.726562zm0 0"/><path d="m29.070312 234.394531c-4.265624 0-7.726562-3.457031-7.726562-7.722656v-.121094c0-4.265625 3.460938-7.726562 7.726562-7.726562 4.269532 0 7.726563 3.460937 7.726563 7.726562v.121094c0 4.265625-3.457031 7.722656-7.726563 7.722656zm0 0"/><path d="m226.671875 490.65625h-.121094c-4.265625 0-7.726562-3.460938-7.726562-7.726562 0-4.269532 3.460937-7.726563 7.726562-7.726563h.121094c4.265625 0 7.722656 3.457031 7.722656 7.726563 0 4.265624-3.457031 7.726562-7.722656 7.726562zm0 0"/><path d="m285.449219 490.65625h-.121094c-4.265625 0-7.722656-3.460938-7.722656-7.726562 0-4.269532 3.457031-7.726563 7.722656-7.726563h.121094c4.265625 0 7.726562 3.457031 7.726562 7.726563 0 4.265624-3.460937 7.726562-7.726562 7.726562zm0 0"/><path d="m226.671875 36.796875h-.121094c-4.265625 0-7.726562-3.457031-7.726562-7.726563 0-4.265624 3.460937-7.726562 7.726562-7.726562h.121094c4.265625 0 7.722656 3.460938 7.722656 7.726562 0 4.269532-3.457031 7.726563-7.722656 7.726563zm0 0"/><path d="m285.449219 36.796875h-.121094c-4.265625 0-7.722656-3.457031-7.722656-7.726563 0-4.265624 3.457031-7.726562 7.722656-7.726562h.121094c4.265625 0 7.726562 3.460938 7.726562 7.726562 0 4.269532-3.460937 7.726563-7.726562 7.726563zm0 0"/><path d="m74.796875 403.449219c-1.976563 0-3.953125-.753907-5.460937-2.261719l-.085938-.085938c-3.019531-3.015624-3.019531-7.90625 0-10.925781 3.015625-3.015625 7.910156-3.015625 10.925781 0l.085938.085938c3.015625 3.015625 3.015625 7.90625 0 10.925781-1.507813 1.507812-3.488281 2.261719-5.464844 2.261719zm0 0"/><path d="m116.359375 445.011719c-1.976563 0-3.953125-.753907-5.460937-2.261719l-.085938-.085938c-3.015625-3.015624-3.015625-7.90625 0-10.925781 3.019531-3.015625 7.910156-3.015625 10.929688 0l.082031.085938c3.019531 3.015625 3.019531 7.90625 0 10.925781-1.507813 1.507812-3.484375 2.261719-5.464844 2.261719zm0 0"/><path d="m395.722656 82.523438c-1.976562 0-3.953125-.753907-5.460937-2.261719l-.085938-.085938c-3.019531-3.015625-3.019531-7.90625 0-10.925781 3.015625-3.015625 7.910157-3.015625 10.925781 0l.085938.085938c3.015625 3.015624 3.015625 7.90625 0 10.925781-1.507812 1.507812-3.488281 2.261719-5.464844 2.261719zm0 0"/><path d="m437.285156 124.085938c-1.976562 0-3.953125-.753907-5.460937-2.261719l-.085938-.085938c-3.015625-3.015625-3.015625-7.90625 0-10.925781 3.019531-3.015625 7.910157-3.015625 10.929688 0l.082031.085938c3.019531 3.015624 3.019531 7.90625 0 10.925781-1.507812 1.507812-3.484375 2.261719-5.464844 2.261719zm0 0"/><path d="m116.277344 82.523438c-1.976563 0-3.957032-.753907-5.464844-2.261719-3.015625-3.019531-3.015625-7.910157 0-10.925781l.085938-.085938c3.015624-3.015625 7.910156-3.015625 10.925781 0 3.019531 3.015625 3.019531 7.910156 0 10.925781l-.082031.085938c-1.511719 1.507812-3.488282 2.261719-5.464844 2.261719zm0 0"/><path d="m74.714844 124.085938c-1.980469 0-3.957032-.753907-5.464844-2.261719-3.019531-3.015625-3.019531-7.910157 0-10.925781l.085938-.085938c3.015624-3.015625 7.90625-3.015625 10.925781 0 3.015625 3.015625 3.015625 7.910156 0 10.925781l-.085938.085938c-1.507812 1.507812-3.484375 2.261719-5.460937 2.261719zm0 0"/><path d="m437.203125 403.449219c-1.976563 0-3.957031-.753907-5.464844-2.261719-3.015625-3.015625-3.015625-7.910156 0-10.925781l.085938-.085938c3.015625-3.015625 7.910156-3.015625 10.925781 0 3.019531 3.015625 3.019531 7.910157 0 10.925781l-.082031.085938c-1.511719 1.507812-3.488281 2.261719-5.464844 2.261719zm0 0"/><path d="m395.640625 445.011719c-1.980469 0-3.957031-.753907-5.464844-2.261719-3.019531-3.015625-3.019531-7.910156 0-10.925781l.085938-.085938c3.015625-3.015625 7.90625-3.015625 10.925781 0 3.015625 3.019531 3.015625 7.910157 0 10.925781l-.085938.085938c-1.507812 1.507812-3.484374 2.261719-5.460937 2.261719zm0 0"/></g><path d="m335.539062 242.359375c.125 20.046875-7.179687 38.375-19.316406 52.425781-1.101562 1.277344-2.71875 2.011719-4.417968 2.011719h-18.246094v44.78125c0 1.96875-.800782 3.757813-2.089844 5.046875s-3.078125 2.089844-5.046875 2.089844c-2.132813 0-4.050781-.9375-5.359375-2.417969-2.5625-2.90625-6.128906-4.71875-10-4.71875h-30.125c-3.871094 0-7.4375 1.8125-10 4.71875-1.308594 1.480469-3.226562 2.417969-5.359375 2.417969-3.945313 0-7.136719-3.191406-7.136719-7.136719v-44.78125h-18.246094c-1.699218 0-3.316406-.734375-4.429687-2.019531-12.035156-13.9375-19.304687-32.089844-19.304687-51.953125 0-44.113281 35.910156-79.847657 80.105468-79.539063 43.351563.296875 78.726563 35.726563 78.972656 79.074219zm0 0" fill="#fcd79f"/><path d="m234.304688 304.523438c0 4.273437-3.460938 7.722656-7.726563 7.722656h-8.136719v-15.449219h8.136719c4.265625 0 7.726563 3.460937 7.726563 7.726563zm0 0" fill="#e8b76b"/><path d="m293.558594 296.796875v15.449219h-8.136719c-4.265625 0-7.726563-3.449219-7.726563-7.722656 0-4.265626 3.460938-7.726563 7.726563-7.726563zm0 0" fill="#e8b76b"/><path d="m244.550781 327.015625c-4.269531 0-7.726562-3.460937-7.726562-7.726563v-8.390624c0-4.269532 3.457031-7.726563 7.726562-7.726563 4.265625 0 7.722657 3.457031 7.722657 7.726563v8.390624c0 4.265626-3.457032 7.726563-7.722657 7.726563zm0 0" fill="#e8b76b"/><path d="m267.449219 327.015625c-4.265625 0-7.722657-3.460937-7.722657-7.726563v-8.390624c0-4.269532 3.457032-7.726563 7.722657-7.726563 4.269531 0 7.726562 3.457031 7.726562 7.726563v8.390624c.003907 4.265626-3.457031 7.726563-7.726562 7.726563zm0 0" fill="#e8b76b"/><path d="m324.589844 286.824219c-1.976563 0-3.953125-.757813-5.460938-2.265625l-104.929687-104.925782c-3.015625-3.015624-3.015625-7.90625 0-10.925781 3.019531-3.015625 7.910156-3.015625 10.929687 0l104.925782 104.925781c3.015624 3.015626 3.015624 7.910157 0 10.925782-1.511719 1.507812-3.488282 2.265625-5.464844 2.265625zm0 0" fill="#5b5555"/><path d="m306.699219 235.410156c4.945312 11.832032-.640625 25.433594-12.472657 30.378906-11.835937 4.945313-25.4375-.640624-30.382812-12.472656-4.945312-11.835937 3.023438-19.734375 14.855469-24.679687 11.835937-4.941407 23.054687-5.0625 28 6.773437zm0 0" fill="#756f6f"/><path d="m240.679688 250.257812c0 8.761719-7.101563 15.863282-15.863282 15.863282-8.761718 0-15.863281-7.101563-15.863281-15.863282 0-8.761718 7.101563-15.863281 15.863281-15.863281 8.761719 0 15.863282 7.101563 15.863282 15.863281zm0 0" fill="#5b5555"/><path d="m308.199219 125.191406c-.90625 0-1.828125-.160156-2.726563-.5-15.792968-5.953125-32.4375-8.96875-49.472656-8.96875s-33.679688 3.015625-49.472656 8.96875c-3.992188 1.503906-8.453125-.511718-9.957032-4.503906-1.503906-3.992188.511719-8.449219 4.503907-9.957031 17.542969-6.609375 36.023437-9.960938 54.925781-9.960938s37.382812 3.351563 54.925781 9.960938c3.992188 1.507812 6.007813 5.964843 4.503907 9.957031-1.167969 3.09375-4.109376 5.003906-7.230469 5.003906zm0 0" fill="#c86d3d"/><path d="m256 411.730469c-18.902344 0-37.382812-3.351563-54.925781-9.960938-3.992188-1.507812-6.007813-5.964843-4.503907-9.957031 1.503907-3.992188 5.964844-6.011719 9.957032-4.503906 15.792968 5.953125 32.4375 8.96875 49.472656 8.96875s33.679688-3.015625 49.472656-8.96875c3.992188-1.503906 8.453125.511718 9.957032 4.503906 1.503906 3.992188-.511719 8.449219-4.503907 9.957031-17.542969 6.609375-36.023437 9.960938-54.925781 9.960938zm0 0" fill="#c86d3d"/><path d="m394.535156 315.929688c-.902344 0-1.824218-.160157-2.722656-.5-3.992188-1.503907-6.007812-5.960938-4.503906-9.953126 5.953125-15.792968 8.972656-32.441406 8.972656-49.476562s-3.019531-33.679688-8.972656-49.472656c-1.503906-3.992188.511718-8.449219 4.503906-9.957032 3.992188-1.503906 8.453125.515626 9.957031 4.507813 6.613281 17.539063 9.964844 36.019531 9.964844 54.921875s-3.351563 37.382812-9.964844 54.925781c-1.167969 3.09375-4.109375 5.003907-7.234375 5.003907zm0 0" fill="#c86d3d"/><path d="m117.464844 315.929688c-3.125 0-6.066406-1.910157-7.234375-5.003907-6.609375-17.542969-9.960938-36.023437-9.960938-54.925781s3.351563-37.382812 9.960938-54.925781c1.503906-3.992188 5.964843-6.007813 9.957031-4.503907 3.992188 1.503907 6.007812 5.960938 4.503906 9.957032-5.953125 15.792968-8.96875 32.4375-8.96875 49.472656s3.015625 33.679688 8.96875 49.472656c1.503906 3.996094-.511718 8.453125-4.503906 9.957032-.898438.335937-1.820312.5-2.722656.5zm0 0" fill="#c86d3d"/></svg>