<svg height="512pt" viewBox="-16 0 512 512" width="512pt" xmlns="http://www.w3.org/2000/svg"><path d="m98.949219 149.160156c-6.378907 33.78125-9.808594 69.660156-9.808594 106.839844 0 54.25 7.308594 105.71875 20.417969 151.949219 7.332031 25.878906 16.480468 50.121093 27.179687 72.28125 5.382813 11.140625 11.140625 21.738281 17.273438 31.769531h-77.191407c-4.480468 0-8.648437-2.300781-11.019531-6.089844-5.140625-8.210937-10.019531-16.78125-14.652343-25.679687-11.488282-22.160157-21.328126-46.402344-29.21875-72.28125-14.070313-46.230469-21.929688-97.699219-21.929688-151.949219 0-37.179688 3.679688-73.058594 10.539062-106.839844 5.160157-25.390625 12.101563-49.589844 20.609376-72.28125 9.640624-25.707031 21.3125-49.480468 34.652343-70.789062 2.371094-3.789063 6.539063-6.089844 11.019531-6.089844h77.191407c-13.953125 22.851562-26.042969 48.691406-35.882813 76.878906-7.917968 22.691406-14.378906 46.890625-19.179687 72.28125zm0 0" fill="#ac5e33"/><path d="m480.199219 256c0 54.25-7.859375 105.71875-21.929688 151.949219-7.890625 25.878906-17.730469 50.121093-29.21875 72.28125-4.628906 8.898437-9.511719 17.46875-14.652343 25.679687-2.367188 3.789063-6.539063 6.089844-11.019532 6.089844h-77.1875c6.128906-10.03125 11.886719-20.628906 17.269532-31.769531 10.699218-22.160157 19.847656-46.402344 27.179687-72.28125 13.109375-46.230469 20.417969-97.699219 20.417969-151.949219 0-37.179688-3.429688-73.058594-9.808594-106.839844-4.800781-25.390625-11.261719-49.589844-19.179688-72.28125-9.839843-28.1875-21.929687-54.027344-35.878906-76.878906h77.1875c4.480469 0 8.652344 2.300781 11.019532 6.089844 13.339843 21.308594 25.011718 45.082031 34.652343 70.789062 8.507813 22.691406 15.449219 46.890625 20.609375 72.28125 6.859375 33.78125 10.539063 69.660156 10.539063 106.839844zm0 0" fill="#ac5e33"/><path d="m468.933594 145.769531c-5.074219-24.152343-11.753906-47.21875-19.882813-68.886719h-417.902343c-8.128907 21.667969-14.808594 44.734376-19.882813 68.886719zm0 0" fill="#9e552e"/><path d="m430.945312 476.460938c10.675782-21.136719 19.878907-44.082032 27.328126-68.507813h-436.34375c7.449218 24.425781 16.648437 47.371094 27.328124 68.507813zm0 0" fill="#9e552e"/><path d="m480.203125 256c0 96.820312-25.023437 184.785156-65.800781 249.914062-2.375 3.789063-6.542969 6.085938-11.019532 6.085938h-26.621093c4.480469 0 8.632812-2.296875 11.007812-6.085938 40.789063-65.128906 65.8125-153.09375 65.8125-249.914062s-25.023437-184.785156-65.8125-249.914062c-2.375-3.789063-6.527343-6.085938-11.007812-6.085938h26.621093c4.476563 0 8.644532 2.296875 11.019532 6.085938 40.777344 65.128906 65.800781 153.09375 65.800781 249.914062zm0 0" fill="#9e552e"/><path d="m199.269531 149.160156c-1.839843 33.78125-2.839843 69.660156-2.839843 106.839844 0 54.25 2.109374 105.71875 5.898437 151.949219 2.132813 25.878906 4.78125 50.121093 7.871094 72.28125 1.5625 11.140625 3.230469 21.738281 5 31.769531h-67.621094c-6.578125-10.03125-12.769531-20.628906-18.546875-31.769531-11.5-22.160157-21.339844-46.402344-29.222656-72.28125-14.078125-46.230469-21.9375-97.699219-21.9375-151.949219 0-37.179688 3.6875-73.058594 10.550781-106.839844 5.148437-25.390625 12.089844-49.589844 20.597656-72.28125 10.582031-28.1875 23.570313-54.027344 38.558594-76.878906h67.621094c-4.039063 22.851562-7.539063 48.691406-10.378907 76.878906-2.300781 22.691406-4.160156 46.890625-5.550781 72.28125zm0 0" fill="#db885d"/><path d="m402.328125 256c0 54.25-7.859375 105.71875-21.9375 151.949219-7.878906 25.878906-17.71875 50.121093-29.21875 72.28125-5.78125 11.140625-11.972656 21.738281-18.550781 31.769531h-67.621094c1.769531-10.03125 3.441406-20.628906 5-31.769531 3.089844-22.160157 5.738281-46.402344 7.871094-72.28125 3.789062-46.230469 5.898437-97.699219 5.898437-151.949219 0-37.179688-1-73.058594-2.839843-106.839844-1.390626-25.390625-3.25-49.589844-5.550782-72.28125-2.839844-28.1875-6.339844-54.027344-10.378906-76.878906h67.621094c14.988281 22.851562 27.980468 48.691406 38.558594 76.878906 8.511718 22.691406 15.449218 46.890625 20.601562 72.28125 6.859375 33.78125 10.546875 69.660156 10.546875 106.839844zm0 0" fill="#db885d"/><path d="m391.0625 145.769531c-5.074219-24.152343-11.753906-47.21875-19.882812-68.886719h-262.160157c-8.125 21.667969-14.808593 44.734376-19.878906 68.886719zm0 0" fill="#c86d3d"/><path d="m353.074219 476.460938c10.675781-21.136719 19.875-44.082032 27.316406-68.507813h-280.582031c7.441406 24.425781 16.644531 47.371094 27.320312 68.507813zm0 0" fill="#c86d3d"/><path d="m297.203125 256c0 54.25-2.761719 105.71875-7.714844 151.953125-2.785156 25.875-6.246093 50.117187-10.292969 72.277344-2.03125 11.132812-4.214843 21.734375-6.53125 31.769531h-65.128906c-2.316406-10.035156-4.5-20.636719-6.53125-31.769531-4.046875-22.160157-7.507812-46.402344-10.289062-72.277344-4.957032-46.234375-7.71875-97.703125-7.71875-151.953125 0-37.179688 1.300781-73.058594 3.710937-106.839844 1.8125-25.394531 4.253907-49.59375 7.261719-72.277344 3.707031-28.195312 8.28125-54.035156 13.566406-76.882812h65.128906c5.285157 22.847656 9.859376 48.6875 13.566407 76.882812 3.007812 22.683594 5.453125 46.882813 7.265625 72.277344 2.410156 33.78125 3.707031 69.660156 3.707031 106.839844zm0 0" fill="#ac5e33"/><path d="m293.242188 145.769531c-1.789063-24.152343-4.136719-47.21875-7.011719-68.886719h-92.261719c-2.871094 21.667969-5.222656 44.734376-7.007812 68.886719zm0 0" fill="#9e552e"/><path d="m279.863281 476.460938c3.757813-21.136719 6.996094-44.082032 9.625-68.507813h-98.773437c2.625 24.425781 5.863281 47.371094 9.621094 68.507813zm0 0" fill="#9e552e"/><path d="m458.675781 126.714844h-437.152343c-8.808594 0-15.054688-8.589844-12.347657-16.972656l14.972657-46.324219c1.730468-5.359375 6.71875-8.988281 12.347656-8.988281h407.207031c5.628906 0 10.617187 3.628906 12.351563 8.988281l14.96875 46.324219c2.710937 8.382812-3.539063 16.972656-12.347657 16.972656zm0 0" fill="#898383"/><path d="m458.671875 126.710938h-31.148437c8.8125 0 15.066406-8.582032 12.355468-16.964844l-14.980468-46.332032c-1.722657-5.347656-6.707032-8.980468-12.339844-8.980468h31.144531c5.636719 0 10.617187 3.632812 12.34375 8.980468l14.976563 46.332032c2.714843 8.382812-3.539063 16.964844-12.351563 16.964844zm0 0" fill="#756f6f"/><path d="m21.523438 385.285156h437.152343c8.808594 0 15.058594 8.589844 12.351563 16.972656l-14.972656 46.324219c-1.730469 5.359375-6.71875 8.988281-12.351563 8.988281h-407.207031c-5.628906 0-10.617188-3.628906-12.347656-8.988281l-14.972657-46.324219c-2.710937-8.382812 3.539063-16.972656 12.347657-16.972656zm0 0" fill="#898383"/><path d="m471.027344 402.253906-14.976563 46.332032c-1.726562 5.347656-6.710937 8.980468-12.34375 8.980468h-31.148437c5.632812 0 10.617187-3.632812 12.34375-8.980468l14.976562-46.332032c2.710938-8.382812-3.542968-16.964844-12.355468-16.964844h31.148437c8.8125 0 15.066406 8.582032 12.355469 16.964844zm0 0" fill="#756f6f"/><g fill="#b9acac"><path d="m102.394531 429.230469c-4.269531 0-7.726562-3.460938-7.726562-7.726563v-.148437c0-4.269531 3.457031-7.726563 7.726562-7.726563 4.265625 0 7.722657 3.457032 7.722657 7.726563v.148437c0 4.265625-3.457032 7.726563-7.722657 7.726563zm0 0"/><path d="m240.101562 429.230469c-4.269531 0-7.726562-3.460938-7.726562-7.726563v-.148437c0-4.269531 3.457031-7.726563 7.726562-7.726563 4.265626 0 7.722657 3.457032 7.722657 7.726563v.148437c.003906 4.265625-3.457031 7.726563-7.722657 7.726563zm0 0"/><path d="m377.808594 429.230469c-4.269532 0-7.726563-3.460938-7.726563-7.726563v-.148437c0-4.269531 3.460938-7.726563 7.726563-7.726563s7.726562 3.457032 7.726562 7.726563v.148437c0 4.265625-3.460937 7.726563-7.726562 7.726563zm0 0"/><path d="m102.394531 98.078125c-4.269531 0-7.726562-3.460937-7.726562-7.726563v-.152343c0-4.265625 3.457031-7.722657 7.726562-7.722657 4.265625 0 7.722657 3.457032 7.722657 7.722657v.152343c0 4.265626-3.457032 7.726563-7.722657 7.726563zm0 0"/><path d="m240.101562 98.078125c-4.269531 0-7.726562-3.460937-7.726562-7.726563v-.152343c0-4.265625 3.457031-7.722657 7.726562-7.722657 4.265626 0 7.722657 3.457032 7.722657 7.722657v.152343c.003906 4.265626-3.457031 7.726563-7.722657 7.726563zm0 0"/><path d="m377.808594 98.078125c-4.269532 0-7.726563-3.460937-7.726563-7.726563v-.152343c0-4.265625 3.460938-7.722657 7.726563-7.722657s7.726562 3.457032 7.726562 7.722657v.152343c0 4.265626-3.460937 7.726563-7.726562 7.726563zm0 0"/></g></svg>