<svg height="512pt" viewBox="0 0 512 512" width="512pt" xmlns="http://www.w3.org/2000/svg"><path d="m379.199219 155.9375-90.152344 90.152344-13.679687 13.691406-5.675782 5.664062-8.015625 8.027344-109.507812 109.507813-19.367188-19.367188 227.03125-227.03125zm0 0" fill="#00b7a0"/><path d="m344.875 151.539062c6.972656 5.925782 13.328125 12.539063 18.984375 19.738282l15.339844-15.339844-19.367188-19.355469zm0 0" fill="#009a8d"/><path d="m151.539062 344.875-18.738281 18.738281 19.367188 19.367188 19.109375-19.109375c-7.199219-5.667969-13.8125-12.023438-19.738282-18.996094zm0 0" fill="#009a8d"/><path d="m379.199219 363.613281-19.367188 19.367188-109.507812-109.507813-8.015625-8.027344-5.675782-5.664062-13.679687-13.691406-90.152344-90.152344 19.367188-19.355469zm0 0" fill="#00b7a0"/><path d="m340.722656 363.871094 19.109375 19.109375 19.367188-19.367188-18.738281-18.738281c-5.925782 6.972656-12.539063 13.328125-19.738282 18.996094zm0 0" fill="#009a8d"/><path d="m167.125 151.539062-14.957031-14.957031-19.367188 19.355469 15.339844 15.339844c5.65625-7.199219 12.011719-13.8125 18.984375-19.738282zm0 0" fill="#009a8d"/><path d="m272.484375 73.390625h-32.96875l-6.488281-47.035156c-1.921875-13.933594 8.90625-26.355469 22.972656-26.355469s24.894531 12.421875 22.972656 26.355469zm0 0" fill="#fcd79f"/><path d="m279.1875 23.148438c0 1.0625-.070312 2.121093-.214844 3.203124l-6.488281 47.039063h-18.542969l6.488282-47.039063c.144531-1.082031.214843-2.140624.214843-3.203124 0-9.363282-5.664062-17.617188-13.917969-21.222657 2.835938-1.234375 5.964844-1.925781 9.273438-1.925781 12.96875 0 23.1875 10.570312 23.1875 23.148438zm0 0" fill="#e8b76b"/><path d="m281.964844 51.59375h-51.929688c-4.265625 0-7.722656-3.460938-7.722656-7.726562 0-4.265626 3.457031-7.726563 7.722656-7.726563h51.929688c4.265625 0 7.722656 3.460937 7.722656 7.726563 0 4.265624-3.457031 7.726562-7.722656 7.726562zm0 0" fill="#ac5e33"/><path d="m239.515625 438.609375h32.96875l6.488281 47.035156c1.921875 13.933594-8.90625 26.355469-22.972656 26.355469s-24.894531-12.421875-22.972656-26.355469zm0 0" fill="#fcd79f"/><path d="m256 512c-3.308594 0-6.4375-.691406-9.273438-1.925781 9.179688-4.007813 15.164063-13.773438 13.703126-24.425781l-6.492188-47.039063h18.542969l6.492187 47.039063c1.917969 13.925781-8.910156 26.351562-22.972656 26.351562zm0 0" fill="#e8b76b"/><path d="m281.964844 475.859375h-51.929688c-4.265625 0-7.722656-3.457031-7.722656-7.726563 0-4.265624 3.457031-7.726562 7.722656-7.726562h51.929688c4.265625 0 7.722656 3.460938 7.722656 7.726562 0 4.269532-3.457031 7.726563-7.722656 7.726563zm0 0" fill="#ac5e33"/><path d="m396.777344 138.53125-23.308594-23.308594 28.671875-37.847656c8.492187-11.210938 24.933594-12.339844 34.878906-2.394531 9.945313 9.945312 8.816407 26.386719-2.394531 34.878906zm0 0" fill="#fcd79f"/><path d="m443.8125 91.367188c0 6.964843-3.113281 13.898437-9.191406 18.492187l-37.847656 28.667969-11.9375-11.9375 34.335937-26.003906c6.074219-4.59375 9.1875-11.527344 9.1875-18.492188 0-4.789062-1.472656-9.601562-4.460937-13.679688 4.78125.679688 9.40625 2.855469 13.125 6.5625 4.554687 4.5625 6.789062 10.488282 6.789062 16.390626zm0 0" fill="#e8b76b"/><path d="m424.359375 132.082031c-1.976563 0-3.957031-.753906-5.464844-2.261719l-36.714843-36.714843c-3.019532-3.019531-3.019532-7.910157 0-10.929688 3.015624-3.015625 7.910156-3.015625 10.925781 0l36.71875 36.71875c3.015625 3.015625 3.015625 7.90625 0 10.925781-1.511719 1.507813-3.488281 2.261719-5.464844 2.261719zm0 0" fill="#ac5e33"/><path d="m115.222656 373.46875 23.308594 23.308594-28.671875 37.847656c-8.492187 11.210938-24.933594 12.339844-34.878906 2.394531-9.945313-9.945312-8.816407-26.386719 2.394531-34.878906zm0 0" fill="#fcd79f"/><path d="m124.355469 432.085938c-1.976563 0-3.953125-.753907-5.460938-2.261719l-36.71875-36.71875c-3.015625-3.015625-3.015625-7.90625 0-10.925781 3.019531-3.015626 7.910157-3.015626 10.929688 0l36.714843 36.714843c3.019532 3.019531 3.019532 7.910157 0 10.929688-1.507812 1.507812-3.484374 2.261719-5.464843 2.261719zm0 0" fill="#ac5e33"/><path d="m242.308594 99.238281h27.382812v321.074219h-27.382812zm0 0" fill="#64e1c5"/><path d="m242.308594 392.539062v27.773438h27.382812v-27.773438c-4.503906.453126-9.078125.679688-13.691406.679688s-9.1875-.226562-13.691406-.679688zm0 0" fill="#00d2b4"/><path d="m242.308594 119.460938c4.503906-.453126 9.078125-.679688 13.691406-.679688s9.1875.226562 13.691406.679688v-20.222657h-27.382812zm0 0" fill="#00d2b4"/><path d="m95.46875 246.089844h321.0625v27.382812h-321.0625zm0 0" fill="#64e1c5"/><path d="m119.140625 246.089844h-23.671875v27.382812h24.414062c-.722656-5.71875-1.101562-11.558594-1.101562-17.472656 0-3.339844.121094-6.632812.359375-9.910156zm0 0" fill="#00d2b4"/><path d="m392.859375 246.089844c.238281 3.277344.363281 6.574218.363281 9.910156 0 5.914062-.382812 11.753906-1.105468 17.472656h24.417968v-27.382812zm0 0" fill="#00d2b4"/><path d="m438.609375 272.484375v-32.96875l47.035156-6.488281c13.933594-1.921875 26.355469 8.90625 26.355469 22.972656s-12.421875 24.894531-26.355469 22.972656zm0 0" fill="#fcd79f"/><path d="m512 256c0 12.96875-10.570312 23.1875-23.148438 23.1875-1.0625 0-2.121093-.070312-3.203124-.214844l-7.765626-1.070312c8.972657-3.121094 15.574219-11.652344 15.574219-21.902344s-6.601562-18.78125-15.574219-21.902344l7.765626-1.070312c13.925781-1.917969 26.351562 8.910156 26.351562 22.972656zm0 0" fill="#e8b76b"/><path d="m468.132812 289.6875c-4.265624 0-7.726562-3.457031-7.726562-7.722656v-51.925782c0-4.269531 3.460938-7.726562 7.726562-7.726562 4.269532 0 7.726563 3.457031 7.726563 7.726562v51.925782c0 4.265625-3.457031 7.722656-7.726563 7.722656zm0 0" fill="#ac5e33"/><path d="m73.390625 239.515625v32.96875l-47.035156 6.488281c-13.933594 1.921875-26.355469-8.90625-26.355469-22.972656s12.421875-24.894531 26.355469-22.972656zm0 0" fill="#fcd79f"/><path d="m43.867188 289.6875c-4.269532 0-7.726563-3.457031-7.726563-7.722656v-51.925782c0-4.269531 3.457031-7.726562 7.726563-7.726562 4.265624 0 7.726562 3.457031 7.726562 7.726562v51.925782c0 4.265625-3.460938 7.722656-7.726562 7.722656zm0 0" fill="#ac5e33"/><path d="m373.46875 396.777344 23.308594-23.308594 37.847656 28.671875c11.210938 8.492187 12.339844 24.933594 2.394531 34.878906-9.945312 9.945313-26.386719 8.816407-34.878906-2.394531zm0 0" fill="#fcd79f"/><path d="m437.023438 437.023438c-3.71875 3.707031-8.34375 5.882812-13.125 6.5625 7.34375-10.023438 5.523437-24.414063-4.726563-32.175782l-34.335937-26 11.9375-11.941406 37.851562 28.671875c11.21875 8.488281 12.339844 24.929687 2.398438 34.882813zm0 0" fill="#e8b76b"/><path d="m387.644531 432.085938c-1.980469 0-3.957031-.753907-5.464843-2.261719-3.019532-3.019531-3.019532-7.910157 0-10.929688l36.714843-36.714843c3.019531-3.015626 7.910157-3.015626 10.929688 0 3.015625 3.015624 3.015625 7.910156 0 10.925781l-36.71875 36.71875c-1.507813 1.507812-3.484375 2.261719-5.460938 2.261719zm0 0" fill="#ac5e33"/><path d="m138.53125 115.222656-23.308594 23.308594-37.847656-28.671875c-11.210938-8.492187-12.339844-24.933594-2.394531-34.878906 9.945312-9.945313 26.386719-8.816407 34.878906 2.394531zm0 0" fill="#fcd79f"/><path d="m87.640625 132.082031c-1.976563 0-3.953125-.753906-5.464844-2.261719-3.015625-3.015624-3.015625-7.910156 0-10.925781l36.71875-36.71875c3.015625-3.015625 7.90625-3.015625 10.925781 0 3.019532 3.019531 3.019532 7.910157 0 10.929688l-36.714843 36.714843c-1.507813 1.507813-3.488281 2.261719-5.464844 2.261719zm0 0" fill="#ac5e33"/><path d="m256 69.429688c-103.046875 0-186.570312 83.523437-186.570312 186.570312s83.523437 186.570312 186.570312 186.570312 186.570312-83.523437 186.570312-186.570312-83.523437-186.570312-186.570312-186.570312zm0 338.210937c-83.753906 0-151.640625-67.886719-151.640625-151.640625s67.886719-151.640625 151.640625-151.640625 151.640625 67.886719 151.640625 151.640625-67.886719 151.640625-151.640625 151.640625zm0 0" fill="#ac5e33"/><path d="m292.832031 256c0 20.339844-16.492187 36.832031-36.832031 36.832031s-36.832031-16.492187-36.832031-36.832031 16.492187-36.832031 36.832031-36.832031 36.832031 16.492187 36.832031 36.832031zm0 0" fill="#fcd79f"/><path d="m292.828125 256c0 20.347656-16.480469 36.828125-36.828125 36.828125-4.050781 0-7.933594-.648437-11.570312-1.851563 14.671874-4.855468 25.261718-18.667968 25.261718-34.976562s-10.589844-30.121094-25.261718-34.976562c3.636718-1.203126 7.519531-1.851563 11.570312-1.851563 20.347656 0 36.828125 16.480469 36.828125 36.828125zm0 0" fill="#fac574"/></svg>