<svg height="512pt" viewBox="-49 0 512 512.001" width="512pt" xmlns="http://www.w3.org/2000/svg"><path d="m398.992188 343.90625c0 124.671875-106.214844 143.863281-160.597657 145.511719-18.726562.566406-31.304687-.9375-31.304687-.9375v-114.699219h16.132812c5.777344 7.136719 12.515625 13.101562 19.871094 17.851562 6.171875 3.988282 12.792969 7.128907 19.65625 9.375 5.757812 1.886719 11.679688 3.140626 17.675781 3.761719 19.882813 2.058594 40.476563-2.917969 57.753907-15.578125 26.960937-19.769531 30.617187-45.285156 30.617187-45.285156zm0 0" fill="#b9acac"/><path d="m280.425781 404.769531c-3.636719 3.613281-7.167969 7.652344-10.816406 11.804688-13.804687 15.75-30.523437 34.820312-62.519531 39.660156v-15.65625c24.910156-4.535156 38.085937-19.5625 50.898437-34.183594 1.566407-1.792969 3.152344-3.59375 4.761719-5.386719 5.757812 1.886719 11.679688 3.140626 17.675781 3.761719zm0 0" fill="#9e9797"/><path d="m223.222656 373.78125h-16.132812v114.699219s12.578125 1.503906 31.304687.9375c3.070313-8.765625 4.699219-18.058594 4.699219-27.472657v-70.3125c-7.355469-4.75-14.09375-10.710937-19.871094-17.851562zm0 0" fill="#9e9797"/><path d="m329.546875 468.1875c-22.65625 11.703125-47.449219 17.210938-68.765625 19.632812v-10.21875c0-19.347656 15.679688-35.027343 35.027344-35.027343 9.671875 0 18.429687 3.925781 24.765625 10.261719 4.203125 4.203124 7.34375 9.457031 8.972656 15.351562zm0 0" fill="#756f6f"/><path d="m377.359375 368.804688c20.332031 0 36.816406-16.484376 36.816406-36.816407v-10.53125c0-26.5-21.484375-47.984375-47.984375-47.984375h-16.179687c-5.230469 0-9.46875 4.238282-9.46875 9.46875v49.046875c0 20.332031 16.484375 36.816407 36.816406 36.816407zm0 0" fill="#b4cceb"/><path d="m414.175781 321.457031v10.53125c0 20.335938-16.484375 36.816407-36.820312 36.816407-3.191407 0-6.28125-.402344-9.230469-1.171876 15.855469-4.089843 27.578125-18.503906 27.578125-35.644531v-10.527343c0-25.984376-20.632813-47.132813-46.417969-47.957032.238282-.019531.484375-.03125.730469-.03125h16.175781c26.503906 0 47.984375 21.476563 47.984375 47.984375zm0 0" fill="#85afe2"/><path d="m207.089844 373.78125v114.699219s-12.578125 1.503906-31.308594.9375c-54.382812-1.648438-160.59375-20.839844-160.59375-145.511719h30.195312s3.65625 25.515625 30.617188 45.285156c12.183594 8.933594 26.042969 14.042969 40.125 15.546875 5.644531.605469 11.332031.636719 16.964844.089844 13.382812-1.273437 26.457031-5.734375 37.996094-13.195313 7.355468-4.75 14.089843-10.714843 19.871093-17.851562zm0 0" fill="#b9acac"/><path d="m207.089844 440.578125v15.660156c-4.96875.75-10.3125 1.164063-16.0625 1.164063h-.082032c-21.570312-.023438-63.65625-21.699219-74.820312-52.664063 5.644531.609375 11.332031.640625 16.964844.09375 11.3125 20.910157 42.332031 37.105469 57.867187 37.117188h.070313c5.863281 0 11.1875-.484375 16.0625-1.371094zm0 0" fill="#9e9797"/><path d="m190.957031 373.78125c-5.78125 7.140625-12.519531 13.105469-19.875 17.851562v70.3125c0 9.414063 1.628907 18.707032 4.699219 27.472657 18.730469.566406 31.308594-.9375 31.308594-.9375v-114.699219zm0 0" fill="#9e9797"/><path d="m84.628906 468.1875c22.65625 11.703125 47.453125 17.210938 68.765625 19.632812v-10.21875c0-19.347656-15.679687-35.027343-35.023437-35.027343-9.675782 0-18.429688 3.925781-24.765625 10.261719-4.203125 4.203124-7.347657 9.457031-8.976563 15.351562zm0 0" fill="#756f6f"/><path d="m36.816406 368.804688c-20.332031 0-36.816406-16.484376-36.816406-36.816407v-10.53125c0-26.5 21.484375-47.984375 47.988281-47.984375h16.175781c5.230469 0 9.46875 4.238282 9.46875 9.46875v49.046875c0 20.332031-16.480468 36.816407-36.816406 36.816407zm0 0" fill="#b4cceb"/><path d="m73.636719 282.9375v49.046875c0 20.335937-16.480469 36.820313-36.816407 36.820313-2.875 0-5.675781-.328126-8.355468-.957032 16.308594-3.78125 28.453125-18.398437 28.453125-35.863281v-49.046875c0-5.140625-4.109375-9.332031-9.230469-9.464844h16.472656c5.234375 0 9.476563 4.242188 9.476563 9.464844zm0 0" fill="#85afe2"/><path d="m207.078125 0c-30.132813 0-54.558594 24.425781-54.558594 54.570312 0 5.878907.929688 11.535157 2.660157 16.84375 1.617187 4.996094 3.933593 9.683594 6.851562 13.925782 5.796875 8.480468 13.9375 15.25 23.476562 19.359375v357.246093c0 19.714844 8.292969 37.496094 21.582032 50.054688 13.289062-12.558594 21.582031-30.339844 21.582031-50.054688v-357.25c19.398437-8.363281 32.984375-27.660156 32.984375-50.128906 0-30.140625-24.425781-54.566406-54.578125-54.566406zm0 34.160156c11.269531 0 20.417969 9.140625 20.417969 20.410156 0 11.269532-9.148438 20.40625-20.417969 20.40625-3.398437 0-6.601563-.835937-9.414063-2.308593-5.089843-2.65625-8.933593-7.40625-10.367187-13.101563-.398437-1.597656-.617187-3.277344-.617187-4.996094 0-11.269531 9.148437-20.410156 20.398437-20.410156zm0 0" fill="#cdbfbb"/><g fill="#b9acac"><path d="m228.671875 432.851562v17.246094c-6.347656 2.769532-13.476563 4.914063-21.582031 6.136719-4.96875.753906-10.3125 1.164063-16.0625 1.164063h-.082032c-1.691406 0-3.511718-.132813-5.4375-.390626v-15.597656c1.964844.351563 3.789063.539063 5.449219.539063h.070313c5.863281 0 11.1875-.484375 16.0625-1.371094 8.375-1.523437 15.421875-4.234375 21.582031-7.726563zm0 0"/><path d="m228.671875 235.027344v16.347656c-14.589844 4.644531-29.25 8.085938-43.164063 9.242188v-15.558594c13.667969-1.308594 28.460938-5.089844 43.164063-10.03125zm0 0"/><path d="m197.664062 72.667969c-1.628906 1.792969-4.101562 2.78125-6.707031 2.441406-7.128906-.945313-17.78125 2.84375-28.929687 10.230469-2.914063-4.242188-5.230469-8.929688-6.851563-13.925782 10.808594-6.839843 22.171875-11.40625 32.121094-11.847656 1.433594 5.695313 5.277344 10.445313 10.367187 13.101563zm0 0"/><path d="m185.507812 123.796875h43.164063v91.808594h-43.164063zm0 0"/></g><path d="m74.648438 104.078125h264.878906v34.203125h-264.878906zm0 0" fill="#d8cdca"/><path d="m144.144531 104.078125c-.597656.957031-1.132812 1.917969-1.628906 2.855469-4.71875 9.042968-8.054687 19.789062-9.929687 31.347656h-15.554688c1.769531-12.371094 5.023438-24.066406 9.683594-34.203125zm0 0" fill="#cdbfbb"/><path d="m391.039062 121.179688c0 17.664062-14.316406 31.980468-31.980468 31.980468-17.664063 0-31.980469-14.316406-31.980469-31.980468 0-17.660157 14.316406-31.980469 31.980469-31.980469 17.664062 0 31.980468 14.320312 31.980468 31.980469zm0 0" fill="#b4cceb"/><path d="m391.035156 121.179688c0 17.667968-14.316406 31.984374-31.980468 31.984374-3.140626 0-6.179688-.453124-9.054688-1.308593 13.257812-3.890625 22.925781-16.15625 22.925781-30.675781 0-14.515626-9.667969-26.78125-22.925781-30.671876 2.875-.855468 5.914062-1.308593 9.054688-1.308593 17.664062 0 31.980468 14.316406 31.980468 31.980469zm0 0" fill="#85afe2"/><path d="m87.097656 121.179688c0 17.664062-14.316406 31.980468-31.980468 31.980468-17.660157 0-31.980469-14.316406-31.980469-31.980468 0-17.660157 14.320312-31.980469 31.980469-31.980469 17.664062 0 31.980468 14.320312 31.980468 31.980469zm0 0" fill="#b4cceb"/><path d="m87.09375 121.179688c0 17.667968-14.3125 31.984374-31.972656 31.984374-3.148438 0-6.1875-.453124-9.054688-1.308593 13.25-3.902344 22.917969-16.15625 22.917969-30.675781 0-14.515626-9.664063-26.769532-22.914063-30.671876 2.863282-.855468 5.902344-1.308593 9.054688-1.308593 17.65625 0 31.96875 14.316406 31.96875 31.980469zm0 0" fill="#85afe2"/><path d="m234.253906 198.453125h-54.332031c-8.816406 0-15.964844-7.148437-15.964844-15.96875s7.148438-15.96875 15.964844-15.96875h54.332031c8.820313 0 15.96875 7.148437 15.96875 15.96875s-7.148437 15.96875-15.96875 15.96875zm0 0" fill="#85afe2"/><path d="m250.222656 182.484375c0 4.410156-1.78125 8.40625-4.675781 11.289063-2.894531 2.886718-6.882813 4.679687-11.292969 4.679687h-18.871094c4.40625 0 8.394532-1.792969 11.289063-4.679687 2.894531-2.882813 4.675781-6.878907 4.675781-11.289063 0-8.820313-7.148437-15.96875-15.964844-15.96875h18.871094c8.820313 0 15.96875 7.148437 15.96875 15.96875zm0 0" fill="#5592d7"/><path d="m332.460938 261.152344c-20.191407 12.691406-46.894532 21.992187-68.351563 29.460937-7.789063 2.710938-14.9375 5.203125-21.015625 7.5625-4.203125 1.636719-7.890625 3.203125-10.921875 4.738281-.441406.226563-1.863281.816407-3.5 1.441407v-16.894531c4.179687-1.914063 9.035156-3.820313 14.421875-5.800782 4.914062-1.8125 10.261719-3.664062 15.9375-5.644531 40.785156-14.195313 96.640625-33.644531 91.035156-68.578125-1.007812-6.253906-3.84375-7.796875-4.777344-8.3125-4.832031-2.636719-14.144531-1.527344-24.304687 2.902344-5.5 2.390625-11.949219 5.429687-19.429687 8.953125-33.859376 15.949219-80.546876 37.929687-120.304688 39.867187-1.875.09375-3.726562.144532-5.5625.144532-1.542969 0-3.078125-.03125-4.605469-.101563-10.15625-.453125-19.695312-2.460937-28.277343-6.511719-16.824219-7.941406-28.132813-22.902344-33.613282-44.472656-8.6875-34.160156-5.296875-73.460938 8.632813-100.125 13.207031-25.269531 50.507812-53.320312 75.171875-50.035156 4.230468.566406 7.210937 4.449218 6.644531 8.675781-.566406 4.234375-4.449219 7.199219-8.683594 6.644531-7.726562-1.03125-19.605469 3.511719-31.75 12.164063-11.953125 8.511719-22.550781 19.894531-27.683593 29.703125-12.269532 23.488281-15.152344 58.480468-7.355469 89.160156 4.347656 17.132812 12.609375 28.351562 25.230469 34.304688 37.292968 17.59375 105.078124-14.328126 145.574218-33.398438 7.582032-3.574219 14.132813-6.65625 19.832032-9.136719 8.746093-3.8125 25.300781-9.179687 37.898437-2.296875 4.75 2.59375 10.796875 8.074219 12.621094 19.425782 3.429687 21.402343-7.625 40.292968-32.863281 56.160156zm0 0" fill="#fbcc85"/><path d="m348.273438 380.539062c-2.925782 2.945313-6.273438 5.863282-10.09375 8.652344-.855469.628906-1.722657 1.238282-2.597657 1.824219-5.851562-3.0625-11.28125-5.523437-16.421875-7.121094-10.1875-3.152343-19.242187-2.882812-28.226562 2.90625-7.726563 4.976563-14.328125 12.515625-21.324219 20.5-15.945313 18.195313-35.789063 40.828125-78.582031 40.828125h-.082032c-23.890624-.023437-72.945312-26.609375-77.292968-62.953125-1.246094-10.46875-1.792969-26.210937 7.898437-42.054687 9.199219-15.019532 25.445313-27.101563 49.53125-36.777344 2.9375-1.171875 5.984375-2.316406 9.148438-3.429688 1.070312-.371093 2.996093-1.019531 5.273437-1.6875v16.203126c-.058594.03125-.121094.050781-.171875.074218-5.082031 1.78125-9.839843 3.65625-14.25 5.632813-17.550781 7.871093-29.738281 17.265625-36.34375 28.050781-7.109375 11.613281-6.796875 23.285156-5.738281 32.152344 3.164062 26.476562 43.496094 49.324218 61.957031 49.335937h.070313c35.800781 0 51.644531-18.070312 66.960937-35.550781 7.386719-8.4375 15.03125-17.164062 24.582031-23.3125 17.933594-11.558594 35.5625-7.953125 52.238282-.390625 3.082031 1.390625 6.132812 2.925781 9.140625 4.519531.945312.503906 2.523437 1.433594 4.324219 2.597656zm0 0" fill="#fbcc85"/><path d="m365.386719 508.003906c-1.515625 1.511719-3.503907 2.277344-5.492188 2.277344-1.96875 0-3.933593-.742188-5.4375-2.238281-3.03125-3.007813-3.050781-7.898438-.042969-10.929688 20.101563-20.242187 25.085938-37.507812 24.941407-49.839843-.082031-8.550782-2.636719-14.742188-4.324219-17.90625 3.128906-4.4375 6.015625-9.195313 8.601562-14.296876.925782.96875 1.667969 1.832032 2.152344 2.453126.523438.679687 3.707032 4.984374 6.160156 12.296874 1.347657 4.039063 2.480469 8.996094 2.8125 14.765626 1.492188 26.445312-15.144531 49.078124-29.371093 63.417968zm0 0" fill="#fbcc85"/><path d="m343.949219 377.941406c.949219.507813 2.523437 1.433594 4.328125 2.597656-2.929688 2.945313-6.277344 5.863282-10.097656 8.652344-.855469.628906-1.71875 1.238282-2.597657 1.824219-5.847656-3.0625-11.277343-5.523437-16.417969-7.121094 3.644532-1.769531 7.148438-3.890625 10.484376-6.335937 1.855468-1.359375 3.574218-2.75 5.160156-4.140625 3.082031 1.394531 6.132812 2.929687 9.140625 4.523437zm0 0" fill="#e8b76b"/><path d="m391.945312 429.820312c-3.71875 6.171876-7.914062 11.992188-12.589843 17.453126-.082031-8.550782-2.636719-14.742188-4.328125-17.90625 3.132812-4.4375 6.015625-9.199219 8.601562-14.296876.929688.964844 1.671875 1.832032 2.15625 2.449219.523438.683594 3.707032 4.988281 6.160156 12.300781zm0 0" fill="#e8b76b"/><path d="m175.6875 250.992188c-1.542969 0-3.078125-.03125-4.605469-.101563v-.042969h10.167969c-1.875.09375-3.726562.144532-5.5625.144532zm0 0" fill="#cdbfbb"/><path d="m180.230469 302.914062c1.070312-.371093 3-1.019531 5.277343-1.6875v16.203126c-.0625.03125-.125.050781-.175781.074218-5.078125 1.78125-9.839843 3.65625-14.246093 5.632813v-16.792969c2.933593-1.171875 5.984374-2.316406 9.144531-3.429688zm0 0" fill="#e8b76b"/><path d="m243.09375 281.660156v16.515625c-4.203125 1.636719-7.890625 3.203125-10.921875 4.738281-.441406.226563-1.863281.816407-3.5 1.441407v-16.894531c4.179687-1.914063 9.035156-3.820313 14.421875-5.800782zm0 0" fill="#e8b76b"/></svg>