<svg height="512pt" viewBox="0 -147 512 512" width="512pt" xmlns="http://www.w3.org/2000/svg"><path d="m216.710938 39.363281v24.476563c0 4.273437-3.453126 7.726562-7.726563 7.726562-4.265625 0-7.726563-3.453125-7.726563-7.726562v-24.476563c0-4.277343 3.460938-7.726562 7.726563-7.726562 4.273437 0 7.726563 3.449219 7.726563 7.726562zm0 0" fill="#b9acac"/><path d="m475.085938 130.09375h-105.25c-4.269532 0-7.726563-3.460938-7.726563-7.726562 0-4.265626 3.457031-7.726563 7.726563-7.726563h105.25c4.265624 0 7.726562 3.460937 7.726562 7.726563 0 4.265624-3.460938 7.726562-7.726562 7.726562zm0 0" fill="#898383"/><path d="m42.390625 196.554688c0 11.703124-9.488281 21.195312-21.195313 21.195312-11.707031 0-21.195312-9.492188-21.195312-21.195312 0-11.707032 9.488281-21.199219 21.195312-21.199219 11.707032 0 21.195313 9.492187 21.195313 21.199219zm0 0" fill="#9e9797"/><path d="m42.390625 196.558594c0 11.703125-9.488281 21.1875-21.191406 21.1875-6.25 0-11.867188-2.695313-15.738281-7.003906.09375.011718.195312.011718.285156.011718 11.703125 0 21.191406-9.5 21.191406-21.203125 0-5.449219-2.058594-10.421875-5.449219-14.183593 11.570313.144531 20.902344 9.570312 20.902344 21.191406zm0 0" fill="#756f6f"/><path d="m236.222656 136.785156c-.683594-19.449218-18.679687-35.085937-40.703125-35.085937-22.457031 0-40.734375 16.253906-40.734375 36.230469 0 1.175781.0625 2.339843.1875 3.480468 1.976563 18.351563 19.40625 32.75 40.546875 32.75 22.457031 0 40.722657-16.253906 40.722657-36.230468 0-.378907-.011719-.761719-.019532-1.144532zm-40.703125 21.925782c-13.941406 0-25.28125-9.324219-25.28125-20.78125 0-.007813 0-.007813 0-.019532.007813-11.445312 11.351563-20.757812 25.28125-20.757812 13.472657 0 24.507813 8.714844 25.226563 19.632812.03125.382813.042968.761719.042968 1.144532 0 11.457031-11.332031 20.78125-25.269531 20.78125zm0 0" fill="#b9acac"/><path d="m512 67.550781v15.972657c0 6.050781-4.910156 10.964843-10.964844 10.964843h-289.433594v-37.902343h289.433594c6.054688 0 10.964844 4.910156 10.964844 10.964843zm0 0" fill="#d8cdca"/><path d="m211.601562 56.585938h92.410157v37.902343h-92.410157zm0 0" fill="#b9acac"/><path d="m311.742188 56.585938v25.21875c0 4.265624-3.460938 7.726562-7.726563 7.726562-4.261719 0-7.726563-3.460938-7.726563-7.726562v-25.21875c0-4.265626 3.464844-7.726563 7.726563-7.726563 4.265625 0 7.726563 3.460937 7.726563 7.726563zm0 0" fill="#fbcc85"/><path d="m285.472656 56.585938v25.21875c0 4.265624-3.460937 7.726562-7.726562 7.726562-4.273438 0-7.726563-3.460938-7.726563-7.726562v-25.21875c0-4.265626 3.453125-7.726563 7.726563-7.726563 4.265625 0 7.726562 3.460937 7.726562 7.726563zm0 0" fill="#fbcc85"/><path d="m216.710938 42.164062v21.675782c0 4.273437-3.453126 7.726562-7.726563 7.726562-4.265625 0-7.726563-3.453125-7.726563-7.726562v-21.675782zm0 0" fill="#9e9797"/><path d="m270.019531 70.308594h15.453125v11.496094c0 4.265624-3.460937 7.726562-7.726562 7.726562-4.273438 0-7.722656-3.460938-7.722656-7.726562v-11.496094zm0 0" fill="#e8b76b"/><path d="m311.742188 70.308594v11.496094c0 4.265624-3.460938 7.726562-7.726563 7.726562-4.261719 0-7.726563-3.460938-7.726563-7.726562v-11.496094zm0 0" fill="#e8b76b"/><path d="m395.671875 143.296875c-4.265625 0-7.726563-3.457031-7.726563-7.726563v-13.207031c0-4.265625 3.460938-7.726562 7.726563-7.726562s7.726563 3.460937 7.726563 7.726562v13.207031c0 4.269532-3.460938 7.726563-7.726563 7.726563zm0 0" fill="#b9acac"/><path d="m369.835938 143.296875c-4.269532 0-7.726563-3.457031-7.726563-7.726563v-13.207031c0-4.265625 3.457031-7.726562 7.726563-7.726562 4.265624 0 7.726562 3.460937 7.726562 7.726562v13.207031c0 4.269532-3.460938 7.726563-7.726562 7.726563zm0 0" fill="#b9acac"/><path d="m193.964844 146.839844c-.34375.042968-.683594.0625-1.011719.0625-3.820313 0-7.148437-2.832032-7.652344-6.714844l-.445312-3.402344-1.378907-10.527344c-.554687-4.234374 2.421876-8.109374 6.65625-8.664062 4.222657-.554688 8.105469 2.421875 8.664063 6.65625l1.636719 12.535156.183594 1.390625c.558593 4.226563-2.421876 8.109375-6.652344 8.664063zm0 0" fill="#fbcc85"/><path d="m200.433594 136.785156h-15.578125l-1.378907-10.527344c-.554687-4.234374 2.421876-8.109374 6.65625-8.664062 4.222657-.554688 8.105469 2.421875 8.664063 6.65625zm0 0" fill="#e8b76b"/><path d="m236.222656 136.785156h-15.476562c-.71875-10.917968-11.753906-19.632812-25.226563-19.632812-13.929687 0-25.269531 9.3125-25.28125 20.757812-5.015625.761719-10.105469 1.9375-15.265625 3.5-.125-1.140625-.1875-2.304687-.1875-3.480468 0-19.976563 18.277344-36.230469 40.734375-36.230469 22.023438 0 40.019531 15.636719 40.703125 35.085937zm0 0" fill="#9e9797"/><path d="m442.28125 94.300781c0 15.5-12.5625 28.066407-28.066406 28.066407h-229.640625c-34.105469 0-66.460938 17.15625-91.554688 35.828124-6.953125 5.175782-11.65625 12.628907-13.507812 20.875-.582031 2.578126-.875 5.242188-.875 7.925782 0 1.023437.042969 2.050781.128906 3.082031.679687 8.003906-5.621094 14.867187-13.660156 14.867187h-.976563c-13.429687 0-26.464844-4.539062-37-12.882812l-18.847656-14.933594c-9.167969-7.269531-10.140625-20.828125-2.105469-29.324218 8.550781-9.035157 20.644531-20.84375 35.589844-32.96875 34.917969-28.296876 85.414063-58.25 142.808594-58.25h32.136719v15.195312c0 7.148438 5.796874 12.949219 12.945312 12.949219h203.054688c2.644531 0 5.03125 1.074219 6.765624 2.804687 1.734376 1.734375 2.804688 4.121094 2.804688 6.765625zm0 0" fill="#d77f4f"/><path d="m442.289062 94.300781c0 15.503907-12.570312 28.0625-28.074218 28.0625h-18.542969c15.503906 0 28.074219-12.558593 28.074219-28.0625 0-2.648437-1.082032-5.035156-2.8125-6.765625-1.730469-1.730468-4.121094-2.804687-6.769532-2.804687h18.542969c2.648438 0 5.039063 1.074219 6.769531 2.804687 1.730469 1.730469 2.8125 4.117188 2.8125 6.765625zm0 0" fill="#c86d3d"/><path d="m78.765625 190.078125c.679687 8.003906-5.625 14.867187-13.660156 14.867187h-.976563c-13.429687 0-26.464844-4.539062-37-12.882812l-18.847656-14.933594c-9.167969-7.269531-10.140625-20.828125-2.105469-29.324218 8.550781-9.035157 20.644531-20.84375 35.589844-32.96875-7.203125 17.554687-14.460937 47.394531 13.78125 57.230468 9.011719 3.136719 16.992187 5.394532 23.964844 7.003906-.582031 2.578126-.878907 5.242188-.878907 7.929688 0 1.015625.046876 2.046875.132813 3.078125zm0 0" fill="#d8cdca"/><path d="m78.769531 190.078125c.679688 8.003906-5.625 14.867187-13.660156 14.867187h-.980469c-6.480468 0-12.875-1.0625-18.933594-3.09375h.9375c8.839844 0 15.78125-7.550781 15.027344-16.347656-.089844-1.132812-.140625-2.265625-.140625-3.390625 0-2.6875.265625-5.367187.800781-7.953125 6.492188 2.082032 12.375 3.679688 17.691407 4.914063-.578125 2.578125-.878907 5.234375-.878907 7.921875 0 1.019531.042969 2.050781.136719 3.082031zm0 0" fill="#b9acac"/><path d="m486.050781 100.355469c-4.269531 0-7.726562-3.460938-7.726562-7.726563v-33.300781c0-4.269531 3.457031-7.726563 7.726562-7.726563 4.265625 0 7.722657 3.457032 7.722657 7.726563v33.300781c.003906 4.265625-3.457032 7.726563-7.722657 7.726563zm0 0" fill="#b9acac"/><path d="m146.878906 81.800781c0 15.339844-12.4375 27.773438-27.773437 27.773438-15.339844 0-27.777344-12.433594-27.777344-27.773438 0-15.339843 12.4375-27.773437 27.777344-27.773437 15.335937 0 27.773437 12.433594 27.773437 27.773437zm0 0" fill="#d8cdca"/><path d="m146.882812 81.800781c0 15.339844-12.445312 27.773438-27.78125 27.773438-2.996093 0-5.878906-.472657-8.585937-1.359375 11.140625-3.609375 19.1875-14.066406 19.1875-26.410156 0-12.347657-8.046875-22.804688-19.1875-26.414063 2.707031-.886719 5.589844-1.359375 8.585937-1.359375 15.335938 0 27.78125 12.433594 27.78125 27.769531zm0 0" fill="#b9acac"/><path d="m153.066406 88.6875h-26.238281c-4.265625 0-7.722656-3.457031-7.722656-7.726562 0-4.265626 3.457031-7.726563 7.722656-7.726563h26.238281c9.378906 0 17.003906-7.625 17.003906-17.003906 0-5.195313-2.324218-10.035157-6.378906-13.277344l-11.660156-9.328125c-4.503906-3.601562-7.085938-8.976562-7.085938-14.742188 0-10.414062 8.46875-18.882812 18.878907-18.882812h13.976562c4.265625 0 7.722657 3.460938 7.722657 7.726562 0 4.265626-3.457032 7.726563-7.722657 7.726563h-13.976562c-1.890625 0-3.429688 1.535156-3.429688 3.429687 0 1.046876.46875 2.019532 1.289063 2.675782l11.660156 9.328125c7.742188 6.191406 12.179688 15.429687 12.179688 25.34375 0 17.898437-14.558594 32.457031-32.457032 32.457031zm0 0" fill="#9e9797"/></svg>