<svg height="512pt" viewBox="-9 0 512 512.00025" width="512pt" xmlns="http://www.w3.org/2000/svg"><path d="m475.589844 3.042969-341.535156 341.539062 26.574218 26.574219 272.585938-272.585938c24.417968-24.417968 44.363281-52.757812 59.121094-83.714843 1.894531-3.96875 1.0625-8.703125-2.046876-11.8125-4.058593-4.058594-10.640624-4.058594-14.699218 0zm0 0" fill="#efe2dd"/><path d="m433.210938 98.570312-272.578126 272.582032-11.703124-11.703125 272.582031-272.578125c24.417969-24.417969 44.363281-52.769532 59.117187-83.714844.472656-.980469.765625-2.011719.90625-3.046875 3.097656-.433594 6.367188.546875 8.75 2.933594l.007813.007812c3.105469 3.105469 3.933593 7.835938 2.035156 11.808594-14.742187 30.953125-34.699219 59.292969-59.117187 83.710937zm0 0" fill="#cdbfbb"/><path d="m134.285156 344.804688 26.347656 26.347656-93.386718 93.386718-26.347656-26.347656zm0 0" fill="#ea576b"/><g fill="#e43c53"><path d="m148.136719 358.65625 12.496093 12.496094-93.386718 93.386718-12.496094-12.5zm0 0"/><path d="m119.84375 420.078125c-.9375 3.429687-4.046875 5.695313-7.445312 5.695313-.679688 0-1.359376-.09375-2.039063-.277344l-22.839844-6.222656-16.453125-4.46875c-4.121094-1.113282-6.550781-5.367188-5.429687-9.480469 1.125-4.121094 5.367187-6.550781 9.488281-5.429688l24.972656 6.800781 14.320313 3.894532c4.121093 1.121094 6.550781 5.367187 5.425781 9.488281zm0 0"/><path d="m146.796875 393.117188c-.929687 3.441406-4.050781 5.695312-7.449219 5.695312-.671875 0-1.351562-.082031-2.027344-.265625l-22.851562-6.222656-16.449219-4.472657c-4.113281-1.121093-6.542969-5.367187-5.421875-9.484374 1.113282-4.121094 5.367188-6.554688 9.480469-5.429688l24.980469 6.796875 14.320312 3.894531c4.109375 1.125 6.539063 5.367188 5.417969 9.488282zm0 0"/></g><path d="m128.027344 512c-21.386719 0-41.492188-8.328125-56.613282-23.449219l-67.304687-67.308593c-5.480469-5.476563-5.480469-14.359376 0-19.835938 5.476563-5.480469 14.359375-5.480469 19.835937 0l67.308594 67.304688c9.824219 9.824218 22.882813 15.234374 36.773438 15.234374s26.953125-5.410156 36.773437-15.234374c20.277344-20.277344 20.277344-53.269532 0-73.546876l-74.757812-74.761718-3.476563 3.476562c-5.476562 5.476563-14.359375 5.480469-19.835937 0-5.480469-5.476562-5.480469-14.359375-.003907-19.835937l4.222657-4.222657c10.527343-10.527343 27.65625-10.523437 38.183593 0l75.503907 75.507813c31.21875 31.214844 31.21875 82.007813 0 113.222656-15.117188 15.121094-35.222657 23.449219-56.609375 23.449219zm0 0" fill="#d77f4f"/><path d="m80.675781 454.433594c0 16.390625-13.285156 29.675781-29.671875 29.675781-16.390625 0-29.675781-13.285156-29.675781-29.675781 0-16.386719 13.285156-29.671875 29.675781-29.671875 16.386719 0 29.671875 13.285156 29.671875 29.671875zm0 0" fill="#fbcc85"/><path d="m52.679688 484.058594c-13.402344.757812-25.234376-7.492188-29.574219-19.503906 3.667969 1.347656 7.667969 1.972656 11.804687 1.734374 16.363282-.917968 28.875-14.933593 27.953125-31.292968-.167969-2.96875-.765625-5.804688-1.734375-8.449219 10.832032 3.921875 18.808594 13.996094 19.496094 26.210937.929688 16.367188-11.582031 30.378907-27.945312 31.300782zm0 0" fill="#e8b76b"/><path d="m119.84375 420.078125c-.9375 3.429687-4.046875 5.695313-7.445312 5.695313-.679688 0-1.359376-.09375-2.039063-.277344l-22.839844-6.222656 12.578125-12.578126 14.320313 3.894532c4.121093 1.121094 6.550781 5.367187 5.425781 9.488281zm0 0" fill="#c93146"/><path d="m146.796875 393.117188c-.929687 3.441406-4.050781 5.695312-7.449219 5.695312-.671875 0-1.351562-.082031-2.027344-.265625l-22.851562-6.222656 12.589844-12.589844 14.320312 3.894531c4.109375 1.125 6.539063 5.367188 5.417969 9.488282zm0 0" fill="#c93146"/></svg>