<svg height="512pt" viewBox="0 -48 512.00015 512" width="512pt" xmlns="http://www.w3.org/2000/svg"><path d="m160.105469 287.007812 8.414062 43.371094c40.574219-7.984375 82.488281-24.9375 122.972657-55.496094 144.5-109.058593 145.28125-228.796874 140.648437-269.28125-.625-5.449218-7.398437-7.546874-11.050781-3.457031-23.765625 26.632813-53.804688 38.902344-68.636719 43.664063-5.652344 1.8125-9.804687 6.601562-10.941406 12.429687-28.496094 146.226563-125.894531 206.078125-181.40625 228.769531zm0 0" fill="#d8cdca"/><path d="m168.519531 330.382812-3.601562-18.589843c36.71875-8.835938 74.304687-25.304688 110.730469-52.808594 128.410156-96.917969 143.316406-202.265625 141.800781-252.933594 1.226562-1.257812 2.445312-2.5625 3.644531-3.90625 3.648438-4.09375 10.429688-1.988281 11.046875 3.457031 4.628906 40.480469 3.847656 160.226563-140.648437 269.285157-40.480469 30.558593-82.398438 47.511719-122.972657 55.496093zm0 0" fill="#b9acac"/><path d="m.328125 339.566406c-1.84375-9.507812 4.367187-18.710937 13.875-20.554687l140.070313-27.167969 6.675781 34.429688-140.070313 27.167968c-9.503906 1.84375-18.707031-4.367187-20.550781-13.875zm0 0" fill="#9e9797"/><path d="m160.949219 326.273438-140.066407 27.167968c-9.507812 1.84375-18.714843-4.371094-20.558593-13.878906-.609375-3.132812-.339844-6.234375.644531-9.054688 3.957031 4.566407 10.195312 6.953126 16.574219 5.714844l140.066406-27.167968zm0 0" fill="#898383"/><path d="m38.261719 359.425781-8.425781-43.445312c-1.277344-6.570313 3.019531-12.929688 9.589843-14.207031 6.570313-1.273438 12.929688 3.019531 14.203125 9.59375l8.425782 43.445312c4.746093 24.464844 28.511718 40.511719 52.980468 35.765625s40.511719-28.511719 35.765625-52.976563l-11.484375-59.222656c-1.273437-6.570312 3.019532-12.929687 9.589844-14.207031 6.570312-1.273437 12.929688 3.019531 14.207031 9.59375l11.484375 59.21875c7.289063 37.589844-17.359375 74.101563-54.949218 81.390625-37.585938 7.289062-74.097657-17.359375-81.386719-54.949219zm0 0" fill="#fbcc85"/><path d="m351.894531 287.007812-8.414062 43.371094c-40.574219-7.984375-82.488281-24.9375-122.972657-55.496094-144.5-109.058593-145.28125-228.796874-140.648437-269.28125.625-5.449218 7.398437-7.546874 11.050781-3.457031 23.765625 26.632813 53.804688 38.902344 68.636719 43.664063 5.652344 1.8125 9.804687 6.601562 10.941406 12.429687 28.496094 146.226563 125.894531 206.078125 181.40625 228.769531zm0 0" fill="#efe2dd"/><path d="m351.890625 287.003906-3.164063 16.308594-11.777343-4.203125c-55.503907-22.695313-152.90625-82.535156-181.402344-228.769531-1.132813-5.832032-5.285156-10.613282-10.941406-12.425782-14.238281-4.5625-42.464844-16.058593-65.714844-40.507812.226563-4.460938.578125-8.40625.96875-11.804688.617187-5.449218 7.394531-7.550781 11.050781-3.449218 23.769532 26.628906 53.796875 38.898437 68.632813 43.65625 5.65625 1.8125 9.808593 6.605468 10.941406 12.425781 28.496094 146.234375 125.898437 206.085937 181.40625 228.769531zm0 0" fill="#cdbfbb"/><path d="m357.726562 291.84375-6.675781 34.429688 140.066407 27.167968c9.507812 1.84375 18.710937-4.367187 20.554687-13.875 1.84375-9.507812-4.367187-18.710937-13.875-20.554687zm0 0" fill="#9e9797"/><path d="m351.050781 326.273438 140.066407 27.167968c9.511718 1.84375 18.714843-4.371094 20.558593-13.878906.609375-3.132812.339844-6.234375-.644531-9.054688-3.957031 4.566407-10.195312 6.953126-16.574219 5.714844l-140.066406-27.167968zm0 0" fill="#898383"/><path d="m473.738281 359.425781 8.429688-43.445312c1.273437-6.570313-3.023438-12.929688-9.59375-14.207031-6.570313-1.273438-12.929688 3.019531-14.207031 9.59375l-8.425782 43.445312c-4.742187 24.464844-28.511718 40.511719-52.976562 35.765625-24.46875-4.746094-40.511719-28.511719-35.769532-52.976563l11.488282-59.222656c1.273437-6.570312-3.019532-12.929687-9.589844-14.207031-6.574219-1.273437-12.933594 3.019531-14.207031 9.59375l-11.488281 59.21875c-7.289063 37.589844 17.359374 74.101563 54.949218 81.390625s74.101563-17.359375 81.390625-54.949219zm0 0" fill="#fbcc85"/></svg>