<svg height="512pt" viewBox="-6 0 512 512.00007" width="512pt" xmlns="http://www.w3.org/2000/svg"><path d="m192.195312 111.605469c-5.597656 6.265625-12.105468 11.238281-19.148437 14.882812-23.972656 12.410157-54.105469 9.515625-75.433594-9.535156-27.59375-24.640625-29.996093-66.980469-5.347656-94.585937 24.640625-27.59375 66.980469-29.984376 94.585937-5.34375 4.566407 4.078124 8.441407 8.632812 11.601563 13.53125 16.042969 24.71875 14.3125 58.023437-6.257813 81.050781zm0 0" fill="#756f6f"/><path d="m192.195312 111.605469c-5.597656 6.265625-12.105468 11.238281-19.148437 14.882812-11.753906-27.980469-7.28125-61.476562 14.238281-85.578125 3.414063-3.824218 7.160156-7.277344 11.167969-10.355468 16.042969 24.71875 14.3125 58.023437-6.257813 81.050781zm0 0" fill="#5b5555"/><path d="m192.195312 111.605469c-16.035156 17.957031-39.5625 25.246093-61.640624 21.351562 14.304687-2.511719 27.898437-9.679687 38.316406-21.351562 24.644531-27.589844 22.246094-69.945313-5.347656-94.578125-9.644532-8.609375-21.085938-13.921875-32.945313-16.007813 19.503906-3.433593 40.34375 1.785157 56.269531 16.007813 27.59375 24.632812 29.992188 66.988281 5.347656 94.578125zm0 0" fill="#5b5555"/><path d="m314.808594 94.972656c0 36.996094-29.992188 66.988282-66.988282 66.988282-36.996093 0-66.988281-29.992188-66.988281-66.988282 0-37 29.992188-66.992187 66.988281-66.992187 36.996094 0 66.988282 29.992187 66.988282 66.992187zm0 0" fill="#756f6f"/><path d="m297.785156 139.585938c-16.03125 17.957031-39.558594 25.246093-61.636718 21.355468 14.300781-2.515625 27.894531-9.679687 38.316406-21.355468 24.640625-27.589844 22.242187-69.941407-5.347656-94.578126-9.644532-8.609374-21.085938-13.917968-32.949219-16.007812 19.507812-3.433594 40.347656 1.785156 56.273437 16.007812 27.589844 24.636719 29.988282 66.988282 5.34375 94.578126zm0 0" fill="#5b5555"/><path d="m82.511719 211.878906c-4.78125 26.472656-7.351563 54.601563-7.351563 83.742188 0 42.519531 5.480469 82.847656 15.289063 119.089844 5.492187 20.277343 12.339843 39.277343 20.351562 56.648437 4.027344 8.730469 8.339844 17.039063 12.929688 24.902344h-63.519531c-3.511719 0-6.769532-1.800781-8.632813-4.773438-4.027344-6.4375-7.859375-13.148437-11.476563-20.128906-9.011718-17.371094-16.722656-36.371094-22.910156-56.648437-11.03125-36.242188-17.191406-76.570313-17.191406-119.089844 0-29.140625 2.890625-57.269532 8.269531-83.742188 4.039063-19.910156 9.480469-38.867187 16.152344-56.648437 7.558594-20.152344 16.699219-38.78125 27.15625-55.492188 1.863281-2.96875 5.121094-4.769531 8.632813-4.769531h63.519531c-10.441407 17.910156-19.492188 38.160156-26.859375 60.261719-5.929688 17.78125-10.769532 36.738281-14.359375 56.648437zm0 0" fill="#ac5e33"/><path d="m376.378906 295.621094c0 42.519531-6.160156 82.847656-17.1875 119.089844-6.191406 20.277343-13.902344 39.277343-22.910156 56.648437-3.632812 6.980469-7.453125 13.691406-11.480469 20.128906-1.859375 2.972657-5.121093 4.773438-8.628906 4.773438h-63.523437c4.582031-7.863281 8.902343-16.171875 12.921874-24.902344 8.007813-17.371094 14.871094-36.371094 20.359376-56.648437 9.808593-36.242188 15.289062-76.570313 15.289062-119.089844 0-29.140625-2.570312-57.269532-7.347656-83.742188-3.589844-19.910156-8.429688-38.867187-14.359375-56.648437-7.371094-22.101563-16.421875-42.351563-26.863281-60.261719h63.523437c3.507813 0 6.769531 1.800781 8.628906 4.769531 10.449219 16.710938 19.597657 35.339844 27.160157 55.492188 6.667968 17.78125 12.109374 36.738281 16.148437 56.648437 5.378906 26.472656 8.269531 54.601563 8.269531 83.742188zm0 0" fill="#ac5e33"/><path d="m376.375 295.617188c0 75.882812-19.613281 144.828124-51.574219 195.875-1.863281 2.96875-5.125 4.769531-8.636719 4.769531h-20.863281c3.511719 0 6.765625-1.800781 8.628907-4.769531 31.96875-51.046876 51.582031-119.992188 51.582031-195.875 0-75.886719-19.613281-144.832032-51.582031-195.875-1.863282-2.972657-5.117188-4.773438-8.628907-4.773438h20.863281c3.511719 0 6.777344 1.800781 8.636719 4.773438 31.960938 51.042968 51.574219 119.988281 51.574219 195.875zm0 0" fill="#9e552e"/><path d="m154.820312 211.878906c-1.511718 26.472656-2.320312 54.601563-2.320312 83.742188 0 42.519531 1.71875 82.847656 4.820312 119.089844 1.738282 20.277343 3.898438 39.277343 6.429688 56.648437 1.269531 8.730469 2.628906 17.039063 4.078125 24.902344h-52.15625c-5.160156-7.863281-10.011719-16.171875-14.542969-24.902344-9.007812-17.371094-16.71875-36.371094-22.898437-56.648437-11.03125-36.242188-17.191407-76.570313-17.191407-119.089844 0-29.140625 2.890626-57.269532 8.261719-83.742188 4.039063-19.910156 9.480469-38.867187 16.148438-56.648437 8.289062-22.101563 18.480469-42.351563 30.222656-60.261719h52.15625c-3.289063 17.910156-6.148437 38.160156-8.476563 60.261719-1.871093 17.78125-3.402343 36.738281-4.53125 56.648437zm0 0" fill="#db885d"/><path d="m315.339844 295.621094c0 42.519531-6.160156 82.847656-17.199219 119.089844-6.171875 20.277343-13.878906 39.277343-22.890625 56.648437-4.53125 8.730469-9.390625 17.039063-14.550781 24.902344h-52.148438c1.4375-7.863281 2.808594-16.171875 4.078125-24.902344 2.53125-17.371094 4.691406-36.371094 6.429688-56.648437 3.089844-36.242188 4.820312-76.570313 4.820312-119.089844 0-29.140625-.808594-57.269532-2.320312-83.742188-1.128906-19.910156-2.660156-38.867187-4.527344-56.648437-2.332031-22.101563-5.191406-42.351563-8.480469-60.261719h52.148438c11.75 17.910156 21.929687 38.160156 30.230469 60.261719 6.671874 17.78125 12.109374 36.738281 16.140624 56.648437 5.378907 26.472656 8.269532 54.601563 8.269532 83.742188zm0 0" fill="#db885d"/><path d="m232.945312 295.617188c0 42.519531-2.164062 82.855468-6.046874 119.09375-2.179688 20.28125-4.894532 39.28125-8.066407 56.648437-1.59375 8.730469-3.304687 17.039063-5.121093 24.902344h-51.042969c-1.816407-7.863281-3.527344-16.171875-5.121094-24.902344-3.171875-17.367187-5.886719-36.367187-8.066406-56.648437-3.882813-36.238282-6.046875-76.574219-6.046875-119.09375 0-29.140626 1.015625-57.265626 2.90625-83.738282 1.421875-19.902344 3.335937-38.871094 5.691406-56.648437 2.910156-22.101563 6.492188-42.351563 10.636719-60.257813h51.042969c4.144531 17.90625 7.726562 38.15625 10.636718 60.257813 2.355469 17.777343 4.269532 36.746093 5.691406 56.648437 1.890626 26.472656 2.90625 54.597656 2.90625 83.738282zm0 0" fill="#ac5e33"/><path d="m359.503906 194.285156h-342.628906c-6.902344 0-11.800781-6.730468-9.679688-13.300781l11.738282-36.308594c1.355468-4.199219 5.265625-7.042969 9.675781-7.042969h319.160156c4.410157 0 8.320313 2.84375 9.675781 7.042969l11.738282 36.308594c2.121094 6.570313-2.777344 13.300781-9.679688 13.300781zm0 0" fill="#904d29"/><path d="m359.496094 194.28125h-24.410156c6.90625 0 11.808593-6.722656 9.683593-13.296875l-11.738281-36.3125c-1.355469-4.191406-5.261719-7.039063-9.675781-7.039063h24.414062c4.414063 0 8.320313 2.847657 9.671875 7.039063l11.742188 36.3125c2.125 6.574219-2.777344 13.296875-9.6875 13.296875zm0 0" fill="#844225"/><path d="m16.875 396.945312h342.628906c6.902344 0 11.800782 6.734376 9.675782 13.300782l-11.734376 36.3125c-1.355468 4.199218-5.265624 7.042968-9.679687 7.042968h-319.15625c-4.410156 0-8.320313-2.84375-9.675781-7.042968l-11.738282-36.3125c-2.121093-6.566406 2.777344-13.300782 9.679688-13.300782zm0 0" fill="#904d29"/><path d="m369.183594 410.246094-11.742188 36.316406c-1.351562 4.191406-5.257812 7.039062-9.671875 7.039062h-24.414062c4.414062 0 8.320312-2.847656 9.675781-7.039062l11.738281-36.316406c2.125-6.570313-2.777343-13.296875-9.683593-13.296875h24.410156c6.910156 0 11.8125 6.726562 9.6875 13.296875zm0 0" fill="#844225"/><path d="m372.144531 489.625c-1.457031 1.640625-2.984375 3.175781-4.566406 4.625-25.050781 23.171875-64.054687 23.910156-90.019531.730469-27.59375-24.648438-29.992188-66.992188-5.355469-94.585938 24.648437-27.59375 66.992187-29.992187 94.585937-5.355469.273438.242188.539063.484376.800782.730469 26.84375 24.738281 28.949218 66.535157 4.554687 93.855469zm0 0" fill="#756f6f"/><path d="m372.144531 489.625c-1.457031 1.640625-2.984375 3.175781-4.566406 4.625-21.902344-28.699219-22.339844-69.238281.011719-98.480469 26.84375 24.738281 28.949218 66.535157 4.554687 93.855469zm0 0" fill="#5b5555"/><path d="m372.144531 489.625c-16.035156 17.957031-39.5625 25.246094-61.640625 21.355469 14.300782-2.515625 27.894532-9.679688 38.316406-21.355469 24.640626-27.589844 22.242188-69.941406-5.347656-94.578125-9.644531-8.609375-21.085937-13.917969-32.949218-16.007813 19.507812-3.433593 40.347656 1.785157 56.273437 16.007813 27.589844 24.636719 29.988281 66.988281 5.347656 94.578125zm0 0" fill="#5b5555"/><path d="m499.097656 445.011719c0 36.996093-29.992187 66.988281-66.988281 66.988281s-66.988281-29.992188-66.988281-66.988281c0-37 29.992187-66.992188 66.988281-66.992188s66.988281 29.992188 66.988281 66.992188zm0 0" fill="#756f6f"/><path d="m482.074219 489.625c-16.035157 17.957031-39.5625 25.246094-61.640625 21.355469 14.304687-2.515625 27.898437-9.679688 38.316406-21.355469 24.644531-27.589844 22.246094-69.941406-5.347656-94.578125-9.640625-8.609375-21.082032-13.917969-32.945313-16.007813 19.507813-3.433593 40.34375 1.785157 56.269531 16.007813 27.59375 24.636719 29.992188 66.988281 5.347657 94.578125zm0 0" fill="#5b5555"/></svg>