<svg height="512pt" viewBox="-109 0 512 512" width="512pt" xmlns="http://www.w3.org/2000/svg"><path d="m209.417969 100.238281c0 34.316407-27.820313 62.132813-62.132813 62.132813-34.316406 0-62.132812-27.816406-62.132812-62.132813 0-26.335937 36.601562-74.96875 53.617187-96.15625 4.375-5.441406 12.65625-5.441406 17.027344 0 17.019531 21.1875 53.621094 69.820313 53.621094 96.15625zm0 0" fill="#fbcc85"/><path d="m209.414062 100.238281c0 25.011719-14.773437 46.574219-36.078124 56.421875 12.917968-11.382812 21.078124-28.050781 21.078124-46.636718 0-26.332032-36.601562-74.964844-53.621093-96.15625-1.761719-2.183594-4.152344-3.492188-6.664063-3.925782 1.667969-2.132812 3.222656-4.089844 4.644532-5.863281 4.367187-5.4375 12.652343-5.4375 17.019531 0 17.019531 21.191406 53.621093 69.828125 53.621093 96.160156zm0 0" fill="#e8b76b"/><path d="m184.652344 125.007812c0 20.636719-16.730469 37.363282-37.367188 37.363282-20.636718 0-37.367187-16.726563-37.367187-37.363282 0-15.84375 22.011719-45.089843 32.246093-57.832031 2.632813-3.273437 7.609376-3.273437 10.242188 0 10.234375 12.746094 32.246094 41.992188 32.246094 57.832031zm0 0" fill="#ea576b"/><path d="m167.730469 141.925781c0 11.292969-9.152344 20.449219-20.445313 20.449219-11.292968 0-20.449218-9.15625-20.449218-20.449219 0-8.667969 12.046874-24.671875 17.644531-31.644531 1.441406-1.792969 4.164062-1.792969 5.605469 0 5.601562 6.972656 17.644531 22.976562 17.644531 31.644531zm0 0" fill="#5592d7"/><path d="m189.578125 189.996094-16.660156 312.902344c-.277344 5.101562-4.488281 9.101562-9.601563 9.101562h-32.066406c-5.113281 0-9.324219-4-9.601562-9.101562l-16.660157-312.902344zm0 0" fill="#db885d"/><path d="m148.851562 422.199219c-4.269531 0-7.726562-3.457031-7.726562-7.722657v-55.75c0-4.269531 3.457031-7.726562 7.726562-7.726562 4.265626 0 7.722657 3.457031 7.722657 7.726562v55.75c0 4.265626-3.457031 7.722657-7.722657 7.722657zm0 0" fill="#c86d3d"/><path d="m189.578125 189.996094-16.660156 312.902344c-.277344 5.101562-4.488281 9.101562-9.601563 9.101562h-18.136718c5.113281 0 9.324218-4 9.601562-9.101562l16.65625-312.902344zm0 0" fill="#c86d3d"/><path d="m182.761719 317.960938-2.257813 42.484374h-66.4375l-2.261718-42.484374zm0 0" fill="#fbcc85"/><path d="m182.761719 317.960938-2.257813 42.484374h-18.140625l2.261719-42.484374zm0 0" fill="#e8b76b"/><path d="m211.917969 224.46875c0-26.054688-28.9375-47.175781-64.632813-47.175781-35.695312 0-64.632812 21.121093-64.632812 47.175781s28.9375 47.175781 64.632812 47.175781c35.695313 0 64.632813-21.121093 64.632813-47.175781zm0 0" fill="#d8cdca"/><path d="m211.917969 224.464844c0 26.058594-28.933594 47.175781-64.632813 47.175781-3.078125 0-6.105468-.15625-9.066406-.460937 31.394531-3.21875 55.558594-22.90625 55.558594-46.714844 0-23.800782-24.164063-43.484375-55.558594-46.707032 2.960938-.308593 5.988281-.460937 9.066406-.460937 35.699219 0 64.632813 21.117187 64.632813 47.167969zm0 0" fill="#b9acac"/><path d="m239.257812 162.179688-10.351562 49.027343c-.9375 4.441407-4.863281 7.621094-9.40625 7.621094h-144.433594c-4.542968 0-8.464844-3.179687-9.40625-7.621094l-5.148437-24.382812-3.265625-15.453125-1.9375-9.191406c-1.265625-5.972657 3.296875-11.597657 9.40625-11.597657h165.136718c6.109376 0 10.675782 5.625 9.40625 11.597657zm0 0" fill="#db885d"/><path d="m239.261719 162.1875-10.351563 49.023438c-.941406 4.441406-4.863281 7.621093-9.410156 7.621093h-18.136719c4.535157 0 8.464844-3.183593 9.398438-7.621093l10.363281-49.023438c1.257812-5.976562-3.296875-11.601562-9.410156-11.601562h18.148437c6.101563 0 10.65625 5.625 9.398438 11.601562zm0 0" fill="#c86d3d"/><path d="m102.871094 179.097656c0 4.273438-3.449219 7.726563-7.722656 7.726563h-34.636719l-3.265625-15.453125h37.898437c4.277344 0 7.726563 3.460937 7.726563 7.726562zm0 0" fill="#c86d3d"/><path d="m180.503906 186.828125h-57.550781c-4.265625 0-7.726563-3.460937-7.726563-7.726563 0-4.265624 3.460938-7.726562 7.726563-7.726562h57.550781c4.265625 0 7.726563 3.460938 7.726563 7.726562 0 4.265626-3.460938 7.726563-7.726563 7.726563zm0 0" fill="#c86d3d"/><path d="m265.425781 98.230469c-.011719 0-.019531 0-.027343 0-4.265626-.015625-7.714844-3.484375-7.703126-7.75l.023438-7.351563c.015625-4.257812 3.472656-7.703125 7.726562-7.703125h.023438c4.269531.011719 7.71875 3.484375 7.703125 7.75l-.023437 7.351563c-.011719 4.257812-3.46875 7.703125-7.722657 7.703125zm0 0" fill="#e8b76b"/><path d="m265.316406 133.800781c-.011718 0-.015625 0-.023437 0-4.269531-.011719-7.71875-3.484375-7.703125-7.75l.019531-7.351562c.015625-4.257813 3.472656-7.703125 7.726563-7.703125h.023437c4.269531.015625 7.71875 3.484375 7.703125 7.75l-.019531 7.351562c-.015625 4.261719-3.472657 7.703125-7.726563 7.703125zm0 0" fill="#e8b76b"/><path d="m286.84375 112.40625c-.011719 0-.019531 0-.027344 0l-7.347656-.023438c-4.269531-.011718-7.714844-3.484374-7.703125-7.75.011719-4.257812 3.46875-7.703124 7.726563-7.703124h.023437l7.347656.023437c4.269531.011719 7.71875 3.484375 7.703125 7.75-.011718 4.257813-3.46875 7.703125-7.722656 7.703125zm0 0" fill="#e8b76b"/><path d="m251.269531 112.296875c-.007812 0-.015625 0-.023437 0l-7.351563-.023437c-4.265625-.011719-7.714843-3.480469-7.703125-7.746094.011719-4.261719 3.46875-7.703125 7.726563-7.703125h.023437l7.351563.019531c4.265625.015625 7.714843 3.484375 7.703125 7.75-.015625 4.257812-3.472656 7.703125-7.726563 7.703125zm0 0" fill="#e8b76b"/><path d="m62.542969 24.355469c-.007813 0-.015625 0-.023438 0-4.265625-.011719-7.714843-3.484375-7.703125-7.75l.023438-7.351563c.011718-4.257812 3.46875-7.703125 7.726562-7.703125h.023438c4.265625.015625 7.714844 3.484375 7.703125 7.75l-.023438 7.351563c-.011719 4.257812-3.46875 7.703125-7.726562 7.703125zm0 0" fill="#fcd79f"/><path d="m62.433594 59.929688c-.007813 0-.015625 0-.023438 0-4.265625-.015626-7.714844-3.484376-7.703125-7.75l.023438-7.351563c.011719-4.257813 3.46875-7.703125 7.726562-7.703125h.023438c4.265625.015625 7.714843 3.484375 7.703125 7.75l-.023438 7.351562c-.011718 4.257813-3.46875 7.703126-7.726562 7.703126zm0 0" fill="#fcd79f"/><path d="m83.960938 38.53125c-.007813 0-.015626 0-.023438 0l-7.347656-.019531c-4.269532-.015625-7.71875-3.484375-7.703125-7.75.011719-4.257813 3.46875-7.703125 7.722656-7.703125h.027344l7.347656.019531c4.269531.015625 7.714844 3.484375 7.703125 7.75-.011719 4.261719-3.46875 7.703125-7.726562 7.703125zm0 0" fill="#fcd79f"/><path d="m48.390625 38.421875c-.007813 0-.015625 0-.023437 0l-7.351563-.023437c-4.265625-.011719-7.714844-3.480469-7.703125-7.75.011719-4.257813 3.46875-7.703126 7.726562-7.703126h.023438l7.351562.023438c4.265626.015625 7.714844 3.484375 7.703126 7.75-.015626 4.261719-3.472657 7.703125-7.726563 7.703125zm0 0" fill="#fcd79f"/><g fill="#fbcc85"><path d="m29.230469 85.898438c-.007813 0-.015625 0-.023438 0-4.265625-.011719-7.714843-3.480469-7.703125-7.75l.023438-7.347657c.011718-4.261719 3.46875-7.703125 7.726562-7.703125h.023438c4.265625.011719 7.714844 3.480469 7.703125 7.75l-.023438 7.347656c-.011719 4.261719-3.46875 7.703126-7.726562 7.703126zm0 0"/><path d="m29.121094 121.472656c-.007813 0-.015625 0-.023438 0-4.265625-.011718-7.714844-3.484375-7.703125-7.75l.023438-7.351562c.015625-4.257813 3.472656-7.699219 7.726562-7.699219h.023438c4.269531.011719 7.71875 3.480469 7.703125 7.75l-.023438 7.347656c-.011718 4.257813-3.46875 7.703125-7.726562 7.703125zm0 0"/><path d="m50.648438 100.078125c-.007813 0-.015626 0-.023438 0l-7.351562-.023437c-4.265626-.015626-7.714844-3.484376-7.703126-7.75.015626-4.257813 3.472657-7.703126 7.726563-7.703126h.023437l7.351563.023438c4.265625.011719 7.714844 3.480469 7.703125 7.75-.011719 4.257812-3.46875 7.703125-7.726562 7.703125zm0 0"/><path d="m15.078125 99.96875c-.011719 0-.015625 0-.023437 0l-7.351563-.023438c-4.265625-.011718-7.7148438-3.480468-7.703125-7.75.0117188-4.257812 3.46875-7.703124 7.726562-7.703124h.023438l7.351562.023437c4.265626.011719 7.714844 3.484375 7.703126 7.75-.015626 4.257813-3.472657 7.703125-7.726563 7.703125zm0 0"/></g></svg>