<svg height="512pt" viewBox="-171 0 512 512" width="512pt" xmlns="http://www.w3.org/2000/svg"><path d="m88.789062 467.605469h73.539063c3.851563 0 6.976563-3.125 6.976563-6.976563 0-2.089844-.917969-3.964844-2.371094-5.242187-2.839844-2.5-4.605469-5.992188-4.605469-9.777344v-42.671875c0-3.78125 1.765625-7.277344 4.605469-9.777344 1.453125-1.277344 2.371094-3.152344 2.371094-5.238281 0-3.851563-3.125-6.976563-6.976563-6.976563h-73.539063zm0 0" fill="#fbcc85"/><path d="m169.300781 460.625c0 3.851562-3.121093 6.972656-6.976562 6.972656h-18.203125c3.855468 0 6.984375-3.121094 6.984375-6.972656 0-2.082031-.914063-3.957031-2.367188-5.234375-2.84375-2.5-4.617187-5.996094-4.617187-9.785156v-42.671875c0-3.78125 1.773437-7.273438 4.617187-9.773438 1.453125-1.277344 2.367188-3.152344 2.367188-5.234375 0-1.925781-.78125-3.667969-2.046875-4.933593-1.257813-1.269532-3.007813-2.050782-4.9375-2.050782h18.203125c1.925781 0 3.667969.78125 4.9375 2.050782 1.253906 1.265624 2.039062 3.007812 2.039062 4.933593 0 2.082031-.917969 3.957031-2.371093 5.234375-2.832032 2.5-4.605469 5.996094-4.605469 9.773438v42.671875c0 3.789062 1.773437 7.28125 4.605469 9.785156 1.453124 1.277344 2.371093 3.152344 2.371093 5.234375zm0 0" fill="#e8b76b"/><path d="m61.449219 83.152344h32.914062v409.21875h-32.914062zm0 0" fill="#e8b76b"/><path d="m77.90625 83.152344h16.457031v409.21875h-16.457031zm0 0" fill="#c99d5c"/><path d="m90.226562 173.859375h-24.640624c-7.652344 0-13.855469-6.203125-13.855469-13.855469s6.203125-13.855468 13.855469-13.855468h24.640624c7.652344 0 13.851563 6.203124 13.851563 13.855468s-6.199219 13.855469-13.851563 13.855469zm0 0" fill="#fef0dc"/><path d="m104.078125 160.007812c0 3.820313-1.542969 7.28125-4.058594 9.789063-2.503906 2.511719-5.972656 4.058594-9.796875 4.058594h-18.542968c3.824218 0 7.292968-1.546875 9.796874-4.058594 2.515626-2.503906 4.058594-5.96875 4.058594-9.789063 0-7.652343-6.199218-13.855468-13.855468-13.855468h18.542968c7.65625 0 13.855469 6.203125 13.855469 13.855468zm0 0" fill="#fcd79f"/><path d="m90.226562 364.257812h-24.640624c-7.652344 0-13.855469-6.203124-13.855469-13.855468s6.203125-13.855469 13.855469-13.855469h24.640624c7.652344 0 13.851563 6.203125 13.851563 13.855469s-6.199219 13.855468-13.851563 13.855468zm0 0" fill="#fef0dc"/><path d="m104.078125 350.40625c0 3.832031-1.542969 7.292969-4.058594 9.796875-2.503906 2.503906-5.972656 4.058594-9.796875 4.058594h-18.542968c3.824218 0 7.292968-1.554688 9.796874-4.058594 2.515626-2.503906 4.058594-5.964844 4.058594-9.796875 0-7.652344-6.199218-13.855469-13.855468-13.855469h18.542968c7.65625 0 13.855469 6.199219 13.855469 13.855469zm0 0" fill="#fcd79f"/><path d="m90.226562 512h-24.640624c-7.652344 0-13.855469-6.203125-13.855469-13.855469 0-7.652343 6.203125-13.855469 13.855469-13.855469h24.640624c7.652344 0 13.851563 6.203126 13.851563 13.855469 0 7.652344-6.199219 13.855469-13.851563 13.855469zm0 0" fill="#fef0dc"/><path d="m104.078125 498.144531c0 3.820313-1.542969 7.292969-4.058594 9.796875-2.503906 2.511719-5.972656 4.058594-9.796875 4.058594h-18.542968c3.824218 0 7.292968-1.546875 9.796874-4.058594 2.515626-2.503906 4.058594-5.976562 4.058594-9.796875 0-7.65625-6.199218-13.855469-13.855468-13.855469h18.542968c7.65625 0 13.855469 6.199219 13.855469 13.855469zm0 0" fill="#fcd79f"/><g fill="#fbcc85"><path d="m105.808594 198.773438c0 4.265624-3.449219 7.726562-7.722656 7.726562h-40.363282c-4.265625 0-7.726562-3.460938-7.726562-7.726562 0-4.265626 3.460937-7.726563 7.726562-7.726563h40.363282c4.273437 0 7.722656 3.460937 7.722656 7.726563zm0 0"/><path d="m105.808594 223.683594c0 4.265625-3.449219 7.726562-7.722656 7.726562h-40.363282c-4.265625 0-7.726562-3.460937-7.726562-7.726562s3.460937-7.726563 7.726562-7.726563h40.363282c4.273437 0 7.722656 3.460938 7.722656 7.726563zm0 0"/><path d="m77.90625 0c-43.023438 0-77.90625 26.160156-77.90625 58.433594 0 32.265625 34.882812 58.425781 77.90625 58.425781 43.027344 0 77.910156-26.160156 77.910156-58.425781 0-32.273438-34.882812-58.433594-77.910156-58.433594zm0 65.160156c-17.0625 0-30.898438-8.175781-30.898438-18.265625 0-10.089843 13.835938-18.265625 30.898438-18.265625 17.066406 0 30.898438 8.175782 30.898438 18.265625 0 10.089844-13.835938 18.265625-30.898438 18.265625zm0 0"/></g><path d="m155.816406 58.433594c0 32.261718-34.882812 58.421875-77.902344 58.421875-3.144531 0-6.234374-.144531-9.273437-.414063 38.652344-3.441406 68.632813-28.09375 68.632813-58.007812 0-29.917969-29.980469-54.578125-68.632813-58.019532 3.039063-.269531 6.128906-.414062 9.273437-.414062 43.019532 0 77.902344 26.15625 77.902344 58.433594zm0 0" fill="#e8b76b"/><path d="m105.808594 223.683594c0 4.265625-3.449219 7.726562-7.722656 7.726562h-20.183594v-15.453125h20.179687c4.277344 0 7.726563 3.460938 7.726563 7.726563zm0 0" fill="#e8b76b"/><path d="m98.085938 206.5h-20.183594v-15.453125h20.179687c4.277344 0 7.726563 3.460937 7.726563 7.726563 0 4.265624-3.449219 7.726562-7.722656 7.726562zm0 0" fill="#e8b76b"/></svg>