<svg height="512pt" viewBox="0 -3 512.00063 512" width="512pt" xmlns="http://www.w3.org/2000/svg"><g fill="#fcd79f"><path d="m416.582031 77.410156c-.390625 14.222656-4.789062 28.484375-13.542969 40.988282-1.457031 2.078124-3.789062 3.199218-6.148437 3.199218-1.492187 0-2.992187-.441406-4.300781-1.359375-3.390625-2.382812-4.222656-7.050781-1.839844-10.453125 9.710938-13.863281 12.742188-30.445312 9.78125-45.886718-2.851562-14.839844-11.242188-28.652344-24.574219-37.984376-13.171875-9.21875-29.15625-12.769531-44.996093-9.96875-6.230469 1.089844-12.140626 3.117188-17.582032 5.96875-8.410156 4.410157-15.691406 10.792969-21.292968 18.792969-2.378907 3.390625-7.050782 4.222657-10.453126 1.839844-3.390624-2.378906-4.21875-7.050781-1.839843-10.441406 3.761719-5.378907 8.132812-10.167969 13.011719-14.300781 10.050781-8.539063 22.222656-14.292969 35.546874-16.640626 19.792969-3.492187 39.753907.9375 56.207032 12.460938 21.484375 15.039062 32.695312 39.351562 32.023437 63.785156zm0 0"/><path d="m491.582031 220.0625c-3.457031 3.679688-7.339843 7.050781-11.628906 10.058594-1.3125.921875-2.8125 1.359375-4.292969 1.359375-2.367187 0-4.699218-1.117188-6.148437-3.199219-2.382813-3.390625-1.5625-8.070312 1.839843-10.449219 6.898438-4.832031 12.480469-10.863281 16.652344-17.625 12.261719-19.851562 12.339844-45.945312-1.871094-66.246093-9.222656-13.183594-23.023437-21.972657-38.867187-24.765626-.628906-.109374-1.269531-.207031-1.898437-.296874-15.222657-2.210938-30.453126 1.417968-43.105469 10.269531-3.390625 2.378906-8.070313 1.550781-10.441407-1.839844-2.378906-3.390625-1.558593-8.070313 1.839844-10.441406 11.621094-8.140625 24.992188-12.730469 38.796875-13.511719 5.757813-.320312 11.589844.019531 17.410157 1.050781 19.792968 3.480469 37.035156 14.472657 48.558593 30.933594 20.78125 29.683594 17.082031 69.296875-6.84375 94.703125zm0 0"/><path d="m230.367188 42.546875c-3.402344 2.378906-8.070313 1.550781-10.453126-1.839844-5.601562-8.003906-12.882812-14.382812-21.292968-18.792969-5.441406-2.851562-11.351563-4.882812-17.582032-5.972656-15.839843-2.800781-31.824218.75-44.996093 9.972656-13.332031 9.328126-21.722657 23.140626-24.574219 37.984376-2.957031 15.441406.070312 32.023437 9.78125 45.886718 2.382812 3.398438 1.550781 8.070313-1.839844 10.449219-1.308594.921875-2.808594 1.359375-4.300781 1.359375-2.359375 0-4.691406-1.117188-6.148437-3.199219-8.753907-12.5-13.152344-26.765625-13.542969-40.984375-.671875-24.433594 10.539062-48.75 32.023437-63.789062 16.453125-11.519532 36.417969-15.941406 56.210938-12.460938 13.320312 2.347656 25.492187 8.101563 35.542968 16.640625 4.882813 4.132813 9.25 8.921875 13.011719 14.304688 2.378907 3.390625 1.550781 8.058593-1.839843 10.441406zm0 0"/><path d="m120.179688 117.328125c-2.367188 3.386719-7.050782 4.21875-10.4375 1.839844-12.652344-8.851563-27.886719-12.484375-43.109376-10.273438-.628906.089844-1.269531.191407-1.898437.300781-15.84375 2.789063-29.644531 11.582032-38.863281 24.761719-14.214844 20.304688-14.132813 46.398438-1.871094 66.25 4.167969 6.761719 9.75 12.792969 16.652344 17.621094 3.398437 2.382813 4.21875 7.0625 1.839844 10.453125-1.449219 2.078125-3.78125 3.199219-6.152344 3.199219-1.480469 0-2.980469-.441407-4.289063-1.359375-4.292969-3.011719-8.171875-6.382813-11.632812-10.0625-23.921875-25.402344-27.625-65.019532-6.839844-94.703125 11.519531-16.460938 28.761719-27.453125 48.554687-30.933594 5.820313-1.027344 11.652344-1.367187 17.414063-1.050781 13.8125.78125 27.171875 5.371094 38.792969 13.511718 3.402344 2.371094 4.222656 7.054688 1.839844 10.445313zm0 0"/><path d="m232.207031 473.464844c-3.761719 5.382812-8.128906 10.171875-13.011719 14.304687-10.050781 8.539063-22.222656 14.289063-35.542968 16.640625-4.414063.769532-8.832032 1.160156-13.222656 1.160156-15.304688 0-30.207032-4.671874-42.988282-13.621093-21.480468-15.042969-32.691406-39.355469-32.023437-63.789063.390625-14.222656 4.792969-28.484375 13.542969-40.988281 2.378906-3.390625 7.058593-4.21875 10.449218-1.839844 3.390625 2.378907 4.222656 7.050781 1.839844 10.453125-9.710938 13.859375-12.742188 30.441406-9.78125 45.882813 2.851562 14.84375 11.242188 28.65625 24.574219 37.988281 13.171875 9.21875 29.15625 12.769531 44.996093 9.96875 6.230469-1.089844 12.140626-3.121094 17.582032-5.96875 8.410156-4.414062 15.691406-10.792969 21.292968-18.792969 2.378907-3.390625 7.050782-4.222656 10.453126-1.839843 3.390624 2.382812 4.21875 7.050781 1.839843 10.441406zm0 0"/><path d="m118.339844 398.683594c-11.609375 8.140625-24.972656 12.742187-38.785156 13.511718-1.398438.082032-2.796876.121094-4.199219.121094-4.390625 0-8.8125-.390625-13.222657-1.167968-19.792968-3.480469-37.035156-14.472657-48.554687-30.9375-20.785156-29.683594-17.082031-69.296876 6.839844-94.703126 3.460937-3.679687 7.339843-7.050781 11.632812-10.058593 3.386719-2.378907 8.070313-1.550781 10.441407 1.839843 2.378906 3.390626 1.558593 8.070313-1.839844 10.449219-6.902344 4.832031-12.484375 10.863281-16.652344 17.625-12.261719 19.851563-12.34375 45.945313 1.867188 66.246094 9.222656 13.183594 23.023437 21.972656 38.867187 24.765625.628906.109375 1.269531.207031 1.898437.296875 15.222657 2.210937 30.453126-1.417969 43.105469-10.269531 3.390625-2.378906 8.070313-1.550782 10.441407 1.839844 2.382812 3.390624 1.5625 8.074218-1.839844 10.441406zm0 0"/><path d="m384.558594 491.949219c-12.78125 8.949219-27.695313 13.621093-42.984375 13.621093-4.394531 0-8.8125-.390624-13.222657-1.160156-13.324218-2.351562-25.496093-8.101562-35.546874-16.640625-4.878907-4.132812-9.25-8.921875-13.011719-14.304687-2.378907-3.390625-1.550781-8.058594 1.839843-10.441406 3.402344-2.378907 8.070313-1.546876 10.453126 1.839843 5.601562 8.003907 12.882812 14.382813 21.292968 18.792969 5.441406 2.851562 11.351563 4.882812 17.582032 5.972656 15.839843 2.800782 31.824218-.75 44.996093-9.972656 13.332031-9.328125 21.722657-23.140625 24.574219-37.984375 2.957031-15.441406-.070312-32.023437-9.78125-45.886719-2.382812-3.398437-1.550781-8.070312 1.839844-10.449218 3.386718-2.378907 8.070312-1.550782 10.449218 1.839843 8.75 12.503907 13.152344 26.765625 13.542969 40.984375.671875 24.433594-10.539062 48.746094-32.023437 63.789063zm0 0"/><path d="m498.425781 380.210938c-11.523437 16.464843-28.765625 27.457031-48.558593 30.9375-4.410157.777343-8.832032 1.167968-13.222657 1.167968-1.398437 0-2.800781-.039062-4.199219-.121094-13.8125-.769531-27.164062-5.371093-38.785156-13.511718-3.402344-2.367188-4.222656-7.050782-1.839844-10.441406 2.367188-3.386719 7.050782-4.21875 10.441407-1.839844 12.652343 8.851562 27.882812 12.484375 43.105469 10.273437.628906-.089843 1.269531-.191406 1.898437-.300781 15.84375-2.789062 29.644531-11.582031 38.867187-24.761719 14.210938-20.304687 14.128907-46.398437 1.867188-66.25-4.167969-6.761719-9.75-12.792969-16.652344-17.621093-3.398437-2.382813-4.21875-7.0625-1.839844-10.453126 2.371094-3.390624 7.050782-4.21875 10.441407-1.839843 4.292969 3.011719 8.171875 6.382812 11.632812 10.0625 23.925781 25.402343 27.625 65.015625 6.84375 94.699219zm0 0"/></g><path d="m475.660156 231.480469c1.480469 0 2.980469-.4375 4.289063-1.359375 4.292969-3.007813 8.171875-6.378906 11.632812-10.058594-.910156-6.691406-2.109375-13.3125-3.582031-19.855469-4.167969 6.761719-9.75 12.792969-16.652344 17.621094-3.398437 2.382813-4.21875 7.0625-1.839844 10.453125 1.453126 2.082031 3.78125 3.199219 6.152344 3.199219zm0 0" fill="#fac574"/><path d="m479.953125 275.449219c-3.390625-2.382813-8.074219-1.550781-10.441406 1.839843-2.382813 3.390626-1.5625 8.070313 1.839843 10.449219 6.898438 4.832031 12.480469 10.863281 16.652344 17.621094 1.46875-6.539063 2.667969-13.160156 3.578125-19.851563-3.460937-3.679687-7.339843-7.050781-11.628906-10.058593zm0 0" fill="#fac574"/><path d="m40.652344 217.828125c-6.902344-4.828125-12.484375-10.859375-16.652344-17.621094-1.472656 6.542969-2.671875 13.164063-3.582031 19.855469 3.460937 3.679688 7.339843 7.050781 11.632812 10.058594 1.308594.921875 2.808594 1.359375 4.289063 1.359375 2.371094 0 4.703125-1.117188 6.152344-3.199219 2.378906-3.390625 1.558593-8.070312-1.839844-10.453125zm0 0" fill="#fac574"/><path d="m32.050781 275.449219c-4.292969 3.007812-8.171875 6.378906-11.632812 10.058593.910156 6.691407 2.109375 13.3125 3.582031 19.855469 4.167969-6.761719 9.75-12.792969 16.652344-17.625 3.398437-2.378906 4.21875-7.058593 1.839844-10.449219-2.371094-3.390624-7.054688-4.222656-10.441407-1.839843zm0 0" fill="#fac574"/><path d="m279.792969 32.105469c-2.378907 3.390625-1.550781 8.058593 1.839843 10.441406 3.402344 2.378906 8.070313 1.550781 10.453126-1.839844 5.601562-8.003906 12.882812-14.382812 21.292968-18.792969-6.769531-1.671874-13.632812-3.042968-20.574218-4.113281-4.878907 4.132813-9.25 8.921875-13.011719 14.304688zm0 0" fill="#fac574"/><path d="m292.085938 464.863281c-2.378907-3.390625-7.050782-4.21875-10.453126-1.839843-3.390624 2.382812-4.21875 7.050781-1.839843 10.441406 3.761719 5.382812 8.132812 10.171875 13.011719 14.304687 6.941406-1.070312 13.804687-2.441406 20.574218-4.113281-8.410156-4.410156-15.691406-10.789062-21.292968-18.792969zm0 0" fill="#fac574"/><path d="m219.195312 17.804688c-6.941406 1.066406-13.800781 2.4375-20.574218 4.109374 8.414062 4.410157 15.691406 10.792969 21.292968 18.792969 2.382813 3.390625 7.050782 4.222657 10.453126 1.839844 3.390624-2.378906 4.222656-7.050781 1.839843-10.441406-3.761719-5.382813-8.128906-10.171875-13.011719-14.300781zm0 0" fill="#fac574"/><path d="m230.367188 463.023438c-3.402344-2.378907-8.070313-1.550782-10.453126 1.839843-5.601562 8-12.882812 14.382813-21.292968 18.792969 6.769531 1.671875 13.632812 3.039062 20.574218 4.113281 4.878907-4.132812 9.25-8.921875 13.011719-14.304687 2.378907-3.390625 1.550781-8.058594-1.839843-10.441406zm0 0" fill="#fac574"/><path d="m256 476.582031c123.597656 0 223.796875-100.199219 223.796875-223.796875l-64.503906-15-55.832031 15c0 57.144532-46.316407 103.460938-103.460938 103.460938l-15 52.203125zm-103.460938-223.796875c0-57.144531 46.316407-103.460937 103.460938-103.460937l18-64.5-18-55.835938c-123.597656 0-223.796875 100.199219-223.796875 223.796875l63.1875 18zm0 0" fill="#fff5f5"/><path d="m479.800781 252.785156c0 123.601563-100.199219 223.800782-223.800781 223.800782-5.496094 0-10.957031-.195313-16.355469-.59375 115.964844-8.378907 207.4375-105.101563 207.4375-223.207032 0-118.105468-91.472656-214.828125-207.4375-223.210937 5.398438-.394531 10.859375-.589844 16.355469-.589844 123.601562 0 223.800781 100.199219 223.800781 223.800781zm0 0" fill="#efe2dd"/><path d="m479.800781 252.785156h-120.34375c0-57.148437-46.308593-103.457031-103.457031-103.457031v-120.34375c123.601562 0 223.800781 100.199219 223.800781 223.800781zm0 0" fill="#ea576b"/><path d="m479.800781 252.785156h-32.71875c0-112.488281-82.984375-205.589844-191.082031-221.421875v-2.378906c123.601562 0 223.800781 100.199219 223.800781 223.800781zm0 0" fill="#e43c53"/><path d="m152.539062 252.785156h-120.335937c0 123.597656 100.199219 223.796875 223.796875 223.796875v-120.335937c-57.144531 0-103.460938-46.316406-103.460938-103.460938zm0 0" fill="#ea576b"/><path d="m123.195312 89.039062c0 14.632813-11.859374 26.492188-26.488281 26.492188-14.628906 0-26.488281-11.859375-26.488281-26.492188 0-14.628906 11.859375-26.488281 26.488281-26.488281 14.628907 0 26.488281 11.859375 26.488281 26.488281zm0 0" fill="#fbcc85"/><path d="m116.464844 106.679688c-7.980469 8.941406-20.65625 11.199218-30.976563 6.355468 3.167969-1.460937 6.082031-3.589844 8.546875-6.355468 9.746094-10.90625 8.796875-27.648438-2.109375-37.398438-1.980469-1.765625-4.148437-3.175781-6.429687-4.238281 9.3125-4.355469 20.707031-3.035157 28.851562 4.238281 10.917969 9.75 11.867188 26.492188 2.117188 37.398438zm0 0" fill="#e8b76b"/><path d="m441.78125 89.039062c0 14.632813-11.859375 26.492188-26.488281 26.492188-14.632813 0-26.492188-11.859375-26.492188-26.492188 0-14.628906 11.859375-26.488281 26.492188-26.488281 14.628906 0 26.488281 11.859375 26.488281 26.488281zm0 0" fill="#fbcc85"/><path d="m435.050781 106.679688c-7.984375 8.941406-20.65625 11.199218-30.980469 6.355468 3.167969-1.460937 6.085938-3.589844 8.546876-6.355468 9.746093-10.90625 8.796874-27.648438-2.109376-37.398438-1.976562-1.765625-4.148437-3.175781-6.429687-4.238281 9.316406-4.355469 20.707031-3.035157 28.851563 4.238281 10.917968 9.75 11.867187 26.492188 2.121093 37.398438zm0 0" fill="#e8b76b"/><path d="m123.195312 416.527344c0 14.632812-11.859374 26.492187-26.488281 26.492187-14.628906 0-26.488281-11.859375-26.488281-26.492187 0-14.628906 11.859375-26.488282 26.488281-26.488282 14.628907 0 26.488281 11.859376 26.488281 26.488282zm0 0" fill="#fbcc85"/><path d="m116.464844 434.167969c-7.980469 8.941406-20.65625 11.199219-30.976563 6.355469 3.167969-1.460938 6.082031-3.589844 8.546875-6.355469 9.746094-10.910157 8.796875-27.648438-2.109375-37.398438-1.980469-1.765625-4.148437-3.179687-6.429687-4.238281 9.3125-4.359375 20.707031-3.035156 28.851562 4.238281 10.917969 9.75 11.867188 26.488281 2.117188 37.398438zm0 0" fill="#e8b76b"/><path d="m441.78125 416.527344c0 14.632812-11.859375 26.492187-26.488281 26.492187-14.632813 0-26.492188-11.859375-26.492188-26.492187 0-14.628906 11.859375-26.488282 26.492188-26.488282 14.628906 0 26.488281 11.859376 26.488281 26.488282zm0 0" fill="#fbcc85"/><path d="m435.050781 434.167969c-7.984375 8.941406-20.65625 11.199219-30.980469 6.355469 3.167969-1.460938 6.085938-3.589844 8.546876-6.355469 9.746093-10.910157 8.796874-27.648438-2.109376-37.398438-1.976562-1.765625-4.148437-3.179687-6.429687-4.238281 9.316406-4.359375 20.707031-3.035156 28.851563 4.238281 10.917968 9.75 11.867187 26.488281 2.121093 37.398438zm0 0" fill="#e8b76b"/></svg>