<svg height="512pt" viewBox="-159 0 512 512" width="512pt" xmlns="http://www.w3.org/2000/svg"><path d="m193.761719 272.578125v205.261719c0 7.261718-4.101563 13.890625-10.589844 17.148437-1.171875.589844-2.371094 1.171875-3.613281 1.730469-.117188.0625-.25.121094-.378906.171875-.667969.308594-1.351563.609375-2.03125.898437-.46875.199219-.949219.402344-1.429688.601563-.589844.25-1.1875.488281-1.796875.730469-.53125.207031-1.0625.417968-1.601563.617187-.460937.183594-.921874.351563-1.378906.523438-1.082031.398437-2.179687.789062-3.300781 1.167969l-.011719.011718c-19.320312 6.597656-43.929687 10.558594-70.75 10.558594-34.667968 0-65.648437-6.609375-86.289062-17.011719-6.488282-3.257812-10.589844-9.886719-10.589844-17.148437v-205.261719c0-27.867187 11.769531-52.988281 30.609375-70.65625 2.539063-2.382813 4.96875-4.863281 7.28125-7.421875l32.28125 32.269531c14.75 14.761719 38.667969 14.761719 53.417969 0l20.851562-20.839843 11.429688-11.429688c.21875.238281.4375.488281.660156.730469 1.410156 1.53125 2.859375 3.039062 4.347656 4.507812.75.730469 1.5 1.460938 2.269532 2.183594 18.839843 17.667969 30.613281 42.789063 30.613281 70.65625zm0 0" fill="#9e552e"/><path d="m193.761719 272.578125v205.261719c0 7.261718-4.101563 13.890625-10.589844 17.148437-1.171875.589844-2.371094 1.171875-3.613281 1.730469-.117188.0625-.25.121094-.378906.171875-.667969.308594-1.351563.609375-2.03125.898437-.46875.199219-.949219.402344-1.429688.601563-.589844.25-1.1875.488281-1.796875.730469-.53125.207031-1.0625.417968-1.601563.617187-.460937.183594-.921874.351563-1.378906.523438-1.082031.398437-2.179687.789062-3.300781 1.167969 4.03125-3.570313 6.4375-8.757813 6.4375-14.320313v-211.4375c0-27.390625-11.367187-52.132813-29.636719-69.742187l11.429688-11.429688c.21875.238281.4375.488281.660156.730469 1.410156 1.53125 2.859375 3.039062 4.347656 4.507812.75.730469 1.5 1.460938 2.269532 2.183594 18.839843 17.667969 30.613281 42.789063 30.613281 70.65625zm0 0" fill="#844225"/><path d="m143.363281 357.265625v150.5c-14.167969 2.730469-29.90625 4.234375-46.484375 4.234375-16.574218 0-32.316406-1.503906-46.480468-4.234375v-150.5c0-25.671875 20.808593-46.480469 46.480468-46.480469 12.835938 0 24.457032 5.203125 32.863282 13.617188 8.417968 8.40625 13.621093 20.027344 13.621093 32.863281zm0 0" fill="#fac574"/><path d="m163.304688 202.058594v.011718l-39.710938 39.714844c-14.753906 14.75-38.675781 14.75-53.425781 0l-39.714844-39.714844v-.011718c24.601563-22.992188 39.054687-54.824219 41.382813-88.417969l3.945312-80.960937h42.195312l3.949219 80.960937c2.328125 33.59375 16.777344 65.425781 41.378907 88.417969zm0 0" fill="#fde5c2"/><path d="m163.304688 202.058594v.011718l-11.628907 11.628907c-2.554687-3.058594-5.296875-5.964844-8.199219-8.691407-24.507812-22.984374-38.902343-54.753906-41.230468-88.277343l-3.800782-84.050781h19.53125l3.949219 80.960937c2.328125 33.59375 16.777344 65.425781 41.378907 88.417969zm0 0" fill="#fcd79f"/><path d="m116.921875 43.984375h-40.085937c-6.363282 0-11.523438-5.160156-11.523438-11.523437v-20.9375c0-6.363282 5.160156-11.523438 11.527344-11.523438h40.082031c6.367187 0 11.527344 5.160156 11.527344 11.523438v20.9375c-.003907 6.363281-5.164063 11.523437-11.527344 11.523437zm0 0" fill="#db885d"/><path d="m128.445312 11.527344v20.933594c0 6.367187-5.160156 11.527343-11.515624 11.527343h-19.214844c6.355468 0 11.515625-5.160156 11.515625-11.527343v-20.933594c0-6.367188-5.160157-11.527344-11.515625-11.527344h19.210937c6.359375 0 11.519531 5.160156 11.519531 11.527344zm0 0" fill="#c86d3d"/><path d="m143.359375 357.269531c0 25.671875-20.808594 46.480469-46.480469 46.480469-25.667968 0-46.480468-20.808594-46.480468-46.480469s20.8125-46.480469 46.480468-46.480469c25.671875 0 46.480469 20.808594 46.480469 46.480469zm0 0" fill="#00b7a0"/><path d="m143.363281 357.265625c0 25.671875-20.8125 46.484375-46.484375 46.484375-2.820312 0-5.59375-.246094-8.28125-.730469 21.714844-3.917969 38.1875-22.914062 38.1875-45.75 0-22.839843-16.472656-41.835937-38.1875-45.75 2.6875-.484375 5.460938-.734375 8.28125-.734375 25.671875 0 46.484375 20.808594 46.484375 46.480469zm0 0" fill="#009a8d"/><path d="m120.886719 320.183594c0 13.257812-10.75 24.003906-24.007813 24.003906-13.257812 0-24.003906-10.746094-24.003906-24.003906 0-13.257813 10.746094-24.007813 24.003906-24.007813 13.257813 0 24.007813 10.75 24.007813 24.007813zm0 0" fill="#ea576b"/><path d="m120.882812 320.179688c0 13.257812-10.746093 24.015624-24.003906 24.015624-2.8125 0-5.5-.484374-8.003906-1.371093 9.324219-3.296875 16-12.1875 16-22.644531 0-10.453126-6.675781-19.34375-16-22.632813 2.503906-.886719 5.191406-1.367187 8.003906-1.367187 13.257813-.003907 24.003906 10.742187 24.003906 24zm0 0" fill="#e43c53"/><g fill="#00b7a0"><path d="m82.414062 487.789062c-4.269531 0-7.726562-3.457031-7.726562-7.722656v-46.875c0-4.265625 3.457031-7.726562 7.726562-7.726562 4.265626 0 7.726563 3.460937 7.726563 7.726562v46.875c0 4.265625-3.460937 7.722656-7.726563 7.722656zm0 0"/><path d="m111.347656 487.789062c-4.269531 0-7.726562-3.457031-7.726562-7.722656v-46.875c0-4.265625 3.457031-7.726562 7.726562-7.726562 4.265625 0 7.726563 3.460937 7.726563 7.726562v46.875c0 4.265625-3.460938 7.722656-7.726563 7.722656zm0 0"/></g></svg>