<svg height="512pt" viewBox="-2 0 512 512" width="512pt" xmlns="http://www.w3.org/2000/svg"><path d="m362.113281 126.929688c0 11.1875-2.289062 21.839843-6.398437 31.535156h-325.308594c-1.421875-5.515625-2.183594-11.292969-2.183594-17.257813 0-37.859375 30.6875-68.558593 68.558594-68.558593.308594 0 .617188.019531.925781.019531 3.554688-36.117188 30.925781-65.238281 66.1875-71.441407 4.566407-.804687 9.273438-1.226562 14.074219-1.226562 28.679688 0 53.847656 14.96875 68.144531 37.519531 2.761719 4.347657 5.109375 8.984375 7.003907 13.84375 0 .011719.011718.011719.011718.023438 8.816406-3.308594 18.359375-5.121094 28.320313-5.121094 44.546875 0 80.664062 36.105469 80.664062 80.664063zm0 0" fill="#fde5c2"/><g fill="#fcd79f"><path d="m193.445312 143.710938v-24.1875c0-4.269532-3.460937-7.726563-7.726562-7.726563s-7.726562 3.457031-7.726562 7.726563v24.1875zm0 0"/><path d="m127.894531 143.710938v-24.1875c0-4.269532-3.460937-7.726563-7.726562-7.726563-4.269531 0-7.726563 3.457031-7.726563 7.726563v24.1875zm0 0"/><path d="m296.902344 157.445312v-37.921874c0-4.269532-3.460938-7.726563-7.726563-7.726563s-7.726562 3.457031-7.726562 7.726563v37.921874zm0 0"/><path d="m220.394531 157.445312v-37.921874c0-4.269532-3.457031-7.726563-7.726562-7.726563-4.265625 0-7.726563 3.457031-7.726563 7.726563v37.921874zm0 0"/><path d="m362.105469 126.921875c0 11.191406-2.269531 21.851563-6.394531 31.542969h-28.226563c4.125-9.691406 6.410156-20.351563 6.410156-31.542969 0-39.730469-28.730469-72.738281-66.53125-79.425781 4.566407-.820313 9.273438-1.234375 14.082031-1.234375 44.550782 0 80.660157 36.109375 80.660157 80.660156zm0 0"/><path d="m253.128906 51.375c-8.085937 3.039062-15.566406 7.335938-22.179687 12.652344-5.300781-32.015625-39.085938-57.816406-67.054688-62.800782 4.566407-.804687 9.273438-1.226562 14.074219-1.226562 34.222656 0 63.425781 21.3125 75.160156 51.375zm0 0"/><path d="m253.121094 51.363281c-.023438.011719-.042969.023438-.0625.03125-7.261719 2.730469-14.011719 6.585938-20.058594 11.445313-8.417969 6.757812-15.351562 15.464844-20.058594 25.1875-1.328125 2.753906-4.089844 4.359375-6.953125 4.359375-1.132812 0-2.277343-.246094-3.359375-.773438-3.84375-1.851562-5.449218-6.480469-3.59375-10.320312 5.695313-11.765625 14.09375-22.316407 24.292969-30.503907 6.902344-5.554687 14.566406-10.015624 22.785156-13.269531 2.761719 4.347657 5.109375 8.984375 7.007813 13.84375zm0 0"/></g><path d="m508.304688 253.054688v102.234374c0 40.671876-33.101563 73.769532-73.773438 73.769532h-100.347656c-12.199219 0-22.085938-9.886719-22.085938-22.085938 0-12.1875 9.886719-22.078125 22.085938-22.078125h100.347656c16.328125 0 29.609375-13.277343 29.609375-29.605469v-102.234374c0-16.328126-13.28125-29.609376-29.609375-29.609376h-103.015625c-12.1875 0-22.078125-9.886718-22.078125-22.074218 0-12.199219 9.890625-22.089844 22.078125-22.089844h103.015625c40.671875 0 73.773438 33.101562 73.773438 73.773438zm0 0" fill="#db885d"/><path d="m394.539062 404.984375c4.433594 6.386719 5.667969 14.546875 3.269532 21.964844l-.679688 2.109375h-62.945312c-12.199219 0-22.085938-9.886719-22.085938-22.085938 0-12.1875 9.886719-22.078125 22.085938-22.078125h64.53125c-1.238282 6.757813-2.628906 13.457031-4.175782 20.089844zm0 0" fill="#c86d3d"/><path d="m397.105469 213.269531c.679687 3.378907 1.332031 6.765625 1.925781 10.175781h-67.515625c-12.1875 0-22.078125-9.890624-22.078125-22.078124 0-12.195313 9.890625-22.085938 22.078125-22.085938h68.300781c.980469 7.121094-.917968 14.300781-5.398437 20.089844-.101563.125-.207031.238281-.300781.359375 1.0625 4.492187 2.0625 8.996093 2.988281 13.539062zm0 0" fill="#c86d3d"/><path d="m114.339844 486.089844c4.238281 9.082031 8.78125 17.730468 13.601562 25.910156h-65.300781c-3.660156 0-7.050781-1.871094-8.980469-4.960938-4.191406-6.699218-8.179687-13.6875-11.949218-20.949218-9.371094-18.070313-17.402344-37.828125-23.832032-58.929688-11.480468-37.699218-17.878906-79.671875-17.878906-123.910156 0-30.320312 3-59.570312 8.601562-87.121094 3.789063-18.679687 8.777344-36.558594 14.808594-53.457031h74.46875c-5.417968 16.898437-9.910156 34.777344-13.320312 53.457031-5.027344 27.550782-7.730469 56.800782-7.730469 87.121094 0 44.238281 5.761719 86.210938 16.09375 123.910156 5.777344 21.101563 12.988281 40.859375 21.417969 58.929688zm0 0" fill="#ac5e33"/><path d="m391.570312 303.25c0 44.238281-6.410156 86.210938-17.890624 123.910156-6.429688 21.101563-14.449219 40.859375-23.828126 58.929688-3.773437 7.261718-7.75 14.25-11.941406 20.949218-1.929687 3.089844-5.332031 4.960938-8.980468 4.960938h-65.308594c4.828125-8.179688 9.367187-16.828125 13.597656-25.910156 8.429688-18.070313 15.652344-37.828125 21.429688-58.929688 10.320312-37.699218 16.089843-79.671875 16.089843-123.910156 0-30.320312-2.707031-59.570312-7.738281-87.121094-3.410156-18.679687-7.890625-36.558594-13.320312-53.457031h74.480468c6.03125 16.898437 11.019532 34.777344 14.808594 53.457031 5.589844 27.550782 8.601562 56.800782 8.601562 87.121094zm0 0" fill="#ac5e33"/><path d="m391.5625 303.246094c0 44.238281-6.410156 86.214844-17.878906 123.914062-6.433594 21.097656-14.457032 40.867188-23.832032 58.933594-3.773437 7.257812-7.75 14.246094-11.949218 20.945312-1.929688 3.089844-5.324219 4.957032-8.972656 4.957032h-25.09375c3.65625 0 7.050781-1.863282 8.980468-4.957032 4.191406-6.699218 8.175782-13.691406 11.949219-20.945312 9.375-18.066406 17.398437-37.835938 23.835937-58.933594 11.46875-37.699218 17.878907-79.679687 17.878907-123.914062 0-30.304688-3.003907-59.566406-8.605469-87.121094-3.785156-18.671875-8.769531-36.550781-14.8125-53.460938h25.09375c6.03125 16.910157 11.015625 34.789063 14.8125 53.460938 5.589844 27.554688 8.59375 56.816406 8.59375 87.121094zm0 0" fill="#9e552e"/><path d="m169.878906 486.089844c1.339844 9.082031 2.792969 17.730468 4.332032 25.910156h-53.871094c-5.371094-8.179688-10.417969-16.828125-15.128906-25.910156-9.371094-18.070313-17.402344-37.828125-23.820313-58.929688-11.492187-37.699218-17.902344-79.671875-17.902344-123.910156 0-30.320312 3.011719-59.570312 8.613281-87.121094 3.789063-18.679687 8.769532-36.558594 14.808594-53.457031h77.738282c-1.726563 16.898437-3.160157 34.777344-4.238282 53.457031-1.601562 27.550782-2.460937 56.800782-2.460937 87.121094 0 44.238281 1.832031 86.210938 5.109375 123.910156 1.839844 21.101563 4.140625 40.859375 6.820312 58.929688zm0 0" fill="#db885d"/><path d="m328.070312 303.25c0 44.238281-6.410156 86.210938-17.890624 123.910156-6.429688 21.101563-14.449219 40.859375-23.828126 58.929688-4.710937 9.082031-9.761718 17.730468-15.121093 25.910156h-53.871094c1.53125-8.179688 2.980469-16.828125 4.320313-25.910156 2.691406-18.070313 4.980468-37.828125 6.820312-58.929688 3.289062-37.699218 5.121094-79.671875 5.121094-123.910156 0-30.320312-.859375-59.570312-2.460938-87.121094-1.089844-18.679687-2.511718-36.558594-4.238281-53.457031h77.738281c6.03125 16.898437 11.019532 34.777344 14.808594 53.457031 5.589844 27.550782 8.601562 56.800782 8.601562 87.121094zm0 0" fill="#db885d"/><path d="m234.101562 162.664062h-76.636718c-2.132813 16.90625-3.886719 34.785157-5.222656 53.46875-1.964844 27.542969-3.023438 56.800782-3.023438 87.117188 0 44.238281 2.25 86.203125 6.292969 123.90625 2.265625 21.101562 5.089843 40.867188 8.390625 58.9375 1.65625 9.082031 3.4375 17.722656 5.328125 25.90625h53.105469c1.890624-8.183594 3.671874-16.824219 5.324218-25.90625 3.304688-18.070312 6.125-37.835938 8.394532-58.9375 4.039062-37.703125 6.292968-79.667969 6.292968-123.90625 0-30.316406-1.058594-59.574219-3.027344-87.117188-1.332031-18.683593-3.085937-36.5625-5.21875-53.46875zm0 0" fill="#ac5e33"/><path d="m17.550781 408.675781h356.464844c7.179687 0 12.277344 7 10.070313 13.835938l-12.210938 37.773437c-1.410156 4.371094-5.480469 7.328125-10.070312 7.328125h-332.046876c-4.589843 0-8.65625-2.957031-10.070312-7.328125l-12.207031-37.773437c-2.210938-6.835938 2.886719-13.835938 10.070312-13.835938zm0 0" fill="#898383"/><path d="m384.082031 422.515625-12.203125 37.777344c-1.410156 4.363281-5.488281 7.316406-10.078125 7.316406h-24.101562c4.59375 0 8.667969-2.949219 10.082031-7.316406l12.199219-37.777344c2.207031-6.835937-2.886719-13.839844-10.070313-13.839844h24.101563c7.179687 0 12.277343 7.003907 10.070312 13.839844zm0 0" fill="#756f6f"/><path d="m373.019531 195.457031h-354.472656c-8.261719 0-14.292969-7.808593-12.207031-15.804687l8.554687-32.789063c1.449219-5.554687 6.464844-9.429687 12.207031-9.429687h337.359376c5.742187 0 10.761718 3.875 12.210937 9.429687l8.554687 32.789063c2.085938 7.996094-3.945312 15.804687-12.207031 15.804687zm0 0" fill="#898383"/><path d="m373.015625 195.457031h-24.101563c8.265626 0 14.296876-7.808593 12.214844-15.808593l-8.554687-32.777344c-1.449219-5.566406-6.472657-9.4375-12.210938-9.4375h24.101563c5.738281 0 10.761718 3.871094 12.210937 9.4375l8.554688 32.777344c2.082031 8-3.949219 15.808593-12.214844 15.808593zm0 0" fill="#756f6f"/><path d="m152.941406 248.464844c-13.832031 0-25.046875-11.21875-25.046875-25.050782v-103.890624h50.097657v103.890624c0 13.832032-11.214844 25.050782-25.050782 25.050782zm0 0" fill="#fde5c2"/><path d="m250.921875 344.789062c-16.859375 0-30.527344-13.664062-30.527344-30.523437v-194.742187h61.054688v194.742187c0 16.859375-13.667969 30.523437-30.527344 30.523437zm0 0" fill="#fde5c2"/></svg>