<svg height="512pt" viewBox="-20 0 512 512" width="512pt" xmlns="http://www.w3.org/2000/svg"><path d="m335.023438 512h-198.253907c-4.640625 0-8.402343-3.761719-8.402343-8.398438v-198.257812c0-4.636719 3.761718-8.398438 8.402343-8.398438h198.253907c4.640624 0 8.398437 3.761719 8.398437 8.398438v198.257812c0 4.636719-3.757813 8.398438-8.398437 8.398438zm0 0" fill="#d8cdca"/><path d="m343.421875 305.347656v198.25c0 4.644532-3.757813 8.398438-8.402344 8.398438h-18.476562c4.644531 0 8.398437-3.753906 8.398437-8.398438v-198.25c0-4.644531-3.753906-8.398437-8.398437-8.398437h18.476562c4.644531 0 8.402344 3.753906 8.402344 8.398437zm0 0" fill="#b9acac"/><path d="m209.285156 451.382812c0 11.207032-9.089844 20.296876-20.296875 20.296876-11.210937 0-20.296875-9.089844-20.296875-20.296876 0-11.210937 9.085938-20.296874 20.296875-20.296874 11.207031 0 20.296875 9.085937 20.296875 20.296874zm0 0" fill="#ea576b"/><path d="m203.34375 465.734375c-5.585938 5.585937-13.625 7.242187-20.65625 4.941406 2.949219-.949219 5.710938-2.597656 8.054688-4.941406 7.921874-7.929687 7.921874-20.777344 0-28.707031-2.339844-2.34375-5.105469-3.992188-8.054688-4.9375 7.03125-2.292969 15.070312-.648438 20.65625 4.9375 7.917969 7.929687 7.917969 20.777344 0 28.707031zm0 0" fill="#e43c53"/><path d="m256.191406 404.472656c0 11.210938-9.085937 20.296875-20.296875 20.296875-11.207031 0-20.296875-9.085937-20.296875-20.296875 0-11.210937 9.089844-20.296875 20.296875-20.296875 11.210938 0 20.296875 9.085938 20.296875 20.296875zm0 0" fill="#ea576b"/><path d="m250.25 418.828125c-5.585938 5.582031-13.621094 7.230469-20.652344 4.929687 2.949219-.949218 5.710938-2.597656 8.054688-4.929687 7.917968-7.929687 7.917968-20.78125 0-28.710937-2.34375-2.332032-5.105469-3.980469-8.054688-4.929688 7.03125-2.300781 15.066406-.652344 20.652344 4.929688 7.921875 7.929687 7.921875 20.78125 0 28.710937zm0 0" fill="#e43c53"/><path d="m303.101562 357.5625c0 11.210938-9.085937 20.296875-20.296874 20.296875-11.207032 0-20.296876-9.085937-20.296876-20.296875 0-11.207031 9.089844-20.296875 20.296876-20.296875 11.210937 0 20.296874 9.089844 20.296874 20.296875zm0 0" fill="#ea576b"/><path d="m297.15625 371.917969c-5.582031 5.585937-13.621094 7.230469-20.652344 4.9375 2.949219-.949219 5.710938-2.59375 8.054688-4.9375 7.929687-7.929688 7.929687-20.777344 0-28.707031-2.339844-2.34375-5.105469-3.992188-8.054688-4.941407 7.03125-2.300781 15.070313-.644531 20.652344 4.941407 7.929688 7.929687 7.929688 20.777343 0 28.707031zm0 0" fill="#e43c53"/><path d="m382.023438 154.527344-140.1875 140.1875c-3.28125 3.28125-8.597657 3.28125-11.878907 0l-140.1875-140.1875c-3.28125-3.28125-3.28125-8.597656 0-11.878906l140.1875-140.1875c3.28125-3.28125 8.597657-3.28125 11.878907 0l140.1875 140.1875c3.28125 3.28125 3.28125 8.597656 0 11.878906zm0 0" fill="#efe2dd"/><path d="m241.835938 2.464844 140.183593 140.183594c3.28125 3.285156 3.28125 8.59375 0 11.878906l-13.066406 13.066406c3.28125-3.285156 3.28125-8.597656 0-11.878906l-140.183594-140.183594c-3.285156-3.285156-8.59375-3.285156-11.878906 0l13.066406-13.066406c3.285157-3.285156 8.59375-3.285156 11.878907 0zm0 0" fill="#d8cdca"/><path d="m274.636719 216.273438c0 10.691406-8.667969 19.359374-19.359375 19.359374s-19.359375-8.667968-19.359375-19.359374c0-10.691407 8.667969-19.359376 19.359375-19.359376s19.359375 8.667969 19.359375 19.359376zm0 0" fill="#ea576b"/><path d="m274.636719 216.269531c0 7.535157-4.304688 14.070313-10.597657 17.261719 1.347657-2.628906 2.101563-5.601562 2.101563-8.765625-.003906-10.6875-8.671875-19.355469-19.359375-19.359375-3.160156 0-6.136719.753906-8.761719 2.101562 3.195313-6.289062 9.722657-10.597656 17.257813-10.597656 10.6875.003906 19.355468 8.671875 19.359375 19.359375zm0 0" fill="#e43c53"/><path d="m231.101562 172.738281c0 10.691407-8.664062 19.359375-19.359374 19.359375-10.691407 0-19.355469-8.667968-19.355469-19.359375 0-10.691406 8.664062-19.359375 19.355469-19.359375 10.695312 0 19.359374 8.667969 19.359374 19.359375zm0 0" fill="#ea576b"/><path d="m231.105469 172.738281c0 7.535157-4.308594 14.066407-10.601563 17.253907 1.347656-2.628907 2.101563-5.601563 2.105469-8.757813-.007813-10.6875-8.671875-19.355469-19.363281-19.359375-3.152344.007812-6.128906.757812-8.753906 2.105469 3.1875-6.292969 9.71875-10.601563 17.253906-10.601563 10.6875.003906 19.355468 8.671875 19.359375 19.359375zm0 0" fill="#e43c53"/><path d="m187.570312 129.207031c0 10.691407-8.667968 19.359375-19.359374 19.359375-10.691407 0-19.359376-8.667968-19.359376-19.359375 0-10.691406 8.667969-19.359375 19.359376-19.359375 10.691406 0 19.359374 8.667969 19.359374 19.359375zm0 0" fill="#ea576b"/><path d="m187.570312 129.210938c0 7.53125-4.308593 14.0625-10.597656 17.257812 1.347656-2.628906 2.101563-5.601562 2.101563-8.761719 0-10.695312-8.664063-19.363281-19.359375-19.363281-3.160156 0-6.136719.753906-8.761719 2.101562 3.1875-6.292968 9.726563-10.597656 17.257813-10.597656 10.695312 0 19.359374 8.667969 19.359374 19.363282zm0 0" fill="#e43c53"/><path d="m322.941406 167.96875c0 10.691406-8.667968 19.359375-19.359375 19.359375-10.691406 0-19.359375-8.667969-19.359375-19.359375s8.667969-19.359375 19.359375-19.359375c10.691407 0 19.359375 8.667969 19.359375 19.359375zm0 0" fill="#ea576b"/><path d="m322.941406 167.96875c0 7.53125-4.304687 14.070312-10.597656 17.257812 1.347656-2.628906 2.101562-5.601562 2.101562-8.761718-.003906-10.691406-8.671874-19.355469-19.359374-19.363282-3.160157 0-6.136719.753907-8.765626 2.101563 3.195313-6.285156 9.726563-10.597656 17.261719-10.597656 10.6875.003906 19.355469 8.671875 19.359375 19.363281zm0 0" fill="#e43c53"/><path d="m279.40625 124.4375c0 10.691406-8.667969 19.359375-19.359375 19.359375s-19.359375-8.667969-19.359375-19.359375 8.667969-19.359375 19.359375-19.359375 19.359375 8.667969 19.359375 19.359375zm0 0" fill="#ea576b"/><path d="m279.410156 124.4375c0 7.53125-4.3125 14.0625-10.605468 17.253906 1.347656-2.628906 2.101562-5.601562 2.105468-8.757812-.003906-10.691406-8.671875-19.355469-19.359375-19.363282-3.15625.007813-6.128906.761719-8.757812 2.109376 3.191406-6.292969 9.722656-10.605469 17.253906-10.605469 10.691406.003906 19.355469 8.671875 19.363281 19.363281zm0 0" fill="#e43c53"/><path d="m235.875 80.902344c0 10.691406-8.667969 19.359375-19.359375 19.359375s-19.359375-8.667969-19.359375-19.359375 8.667969-19.355469 19.359375-19.355469 19.359375 8.664063 19.359375 19.355469zm0 0" fill="#ea576b"/><path d="m235.875 80.90625c0 7.53125-4.308594 14.0625-10.597656 17.257812 1.347656-2.628906 2.101562-5.601562 2.101562-8.761718 0-10.695313-8.664062-19.363282-19.359375-19.363282-3.160156 0-6.136719.753907-8.761719 2.105469 3.1875-6.292969 9.722657-10.597656 17.257813-10.597656 10.695313-.003906 19.359375 8.664063 19.359375 19.359375zm0 0" fill="#e43c53"/><g fill="#d8cdca"><path d="m13.269531 254.113281c-2.582031 0-5.105469-1.285156-6.582031-3.628906-5.527344-8.78125-6.6875-17.34375-6.6875-22.984375 0-9.894531 3.480469-28.390625 26.800781-41.113281 7.425781-4.050781 16.839844-7.503907 28.777344-10.5625 4.15625-1.0625 8.386719 1.441406 9.449219 5.597656 1.066406 4.152344-1.441406 8.382813-5.597656 9.449219-10.671876 2.730468-18.910157 5.726562-25.191407 9.152344-15.460937 8.433593-18.707031 19.597656-18.707031 27.480468 0 3.59375.746094 9.0625 4.296875 14.707032 2.285156 3.628906 1.199219 8.421874-2.429687 10.707031-1.285157.808593-2.714844 1.195312-4.128907 1.195312zm0 0"/><path d="m380.433594 286.027344c-3.78125 0-7.089844-2.761719-7.671875-6.613282-.636719-4.238281 2.285156-8.195312 6.527343-8.832031 19.605469-2.949219 35.28125-6.484375 46.601563-10.511719 7.203125-2.558593 12.851563-5.382812 17.269531-8.628906 11.398438-8.378906 13.101563-18.59375 13.101563-23.941406 0-4.289062 3.476562-7.765625 7.765625-7.765625 4.289062 0 7.765625 3.476563 7.765625 7.765625 0 8.28125-2.527344 24.027344-19.4375 36.457031-5.652344 4.15625-12.609375 7.671875-21.261719 10.746094-12.253906 4.359375-28.910156 8.140625-49.496094 11.238281-.394531.058594-.78125.085938-1.164062.085938zm0 0"/><path d="m409.035156 204.984375c-16.496094-4.253906-39.59375-7.847656-67.023437-10.445313l-14.019531 14.019532c3.636718.539062 6.546874.890625 7.703124.992187 60.34375 5.355469 83.390626 13.773438 89.367188 17.902344-3.832031 2.621094-16.742188 8.90625-57 14.402344-36.175781 4.949219-83.121094 7.671875-132.167969 7.671875-49.042969 0-95.980469-2.722656-132.164062-7.671875-40.257813-5.496094-53.167969-11.78125-57-14.402344 6.003906-4.160156 29.269531-12.632813 90.246093-17.972656 1.222657-.105469 3.914063-.300781 7.132813-.613281l-14.328125-14.328126c-27.285156 2.578126-50.257812 6.148438-66.753906 10.375-15.363282 3.933594-32.996094 10.054688-32.996094 22.59375 0 13.335938 19.328125 21.929688 64.628906 28.738282 37.789063 5.6875 87.945313 8.8125 141.234375 8.8125 53.292969 0 103.449219-3.125 141.238281-8.8125 45.308594-6.8125 64.628907-15.40625 64.628907-28.738282 0-12.488281-17.488281-18.597656-32.726563-22.523437zm0 0"/></g></svg>