<svg height="512pt" viewBox="0 -22 512 512" width="512pt" xmlns="http://www.w3.org/2000/svg"><path d="m30.289062 225.644531c-.757812 0-1.53125-.113281-2.296874-.351562-4.074219-1.269531-6.347657-5.597657-5.082032-9.671875 12.375-39.78125 35.855469-61.007813 53.371094-71.808594 19.152344-11.8125 35.46875-14.078125 36.152344-14.167969 4.230468-.566406 8.117187 2.414063 8.675781 6.640625.558594 4.222656-2.402344 8.101563-6.621094 8.671875-.234375.035157-14.324219 2.121094-30.707031 12.386719-21.890625 13.71875-37.40625 34.871094-46.117188 62.867188-1.027343 3.308593-4.082031 5.433593-7.375 5.433593zm0 0" fill="#e43c53"/><path d="m113.445312 134.734375c-1.800781 0-3.605468-.628906-5.070312-1.902344-25.601562-22.304687-61.085938-30.402343-61.4375-30.480469-4.167969-.929687-6.792969-5.054687-5.863281-9.222656.929687-4.164062 5.058593-6.792968 9.222656-5.859375 1.605469.359375 39.699219 9.054688 68.226563 33.914063 3.21875 2.800781 3.554687 7.679687.75 10.898437-1.527344 1.753907-3.671876 2.652344-5.828126 2.652344zm0 0" fill="#e43c53"/><path d="m394.617188 129.007812c30.472656-35.808593 40.269531-76.902343 21.355468-95.816406-11.085937-11.085937-29.792968-12.300781-50.59375-5.273437-17.671875 5.972656-37.101562 2.320312-51.179687-9.914063-13.042969-11.335937-29.007813-18.003906-46.253907-18.003906-17.246093 0-33.214843 6.667969-46.257812 18.003906-14.078125 12.234375-33.507812 15.886719-51.179688 9.914063-20.796874-7.027344-39.507812-5.8125-50.59375 5.273437-18.910156 18.914063-9.117187 60.003906 21.359376 95.816406zm0 0" fill="#fde5c2"/><path d="m394.609375 129.003906h-28.914063c30.464844-35.808594 40.261719-76.898437 21.355469-95.816406-3.613281-3.601562-8.023437-6.160156-13.054687-7.730469 17.28125-4.03125 32.453125-1.796875 41.980468 7.730469 18.90625 18.917969 9.109376 60.007812-21.367187 95.816406zm0 0" fill="#fbcc85"/><path d="m137.21875 146.941406c-29.871094 31.96875-48.164062 74.894532-48.164062 122.101563 0 98.800781 80.089843 178.890625 178.890624 178.890625 98.796876 0 178.890626-80.089844 178.890626-178.890625 0-47.207031-18.296876-90.132813-48.167969-122.101563zm0 0" fill="#fde5c2"/><g fill="#fbcc85"><path d="m272.160156 130.042969c-4.265625 0-7.722656-3.457031-7.722656-7.726563v-35.183594c0-4.269531 3.457031-7.726562 7.722656-7.726562 4.269532 0 7.726563 3.460938 7.726563 7.726562v35.183594c0 4.269532-3.457031 7.726563-7.726563 7.726563zm0 0"/><path d="m305.457031 136.226562c-2.636719 0-5.207031-1.351562-6.652343-3.78125-2.175782-3.667968-.96875-8.402343 2.691406-10.585937.21875-.128906 21.828125-13.183594 30.453125-31.34375 1.832031-3.855469 6.445312-5.496094 10.296875-3.664063 3.851562 1.828126 5.492187 6.4375 3.664062 10.292969-10.675781 22.472657-35.46875 37.375-36.515625 38-1.238281.734375-2.597656 1.082031-3.9375 1.082031zm0 0"/><path d="m230.816406 135.96875c-1.339844 0-2.695312-.351562-3.933594-1.082031-1.046874-.625-25.839843-15.527344-36.515624-38-1.832032-3.855469-.1875-8.460938 3.664062-10.292969 3.855469-1.828125 8.464844-.191406 10.292969 3.664062 8.628906 18.160157 30.238281 31.214844 30.457031 31.34375 3.660156 2.1875 4.863281 6.925782 2.683594 10.589844-1.449219 2.429688-4.015625 3.777344-6.648438 3.777344zm0 0"/><path d="m152.21875 223.804688c-4.269531 0-7.726562-3.460938-7.726562-7.726563 0-51.085937 45.933593-76.269531 47.890624-77.316406 3.761719-2.011719 8.441407-.597657 10.457032 3.164062 2.011718 3.757813.601562 8.433594-3.148438 10.453125-.460937.246094-39.746094 22.035156-39.746094 63.699219 0 4.265625-3.460937 7.726563-7.726562 7.726563zm0 0"/><path d="m373.070312 184.570312c-2.4375 0-4.839843-1.152343-6.339843-3.300781-11.539063-16.503906-27.125-25.0625-27.28125-25.148437-3.746094-2.027344-5.152344-6.710938-3.132813-10.460938 2.019532-3.75 6.683594-5.164062 10.441406-3.152344.765626.410157 18.902344 10.261719 32.636719 29.90625 2.445313 3.496094 1.59375 8.3125-1.90625 10.757813-1.347656.945313-2.890625 1.398437-4.417969 1.398437zm0 0"/><path d="m272.160156 176.332031c-4.265625 0-7.722656-3.460937-7.722656-7.726562v-19.144531c0-4.269532 3.457031-7.726563 7.722656-7.726563 4.269532 0 7.726563 3.457031 7.726563 7.726563v19.144531c0 4.265625-3.457031 7.726562-7.726563 7.726562zm0 0"/><path d="m446.832031 269.039062c0 98.804688-80.09375 178.898438-178.886719 178.898438-4.871093 0-9.691406-.195312-14.464843-.582031 92.039062-7.355469 164.421875-84.382813 164.421875-178.316407 0-47.199218-18.292969-90.128906-48.164063-122.097656h28.925781c29.875 31.96875 48.167969 74.898438 48.167969 122.097656zm0 0"/><path d="m512 372.976562c0 2.597657-.101562 5.171876-.320312 7.726563-1.574219 19.613281-9.125 37.558594-20.828126 51.992187-3.253906 4.019532-6.820312 7.757813-10.683593 11.175782-14.957031 13.320312-34.171875 21.976562-55.332031 23.675781-2.554688.214844-5.128907.320313-7.726563.320313-2.59375 0-5.171875-.105469-7.722656-.320313-21.160157-1.699219-40.363281-10.351563-55.324219-23.675781-3.863281-3.417969-7.4375-7.15625-10.679688-11.175782-11.703124-14.433593-19.253906-32.378906-20.832031-51.992187-.214843-2.554687-.320312-5.128906-.320312-7.726563 0-2.59375.105469-5.171874.320312-7.726562 1.578125-19.613281 9.128907-37.550781 20.832031-51.980469 3.242188-4.019531 6.816407-7.757812 10.679688-11.179687 14.960938-13.320313 34.164062-21.972656 55.324219-23.671875 2.554687-.21875 5.128906-.320313 7.722656-.320313 2.597656 0 5.171875.101563 7.726563.320313 21.160156 1.699219 40.375 10.351562 55.332031 23.671875 3.863281 3.421875 7.429687 7.160156 10.683593 11.179687 11.703126 14.429688 19.253907 32.367188 20.828126 51.980469.21875 2.554688.320312 5.132812.320312 7.726562zm0 0"/></g><path d="m417.113281 456.058594c-45.808593 0-83.074219-37.269532-83.074219-83.074219 0-45.808594 37.269532-83.078125 83.074219-83.078125 45.808594 0 83.078125 37.269531 83.078125 83.078125 0 45.804687-37.265625 83.074219-83.078125 83.074219zm0 0" fill="#e8b76b"/><path d="m485.769531 372.980469c0 37.917969-30.738281 68.65625-68.65625 68.65625-37.914062 0-68.652343-30.738281-68.652343-68.65625 0-37.914063 30.738281-68.652344 68.652343-68.652344 37.917969 0 68.65625 30.738281 68.65625 68.652344zm0 0" fill="#db885d"/><path d="m424.835938 278.417969v15.988281c0 4.265625-3.449219 7.726562-7.726563 7.726562-4.265625 0-7.726563-3.460937-7.726563-7.726562v-15.988281c2.554688-.21875 5.132813-.320313 7.726563-.320313 2.597656 0 5.171875.101563 7.726563.320313zm0 0" fill="#e8b76b"/><path d="m424.835938 451.558594v15.988281c-2.554688.21875-5.128907.320313-7.726563.320313-2.59375 0-5.171875-.101563-7.726563-.320313v-15.988281c0-4.261719 3.460938-7.722656 7.726563-7.722656 4.277344-.003907 7.726563 3.460937 7.726563 7.722656zm0 0" fill="#e8b76b"/><path d="m512 372.976562c0 2.597657-.101562 5.171876-.320312 7.726563h-15.988282c-4.261718 0-7.722656-3.449219-7.722656-7.726563 0-4.265624 3.460938-7.726562 7.722656-7.726562h15.988282c.21875 2.554688.320312 5.132812.320312 7.726562zm0 0" fill="#e8b76b"/><path d="m346.265625 372.976562c0 4.277344-3.460937 7.726563-7.726563 7.726563h-15.988281c-.214843-2.554687-.320312-5.128906-.320312-7.726563 0-2.59375.105469-5.171874.320312-7.726562h15.988281c4.265626 0 7.726563 3.460938 7.726563 7.726562zm0 0" fill="#e8b76b"/><path d="m490.851562 313.269531-24.222656 24.21875c-1.503906 1.503907-3.480468 2.253907-5.457031 2.253907-1.980469 0-3.957031-.75-5.472656-2.253907-3.015625-3.019531-3.015625-7.914062 0-10.929687l24.46875-24.46875c3.863281 3.421875 7.425781 7.160156 10.683593 11.179687zm0 0" fill="#e8b76b"/><path d="m378.53125 419.40625-24.46875 24.46875c-3.863281-3.421875-7.4375-7.160156-10.683594-11.175781l24.222656-24.222657c3.015626-3.015624 7.910157-3.015624 10.929688 0 3.015625 3.019532 3.015625 7.914063 0 10.929688zm0 0" fill="#e8b76b"/><path d="m490.851562 432.695312c-3.257812 4.019532-6.820312 7.757813-10.683593 11.179688l-24.46875-24.46875c-3.015625-3.015625-3.015625-7.910156 0-10.929688 3.019531-3.015624 7.914062-3.015624 10.929687 0l15.792969 15.792969zm0 0" fill="#e8b76b"/><path d="m378.53125 337.476562c-1.515625 1.515626-3.492188 2.265626-5.472656 2.265626-1.976563 0-3.953125-.75-5.457032-2.253907l-24.222656-24.222656c3.246094-4.015625 6.820313-7.753906 10.683594-11.175781l24.46875 24.46875c3.015625 3.015625 3.015625 7.910156 0 10.917968zm0 0" fill="#e8b76b"/><path d="m404.898438 154.839844h-273.910157c-9.6875 0-17.539062-7.851563-17.539062-17.539063 0-9.683593 7.851562-17.535156 17.539062-17.535156h273.910157c9.6875 0 17.539062 7.851563 17.539062 17.535156 0 9.6875-7.851562 17.539063-17.539062 17.539063zm0 0" fill="#ea576b"/><path d="m422.441406 137.304688c0 4.839843-1.96875 9.226562-5.140625 12.398437-3.171875 3.175781-7.558593 5.140625-12.398437 5.140625h-20.429688c4.835938 0 9.226563-1.964844 12.398438-5.140625 3.171875-3.171875 5.140625-7.558594 5.140625-12.398437 0-9.6875-7.863281-17.539063-17.539063-17.539063h20.429688c9.679687 0 17.539062 7.851563 17.539062 17.539063zm0 0" fill="#e43c53"/><path d="m52.066406 241.660156c0 14.378906-11.652344 26.035156-26.03125 26.035156s-26.035156-11.65625-26.035156-26.035156 11.65625-26.035156 26.035156-26.035156 26.03125 11.65625 26.03125 26.035156zm0 0" fill="#fbcc85"/><path d="m52.066406 241.660156c0 14.378906-11.65625 26.035156-26.035156 26.035156-2.554688 0-5.027344-.367187-7.371094-1.066406 10.792969-3.167968 18.664063-13.152344 18.664063-24.96875 0-11.820312-7.871094-21.800781-18.664063-24.972656 2.34375-.695312 4.816406-1.066406 7.371094-1.066406 14.378906.003906 26.035156 11.65625 26.035156 26.039062zm0 0" fill="#e8b76b"/><path d="m52.066406 94.65625c0 14.378906-11.652344 26.035156-26.03125 26.035156s-26.035156-11.65625-26.035156-26.035156 11.65625-26.035156 26.035156-26.035156 26.03125 11.65625 26.03125 26.035156zm0 0" fill="#fbcc85"/><path d="m52.066406 94.65625c0 14.378906-11.65625 26.035156-26.035156 26.035156-2.554688 0-5.027344-.367187-7.371094-1.066406 10.792969-3.167969 18.664063-13.152344 18.664063-24.96875 0-11.820312-7.871094-21.800781-18.664063-24.972656 2.34375-.695313 4.816406-1.066406 7.371094-1.066406 14.378906.003906 26.035156 11.65625 26.035156 26.039062zm0 0" fill="#e8b76b"/><path d="m305.089844 238.050781-9.484375-9.484375c-3.660157-3.660156-9.59375-3.660156-13.253907 0l-14.410156 14.40625-14.40625-14.40625c-3.660156-3.660156-9.59375-3.660156-13.253906 0l-9.484375 9.484375c-3.660156 3.660157-3.660156 9.59375 0 13.253907l14.40625 14.410156-14.40625 14.40625c-3.660156 3.660156-3.660156 9.59375 0 13.253906l9.484375 9.488281c3.660156 3.660157 9.59375 3.660157 13.253906 0l14.40625-14.410156 14.410156 14.410156c3.660157 3.660157 9.59375 3.660157 13.253907 0l9.484375-9.488281c3.660156-3.660156 3.660156-9.59375 0-13.253906l-14.40625-14.40625 14.40625-14.410156c3.660156-3.660157 3.660156-9.59375 0-13.253907zm0 0" fill="#ea576b"/></svg>