<svg height="512pt" viewBox="-41 0 512 512" width="512pt" xmlns="http://www.w3.org/2000/svg"><path d="m419.960938 460.640625c-8.996094 8.996094-21.839844 11.777344-33.21875 8.363281 3.414062 11.378906.632812 24.222656-8.363282 33.21875-13.039062 13.035156-34.160156 13.035156-47.199218 0-13.035157-13.035156-13.035157-34.160156 0-47.195312 2.421874-2.425782 5.125-4.386719 7.996093-5.902344l-90.34375-90.355469 27.675781-27.675781 90.347657 90.34375c1.523437-2.871094 3.476562-5.570312 5.910156-7.996094 13.023437-13.027344 34.160156-13.027344 47.195313 0 13.027343 13.039063 13.027343 34.171875 0 47.199219zm0 0" fill="#cdbfbb"/><path d="m328.695312 383.28125c-4.121093 2.871094-9.058593 4.457031-14.179687 4.457031h-18.273437v18.457031l-47.410157-47.421874 27.675781-27.679688zm0 0" fill="#b9acac"/><path d="m90.554688 449.125c2.871093 1.515625 5.570312 3.476562 7.996093 5.902344 13.035157 13.035156 13.035157 34.160156 0 47.195312-13.035156 13.035156-34.160156 13.035156-47.199219 0-8.996093-8.996094-11.777343-21.839844-8.363281-33.21875-11.378906 3.414063-24.222656.632813-33.21875-8.363281-13.027343-13.027344-13.027343-34.160156 0-47.199219 13.035157-13.027344 34.171875-13.027344 47.195313 0 2.433594 2.421875 4.386718 5.125 5.910156 7.996094l90.347656-90.34375 27.675782 27.675781zm0 0" fill="#cdbfbb"/><path d="m153.222656 331.09375 27.675782 27.675781-47.410157 47.421875v-18.453125h-18.273437c-5.121094 0-10.070313-1.585937-14.179688-4.460937zm0 0" fill="#b9acac"/><path d="m356.898438 276.222656c.203124 35.789063-12.839844 68.527344-34.503907 93.613282-1.96875 2.285156-4.851562 3.59375-7.878906 3.59375h-32.585937v79.953124c0 3.523438-1.421876 6.707032-3.730469 9.011719-2.308594 2.296875-5.5 3.730469-9.011719 3.730469-3.8125 0-7.242188-1.679688-9.570312-4.328125-4.574219-5.191406-10.953126-8.414063-17.863282-8.414063h-53.777344c-6.910156 0-13.285156 3.222657-17.859374 8.414063-2.328126 2.648437-5.761719 4.328125-9.570313 4.328125-7.039063 0-12.746094-5.707031-12.746094-12.742188v-79.953124h-32.582031c-3.03125 0-5.914062-1.320313-7.902344-3.617188-21.480468-24.878906-34.480468-57.296875-34.480468-92.757812 0-78.777344 64.136718-142.574219 143.039062-142.019532 77.398438.535156 140.570312 63.789063 141.023438 141.1875zm0 0" fill="#efe2dd"/><g fill="#d8cdca"><path d="m356.890625 276.21875c.210937 35.789062-12.832031 68.535156-34.492187 93.613281-1.972657 2.285157-4.859376 3.597657-7.882813 3.597657h-17.378906c3.023437 0 5.910156-1.3125 7.890625-3.597657 21.664062-25.082031 34.695312-57.824219 34.496094-93.613281-.449219-74.804688-59.453126-136.382812-133.277344-140.929688 3.179687-.199218 6.398437-.28125 9.628906-.261718 77.394531.542968 140.566406 63.789062 141.015625 141.191406zm0 0"/><path d="m281.925781 373.429688v79.949218c0 7.046875-5.699219 12.75-12.738281 12.75h-.007812c-3.359376 0-6.414063-1.304687-8.683594-3.433594.101562-.09375.21875-.195312.320312-.300781 2.304688-2.304687 3.734375-5.492187 3.734375-9.015625v-79.949218zm0 0"/><path d="m179.324219 381.15625c0 4.265625-3.460938 7.726562-7.726563 7.726562h-23.796875v-15.453124h23.796875c4.265625 0 7.726563 3.460937 7.726563 7.726562zm0 0"/><path d="m281.929688 373.429688v15.453124h-23.796876c-4.265624 0-7.726562-3.460937-7.726562-7.726562s3.460938-7.726562 7.726562-7.726562zm0 0"/></g><path d="m232.238281 352.4375c0 14.9375-7.777343 17.664062-17.371093 17.664062-9.597657 0-17.375-2.726562-17.375-17.664062 0-14.941406 7.777343-36.429688 17.375-36.429688 9.59375 0 17.371093 21.488282 17.371093 36.429688zm0 0" fill="#756f6f"/><path d="m232.242188 352.433594c0 14.941406-7.785157 17.671875-17.375 17.671875-2.742188 0-5.339844-.21875-7.644532-.894531 5.753906-1.671876 9.71875-6.109376 9.71875-16.773438s-3.960937-24.675781-9.726562-31.816406c2.3125-2.855469 4.910156-4.617188 7.652344-4.617188 9.589843-.003906 17.375 21.492188 17.375 36.429688zm0 0" fill="#5b5555"/><path d="m186.710938 426.824219c-4.269532 0-7.726563-3.460938-7.726563-7.726563v-20.5c0-4.269531 3.457031-7.726562 7.726563-7.726562 4.265624 0 7.722656 3.457031 7.722656 7.726562v20.5c0 4.265625-3.457032 7.726563-7.722656 7.726563zm0 0" fill="#756f6f"/><path d="m214.867188 426.824219c-4.269532 0-7.726563-3.460938-7.726563-7.726563v-20.5c0-4.269531 3.457031-7.726562 7.726563-7.726562 4.265624 0 7.722656 3.457031 7.722656 7.726562v20.5c0 4.265625-3.457032 7.726563-7.722656 7.726563zm0 0" fill="#756f6f"/><path d="m243.023438 426.824219c-4.269532 0-7.726563-3.460938-7.726563-7.726563v-20.5c0-4.269531 3.457031-7.726562 7.726563-7.726562 4.265624 0 7.722656 3.457031 7.722656 7.726562v20.5c.003906 4.265625-3.457032 7.726563-7.722656 7.726563zm0 0" fill="#756f6f"/><path d="m306.429688 300.035156c0 15.308594-12.410157 27.71875-27.714844 27.71875-15.308594 0-27.71875-12.410156-27.71875-27.71875 0-15.304687 12.410156-27.714844 27.71875-27.714844 15.304687 0 27.714844 12.410157 27.714844 27.714844zm0 0" fill="#756f6f"/><path d="m306.429688 300.035156c0 15.3125-12.40625 27.71875-27.714844 27.71875-2.703125 0-5.324219-.386718-7.789063-1.117187 11.519531-3.355469 19.929688-13.992188 19.929688-26.601563 0-12.605468-8.410157-23.246094-19.929688-26.597656 2.464844-.734375 5.085938-1.117188 7.789063-1.117188 15.308594 0 27.714844 12.40625 27.714844 27.714844zm0 0" fill="#5b5555"/><path d="m178.734375 300.035156c0 15.308594-12.410156 27.71875-27.71875 27.71875-15.304687 0-27.714844-12.410156-27.714844-27.71875 0-15.304687 12.410157-27.714844 27.714844-27.714844 15.308594 0 27.71875 12.410157 27.71875 27.714844zm0 0" fill="#756f6f"/><path d="m178.734375 300.035156c0 15.3125-12.40625 27.71875-27.71875 27.71875-2.699219 0-5.320313-.386718-7.785156-1.117187 11.515625-3.355469 19.925781-13.992188 19.925781-26.601563 0-12.605468-8.410156-23.246094-19.925781-26.597656 2.464843-.734375 5.085937-1.117188 7.785156-1.117188 15.3125 0 27.71875 12.40625 27.71875 27.714844zm0 0" fill="#5b5555"/><path d="m35.199219 193.597656.996093 4.734375h357.339844l.996094-4.734375 16.734375-79.589844c1.753906-8.371093-6.550781-15.3125-14.472656-12.101562l-24.730469 10.023438c-27.269531 11.046874-57.84375-5.570313-63.402344-34.457032-8.648437-44.972656-48.003906-77.472656-93.792968-77.472656-22.902344 0-44.183594 8.121094-60.828126 21.871094-16.644531 13.746094-28.640624 33.121094-32.96875 55.601562-4.375 22.757813-24.28125 37.898438-45.867187 37.898438-5.804687 0-11.746094-1.097656-17.53125-3.441406l-24.730469-10.023438c-7.925781-3.210938-16.230468 3.730469-14.472656 12.101562zm0 0" fill="#756f6f"/><path d="m374.035156 193.597656-.996094 4.734375h20.496094l.996094-4.734375 16.734375-79.589844c1.753906-8.371093-6.550781-15.3125-14.472656-12.101562l-8.09375 3.28125c1.859375 2.335938 2.773437 5.464844 2.066406 8.820312zm0 0" fill="#5b5555"/><path d="m394.53125 193.597656-9.417969 44.796875c-1.039062 4.941407-5.398437 8.488281-10.449219 8.488281h-319.597656c-5.050781 0-9.410156-3.546874-10.449218-8.488281l-9.417969-44.796875zm0 0" fill="#ea576b"/><path d="m394.53125 193.597656-9.417969 44.796875c-1.039062 4.941407-5.398437 8.488281-10.449219 8.488281h-20.5c5.054688 0 9.410157-3.546874 10.449219-8.488281l9.421875-44.796875zm0 0" fill="#e43c53"/><path d="m251.734375 83.796875-9.414063-9.414063c-3.632812-3.632812-9.523437-3.632812-13.15625 0l-14.300781 14.300782-14.296875-14.300782c-3.636718-3.632812-9.523437-3.632812-13.15625 0l-9.414062 9.414063c-3.632813 3.632813-3.632813 9.523437 0 13.15625l14.296875 14.300781-14.296875 14.296875c-3.632813 3.632813-3.632813 9.523438 0 13.15625l9.414062 9.414063c3.632813 3.632812 9.519532 3.632812 13.15625 0l14.296875-14.300782 14.300781 14.300782c3.632813 3.632812 9.523438 3.632812 13.15625 0l9.414063-9.414063c3.632813-3.632812 3.632813-9.523437 0-13.15625l-14.300781-14.296875 14.300781-14.300781c3.632813-3.632813 3.632813-9.523437 0-13.15625zm0 0" fill="#ea576b"/></svg>