<svg height="512pt" viewBox="-112 0 512 512" width="512pt" xmlns="http://www.w3.org/2000/svg"><path d="m69.113281 478.734375c-.507812 0-1.023437-.050781-1.542969-.152344l-15.402343-3.117187c-4.183594-.847656-6.886719-4.921875-6.039063-9.105469.84375-4.183594 4.917969-6.882813 9.105469-6.042969l15.402344 3.117188c4.183593.847656 6.886719 4.921875 6.039062 9.105468-.738281 3.664063-3.960937 6.195313-7.5625 6.195313zm0 0" fill="#c86d3d"/><path d="m60.179688 500.0625c-3.160157 0-6.128907-1.953125-7.265626-5.101562-1.449218-4.011719.625-8.441407 4.640626-9.890626l8.921874-3.226562c4.015626-1.449219 8.445313.625 9.894532 4.640625 1.449218 4.011719-.628906 8.441406-4.640625 9.894531l-8.925781 3.222656c-.867188.3125-1.753907.460938-2.625.460938zm0 0" fill="#c86d3d"/><path d="m212.511719 512h-136.195313c-5.691406 0-10.304687-4.613281-10.304687-10.300781v-71.734375h156.800781v71.734375c0 5.6875-4.613281 10.300781-10.300781 10.300781zm0 0" fill="#ffbc8a"/><path d="m212.511719 512h-9.894531v-82.035156h20.195312v71.734375c0 5.6875-4.613281 10.300781-10.300781 10.300781zm0 0" fill="#f5a871"/><path d="m258.363281 377-1.605469-5.859375-42.230468-153.972656h-140.539063l-42.242187 153.972656-1.605469 5.859375zm0 0" fill="#d77f4f"/><g fill="#c86d3d"><path d="m173.488281 277.15625c-4.269531 0-7.726562-3.460938-7.726562-7.726562v-35.011719c0-4.269531 3.460937-7.726563 7.726562-7.726563 4.269531 0 7.726563 3.460938 7.726563 7.726563v35.011719c0 4.265624-3.457032 7.726562-7.726563 7.726562zm0 0"/><path d="m173.488281 329.917969c-4.269531 0-7.726562-3.457031-7.726562-7.726563v-15.996094c0-4.265624 3.460937-7.726562 7.726562-7.726562 4.269531 0 7.726563 3.460938 7.726563 7.726562v15.996094c0 4.269532-3.457032 7.726563-7.726563 7.726563zm0 0"/><path d="m103.394531 378.863281c-4.265625 0-7.722656-3.460937-7.722656-7.726562v-52.96875c0-4.265625 3.457031-7.726563 7.722656-7.726563 4.269531 0 7.726563 3.460938 7.726563 7.726563v52.96875c0 4.265625-3.457032 7.726562-7.726563 7.726562zm0 0"/><path d="m237.898438 377h20.464843l-1.605469-5.859375-42.230468-153.972656h-20.46875l42.230468 153.972656zm0 0"/></g><path d="m274.910156 437.308594h-261.316406l18.152344-66.167969h225.011718zm0 0" fill="#fbcc85"/><path d="m256.757812 371.140625 18.152344 66.167969h-20.46875l-18.152344-66.167969zm0 0" fill="#e8b76b"/><path d="m144.414062 207.515625c-7.679687 0-13.902343-6.226563-13.902343-13.902344v-35.734375c0-7.679687 6.222656-13.90625 13.902343-13.90625 32.027344 0 58.082032-26.054687 58.082032-58.082031s-26.054688-58.082031-58.082032-58.082031c-32.027343 0-58.085937 26.054687-58.085937 58.082031 0 7.675781-6.222656 13.902344-13.902344 13.902344-7.679687 0-13.902343-6.226563-13.902343-13.902344 0-47.363281 38.53125-85.890625 85.890624-85.890625 47.359376 0 85.890626 38.527344 85.890626 85.890625 0 42.625-31.214844 78.101563-71.988282 84.765625v22.957031c0 7.679688-6.226562 13.902344-13.902344 13.902344zm0 0" fill="#efe2dd"/><path d="m213.203125 234.417969h-137.578125c-11.074219 0-20.050781-8.976563-20.050781-20.050781 0-11.070313 8.976562-20.046876 20.050781-20.046876h137.578125c11.070313 0 20.046875 8.976563 20.046875 20.046876 0 11.074218-8.976562 20.050781-20.046875 20.050781zm0 0" fill="#fbcc85"/><path d="m233.246094 214.363281c0 5.535157-2.242188 10.550781-5.863282 14.183594-3.636718 3.625-8.640624 5.867187-14.175781 5.867187h-19.011719c5.535157 0 10.546876-2.242187 14.171876-5.867187 3.625-3.632813 5.867187-8.648437 5.867187-14.183594 0-11.070312-8.972656-20.042969-20.039063-20.042969h19.011719c11.070313 0 20.039063 8.972657 20.039063 20.042969zm0 0" fill="#e8b76b"/><path d="m10.382812 448.191406h268.058594c5.734375 0 10.382813-4.648437 10.382813-10.382812v-21.273438c0-5.734375-4.648438-10.382812-10.382813-10.382812h-268.058594c-5.734374 0-10.382812 4.648437-10.382812 10.382812v21.273438c0 5.734375 4.648438 10.382812 10.382812 10.382812zm0 0" fill="#00b7a0"/><path d="m288.824219 416.539062v21.269532c0 5.730468-4.652344 10.382812-10.382813 10.382812h-21.390625c5.730469 0 10.382813-4.652344 10.382813-10.382812v-21.269532c0-5.738281-4.652344-10.382812-10.382813-10.382812h21.390625c5.730469 0 10.382813 4.640625 10.382813 10.382812zm0 0" fill="#009a8d"/><path d="m98.636719 479.894531c-.863281 0-1.742188-.144531-2.601563-.453125l-6.488281-2.320312c-4.019531-1.433594-6.113281-5.855469-4.675781-9.875 1.4375-4.019532 5.859375-6.109375 9.875-4.675782l6.492187 2.320313c4.015625 1.4375 6.109375 5.859375 4.671875 9.878906-1.128906 3.160157-4.101562 5.125-7.273437 5.125zm0 0" fill="#c86d3d"/><path d="m98.632812 503.609375c-3.417968 0-6.542968-2.285156-7.460937-5.742187-1.097656-4.125 1.355469-8.355469 5.476563-9.453126l13.320312-3.542968c4.128906-1.097656 8.359375 1.355468 9.457031 5.480468 1.09375 4.121094-1.359375 8.355469-5.480469 9.453126l-13.320312 3.542968c-.667969.175782-1.335938.261719-1.992188.261719zm0 0" fill="#c86d3d"/></svg>