<svg height="512pt" viewBox="-131 0 512 512" width="512pt" xmlns="http://www.w3.org/2000/svg"><path d="m205.371094 273.71875c0-15.703125-8.449219-28.433594-18.867188-28.433594-10.421875 0-18.871094 12.730469-18.871094 28.433594 0 15.699219 8.449219 28.429688 18.871094 28.429688 10.417969 0 18.867188-12.730469 18.867188-28.429688zm0 0" fill="#fac574"/><path d="m205.367188 273.71875c0 15.699219-8.445313 28.421875-18.859376 28.421875-3.441406 0-6.65625-1.378906-9.4375-3.8125 5.644532-4.902344 9.4375-14.082031 9.4375-24.609375s-3.792968-19.71875-9.4375-24.621094c2.78125-2.429687 5.996094-3.8125 9.4375-3.8125 10.414063 0 18.859376 12.734375 18.859376 28.433594zm0 0" fill="#e8b76b"/><path d="m82.90625 273.71875c0-15.703125-8.449219-28.433594-18.867188-28.433594-10.421874 0-18.867187 12.730469-18.867187 28.433594 0 15.699219 8.445313 28.429688 18.867187 28.429688 10.417969 0 18.867188-12.730469 18.867188-28.429688zm0 0" fill="#fac574"/><path d="m82.90625 273.71875c0 15.699219-8.449219 28.421875-18.863281 28.421875-3.441407 0-6.65625-1.378906-9.4375-3.8125 5.644531-4.902344 9.4375-14.082031 9.4375-24.609375s-3.792969-19.71875-9.4375-24.621094c2.78125-2.429687 5.996093-3.8125 9.4375-3.8125 10.414062 0 18.863281 12.734375 18.863281 28.433594zm0 0" fill="#e8b76b"/><path d="m173.667969 214.960938-10.859375 256.503906-1.292969 30.496094c-.238281 5.613281-4.855469 10.039062-10.472656 10.039062h-53.285157c-5.617187 0-10.234374-4.425781-10.472656-10.039062l-1.292968-30.496094-10.859376-256.503906zm0 0" fill="#d77f4f"/><path d="m173.667969 214.957031-10.859375 256.503907-1.296875 30.503906c-.238281 5.605468-4.851563 10.035156-10.464844 10.035156h-21.964844c5.613281 0 10.238281-4.429688 10.476563-10.035156l1.289062-30.503906 10.855469-256.503907zm0 0" fill="#c86d3d"/><path d="m162.808594 471.460938-1.296875 30.503906c-.238281 5.605468-4.851563 10.035156-10.464844 10.035156h-53.292969c-5.613281 0-10.230468-4.429688-10.46875-10.035156l-1.296875-30.503906zm0 0" fill="#00b7a0"/><path d="m162.808594 471.460938-1.296875 30.503906c-.238281 5.605468-4.851563 10.035156-10.464844 10.035156h-21.964844c5.613281 0 10.238281-4.429688 10.476563-10.035156l1.289062-30.503906zm0 0" fill="#009a8d"/><path d="m173.316406 276.796875h-97.832031c-5.382813 0-9.894531-4.078125-10.429687-9.4375l-8.488282-84.613281h135.667969l-8.488281 84.613281c-.535156 5.359375-5.046875 9.4375-10.429688 9.4375zm0 0" fill="#b9acac"/><path d="m192.230469 182.742188-8.488281 84.621093c-.535157 5.355469-5.039063 9.4375-10.425782 9.4375h-21.46875c5.390625 0 9.890625-4.082031 10.4375-9.4375l8.488282-84.621093zm0 0" fill="#9e9797"/><path d="m0 58v116.648438c0 3.179687 1.453125 6.199218 3.945312 8.1875l39.042969 31.164062c1.867188 1.484375 4.171875 2.285156 6.542969 2.285156h151.476562c2.371094 0 4.679688-.800781 6.542969-2.285156l39.042969-31.164062c2.496094-1.988282 3.945312-5.007813 3.945312-8.1875v-116.648438zm0 0" fill="#d77f4f"/><g fill="#c86d3d"><path d="m57.578125 0v155.382812c0 4.273438-3.453125 7.726563-7.726563 7.726563-4.265624 0-7.726562-3.453125-7.726562-7.726563v-155.382812zm0 0"/><path d="m94.886719 96.492188c-4.265625 0-7.726563-3.457032-7.726563-7.722657v-44.644531c0-4.265625 3.460938-7.726562 7.726563-7.726562 4.269531 0 7.726562 3.460937 7.726562 7.726562v44.644531c0 4.265625-3.457031 7.722657-7.726562 7.722657zm0 0"/><path d="m227.710938 58v116.648438c0 3.179687-1.453126 6.199218-3.945313 8.1875l-39.042969 31.164062c-1.867187 1.484375-4.171875 2.285156-6.542968 2.285156h22.828124c2.371094 0 4.679688-.800781 6.542969-2.285156l39.042969-31.164062c2.496094-1.988282 3.945312-5.007813 3.945312-8.1875v-116.648438zm0 0"/></g><path d="m250.539062 10.488281v53.453125h-250.539062v-53.453125c0-5.789062 4.699219-10.488281 10.488281-10.488281h229.5625c5.792969 0 10.488281 4.699219 10.488281 10.488281zm0 0" fill="#00b7a0"/><path d="m42.125 0h15.453125v63.941406h-15.453125zm0 0" fill="#009a8d"/><path d="m102.617188 44.121094v19.824218h-15.453126v-19.824218c0-4.261719 3.460938-7.722656 7.726563-7.722656 4.265625-.003907 7.726563 3.460937 7.726563 7.722656zm0 0" fill="#009a8d"/><path d="m250.539062 10.488281v53.453125h-22.828124v-53.453125c0-5.789062-4.695313-10.488281-10.488282-10.488281h22.832032c5.789062 0 10.484374 4.699219 10.484374 10.488281zm0 0" fill="#009a8d"/><path d="m143.269531 273.71875c0-15.703125-8.449219-28.433594-18.871093-28.433594-10.417969 0-18.867188 12.730469-18.867188 28.433594 0 15.699219 8.449219 28.429688 18.867188 28.429688 10.421874 0 18.871093-12.730469 18.871093-28.429688zm0 0" fill="#fac574"/><path d="m143.265625 273.71875c0 15.699219-8.445313 28.421875-18.863281 28.421875-3.4375 0-6.652344-1.378906-9.433594-3.8125 5.644531-4.902344 9.433594-14.082031 9.433594-24.609375s-3.789063-19.71875-9.433594-24.621094c2.78125-2.429687 5.996094-3.8125 9.433594-3.8125 10.417968 0 18.863281 12.734375 18.863281 28.433594zm0 0" fill="#e8b76b"/><path d="m178.222656 134.148438v82.136718h-15.453125v-82.136718c0-4.261719 3.460938-7.722657 7.722657-7.722657 4.265624 0 7.730468 3.460938 7.730468 7.722657zm0 0" fill="#c86d3d"/></svg>