<svg height="512pt" viewBox="-72 0 512 512" width="512pt" xmlns="http://www.w3.org/2000/svg"><path d="m346.109375 434.941406c-56.917969-4.171875-110.878906-23.796875-137.921875-35.097656-10.785156-4.492188-17.398438-15.484375-16.359375-27.132812l20.574219-229.03125 5.109375-56.824219h-119.894531v345.144531h-67.257813v69.820312c0 5.617188 4.5625 10.179688 10.175781 10.179688h38.839844c5.613281 0 10.179688-4.5625 10.179688-10.179688v-28.90625s36.664062 39.085938 103.304687 39.085938h164.199219c5.617187 0 10.179687-4.5625 10.179687-10.179688v-44.027343c0-11.960938-9.210937-21.984375-21.128906-22.851563zm0 0" fill="#d77f4f"/><path d="m97.617188 86.855469v56.824219h44.847656c8.519531 0 16.304687-4.304688 20.859375-11.558594l5.128906-8.210938 5.160156 8.242188c4.535157 7.21875 12.324219 11.527344 20.839844 11.527344h17.949219l5.109375-56.824219zm0 0" fill="#c86d3d"/><path d="m367.234375 457.785156v44.035156c0 5.621094-4.558594 10.179688-10.179687 10.179688h-29.488282c5.617188 0 10.179688-4.558594 10.179688-10.179688v-50.140624c0-7.5625-3.675782-14.339844-9.394532-18.527344 5.863282.746094 11.796876 1.355468 17.761719 1.792968 11.917969.867188 21.121094 10.882813 21.121094 22.839844zm0 0" fill="#c86d3d"/><path d="m30.359375 86.855469h78.953125v355.082031h-78.953125zm0 0" fill="#b9acac"/><path d="m30.359375 86.855469h78.953125v56.824219h-78.953125zm0 0" fill="#9e9797"/><path d="m85.4375 86.855469h23.875v355.082031h-23.875zm0 0" fill="#9e9797"/><path d="m367.234375 478.917969v22.902343c0 5.621094-4.558594 10.179688-10.179687 10.179688h-164.195313c-66.640625 0-103.304687-39.085938-103.304687-39.085938v28.90625c0 5.621094-4.5625 10.179688-10.179688 10.179688h-38.835938c-5.617187 0-10.175781-4.558594-10.175781-10.179688v-59.882812h78.945313s22.824218 36.980469 122.503906 36.980469zm0 0" fill="#00b7a0"/><path d="m367.234375 478.917969v22.902343c0 5.621094-4.558594 10.179688-10.179687 10.179688h-29.488282c5.617188 0 10.179688-4.558594 10.179688-10.179688v-22.902343zm0 0" fill="#009a8d"/><path d="m255.917969 9.765625v109.726563c0 5.386718-4.367188 9.765624-9.765625 9.765624h-51.695313c-3.511719 0-6.769531-1.8125-8.632812-4.78125l-8.734375-13.96875c-3.988282-6.375-13.269532-6.375-17.269532 0l-8.722656 13.96875c-1.867187 2.96875-5.132812 4.78125-8.632812 4.78125h-132.6875c-5.398438 0-9.777344-4.378906-9.777344-9.765624v-109.726563c0-5.386719 4.378906-9.765625 9.777344-9.765625h236.375c5.398437 0 9.765625 4.378906 9.765625 9.765625zm0 0" fill="#db885d"/><path d="m255.917969 9.773438v109.714843c0 5.398438-4.378907 9.765625-9.773438 9.765625h-21.40625c5.394531 0 9.773438-4.367187 9.773438-9.765625v-109.714843c0-5.394532-4.378907-9.773438-9.773438-9.773438h21.40625c5.394531 0 9.773438 4.378906 9.773438 9.773438zm0 0" fill="#c86d3d"/><path d="m210.316406 209.410156h-30.9375c-7.96875 0-14.421875-6.457031-14.421875-14.421875 0-7.964843 6.457031-14.421875 14.421875-14.421875h30.9375c7.964844 0 14.421875 6.457032 14.421875 14.421875 0 7.964844-6.457031 14.421875-14.421875 14.421875zm0 0" fill="#fac574"/><path d="m205.304688 276.890625h-30.941407c-7.964843 0-14.421875-6.457031-14.421875-14.421875s6.457032-14.421875 14.421875-14.421875h30.941407c7.964843 0 14.421874 6.457031 14.421874 14.421875s-6.457031 14.421875-14.421874 14.421875zm0 0" fill="#fac574"/><path d="m200.289062 344.367188h-30.941406c-7.964844 0-14.417968-6.457032-14.417968-14.417969 0-7.964844 6.457031-14.421875 14.417968-14.421875h30.941406c7.964844 0 14.421876 6.457031 14.421876 14.421875 0 7.960937-6.457032 14.417969-14.421876 14.417969zm0 0" fill="#fac574"/><g fill="#c86d3d"><path d="m52.722656 0v43.597656c0 4.265625-3.460937 7.726563-7.726562 7.726563-4.273438 0-7.722656-3.464844-7.722656-7.726563v-43.597656zm0 0"/><path d="m81.414062 0v18.832031c0 4.265625-3.460937 7.726563-7.726562 7.726563-4.273438 0-7.722656-3.460938-7.722656-7.726563v-18.832031zm0 0"/><path d="m132.984375 118.140625v11.117187h-15.453125v-11.117187c0-4.265625 3.453125-7.726563 7.726562-7.726563 4.265626 0 7.726563 3.460938 7.726563 7.726563zm0 0"/></g><path d="m224.742188 194.992188c0 3.976562-1.613282 7.582031-4.222657 10.1875-2.617187 2.605468-6.222656 4.226562-10.199219 4.226562h-13.390624c3.976562 0 7.582031-1.617188 10.199218-4.226562 2.605469-2.605469 4.222656-6.210938 4.222656-10.1875 0-7.972657-6.457031-14.421876-14.421874-14.421876h13.390624c7.964844 0 14.421876 6.449219 14.421876 14.421876zm0 0" fill="#e8b76b"/><path d="m219.726562 262.46875c0 3.976562-1.617187 7.582031-4.222656 10.199219-2.605468 2.605469-6.214844 4.226562-10.199218 4.226562h-13.394532c3.988282 0 7.59375-1.617187 10.199219-4.226562 2.609375-2.617188 4.226563-6.222657 4.226563-10.199219 0-7.960938-6.460938-14.421875-14.425782-14.421875h13.394532c7.964843 0 14.421874 6.460937 14.421874 14.421875zm0 0" fill="#e8b76b"/><path d="m214.710938 329.945312c0 3.976563-1.617188 7.582032-4.226563 10.199219-2.617187 2.605469-6.21875 4.222657-10.199219 4.222657h-13.390625c3.976563 0 7.582031-1.613282 10.199219-4.222657 2.605469-2.617187 4.222656-6.222656 4.222656-10.199219 0-7.960937-6.457031-14.421874-14.421875-14.421874h13.390625c7.964844 0 14.425782 6.460937 14.425782 14.421874zm0 0" fill="#e8b76b"/></svg>