<svg height="512pt" viewBox="-106 0 512 512" width="512pt" xmlns="http://www.w3.org/2000/svg"><path d="m299.730469 439.03125v-118.398438c0-19.789062-16.039063-35.828124-35.828125-35.828124h-192.921875c-19.792969 0-35.839844 16.042968-35.839844 35.839843v177.25c87.363281-23.207031 176.140625-40.394531 264.589844-58.863281zm0 0" fill="#00d2b4"/><path d="m278.613281 320.644531v122.777344c7.042969-1.457031 14.082031-2.917969 21.121094-4.390625v-118.386719c0-19.792969-16.046875-35.839843-35.839844-35.839843h-21.109375c19.789063 0 35.828125 16.050781 35.828125 35.839843zm0 0" fill="#00b7a0"/><path d="m167.4375 410.402344c-42.363281 0-76.703125-34.339844-76.703125-76.699219v-48.894531h153.40625v48.894531c0 42.359375-34.339844 76.699219-76.703125 76.699219zm0 0" fill="#ffbc8a"/><path d="m140.070312 227.660156h54.734376v91.589844h-54.734376zm0 0" fill="#ffbc8a"/><path d="m213.347656 326.976562c-14.484375 0-26.269531-11.785156-26.269531-26.273437v-65.316406h-39.28125v65.316406c0 14.488281-11.785156 26.273437-26.269531 26.273437-4.269532 0-7.726563-3.460937-7.726563-7.726562 0-4.269531 3.457031-7.726562 7.726563-7.726562 5.960937 0 10.816406-4.851563 10.816406-10.816407v-73.042969c0-4.269531 3.457031-7.726562 7.726562-7.726562h54.734376c4.265624 0 7.726562 3.457031 7.726562 7.726562v73.042969c0 5.964844 4.851562 10.816407 10.816406 10.816407 4.265625 0 7.726563 3.457031 7.726563 7.726562 0 4.265625-3.460938 7.726562-7.726563 7.726562zm0 0" fill="#e89a5e"/><path d="m100.660156 82.355469v74.238281c0 31.820312-25.792968 57.625-57.625 57.625-5.390625 0-9.765625-4.375-9.765625-9.769531v-72.5c0-6.191407 1.132813-12.109375 3.214844-17.578125 7.089844-18.714844 25.1875-32.015625 46.382813-32.015625zm0 0" fill="#c93146"/><path d="m100.660156 82.355469v32.601562h-55.902344c-2.804687 0-5.570312-.195312-8.273437-.585937 7.089844-18.710938 25.1875-32.015625 46.382813-32.015625zm0 0" fill="#ac283b"/><path d="m100.65625 82.359375v74.226563c0 31.828124-25.792969 57.625-57.625 57.625-2.03125 0-3.914062-.625-5.476562-1.679688 25.140624-6.191406 43.773437-28.890625 43.773437-55.945312v-74.199219c.507813-.019531 1.027344-.027344 1.542969-.027344zm0 0" fill="#ac283b"/><path d="m0 56.523438c0-4.191407 3.398438-7.585938 7.585938-7.585938h63.136718c21.277344 0 38.527344 17.246094 38.527344 38.523438v13.820312h-64.488281c-24.722657.003906-44.761719-20.039062-44.761719-44.757812zm0 0" fill="#c93146"/><path d="m59.976562 157.746094c-.191406 0-.386718-.007813-.582031-.023438-4.257812-.316406-7.449219-4.023437-7.128906-8.28125 2.09375-28.019531 26.605469-36.40625 27.648437-36.753906 4.046876-1.332031 8.421876.871094 9.753907 4.925781 1.328125 4.035157-.851563 8.382813-4.871094 9.738281-.746094.257813-15.816406 5.746094-17.121094 23.242188-.304687 4.058594-3.691406 7.152344-7.699219 7.152344zm0 0" fill="#ac283b"/><path d="m279.1875 142.863281c0 13.316407-10.792969 24.113281-24.113281 24.113281-13.316407 0-24.109375-10.796874-24.109375-24.113281 0-13.316406 10.792968-24.113281 24.109375-24.113281 13.320312 0 24.113281 10.796875 24.113281 24.113281zm0 0" fill="#e89a5e"/><path d="m84.308594 88.433594h162.089844v96.566406h-162.089844zm0 0" fill="#ffbc8a"/><path d="m202.59375 150.589844c-4.269531 0-7.726562-3.457032-7.726562-7.726563v-7.839843c0-4.265626 3.457031-7.722657 7.726562-7.722657 4.265625 0 7.726562 3.457031 7.726562 7.722657v7.839843c0 4.269531-3.460937 7.726563-7.726562 7.726563zm0 0" fill="#00b7a0"/><path d="m128.671875 150.589844c-4.269531 0-7.726563-3.457032-7.726563-7.726563v-7.839843c0-4.265626 3.457032-7.722657 7.726563-7.722657 4.265625 0 7.726563 3.457031 7.726563 7.722657v7.839843c0 4.269531-3.460938 7.726563-7.726563 7.726563zm0 0" fill="#00b7a0"/><path d="m229.054688 88.429688h17.339843v96.570312h-17.339843zm0 0" fill="#f5a871"/><path d="m246.394531 182.445312v42.308594c0 17.285156-14.011719 31.316406-31.320312 31.316406h-99.453125c-17.296875 0-31.316406-14.03125-31.316406-31.316406v-42.308594zm0 0" fill="#ac5e33"/><path d="m246.394531 182.445312v42.308594c0 17.285156-14.011719 31.316406-31.320312 31.316406h-17.335938c17.296875 0 31.316407-14.03125 31.316407-31.316406v-42.308594zm0 0" fill="#9e552e"/><path d="m240.699219 101.285156h-150.691407c-5.792968 0-10.492187-4.699218-10.492187-10.492187v-4.949219c0-47.410156 38.429687-85.83984375 85.839844-85.83984375 47.40625 0 85.835937 38.42968775 85.835937 85.83984375v4.949219c0 5.792969-4.699218 10.492187-10.492187 10.492187zm0 0" fill="#e43c53"/><path d="m251.191406 85.84375v4.953125c0 5.789063-4.699218 10.492187-10.492187 10.492187h-20.355469c5.804688 0 10.492188-4.699218 10.492188-10.492187v-4.953125c0-23.710938-9.609376-45.167969-25.136719-60.707031-13.285157-13.269531-30.886719-22.222657-50.519531-24.527344 3.335937-.410156 6.738281-.609375 10.179687-.609375 23.699219 0 45.15625 9.609375 60.695313 25.136719 15.527343 15.539062 25.136718 36.996093 25.136718 60.707031zm0 0" fill="#c93146"/><path d="m171.363281 153.703125h-12.019531c-5.40625 0-9.929688 4.113281-10.441406 9.496094l-3.851563 40.347656c-.546875 5.722656 3.953125 10.671875 9.703125 10.671875h21.203125c5.75 0 10.25-4.949219 9.703125-10.671875l-3.851562-40.347656c-.515625-5.382813-5.039063-9.496094-10.445313-9.496094zm0 0" fill="#f07382"/><path d="m175.960938 214.214844h-16.339844c5.746094 0 10.25-4.945313 9.703125-10.671875l-3.851563-40.34375c-.445312-4.644531-3.875-8.34375-8.285156-9.269531.703125-.15625 1.421875-.226563 2.152344-.226563h12.023437c5.40625 0 9.929688 4.109375 10.445313 9.496094l3.851562 40.34375c.550782 5.726562-3.953125 10.671875-9.699218 10.671875zm0 0" fill="#ea576b"/><path d="m218.40625 139.925781h-24.636719c-4.269531 0-7.726562-3.460937-7.726562-7.726562 0-4.269531 3.457031-7.726563 7.726562-7.726563h24.636719c4.269531 0 7.726562 3.457032 7.726562 7.726563 0 4.265625-3.457031 7.726562-7.726562 7.726562zm0 0" fill="#ac5e33"/><path d="m137.496094 139.925781h-24.640625c-4.265625 0-7.722657-3.460937-7.722657-7.726562 0-4.269531 3.457032-7.726563 7.722657-7.726563h24.640625c4.269531 0 7.726562 3.457032 7.726562 7.726563 0 4.265625-3.457031 7.726562-7.726562 7.726562zm0 0" fill="#ac5e33"/><path d="m201.0625 235.390625c-3.152344 0-6.113281-1.945313-7.257812-5.078125-1.460938-4.007812.601562-8.445312 4.609374-9.90625 10-3.652344 14.777344-11.046875 14.824219-11.121094 2.21875-3.644531 6.953125-4.773437 10.597657-2.558594 3.648437 2.21875 4.785156 7 2.570312 10.648438-.296875.484375-7.417969 11.96875-22.691406 17.546875-.875.316406-1.769532.46875-2.652344.46875zm0 0" fill="#f5a871"/><path d="m124.90625 484.078125c-6.035156-30.128906-24.367188-55.457031-41.328125-73.34375-8.25-8.691406-16.167969-15.628906-22.191406-20.503906-5.664063-4.578125-14.039063-3.316407-18.109375 2.726562l-8.363282 12.425781c-4.671874 6.945313-6.859374 15.261719-6.210937 23.601563l.050781.605469c.386719 4.988281 4.953125 8.570312 9.890625 7.761718.636719-.101562 1.273438-.179687 1.90625-.230468 1.667969-.128906 3.335938-.074219 4.964844.160156 5.210937.753906 10.066406 3.3125 13.617187 7.378906 10.238282 11.738282 20.097657 26.402344 24.484376 42.636719zm0 0" fill="#d77f4f"/><path d="m124.910156 484.082031-14.699218 1.144531c-7.066407-27.609374-24.148438-50.882812-40.023438-67.621093-8.253906-8.695313-16.175781-15.628907-22.191406-20.5-1.730469-1.402344-3.71875-2.257813-5.757813-2.597657l1.039063-1.554687c4.070312-6.039063 12.445312-7.304687 18.113281-2.722656 6.015625 4.875 13.9375 11.808593 22.1875 20.503906 16.957031 17.894531 35.296875 43.214844 41.332031 73.347656zm0 0" fill="#c86d3d"/><path d="m47.367188 398.433594c0 9.921875-8.042969 17.964844-17.964844 17.964844s-17.964844-8.042969-17.964844-17.964844 8.042969-17.964844 17.964844-17.964844 17.964844 8.042969 17.964844 17.964844zm0 0" fill="#756f6f"/><path d="m73.359375 400.628906c-3.441406.410156-6.683594 2.265625-8.785156 5.375l-2.402344 3.566406-5.964844 8.859376c-3.984375 5.921874-6.171875 12.855468-6.3125 19.941406-1.414062-.503906-2.875-.875-4.371093-1.089844-1.636719-.238281-3.304688-.289062-4.964844-.164062-.636719.050781-1.277344.132812-1.90625.234374-4.941406.804688-9.507813-2.769531-9.898438-7.765624l-.039062-.609376c-.652344-8.332031 1.53125-16.648437 6.199218-23.589843l7.324219-10.878907v-.011718l1.042969-1.542969c4.066406-6.039063 12.445312-7.304687 18.109375-2.722656 3.460937 2.804687 7.550781 6.285156 11.96875 10.398437zm0 0" fill="#d8cdca"/><path d="m73.359375 400.628906c-3.441406.410156-6.683594 2.265625-8.785156 5.375l-2.402344 3.566406c-5.261719-5.015624-10.144531-9.199218-14.175781-12.464843-1.730469-1.402344-3.71875-2.257813-5.757813-2.597657v-.007812l1.039063-1.546875c4.070312-6.035156 12.445312-7.304687 18.113281-2.71875 3.460937 2.800781 7.550781 6.28125 11.96875 10.394531zm0 0" fill="#b9acac"/><path d="m299.730469 433.882812v67.816407c0 5.6875-4.613281 10.300781-10.304688 10.300781h-243.988281c-5.6875 0-10.300781-4.613281-10.300781-10.300781v-13.609375l102.429687-20.984375 42.085938-8.621094zm0 0" fill="#fbcc85"/><path d="m299.730469 433.882812v67.816407c0 5.6875-4.609375 10.300781-10.300781 10.300781h-10.816407v-73.792969zm0 0" fill="#e8b76b"/><g fill="#ac5e33"><path d="m140.078125 373.957031c-2.566406 0-5.070313-1.273437-6.542969-3.601562l-5.203125-8.242188c-2.277343-3.609375-1.199219-8.378906 2.410157-10.660156 3.605468-2.277344 8.378906-1.195313 10.65625 2.410156l5.203124 8.242188c2.277344 3.609375 1.199219 8.378906-2.40625 10.65625-1.28125.808593-2.707031 1.195312-4.117187 1.195312zm0 0"/><path d="m196.492188 374.308594c-1.023438 0-2.066407-.203125-3.066407-.636719-3.917969-1.699219-5.714843-6.246094-4.019531-10.164063l3.875-8.941406c1.695312-3.917968 6.242188-5.714844 10.160156-4.019531 3.914063 1.695313 5.714844 6.246094 4.019532 10.160156l-3.875 8.945313c-1.261719 2.914062-4.105469 4.65625-7.09375 4.65625zm0 0"/><path d="m168.480469 364.742188c-3.546875 0-6.742188-2.457032-7.539063-6.0625l-2.097656-9.519532c-.921875-4.167968 1.714844-8.292968 5.878906-9.210937 4.164063-.917969 8.292969 1.714843 9.210938 5.882812l2.097656 9.519531c.917969 4.164063-1.714844 8.289063-5.882812 9.207032-.558594.125-1.117188.183594-1.667969.183594zm0 0"/></g><path d="m293.835938 476.949219-114.183594-18.46875-42.085938 8.625 156.269532 25.488281zm0 0" fill="#e8b76b"/></svg>