<svg height="512pt" viewBox="-122 0 512 512.001" width="512pt" xmlns="http://www.w3.org/2000/svg"><path d="m248.371094 182.132812c0 13.316407-10.792969 24.113282-24.113282 24.113282-13.316406 0-24.109374-10.796875-24.109374-24.113282 0-13.316406 10.792968-24.113281 24.109374-24.113281 13.320313 0 24.113282 10.796875 24.113282 24.113281zm0 0" fill="#e89a5e"/><path d="m68.929688 182.132812c0 13.316407-10.796876 24.113282-24.113282 24.113282s-24.113281-10.796875-24.113281-24.113282c0-13.316406 10.796875-24.113281 24.113281-24.113281s24.113282 10.796875 24.113282 24.113281zm0 0" fill="#e89a5e"/><path d="m268.730469 475v-125.765625c0-20.070313-16.269531-36.34375-36.34375-36.34375h-195.691407c-20.078124 0-36.351562 16.277344-36.351562 36.355469v125.753906zm0 0" fill="#756f6f"/><path d="m247.308594 349.246094v125.753906h21.421875v-125.753906c0-20.078125-16.273438-36.355469-36.351563-36.355469h-21.414062c20.074218 0 36.34375 16.28125 36.34375 36.355469zm0 0" fill="#5b5555"/><path d="m268.738281 472.9375v28.761719c0 5.691406-4.609375 10.300781-10.300781 10.300781h-247.800781c-5.6875 0-10.300781-4.609375-10.300781-10.300781v-28.761719zm0 0" fill="#d77f4f"/><path d="m268.730469 472.9375v28.761719c0 5.691406-4.613281 10.300781-10.304688 10.300781h-11.117187v-39.0625zm0 0" fill="#ac5e33"/><path d="m219.011719 312.898438-29.226563 49.109374-44.734375 75.144532c-4.742187 7.96875-16.285156 7.96875-21.027343 0l-44.734376-75.144532-29.226562-49.109374zm0 0" fill="#ffbc8a"/><path d="m189.785156 362.007812-44.734375 75.144532c-4.742187 7.96875-16.285156 7.96875-21.027343 0l-44.734376-75.144532c16.164063 5.707032 35.054688 8.980469 55.25 8.980469 20.191407 0 39.082032-3.273437 55.246094-8.980469zm0 0" fill="#ea576b"/><path d="m106.777344 254.929688h55.519531v92.902343h-55.519531zm0 0" fill="#ffbc8a"/><path d="m171.109375 352.664062c-1.402344 0-2.828125-.382812-4.105469-1.183593-7.785156-4.894531-12.433594-13.292969-12.433594-22.457031v-66.367188h-40.066406v66.367188c0 9.164062-4.648437 17.558593-12.433594 22.457031-3.613281 2.273437-8.382812 1.183593-10.652343-2.429688-2.273438-3.613281-1.183594-8.378906 2.425781-10.652343 3.261719-2.050782 5.207031-5.554688 5.207031-9.375v-74.09375c0-4.269532 3.460938-7.726563 7.726563-7.726563h55.519531c4.269531 0 7.726563 3.460937 7.726563 7.726563v74.09375c0 3.820312 1.949218 7.324218 5.207031 9.375 3.613281 2.273437 4.699219 7.042968 2.429687 10.65625-1.46875 2.332031-3.980468 3.609374-6.550781 3.609374zm0 0" fill="#e89a5e"/><path d="m52.332031 113.703125h164.414063v103.296875h-164.414063zm0 0" fill="#ffbc8a"/><path d="m199.15625 113.699219h17.585938v103.300781h-17.585938zm0 0" fill="#f5a871"/><path d="m216.746094 209.066406v42.914063c0 12.230469-6.914063 22.851562-17.0625 28.167969-4.398438 2.296874-9.394532 3.605468-14.710938 3.605468h-100.882812c-5.335938 0-10.363282-1.320312-14.785156-3.65625h-.007813c-10.097656-5.328125-16.96875-15.917968-16.96875-28.117187v-42.914063zm0 0" fill="#e43c53"/><path d="m216.742188 209.0625v42.917969c0 17.535156-14.210938 31.765625-31.769532 31.765625h-17.585937c17.546875 0 31.769531-14.230469 31.769531-31.765625v-42.917969zm0 0" fill="#c93146"/><path d="m11.609375 132.457031.675781 3.210938h244.503906l.675782-3.210938 11.449218-54.453125c1.199219-5.726562-4.484374-10.476562-9.902343-8.277344l-16.921875 6.855469c-18.65625 7.558594-39.574219-3.808593-43.378906-23.574219-5.917969-30.769531-32.84375-53.007812-64.171876-53.007812-15.667968 0-30.230468 5.558594-41.617187 14.964844-11.390625 9.40625-19.597656 22.660156-22.558594 38.042968-2.992187 15.570313-16.613281 25.925782-31.382812 25.925782-3.972657 0-8.035157-.75-11.996094-2.355469l-16.917969-6.855469c-5.421875-2.195312-11.105468 2.550782-9.902344 8.28125zm0 0" fill="#756f6f"/><path d="m239.46875 132.460938-.675781 3.207031h18l.675781-3.207031 11.4375-54.460938c1.210938-5.71875-4.480469-10.46875-9.898438-8.28125l-8.710937 3.53125c.710937 1.378906.980469 3.019531.609375 4.75zm0 0" fill="#5b5555"/><path d="m257.46875 132.460938-6.453125 30.648437c-.707031 3.378906-3.6875 5.800781-7.148437 5.800781h-218.660157c-3.460937 0-6.441406-2.421875-7.148437-5.800781l-6.449219-30.648437zm0 0" fill="#ea576b"/><path d="m257.46875 132.460938-6.453125 30.648437c-.707031 3.378906-3.6875 5.800781-7.148437 5.800781h-18c3.460937 0 6.441406-2.421875 7.148437-5.800781l6.453125-30.648437zm0 0" fill="#e43c53"/><path d="m140.628906 168.914062h-12.1875c-5.488281 0-10.074218 4.171876-10.59375 9.632813l-3.90625 40.925781c-.554687 5.804688 4.007813 10.824219 9.839844 10.824219h21.507812c5.832032 0 10.398438-5.019531 9.84375-10.824219l-3.90625-40.925781c-.523437-5.460937-5.109374-9.632813-10.597656-9.632813zm0 0" fill="#f07382"/><path d="m145.292969 230.296875h-16.574219c5.832031 0 10.398438-5.015625 9.84375-10.828125l-3.90625-40.917969c-.449219-4.714843-3.929688-8.464843-8.402344-9.40625.710938-.15625 1.441406-.230469 2.183594-.230469h12.195312c5.484376 0 10.074219 4.167969 10.597657 9.636719l3.90625 40.917969c.554687 5.8125-4.011719 10.828125-9.84375 10.828125zm0 0" fill="#ea576b"/><path d="m185.742188 264.101562c0 26.277344-21.835938 48.285157-51.195313 54.082032-29.359375-5.78125-51.210937-27.804688-51.210937-54.082032zm0 0" fill="#e43c53"/><path d="m202.078125 264.097656c0 5.53125-.824219 10.910156-2.390625 16.050782-4.398438 2.296874-9.394531 3.605468-14.710938 3.605468h-3.523437c3.335937-6.027344 5.171875-12.683594 5.171875-19.65625 0-4.265625 3.449219-7.726562 7.726562-7.726562 4.261719 0 7.726563 3.460937 7.726563 7.726562zm0 0" fill="#c93146"/><path d="m87.550781 283.753906h-3.460937c-5.335938 0-10.363282-1.320312-14.785156-3.65625h-.007813c-1.546875-5.121094-2.359375-10.488281-2.359375-16 0-4.265625 3.449219-7.726562 7.726562-7.726562 4.265626 0 7.726563 3.460937 7.726563 7.726562 0 6.972656 1.824219 13.628906 5.160156 19.65625zm0 0" fill="#c93146"/><path d="m160.136719 57.234375-7.460938-7.464844c-2.878906-2.878906-7.546875-2.878906-10.429687 0l-7.707032 7.710938-7.710937-7.710938c-2.878906-2.878906-7.546875-2.878906-10.425781 0l-7.464844 7.464844c-2.878906 2.878906-2.878906 7.546875 0 10.425781l7.710938 7.710938-7.710938 7.707031c-2.878906 2.882813-2.878906 7.550781 0 10.429687l7.464844 7.464844c2.878906 2.878906 7.546875 2.878906 10.425781 0l7.710937-7.710937 7.707032 7.710937c2.878906 2.878906 7.546875 2.878906 10.429687 0l7.460938-7.464844c2.878906-2.878906 2.878906-7.546874 0-10.425781l-7.707031-7.710937 7.707031-7.707032c2.882812-2.882812 2.882812-7.550781 0-10.429687zm0 0" fill="#e43c53"/><path d="m231.320312 422.375c0 9.292969-7.535156 16.828125-16.828124 16.828125-9.296876 0-16.832032-7.535156-16.832032-16.828125 0-9.296875 7.535156-16.832031 16.832032-16.832031 9.292968 0 16.828124 7.535156 16.828124 16.832031zm0 0" fill="#fac574"/><path d="m194.570312 430.101562h-39.167968c-4.265625 0-7.726563-3.460937-7.726563-7.726562s3.460938-7.726562 7.726563-7.726562h39.167968c4.265626 0 7.726563 3.460937 7.726563 7.726562s-3.460937 7.726562-7.726563 7.726562zm0 0" fill="#efe2dd"/><path d="m71.414062 422.375c0 9.292969-7.535156 16.828125-16.828124 16.828125-9.296876 0-16.832032-7.535156-16.832032-16.828125 0-9.296875 7.535156-16.832031 16.832032-16.832031 9.292968 0 16.828124 7.535156 16.828124 16.832031zm0 0" fill="#fac574"/><path d="m113.671875 430.101562h-39.167969c-4.265625 0-7.722656-3.460937-7.722656-7.726562s3.457031-7.726562 7.722656-7.726562h39.167969c4.265625 0 7.726563 3.460937 7.726563 7.726562s-3.460938 7.726562-7.726563 7.726562zm0 0" fill="#efe2dd"/><g fill="#e8b76b"><path d="m231.324219 422.375c0 9.289062-7.542969 16.832031-16.832031 16.832031-1.753907 0-3.433594-.269531-5.019532-.761719 6.839844-2.144531 11.808594-8.53125 11.808594-16.070312 0-7.542969-4.964844-13.929688-11.808594-16.070312 1.585938-.496094 3.265625-.765626 5.019532-.765626 9.289062 0 16.832031 7.542969 16.832031 16.835938zm0 0"/><path d="m71.417969 422.375c0 9.289062-7.539063 16.832031-16.832031 16.832031-1.75 0-3.429688-.269531-5.015626-.761719 6.839844-2.144531 11.804688-8.53125 11.804688-16.070312 0-7.542969-4.964844-13.929688-11.804688-16.070312 1.585938-.496094 3.265626-.765626 5.015626-.765626 9.292968 0 16.832031 7.542969 16.832031 16.835938zm0 0"/></g></svg>