<svg height="512pt" viewBox="0 -66 512 512" width="512pt" xmlns="http://www.w3.org/2000/svg"><path d="m512 137.070312c0 22.128907-17.007812 40.257813-38.664062 42.070313-1.648438 13.269531-9.898438 24.488281-21.363282 30.246094.285156 1.421875.441406 2.886719.441406 4.390625 0 12.34375-10.28125 22.273437-22.734374 21.714844-11.148438-.492188-20.277344-9.671876-20.730469-20.820313-.132813-3.253906.464843-6.34375 1.617187-9.144531-9.414062-7.171875-15.492187-18.503906-15.492187-31.246094 0-1.773438.125-3.523438.351562-5.234375.679688-5.089844-1.816406-9.960937-6.058593-12.402344-1.011719-.585937-2.132813-1.03125-3.328126-1.308593-.082031-.019532-.164062-.039063-.246093-.0625-5.5625-1.308594-11.21875 1.308593-13.855469 6.273437-.011719.011719-.011719.03125-.023438.042969-.144531.269531-.277343.535156-.402343.8125-6.539063 14.855468-21.386719 25.21875-38.660157 25.21875-20.988281 0-38.386718-15.304688-41.671874-35.363282-.023438.007813-.042969.03125-.0625.039063-4.039063 2.914063-8.613282 5.128906-13.546876 6.46875h-.011718c-3.480469.957031-7.136719 1.472656-10.917969 1.496094-23.335937.101562-42.421875-18.90625-42.421875-42.238281 0-23.324219 18.902344-42.238282 42.234375-42.238282.402344 0 .804687.023438 1.207031.03125 0-.007812 0-.007812 0-.019531 1.121094-5.347656 2.984375-10.425781 5.5-15.101563 9.589844-17.933593 28.496094-30.144531 50.261719-30.144531 3.050781 0 6.039063.238281 8.953125.710938 5.605469.878906 10.949219 2.585937 15.886719 4.988281.019531 0 .027343.007812.050781.019531 13.289062-14.875 32.613281-24.25 54.132812-24.25 38.355469 0 69.765626 29.753907 72.414063 67.4375.121094 1.699219.183594 3.417969.183594 5.160157 0 3.492187-.257813 6.933593-.742188 10.300781 0 .050781-.007812.113281-.019531.164062 21.203125 2.253907 37.71875 20.1875 37.71875 41.988281zm0 0" fill="#b9acac"/><g fill="#9e9797"><path d="m512 137.070312c0 22.128907-17.011719 40.265626-38.664062 42.078126-1.644532 13.269531-9.890626 24.476562-21.359376 30.238281.28125 1.421875.441407 2.886719.441407 4.390625 0 12.335937-10.28125 22.277344-22.738281 21.71875-7.835938-.347656-14.671876-4.980469-18.191407-11.585938 11.722657-.316406 21.128907-9.910156 21.128907-21.71875 0-1.503906-.160157-2.96875-.453126-4.390625 11.46875-5.761719 19.726563-16.96875 21.367188-30.238281 21.65625-1.8125 38.667969-19.949219 38.667969-42.078125 0-11.375-4.5-21.699219-11.820313-29.292969 18.191406 4.710938 31.621094 21.226563 31.621094 40.878906zm0 0"/><path d="m300.886719 83.644531c-1.535157 1.742188-3.667969 2.628907-5.8125 2.628907-1.8125 0-3.625-.632813-5.097657-1.917969-6.171874-5.429688-14.09375-8.46875-22.316406-8.5625 1.125-5.34375 2.988282-10.421875 5.503906-15.101563 9.972657 1.1875 19.386719 5.367188 27.011719 12.042969 3.203125 2.824219 3.519531 7.695313.710938 10.910156zm0 0"/><path d="m390.078125 148.15625c0 2.871094-.238281 5.707031-.710937 8.488281-1.011719-.589843-2.132813-1.03125-3.328126-1.308593-.082031-.019532-.164062-.042969-.246093-.0625-5.5625-1.308594-11.21875 1.308593-13.855469 6.273437 1.792969-4.242187 2.6875-8.746094 2.6875-13.390625 0-4.171875-.730469-8.253906-2.183594-12.117188-1.492187-3.996093.527344-8.445312 4.523438-9.949218 3.996094-1.496094 8.445312.523437 9.941406 4.523437 2.109375 5.609375 3.171875 11.503907 3.171875 17.542969zm0 0"/><path d="m291.910156 135.308594c-.988281 3.253906-1.480468 6.644531-1.480468 10.074218 0 2.328126.226562 4.65625.6875 6.914063-4.035157 2.914063-8.609376 5.128906-13.546876 6.46875h-.007812c-.761719-.9375-1.320312-2.0625-1.578125-3.316406-.667969-3.296875-1.007813-6.6875-1.007813-10.066407 0-4.957031.71875-9.859374 2.152344-14.566406 1.246094-4.089844 5.5625-6.386718 9.640625-5.152344 4.082031 1.246094 6.390625 5.566407 5.140625 9.644532zm0 0"/><path d="m475.046875 84.613281c0 3.492188-.257813 6.933594-.742187 10.300781-.0625 0-.132813 0-.195313-.007812-1.214844-.136719-2.460937-.199219-3.699219-.199219-19.039062 0-34.511718 15.472657-34.511718 34.511719 0 4.265625-3.460938 7.726562-7.722657 7.726562-4.277343 0-7.726562-3.460937-7.726562-7.726562 0-27.554688 22.40625-49.964844 49.960937-49.964844 1.484375 0 2.980469.0625 4.453125.199219.121094 1.699219.183594 3.417969.183594 5.160156zm0 0"/><path d="m348.261719 36.246094c-.039063.050781-.082031.09375-.121094.144531-2.15625 2.410156-4.144531 5.007813-5.914063 7.714844-1.484374 2.257812-3.957031 3.492187-6.480468 3.492187-1.453125 0-2.914063-.414062-4.222656-1.265625-3.566407-2.339843-4.566407-7.128906-2.226563-10.695312.980469-1.480469 2-2.945313 3.082031-4.378907 5.601563.878907 10.949219 2.585938 15.882813 4.988282zm0 0"/><path d="m410.644531 89.890625c-2.757812 0-5.425781-1.480469-6.816406-4.082031-2.863281-5.347656-8.402344-8.667969-14.457031-8.667969-6.050782 0-11.589844 3.320313-14.453125 8.667969-2.011719 3.765625-6.691407 5.183594-10.457031 3.164062-3.765626-2.011718-5.179688-6.695312-3.164063-10.457031 5.558594-10.378906 16.316406-16.828125 28.074219-16.828125 11.761718 0 22.519531 6.449219 28.074218 16.828125 2.015626 3.761719.601563 8.445313-3.164062 10.457031-1.15625.625-2.40625.917969-3.636719.917969zm0 0"/></g><path d="m277.628906 285.0625v54.273438l-21.84375-2.148438-186.113281-18.304688-26.636719-2.621093v-31.199219zm0 0" fill="#db885d"/><path d="m71.335938 296.046875v13.703125c0 3.171875-.566407 6.257812-1.664063 9.132812l-26.636719-2.621093v-31.199219h25.835938c1.582031 3.328125 2.464844 7.058594 2.464844 10.984375zm0 0" fill="#c86d3d"/><path d="m277.628906 285.0625v54.273438l-21.84375-2.148438c-.023437-.390625-.03125-.777344-.03125-1.167969v-47.640625c0-1.125.074219-2.230468.21875-3.316406zm0 0" fill="#c86d3d"/><path d="m298 277.390625h68.539062v69.621094h-68.539062zm0 0" fill="#c86d3d"/><path d="m281.480469 347.011719h22.34375v-69.621094h-22.34375c-6.066407 0-10.988281 4.917969-10.988281 10.988281v47.644532c0 6.070312 4.921874 10.988281 10.988281 10.988281zm0 0" fill="#fcd79f"/><path d="m366.539062 277.390625v69.621094h-26.210937c-2.253906-6.820313-3.480469-14.105469-3.480469-21.667969v-47.953125zm0 0" fill="#ac5e33"/><path d="m351.269531 255.613281v69.730469c0 30.195312 24.480469 54.675781 54.675781 54.675781h27.566407c30.195312 0 54.675781-24.476562 54.675781-54.675781v-69.730469zm0 0" fill="#db885d"/><path d="m488.179688 255.613281v69.730469c0 30.195312-24.46875 54.675781-54.664063 54.675781h-20.878906c30.195312 0 54.667969-24.480469 54.667969-54.675781v-69.730469zm0 0" fill="#c86d3d"/><path d="m479.9375 270.046875h-120.417969c-4.554687 0-8.25-3.691406-8.25-8.246094v-21.996093c0-4.554688 3.695313-8.246094 8.25-8.246094h120.417969c4.554688 0 8.246094 3.691406 8.246094 8.246094v21.996093c0 4.554688-3.691406 8.246094-8.246094 8.246094zm0 0" fill="#d8cdca"/><path d="m488.179688 239.800781v21.996094c0 4.5625-3.691407 8.253906-8.238282 8.253906h-20.878906c4.546875 0 8.242188-3.691406 8.242188-8.253906v-21.996094c0-4.550781-3.695313-8.242187-8.242188-8.242187h20.878906c4.546875 0 8.238282 3.691406 8.238282 8.242187zm0 0" fill="#cdbfbb"/><path d="m9.71875 316.628906 34.609375 4.035156c6.53125.757813 12.261719-4.34375 12.261719-10.914062v-13.699219c0-6.070312-4.917969-10.988281-10.988282-10.988281h-34.613281c-6.066406-.003906-10.988281 4.917969-10.988281 10.988281v9.664063c0 5.578125 4.175781 10.269531 9.71875 10.914062zm0 0" fill="#fcd79f"/><path d="m244.609375 27.648438c0 15.269531-12.378906 27.648437-27.648437 27.648437-15.269532 0-27.648438-12.378906-27.648438-27.648437 0-15.269532 12.378906-27.648438 27.648438-27.648438 15.269531 0 27.648437 12.378906 27.648437 27.648438zm0 0" fill="#b9acac"/><path d="m237.582031 46.058594c-8.328125 9.332031-21.558593 11.691406-32.335937 6.636718 3.308594-1.527343 6.351562-3.75 8.921875-6.636718 10.175781-11.382813 9.1875-28.855469-2.199219-39.03125-2.066406-1.84375-4.328125-3.320313-6.710938-4.425782 9.722657-4.550781 21.613282-3.167968 30.113282 4.425782 11.398437 10.171875 12.386718 27.648437 2.210937 39.03125zm0 0" fill="#9e9797"/><path d="m163.457031 55.296875c0 13.1875-10.691406 23.878906-23.878906 23.878906-13.183594 0-23.875-10.691406-23.875-23.878906 0-13.183594 10.691406-23.875 23.875-23.875 13.1875 0 23.878906 10.691406 23.878906 23.875zm0 0" fill="#b9acac"/><path d="m157.390625 71.199219c-7.195313 8.058593-18.621094 10.09375-27.925781 5.726562 2.855468-1.316406 5.484375-3.234375 7.703125-5.726562 8.785156-9.832031 7.933593-24.921875-1.898438-33.710938-1.785156-1.589843-3.738281-2.863281-5.796875-3.820312 8.394532-3.925781 18.664063-2.738281 26.003906 3.820312 9.84375 8.789063 10.699219 23.878907 1.914063 33.710938zm0 0" fill="#9e9797"/></svg>