<svg height="512pt" viewBox="-99 0 511 512" width="512pt" xmlns="http://www.w3.org/2000/svg"><g fill="#b4cceb"><path d="m87.742188 126c-10.160157-14.273438-16.148438-31.746094-16.148438-50.511719v-27.488281h-71.09375v78zm0 0"/><path d="m313.695312 126v-78h-71.09375v28.5625c0 18.421875-5.824218 35.480469-15.734374 49.4375zm0 0"/><path d="m.5 183h313.195312v81h-313.195312zm0 0"/><path d="m.5 315h313.195312v71h-313.195312zm0 0"/><path d="m.5 445v11.78125c0 11.746094 6.636719 22.449219 17.121094 27.734375 33.359375 16.792969 83.445312 27.484375 139.476562 27.484375s106.121094-10.691406 139.476563-27.484375c10.488281-5.285156 17.121093-15.988281 17.121093-27.734375v-11.78125zm0 0"/></g><path d="m289.652344 315h24.042968v71h-24.042968zm0 0" fill="#85afe2"/><path d="m289.652344 445v11.78125c0 11.746094-6.636719 22.449219-17.125 27.734375-30.957032 15.574219-76.304688 25.910156-127.453125 27.308594 3.976562.125 7.984375.175781 12.023437.175781 56.03125 0 106.121094-10.691406 139.476563-27.484375 10.488281-5.285156 17.121093-15.988281 17.121093-27.734375v-11.78125zm0 0" fill="#85afe2"/><path d="m289.652344 183h24.042968v81h-24.042968zm0 0" fill="#85afe2"/><path d="m289.652344 48h24.042968v78h-24.042968zm0 0" fill="#85afe2"/><path d="m71.59375 10.300781v44.421875h-71.09375v-44.421875c0-5.6875 4.613281-10.300781 10.300781-10.300781h50.488281c5.6875 0 10.304688 4.613281 10.304688 10.300781zm0 0" fill="#1475cc"/><path d="m313.695312 10.300781v44.421875h-71.09375v-44.421875c0-5.6875 4.617188-10.300781 10.304688-10.300781h50.488281c5.6875 0 10.300781 4.613281 10.300781 10.300781zm0 0" fill="#1475cc"/><path d="m313.695312 10.300781v44.421875h-24.042968v-44.421875c0-5.6875-4.617188-10.300781-10.300782-10.300781h24.042969c5.6875 0 10.300781 4.613281 10.300781 10.300781zm0 0" fill="#006ac3"/><path d="m313.695312 118.726562v73.277344h-313.195312v-73.277344h82.570312c14.65625 25.621094 41.917969 43.105469 73.378907 43.339844 32.160156.238282 60.253906-17.285156 75.039062-43.339844zm0 0" fill="#1475cc"/><path d="m289.652344 118.726562h24.042968v73.277344h-24.042968zm0 0" fill="#006ac3"/><path d="m.5 256h313.195312v63.996094h-313.195312zm0 0" fill="#1475cc"/><path d="m289.652344 256h24.042968v63.996094h-24.042968zm0 0" fill="#006ac3"/><path d="m.5 384h313.195312v64.003906h-313.195312zm0 0" fill="#1475cc"/><path d="m289.652344 384h24.042968v64.003906h-24.042968zm0 0" fill="#006ac3"/><path d="m262.648438 231.0625-10.011719-10.007812c-3.859375-3.863282-10.121094-3.863282-13.984375 0l-10.339844 10.339843-10.339844-10.339843c-3.863281-3.863282-10.125-3.863282-13.988281 0l-10.007813 10.007812c-3.863281 3.863281-3.863281 10.125 0 13.988281l10.339844 10.339844-10.339844 10.339844c-3.863281 3.859375-3.863281 10.121093 0 13.984375l10.007813 10.011718c3.863281 3.859376 10.125 3.859376 13.988281 0l10.339844-10.339843 10.339844 10.339843c3.863281 3.859376 10.125 3.859376 13.984375 0l10.011719-10.011718c3.863281-3.863282 3.863281-10.125 0-13.984375l-10.339844-10.339844 10.339844-10.339844c3.863281-3.863281 3.863281-10.125 0-13.988281zm0 0" fill="#e43c53"/></svg>