<svg height="512pt" viewBox="-12 0 512 512" width="512pt" xmlns="http://www.w3.org/2000/svg"><path d="m44.996094 512h-15.742188c-5.691406 0-10.304687-4.613281-10.304687-10.300781v-435.675781h36.347656v435.675781c0 5.6875-4.613281 10.300781-10.300781 10.300781zm0 0" fill="#c86d3d"/><path d="m44.996094 512h-7.871094v-445.976562h18.171875v435.675781c0 5.6875-4.613281 10.300781-10.300781 10.300781zm0 0" fill="#9e552e"/><path d="m74.246094 37.125c0 20.503906-16.617188 37.121094-37.121094 37.121094s-37.125-16.617188-37.125-37.121094 16.621094-37.125 37.125-37.125 37.121094 16.621094 37.121094 37.125zm0 0" fill="#fcd79f"/><path d="m74.246094 37.125c0 20.507812-16.613282 37.121094-37.121094 37.121094-4.082031 0-7.996094-.65625-11.660156-1.871094 14.785156-4.890625 25.460937-18.8125 25.460937-35.25s-10.675781-30.363281-25.460937-35.253906c3.664062-1.214844 7.578125-1.86718775 11.660156-1.86718775 20.507812 0 37.121094 16.61328175 37.121094 37.12109375zm0 0" fill="#fac574"/><path d="m464.035156 229.75 15.628906 3.730469c4.382813 1.039062 7.492188 4.96875 7.492188 9.488281v13.8125c0 3.148438-1.53125 6.097656-4.101562 7.9375l-14.546876 10.371094c-6.152343 4.378906-5.203124 13.789062 1.699219 16.851562l11.148438 4.949219c3.519531 1.570313 5.800781 5.058594 5.800781 8.910156v60.738281c0 5.492188-4.519531 9.910157-10 9.761719-5.308594-.152343-12.75-.101562-22.359375.539063-6.761719.449218-14.601563 1.199218-23.539063 2.390625-29.140624 3.859375-69.941406 12.371093-122.941406 30.371093-31.609375 10.738282-61.800781 14.707032-89.171875 14.707032-4.625 0-9.265625-.082032-13.886719-.339844-37.070312-1.808594-68.082031-10.519531-89.140624-18.367188-11.121094-4.140624-19.460938-8.042968-24.460938-10.550781-3.300781-1.660156-5.378906-5.03125-5.378906-8.722656v-283.488281c0-7.078125 7.296875-11.789063 13.757812-8.890625 4.402344 1.980469 9.800782 4.242187 16.082032 6.582031 38.609374 14.390625 110.6875 31.699219 192.199218 4.007812 67.898438-23.0625 115.746094-30.535156 144.753906-32.644531 0-.003906-.003906-.003906-.003906-.003906.480469-.03125.949219-.070313 1.417969-.101563.929687-.058593 1.839844-.117187 2.742187-.167968 1.78125-.109375 3.488282-.199219 5.109376-.261719 4.640624-.1875 8.621093-.230469 11.941406-.1875.519531.007813 1.027344.007813 1.519531.019531.4375.007813.859375.019532 1.277344.027344.222656.011719.441406.011719.652343.019531 5.257813.171875 9.429688 4.492188 9.429688 9.75v108.292969c0 3.238281-1.609375 6.269531-4.308594 8.078125l-22 14.820313c-7.050781 4.75-5.082031 15.609374 3.1875 17.570312zm0 0" fill="#ea576b"/><path d="m464.035156 229.75 15.628906 3.730469c4.382813 1.039062 7.492188 4.96875 7.492188 9.488281v13.8125c0 3.148438-1.53125 6.097656-4.101562 7.9375l-14.546876 10.371094c-6.152343 4.378906-5.203124 13.789062 1.699219 16.851562l11.148438 4.949219c3.519531 1.570313 5.800781 5.058594 5.800781 8.910156v60.738281c0 5.492188-4.519531 9.910157-10 9.761719-5.308594-.152343-12.75-.101562-22.359375.539063 2.699219-2.609375 4.5-6.839844 4.5-10.300782v-60.738281c0-3.851562-2.269531-7.339843-5.800781-8.910156l-11.140625-4.949219c-6.898438-3.0625-7.859375-12.472656-1.710938-16.851562l14.5625-10.371094c2.558594-1.839844 4.089844-4.789062 4.089844-7.9375v-13.8125c0-4.519531-3.101563-8.449219-7.5-9.488281l-15.621094-3.730469c-8.261719-1.960938-10.230469-12.820312-3.191406-17.570312l22-14.820313c2.691406-1.808594 4.3125-4.839844 4.3125-8.078125v-108.292969c0-4.136719-2.570313-7.6875-6.230469-9.097656.480469-.03125.949219-.070313 1.417969-.101563.929687-.058593 1.839844-.117187 2.742187-.167968 1.789063-.109375 3.488282-.191406 5.109376-.261719 4.640624-.179687 8.621093-.230469 11.941406-.1875.519531.007813 1.027344.007813 1.519531.019531.4375.007813.859375.019532 1.277344.027344.222656.011719.441406.011719.652343.019531 5.257813.171875 9.429688 4.492188 9.429688 9.75v108.292969c0 3.238281-1.609375 6.269531-4.308594 8.078125l-22 14.820313c-7.050781 4.75-5.082031 15.609374 3.1875 17.570312zm0 0" fill="#e43c53"/><path d="m372.152344 246.019531c.125 21.816407-7.828125 41.773438-21.023438 57.058594-1.207031 1.402344-2.96875 2.195313-4.8125 2.195313h-19.863281v48.738281c0 2.144531-.875 4.078125-2.277344 5.492187-1.398437 1.410156-3.347656 2.277344-5.488281 2.277344-2.328125 0-4.410156-1.019531-5.832031-2.636719-2.792969-3.164062-6.675781-5.132812-10.890625-5.132812h-32.777344c-4.214844 0-8.109375 1.96875-10.890625 5.132812-1.421875 1.617188-3.511719 2.636719-5.832031 2.636719-4.292969 0-7.765625-3.484375-7.765625-7.769531v-48.738281h-19.863281c-1.855469 0-3.605469-.800782-4.820313-2.203126-13.09375-15.164062-21.015625-34.921874-21.015625-56.535156 0-48.027344 39.09375-86.90625 87.195312-86.578125 47.171876.328125 85.679688 38.878907 85.957032 86.0625zm0 0" fill="#fff5f5"/><path d="m253.546875 305.160156-8.847656.113282v15.339843h8.847656c4.265625 0 7.726563-3.460937 7.726563-7.726562s-3.460938-7.726563-7.726563-7.726563zm0 0" fill="#efe2dd"/><path d="m317.605469 305.160156c-4.265625 0-7.726563 3.460938-7.726563 7.726563s3.460938 7.726562 7.726563 7.726562h8.847656v-15.339843zm0 0" fill="#efe2dd"/><path d="m273.109375 337.472656c-4.265625 0-7.722656-3.457031-7.722656-7.726562v-9.132813c0-4.265625 3.457031-7.722656 7.722656-7.722656 4.269531 0 7.726563 3.457031 7.726563 7.722656v9.132813c0 4.269531-3.457032 7.726562-7.726563 7.726562zm0 0" fill="#756f6f"/><path d="m298.039062 337.472656c-4.269531 0-7.726562-3.457031-7.726562-7.726562v-9.132813c0-4.265625 3.457031-7.722656 7.726562-7.722656 4.265626 0 7.726563 3.457031 7.726563 7.722656v9.132813c0 4.269531-3.460937 7.726562-7.726563 7.726562zm0 0" fill="#756f6f"/><path d="m360.226562 293.730469c-1.980468 0-3.957031-.753907-5.464843-2.261719l-114.199219-114.203125c-3.019531-3.015625-3.019531-7.90625 0-10.925781 3.015625-3.019532 7.910156-3.015625 10.925781 0l114.199219 114.199218c3.019531 3.019532 3.019531 7.910157 0 10.929688-1.507812 1.507812-3.484375 2.261719-5.460938 2.261719zm0 0" fill="#5b5555"/><path d="m340.753906 238.457031c5.382813 12.878907-.695312 27.683594-13.574218 33.066407-12.882813 5.378906-27.6875-.699219-33.066407-13.578126-5.382812-12.878906 3.289063-21.476562 16.167969-26.859374 12.878906-5.382813 25.089844-5.511719 30.472656 7.371093zm0 0" fill="#756f6f"/><g fill="#5b5555"><path d="m268.589844 254.617188c0 9.363281-7.589844 16.957031-16.957032 16.957031-9.363281 0-16.953124-7.59375-16.953124-16.957031 0-9.363282 7.589843-16.957032 16.953124-16.957032 9.367188 0 16.957032 7.59375 16.957032 16.957032zm0 0"/><path d="m94.265625 110.742188h-80.199219c-4.265625 0-7.726562-3.457032-7.726562-7.722657 0-4.269531 3.460937-7.726562 7.726562-7.726562h80.199219c4.265625 0 7.722656 3.457031 7.722656 7.726562.003907 4.265625-3.457031 7.722657-7.722656 7.722657zm0 0"/><path d="m94.265625 389.40625h-80.199219c-4.265625 0-7.726562-3.457031-7.726562-7.722656 0-4.269532 3.460937-7.726563 7.726562-7.726563h80.199219c4.265625 0 7.722656 3.457031 7.722656 7.726563.003907 4.265625-3.457031 7.722656-7.722656 7.722656zm0 0"/></g><path d="m111.296875 98.683594c-4.265625-1.679688-8.039063-3.289063-11.277344-4.742188-6.453125-2.898437-13.742187 1.824219-13.742187 8.898438v283.488281c0 3.683594 2.066406 7.050781 5.359375 8.707031 4.246093 2.136719 10.917969 5.277344 19.660156 8.71875zm0 0" fill="#e43c53"/></svg>