<svg height="512pt" viewBox="-93 0 512 512.00002" width="512pt" xmlns="http://www.w3.org/2000/svg"><path d="m272.285156 37.796875c.15625 5.4375-.964844 10.828125-3.242187 15.699219-3.214844 6.933594-8.738281 12.859375-16.121094 16.503906-17.21875 8.488281-38.046875 1.421875-46.535156-15.792969-8.476563-17.203125-1.410157-38.03125 15.792969-46.523437 17.214843-8.488282 38.046874-1.410156 46.535156 15.792968 2.273437 4.617188 3.429687 9.5 3.570312 14.320313zm0 0" fill="#756f6f"/><path d="m268.707031 23.476562c8.488281 17.210938 1.417969 38.039063-15.792969 46.527344-2.460937 1.214844-4.984374 2.109375-7.546874 2.699219 12.167968-10.015625 16.328124-27.429687 9.054687-42.179687-7.273437-14.746094-23.617187-22.046876-38.972656-18.488282 2.027343-1.671875 4.273437-3.132812 6.734375-4.347656 17.210937-8.488281 38.039062-1.414062 46.523437 15.789062zm0 0" fill="#5b5555"/><path d="m272.285156 37.796875c.15625 5.4375-.964844 10.828125-3.242187 15.699219-3.464844-2.308594-14.023438-7.3125-31.824219 1.464844-1.101562.546874-2.265625.804687-3.417969.804687-2.84375 0-5.582031-1.589844-6.933593-4.320313-1.886719-3.820312-.308594-8.457031 3.511718-10.339843 19.316406-9.519531 33.523438-6.984375 41.90625-3.308594zm0 0" fill="#5b5555"/><path d="m110.8125 284.503906v204.429688c0 3.601562 2.917969 6.519531 6.515625 6.519531 25.914063 0 46.921875-21.007813 46.921875-46.921875v-164.027344zm0 0" fill="#006ac3"/><path d="m142.195312 284.503906v204.429688c0 3.601562 2.917969 6.519531 6.519532 6.519531 25.914062 0 46.921875-21.007813 46.921875-46.921875v-164.027344zm0 0" fill="#5592d7"/><path d="m178.179688 284.503906v164.03125c0 21.414063-14.355469 39.484375-33.964844 45.105469 1.171875 1.132813 2.757812 1.8125 4.5 1.8125 25.917968 0 46.921875-21.011719 46.921875-46.917969v-164.03125zm0 0" fill="#1475cc"/><path d="m152.371094 295.617188-98.949219 98.949218v-37.136718l61.8125-61.8125zm0 0" fill="#b9acac"/><path d="m53.421875 357.429688 16.449219-16.449219v37.132812l-16.449219 16.453125zm0 0" fill="#9e9797"/><path d="m152.371094 295.617188-17.097656 17.09375h-37.132813l17.09375-17.09375zm0 0" fill="#9e9797"/><path d="m58.730469 501.699219v-244.945313c0-4.394531-3.5625-7.957031-7.957031-7.957031h-18.078126c-4.394531 0-7.957031 3.5625-7.957031 7.957031v244.945313c0 5.6875 4.613281 10.300781 10.300781 10.300781h13.390626c5.6875 0 10.300781-4.613281 10.300781-10.300781zm0 0" fill="#efe2dd"/><path d="m44.238281 256.753906v255.246094h4.191407c5.6875 0 10.300781-4.613281 10.300781-10.300781v-244.945313c0-4.394531-3.5625-7.957031-7.960938-7.957031h-14.492187c4.394531 0 7.960937 3.566406 7.960937 7.957031zm0 0" fill="#d8cdca"/><path d="m325.308594 286.957031c0 4.039063-1.636719 7.695313-4.273438 10.332031-2.636718 2.648438-6.292968 4.285157-10.332031 4.285157h-296.09375c-8.078125 0-14.609375-6.539063-14.609375-14.617188 0-8.066406 6.53125-14.605469 14.609375-14.605469h296.09375c8.074219-.003906 14.605469 6.539063 14.605469 14.605469zm0 0" fill="#db885d"/><path d="m242.523438 69.769531v144.464844c0 32.101563-26.019532 58.121094-58.121094 58.121094h-81.421875v-201.65625c0-37.765625 30.875-70.089844 68.636719-70.6914065 10.015624-.1562505 19.550781 1.7890625 28.207031 5.4414065 8.382812 3.527343 15.921875 8.652343 22.265625 14.984375 12.628906 12.621094 20.433594 30.070312 20.433594 49.335937zm0 0" fill="#fac574"/><path d="m242.523438 69.769531v144.464844c0 32.101563-26.019532 58.121094-58.113282 58.121094h-19.363281c32.097656 0 58.121094-26.019531 58.121094-58.121094v-144.464844c0-19.265625-7.8125-36.714843-20.433594-49.335937-3.785156-3.773438-7.996094-7.121094-12.558594-9.957032-8.078125-5.027343-17.265625-8.445312-27.101562-9.800781 3.164062-.449219 6.394531-.675781 9.679687-.675781 9.597656 0 18.75 1.9375 27.070313 5.449219 8.382812 3.527343 15.925781 8.652343 22.265625 14.984375 12.628906 12.621094 20.433594 30.070312 20.433594 49.335937zm0 0" fill="#e8b76b"/><path d="m242.523438 69.769531v32.207031c-4.816407 1.007813-9.863282 1.542969-15.046876 1.542969-34.167968 0-61.871093-23.175781-61.871093-51.757812 0-20.273438 13.933593-37.828125 34.21875-46.3125 8.382812 3.527343 15.925781 8.652343 22.265625 14.984375 12.628906 12.621094 20.433594 30.070312 20.433594 49.335937zm0 0" fill="#fff5f5"/><path d="m242.523438 69.769531v32.207031c-4.816407 1.007813-9.863282 1.542969-15.046876 1.542969-1.445312 0-2.882812-.046875-4.308593-.125v-33.625c0-19.265625-7.8125-36.714843-20.433594-49.335937-3.785156-3.773438-7.996094-7.121094-12.558594-9.957032 3.011719-1.917968 6.242188-3.601562 9.648438-5.027343 8.382812 3.53125 15.925781 8.652343 22.265625 14.984375 12.628906 12.621094 20.433594 30.070312 20.433594 49.335937zm0 0" fill="#efe2dd"/><path d="m117.113281 277.613281h-22.445312c-5.707031 0-10.332031-4.625-10.332031-10.332031v-98.097656c0-33.492188 27.148437-60.636719 60.636718-60.636719 18.101563 0 32.777344 14.671875 32.777344 32.773437v75.65625c-.003906 33.488282-27.148438 60.636719-60.636719 60.636719zm0 0" fill="#1475cc"/><path d="m177.746094 141.320312v75.648438c0 33.492188-27.148438 60.640625-60.640625 60.640625h-21.710938c33.488281 0 60.636719-27.148437 60.636719-60.640625v-75.648438c0-9.046874-3.667969-17.238281-9.597656-23.179687-3.84375-3.84375-8.636719-6.734375-14.007813-8.292969 4.050781-.859375 8.242188-1.304687 12.550781-1.304687 9.050782 0 17.242188 3.667969 23.171876 9.597656 5.929687 5.941406 9.597656 14.132813 9.597656 23.179687zm0 0" fill="#006ac3"/><path d="m227.78125 272.347656c-12.113281 9.054688-27.132812 14.433594-43.378906 14.433594h-39.765625c-8.53125 3.371094-17.8125 5.253906-27.527344 5.253906h-22.433594c-11.921875 0-21.894531-8.457031-24.230469-19.6875zm0 0" fill="#c86d3d"/><path d="m177.746094 181.34375v35.628906c0 33.488282-27.148438 60.636719-60.640625 60.636719h-22.433594c-5.714844 0-10.332031-4.617187-10.332031-10.332031v-35.628906c0 5.703124 4.617187 10.332031 10.332031 10.332031h22.433594c14.289062 0 27.417969-4.9375 37.777343-13.203125 13.9375-11.105469 22.863282-28.230469 22.863282-47.433594zm0 0" fill="#756f6f"/><g fill="#5b5555"><path d="m177.746094 181.34375v35.628906c0 33.488282-27.148438 60.636719-60.640625 60.636719h-21.710938c29.449219 0 53.996094-20.992187 59.488281-48.832031 13.9375-11.105469 22.863282-28.230469 22.863282-47.433594zm0 0"/><path d="m204.066406 44.269531c-4.269531 0-7.726562-3.460937-7.726562-7.726562s3.457031-7.777344 7.726562-7.777344c4.265625 0 7.722656 3.410156 7.722656 7.675781v.101563c.003907 4.265625-3.457031 7.726562-7.722656 7.726562zm0 0"/></g></svg>