<svg height="512pt" viewBox="-1 0 511 512" width="512pt" xmlns="http://www.w3.org/2000/svg"><path d="m10.757812 512h489.34375c5.667969 0 10.257813-4.59375 10.257813-10.257812v-114.898438c0-5.667969-4.589844-10.257812-10.257813-10.257812h-489.34375c-5.664062 0-10.257812 4.589843-10.257812 10.257812v114.898438c0 5.664062 4.59375 10.257812 10.257812 10.257812zm0 0" fill="#5592d7"/><path d="m484.628906 452.867188c0-18.414063-101.734375-33.34375-227.230468-33.34375-125.496094 0-227.234376 14.929687-227.234376 33.34375 0 18.414062 101.738282 33.339843 227.234376 33.339843 125.496093 0 227.230468-14.925781 227.230468-33.339843zm0 0" fill="#1475cc"/><path d="m495.058594 300.011719h-70.1875c-4.25 0-7.691406-3.445313-7.691406-7.695313s3.441406-7.695312 7.691406-7.695312h70.1875c4.25 0 7.691406 3.445312 7.691406 7.695312s-3.441406 7.695313-7.691406 7.695313zm0 0" fill="#d8cdca"/><path d="m195.585938 11.070312v39.496094h-51.527344c-3.40625 0-6.15625-2.75-6.15625-6.15625v-27.183594c0-3.398437 2.75-6.15625 6.15625-6.15625zm0 0" fill="#ea576b"/><path d="m173.53125 11.070312h22.054688v39.496094h-22.054688zm0 0" fill="#e43c53"/><path d="m203.28125 7.695312v347.578126c0 4.246093-3.445312 7.691406-7.695312 7.691406-4.253907 0-7.691407-3.445313-7.691407-7.691406v-347.578126c0-4.257812 3.4375-7.695312 7.691407-7.695312 4.25 0 7.695312 3.4375 7.695312 7.695312zm0 0" fill="#c86d3d"/><path d="m187.894531 88.554688h15.386719v219.792968h-15.386719zm0 0" fill="#ac5e33"/><path d="m76.910156 81.375c-3.957031 0-6.414062 4.285156-4.421875 7.707031 17.46875 30.03125 27.476563 64.941407 27.476563 102.1875 0 37.246094-10.007813 72.15625-27.476563 102.183594-1.992187 3.421875.464844 7.710937 4.421875 7.710937h177.8125c3.585938 0 6.925782-1.863281 8.777344-4.933593 18.484375-30.648438 29.121094-66.5625 29.121094-104.960938 0-38.402343-10.636719-74.3125-29.121094-104.960937-1.851562-3.070313-5.191406-4.933594-8.777344-4.933594zm0 0" fill="#756f6f"/><path d="m292.617188 191.273438c0 38.390624-10.632813 74.308593-29.117188 104.957031-1.851562 3.070312-5.191406 4.933593-8.777344 4.933593h-13.140625c20.375-31.699218 32.203125-69.421874 32.203125-109.890624 0-40.480469-11.828125-78.203126-32.203125-109.902344h13.140625c3.585938 0 6.925782 1.863281 8.777344 4.933594 18.484375 30.652343 29.117188 66.566406 29.117188 104.96875zm0 0" fill="#5b5555"/><path d="m126.949219 115.605469c-18.875 0-34.230469-15.355469-34.230469-34.230469 0-4.25 3.441406-7.695312 7.691406-7.695312s7.695313 3.445312 7.695313 7.695312c0 10.390625 8.453125 18.84375 18.84375 18.84375s18.847656-8.453125 18.847656-18.84375c0-4.25 3.441406-7.695312 7.691406-7.695312s7.695313 3.445312 7.695313 7.695312c0 18.875-15.355469 34.230469-34.234375 34.230469zm0 0" fill="#fbcc85"/><path d="m180.027344 115.605469c-18.875 0-34.230469-15.355469-34.230469-34.230469 0-4.25 3.441406-7.695312 7.691406-7.695312s7.695313 3.445312 7.695313 7.695312c0 10.390625 8.453125 18.84375 18.84375 18.84375 10.394531 0 18.847656-8.453125 18.847656-18.84375 0-4.25 3.441406-7.695312 7.691406-7.695312s7.695313 3.445312 7.695313 7.695312c0 18.875-15.355469 34.230469-34.234375 34.230469zm0 0" fill="#e8b76b"/><path d="m233.109375 115.605469c-18.878906 0-34.234375-15.355469-34.234375-34.230469 0-4.25 3.445312-7.695312 7.695312-7.695312 4.246094 0 7.691407 3.445312 7.691407 7.695312 0 10.390625 8.453125 18.84375 18.847656 18.84375 5.300781 0 10.207031-2.140625 13.816406-6.03125 2.890625-3.113281 7.761719-3.296875 10.875-.40625s3.296875 7.761719.40625 10.875c-6.460937 6.957031-15.609375 10.949219-25.097656 10.949219zm0 0" fill="#fbcc85"/><path d="m256.914062 178.761719-9.445312-9.445313c-3.648438-3.644531-9.554688-3.644531-13.199219 0l-14.347656 14.347656-14.347656-14.347656c-3.644531-3.644531-9.554688-3.644531-13.199219 0l-9.449219 9.445313c-3.644531 3.644531-3.644531 9.554687 0 13.199219l14.351563 14.347656-14.351563 14.347656c-3.644531 3.644531-3.644531 9.554688 0 13.199219l9.449219 9.445312c3.644531 3.644531 9.554688 3.644531 13.199219 0l14.347656-14.347656 14.347656 14.347656c3.644531 3.644531 9.550781 3.644531 13.199219 0l9.445312-9.445312c3.644532-3.644531 3.644532-9.554688 0-13.199219l-14.347656-14.347656 14.347656-14.347656c3.644532-3.644532 3.644532-9.554688 0-13.199219zm0 0" fill="#ea576b"/><path d="m319.566406 121.566406v209.050782c0 4.25-3.449218 7.695312-7.695312 7.695312s-7.691406-3.449219-7.691406-7.695312v-209.050782c0-4.257812 3.445312-7.695312 7.691406-7.695312s7.695312 3.4375 7.695312 7.695312zm0 0" fill="#c86d3d"/><path d="m304.175781 165.8125h15.390625v99.160156h-15.390625zm0 0" fill="#ac5e33"/><path d="m319.566406 121.566406v9.695313h-15.390625v-9.695313c0-4.257812 3.449219-7.695312 7.695313-7.695312s7.695312 3.4375 7.695312 7.695312zm0 0" fill="#ac5e33"/><path d="m203.28125 316.257812v39.015626c0 4.246093-3.445312 7.691406-7.695312 7.691406-4.253907 0-7.691407-3.445313-7.691407-7.691406v-39.015626zm0 0" fill="#ac5e33"/><path d="m319.566406 316.183594v14.4375c0 4.246094-3.449218 7.691406-7.695312 7.691406s-7.691406-3.445312-7.691406-7.691406v-14.363282h14.214843c.390625 0 .78125-.019531 1.171875-.074218zm0 0" fill="#ac5e33"/><path d="m461.289062 299.03125v9.132812c0 10.15625-7.273437 18.863282-17.265624 20.671876l-21.796876 3.949218v74.9375c0 27.484375-22.285156 49.757813-49.765624 49.757813h-254.0625c-27.480469 0-49.761719-22.273438-49.761719-49.757813v-70.9375l-28.695313-.8125c-11.253906-.316406-20.210937-9.527344-20.210937-20.78125v-51.878906c0-5.664062 4.597656-10.257812 10.261719-10.257812h98.523437c5.230469 0 9.621094 3.9375 10.199219 9.140624l2.933594 26.855469c2.582031 23.65625 22.558593 41.570313 46.347656 41.570313h130.398437c5.210938 0 10.136719-1.613282 14.230469-4.453125 4.082031-2.832031 7.335938-6.882813 9.160156-11.757813 4.976563-13.285156 17.6875-22.097656 31.882813-22.097656h80.902343c3.714844 0 6.71875 3.007812 6.71875 6.71875zm0 0" fill="#e19a77"/><path d="m445.386719 303.957031c-4.246094 0-7.691407-3.445312-7.691407-7.695312v-17.4375c0-4.25 3.445313-7.695313 7.691407-7.695313 4.25 0 7.695312 3.445313 7.695312 7.695313v17.4375c0 4.25-3.445312 7.695312-7.695312 7.695312zm0 0" fill="#5b5555"/><path d="m422.226562 332.785156v74.941406c0 27.476563-22.277343 49.753907-49.757812 49.753907h-21.890625c27.484375 0 49.753906-22.269531 49.753906-49.753907v-62.945312c0-5.113281 3.765625-9.449219 8.832031-10.160156zm0 0" fill="#d77f4f"/><path d="m422.214844 372.835938v34.878906c0 27.480468-22.273438 49.765625-49.757813 49.765625h-254.066406c-27.484375 0-49.753906-22.285157-49.753906-49.765625v-34.878906c0 27.480468 22.269531 49.765624 49.753906 49.765624h254.070313c10.144531 0 19.574218-3.039062 27.429687-8.25 13.449219-8.894531 22.324219-24.167968 22.324219-41.515624zm0 0" fill="#fbcc85"/><path d="m422.214844 372.835938v34.878906c0 27.480468-22.273438 49.765625-49.757813 49.765625h-21.878906c25.234375 0 46.082031-18.785157 49.3125-43.128907 13.449219-8.894531 22.324219-24.167968 22.324219-41.515624zm0 0" fill="#e8b76b"/><g fill="#fde5c2"><path d="m53.589844 291.238281c-4.25 0-7.695313-3.445312-7.695313-7.695312v-.117188c0-4.25 3.445313-7.695312 7.695313-7.695312s7.691406 3.445312 7.691406 7.695312v.117188c0 4.25-3.441406 7.695312-7.691406 7.695312zm0 0"/><path d="m79.578125 291.238281c-4.25 0-7.695313-3.445312-7.695313-7.695312v-.117188c0-4.25 3.445313-7.695312 7.695313-7.695312s7.695313 3.445312 7.695313 7.695312v.117188c0 4.25-3.445313 7.695312-7.695313 7.695312zm0 0"/><path d="m105.566406 291.238281c-4.25 0-7.691406-3.445312-7.691406-7.695312v-.117188c0-4.25 3.441406-7.695312 7.691406-7.695312s7.695313 3.445312 7.695313 7.695312v.117188c0 4.25-3.445313 7.695312-7.695313 7.695312zm0 0"/><path d="m123.304688 366.136719c-4.25 0-7.695313-3.445313-7.695313-7.695313v-.117187c0-4.25 3.445313-7.691407 7.695313-7.691407s7.695312 3.441407 7.695312 7.691407v.117187c0 4.25-3.445312 7.695313-7.695312 7.695313zm0 0"/><path d="m158.195312 366.136719c-4.25 0-7.691406-3.445313-7.691406-7.695313v-.117187c0-4.25 3.441406-7.691407 7.691406-7.691407s7.695313 3.441407 7.695313 7.691407v.117187c0 4.25-3.445313 7.695313-7.695313 7.695313zm0 0"/><path d="m193.089844 366.136719c-4.25 0-7.695313-3.445313-7.695313-7.695313v-.117187c0-4.25 3.445313-7.691407 7.695313-7.691407s7.691406 3.441407 7.691406 7.691407v.117187c0 4.25-3.441406 7.695313-7.691406 7.695313zm0 0"/><path d="m227.980469 366.136719c-4.246094 0-7.691407-3.445313-7.691407-7.695313v-.117187c0-4.25 3.445313-7.691407 7.691407-7.691407 4.25 0 7.695312 3.441407 7.695312 7.691407v.117187c0 4.25-3.445312 7.695313-7.695312 7.695313zm0 0"/><path d="m262.875 366.136719c-4.25 0-7.695312-3.445313-7.695312-7.695313v-.117187c0-4.25 3.445312-7.691407 7.695312-7.691407s7.691406 3.441407 7.691406 7.691407v.117187c0 4.25-3.441406 7.695313-7.691406 7.695313zm0 0"/><path d="m297.765625 366.136719c-4.246094 0-7.691406-3.445313-7.691406-7.695313v-.117187c0-4.25 3.445312-7.691407 7.691406-7.691407 4.25 0 7.695313 3.441407 7.695313 7.691407v.117187c0 4.25-3.445313 7.695313-7.695313 7.695313zm0 0"/><path d="m332.660156 366.136719c-4.25 0-7.695312-3.445313-7.695312-7.695313v-.117187c0-4.25 3.445312-7.691407 7.695312-7.691407s7.691406 3.441407 7.691406 7.691407v.117187c0 4.25-3.441406 7.695313-7.691406 7.695313zm0 0"/><path d="m367.550781 366.136719c-4.246093 0-7.691406-3.445313-7.691406-7.695313v-.117187c0-4.25 3.445313-7.691407 7.691406-7.691407 4.25 0 7.695313 3.441407 7.695313 7.691407v.117187c0 4.25-3.445313 7.695313-7.695313 7.695313zm0 0"/></g><path d="m163.359375 422.601562h-33.578125v-16.785156c0-9.273437 7.519531-16.789062 16.789062-16.789062 9.269532 0 16.789063 7.515625 16.789063 16.789062zm0 0" fill="#5b5555"/><path d="m224.914062 422.601562h-33.578124v-16.785156c0-9.273437 7.519531-16.789062 16.789062-16.789062 9.273438 0 16.789062 7.515625 16.789062 16.789062zm0 0" fill="#5b5555"/><path d="m286.46875 422.601562h-33.578125v-16.785156c0-9.273437 7.519531-16.789062 16.789063-16.789062 9.269531 0 16.789062 7.515625 16.789062 16.789062zm0 0" fill="#5b5555"/><path d="m348.023438 422.601562h-33.578126v-16.785156c0-9.273437 7.519532-16.789062 16.789063-16.789062s16.789063 7.515625 16.789063 16.789062zm0 0" fill="#5b5555"/><path d="m104.921875 344.480469c0 4.246093-3.449219 7.691406-7.695313 7.691406h-28.589843v-15.386719h28.589843c4.246094 0 7.695313 3.445313 7.695313 7.695313zm0 0" fill="#d77f4f"/><path d="m235.316406 157.542969c-3.835937 0-6.320312 4.054687-4.558594 7.464843 6.523438 12.613282 10.207032 26.933594 10.207032 42.113282 0 15.179687-3.683594 29.5-10.207032 42.113281-1.761718 3.40625.722657 7.464844 4.558594 7.464844h144.015625c2.1875 0 4.210938-1.160157 5.320313-3.042969 8.039062-13.644531 12.652344-29.550781 12.652344-46.535156s-4.613282-32.890625-12.652344-46.539063c-1.109375-1.882812-3.132813-3.039062-5.320313-3.039062zm0 0" fill="#fde5c2"/><path d="m397.308594 207.125c0 16.976562-4.617188 32.886719-12.660156 46.53125-1.105469 1.886719-3.125 3.039062-5.3125 3.039062h-19.058594c2.195312 0 4.214844-1.152343 5.324218-3.039062 8.042969-13.644531 12.648438-29.554688 12.648438-46.53125 0-16.992188-4.609375-32.890625-12.648438-46.546875-1.109374-1.875-3.128906-3.035156-5.324218-3.035156h19.058594c2.1875 0 4.207031 1.160156 5.3125 3.035156 8.042968 13.65625 12.660156 29.554687 12.660156 46.546875zm0 0" fill="#fcd79f"/><path d="m247.328125 59.800781c-3.703125 0-6.238281 3.828125-4.695313 7.191407 3.390626 7.386718 5.28125 15.605468 5.28125 24.265624 0 8.660157-1.890624 16.878907-5.28125 24.265626-1.542968 3.363281.992188 7.191406 4.695313 7.191406h124.007813c2.207031 0 4.269531-1.171875 5.347656-3.097656 4.6875-8.394532 7.355468-18.066407 7.355468-28.359376 0-10.296874-2.667968-19.96875-7.355468-28.359374-1.078125-1.929688-3.140625-3.097657-5.347656-3.097657zm0 0" fill="#fde5c2"/><path d="m384.042969 91.261719c0 10.289062-2.675781 19.960937-7.363281 28.351562-1.078126 1.929688-3.140626 3.101563-5.34375 3.101563h-19.050782c2.203125 0 4.265625-1.171875 5.34375-3.101563 4.6875-8.390625 7.355469-18.0625 7.355469-28.351562 0-10.300781-2.667969-19.976563-7.355469-28.367188-1.078125-1.929687-3.140625-3.097656-5.34375-3.097656h19.050782c2.203124 0 4.265624 1.171875 5.34375 3.097656 4.6875 8.390625 7.363281 18.066407 7.363281 28.367188zm0 0" fill="#fcd79f"/></svg>