<svg height="512pt" viewBox="0 -15 512 512" width="512pt" xmlns="http://www.w3.org/2000/svg"><path d="m371.097656 59.386719 24.292969-52.402344c1.128906-2.433594 3.703125-3.863281 6.367187-3.53125l37.234376 4.613281c4.210937.523438 6.65625 5.03125 4.796874 8.847656l-18.960937 38.855469 17.835937 2.214844c4.960938.613281 7.175782 6.554687 3.835938 10.265625l-57.089844 63.457031 7.691406-60.964843-21.15625-2.621094c-4.160156-.515625-6.613281-4.933594-4.847656-8.734375zm0 0" fill="#fac574"/><path d="m505.789062 321.726562c0 7.492188-1.390624 14.652344-3.894531 21.253907h-489.984375c-12.722656-22.898438-9.386718-52.320313 10.0625-71.761719.402344-.410156.824219-.792969 1.246094-1.195312-.007812-.019532-.019531-.03125-.03125-.050782-2.925781-4.480468-5.367188-9.1875-7.324219-14.042968-11.761719-29.277344-5.789062-64.003907 17.9375-87.730469 4.914063-4.914063 10.300781-9.066407 16.019531-12.445313 4.738282-2.820312 9.714844-5.117187 14.824219-6.878906-.011719-.238281-.03125-.484375-.03125-.722656-1.390625-28.15625 8.652344-56.78125 30.152344-78.28125 40.308594-40.3125 105.59375-40.414063 146.027344-.300782.101562.09375.207031.195313.308593.300782 3.5625 3.5625 6.800782 7.332031 9.734376 11.257812.011718.019532.03125.03125.042968.050782 23.640625-19.085938 58.367188-17.65625 80.332032 4.316406 15.722656 15.722656 20.914062 37.972656 15.597656 58.019531.949218-.019531 1.882812-.039063 2.832031-.039063 56.960937 0 103.164063 46.019532 103.460937 102.90625.011719.195313.011719.378907.011719.574219 0 5.027344-.371093 9.964844-1.0625 14.792969-.011719.042969-.011719.082031-.019531.125 30.214844 3.214844 53.757812 28.78125 53.757812 59.851562zm0 0" fill="#756f6f"/><g fill="#5b5555"><path d="m453.113281 246.957031c0 5.027344-.371093 9.960938-1.058593 14.792969-.277344 0-.558594-.007812-.835938-.039062-1.851562-.199219-3.75-.300782-5.632812-.300782-28.9375 0-52.476563 23.539063-52.476563 52.476563 0 4.265625-3.453125 7.726562-7.726563 7.726562-4.265624 0-7.726562-3.460937-7.726562-7.726562 0-37.457031 30.472656-67.929688 67.929688-67.929688 2.421874 0 4.875.132813 7.261718.382813.082032.007812.175782.019531.257813.039062.007812.199219.007812.382813.007812.578125zm0 0"/><path d="m54.804688 256.660156c-11.753907.761719-22.878907 5.460938-31.613282 13.3125-2.925781-4.480468-5.367187-9.191406-7.328125-14.042968 10.808594-8.621094 24.027344-13.785157 37.933594-14.6875 4.265625-.269532 7.941406 2.945312 8.210937 7.210937.277344 4.253906-2.949218 7.929687-7.203124 8.207031zm0 0"/><path d="m250.839844 81.128906c-.277344.320313-.597656.628906-.949219.90625-1.453125 1.175782-2.863281 2.441406-4.183594 3.769532-20.46875 20.460937-20.46875 53.757812-.007812 74.214843 3.015625 3.019531 3.015625 7.914063 0 10.929688-1.503907 1.503906-3.484375 2.257812-5.460938 2.257812-1.976562 0-3.957031-.753906-5.460937-2.257812-26.484375-26.484375-26.484375-69.578125 0-96.0625 1.710937-1.71875 3.535156-3.359375 5.410156-4.875.195312-.152344.402344-.308594.605469-.441407.105469.09375.207031.195313.308593.300782 3.566407 3.5625 6.800782 7.332031 9.738282 11.257812zm0 0"/><path d="m60.6875 172.847656c-.523438.113282-1.058594.164063-1.585938.164063-3.574218 0-6.789062-2.503907-7.550781-6.148438-.761719-3.660156-1.351562-7.378906-1.730469-11.105469 4.738282-2.824218 9.714844-5.121093 14.824219-6.882812-.011719-.238281-.03125-.484375-.03125-.722656.101563.425781.164063.867187.195313 1.320312.269531 4.769532.894531 9.558594 1.867187 14.238282.875 4.167968-1.804687 8.257812-5.988281 9.136718zm0 0"/></g><path d="m480.578125 199.421875s-35.570313-11.589844-58.992187 12.75c-23.421876 24.335937-15.796876 85.707031 29.496093 94.511719 0 0-10.335937 43.832031 44.605469 49.328125h-275.402344v-220.460938s223.894532-57.003906 260.292969 63.871094zm0 0" fill="#0057a1"/><path d="m323.695312 292.871094c-2.96875 0-5.796874-1.71875-7.074218-4.609375-22.09375-50.101563 9.273437-93.9375 12.921875-98.769531 2.203125-2.921876 4.941406-6.550782 9.84375-5.875 4.226562.589843 7.175781 4.488281 6.589843 8.714843-.296874 2.136719-1.441406 3.949219-3.046874 5.140625-1.890626 2.183594-9.375 12.496094-14.292969 27.808594-6.40625 19.929688-5.691407 39.019531 2.125 56.742188 1.722656 3.90625-.046875 8.46875-3.949219 10.1875-1.015625.449218-2.074219.660156-3.117188.660156zm0 0" fill="#004480"/><path d="m495.691406 356.011719h-44.265625c-23.355469-13.671875-19.265625-38.023438-19.265625-38.023438-45.296875-8.800781-51.382812-78.871093-32.203125-106.675781 20.71875-30.03125 53.527344-35.65625 69.179688-36.5625 4.800781 7.253906 8.664062 15.441406 11.441406 24.671875 0 0-35.570313-11.589844-58.984375 12.746094-23.429688 24.339843-15.804688 85.710937 29.492188 94.515625 0 0-10.34375 43.835937 44.605468 49.328125zm0 0" fill="#004480"/><path d="m488.070312 206.109375c-4.625 4.089844-11.871093 3.058594-15.28125-2.101563-9.136718-13.859374-33.3125-40.269531-83.761718-37.839843-19.480469.9375-42.875 6.171875-70.835938 18.097656l-14.378906-61.003906c9.125-5.542969 22.746094-12.15625 39.824219-15.589844 23.53125-4.738281 53.621093-3.417969 87.503906 15.125 0 0 32.824219-23.796875 59.597656 10.835937 21.859375 28.28125 12.390625 59.1875-2.667969 72.476563zm0 0" fill="#1475cc"/><path d="m389.027344 166.167969c-19.480469.9375-42.875 6.171875-70.835938 18.101562l-14.378906-61.007812c9.125-5.542969 22.746094-12.15625 39.824219-15.585938 8.097656 5.015625 15.464843 11.238281 22.066406 18.644531 11.179687 12.558594 18.523437 26.886719 23.324219 39.847657zm0 0" fill="#006ac3"/><path d="m488.070312 206.109375c-4.625 4.089844-11.871093 3.058594-15.28125-2.101563-.636718-.960937-1.335937-1.980468-2.121093-3.050781 11.949219-15.089843 17.203125-42.238281-2.183594-67.320312-7.570313-9.796875-15.636719-14.917969-23.292969-17.226563 12.023438-3.308594 29.824219-3.109375 45.546875 17.226563 21.859375 28.277343 12.390625 59.183593-2.667969 72.472656zm0 0" fill="#006ac3"/><path d="m10.300781 481.542969h491.398438c5.6875 0 10.300781-4.609375 10.300781-10.300781v-124.652344c0-5.6875-4.613281-10.300782-10.300781-10.300782h-491.398438c-5.6875 0-10.300781 4.613282-10.300781 10.300782v124.652344c0 5.691406 4.613281 10.300781 10.300781 10.300781zm0 0" fill="#5592d7"/><path d="m9.273438 372.492188h419.65625c-53.511719-10.164063-68.164063-50.109376-68.164063-50.109376-98.640625 49.320313-128.851563-81.015624-75.980469-118.421874 30.550782-21.617188 62.289063-13.085938 81.421875-3.949219 7.796875 3.722656 16.4375-3.226563 14.464844-11.640625-7.1875-30.648438-29.265625-81.921875-96.554687-81.921875-95.972657 0-114.035157 80.726562-114.035157 80.726562-51.148437 18.363281-76.851562 44.167969-79.425781 100.113281-2.996094 65.054688-81.382812 85.203126-81.382812 85.203126zm0 0" fill="#5592d7"/><path d="m366.210938 200.007812c-2.535157-1.203124-5.285157-2.410156-8.234376-3.519531-.019531-.640625-.113281-1.289062-.265624-1.949219-7.179688-30.648437-29.257813-81.917968-96.550782-81.917968-9.117187 0-17.53125.730468-25.289062 2.046875 13.339844-5.066407 29.265625-8.21875 48.242187-8.21875 67.289063 0 89.367188 51.269531 96.558594 81.917969 1.96875 8.417968-6.664063 15.371093-14.460937 11.640624zm0 0" fill="#1475cc"/><path d="m428.941406 380.21875c-.480468 0-.964844-.042969-1.453125-.136719-43.175781-8.199219-62.957031-34.390625-70.335937-47.488281-21.816406 9.441406-41.710938 11.082031-59.226563 4.875-16.546875-5.867188-30.148437-19.007812-38.304687-36.996094-1.761719-3.886718-.035156-8.464844 3.847656-10.226562 3.886719-1.761719 8.464844-.039063 10.226562 3.847656 4.53125 9.996094 13.308594 23.105469 29.394532 28.808594 15.277344 5.417968 33.519531 2.917968 54.21875-7.429688 1.96875-.984375 4.261718-1.085937 6.304687-.273437 2.046875.8125 3.648438 2.457031 4.40625 4.519531.542969 1.4375 14.117188 36.019531 62.351563 45.183594 4.191406.796875 6.945312 4.839844 6.148437 9.03125-.703125 3.707031-3.941406 6.285156-7.578125 6.285156zm0 0" fill="#b4cceb"/><path d="m34.238281 370.414062c-2.832031 0-5.5625-1.5625-6.917969-4.269531-1.90625-3.816406-.359374-8.460937 3.453126-10.367187 22.878906-11.445313 50.5-32.679688 52.164062-68.84375 1.359375-29.5 8.757812-51.34375 23.285156-68.746094 12.664063-15.167969 30.992188-26.949219 57.484375-36.902344 1.9375-6.222656 6.542969-18.570312 15.78125-31.875 2.433594-3.503906 7.246094-4.375 10.75-1.9375 3.507813 2.433594 4.375 7.246094 1.941407 10.753906-11.113282 16-14.53125 30.515626-14.5625 30.660157-.589844 2.566406-2.449219 4.671875-4.925782 5.5625-51.90625 18.632812-72.046875 43.890625-74.320312 93.195312-.917969 19.945313-8.367188 37.902344-22.148438 53.371094-9.917968 11.136719-22.882812 20.75-38.535156 28.582031-1.109375.554688-2.289062.816406-3.449219.816406zm0 0" fill="#1475cc"/><path d="m377.425781 305.457031c-1.492187-.277343-2.917969-1-4.066406-2.160156-32.371094-32.75-13.648437-77.492187-12.835937-79.378906 1.6875-3.921875 6.234374-5.734375 10.152343-4.042969 3.914063 1.683594 5.722657 6.214844 4.050781 10.132812-.640624 1.503907-15.351562 37.160157 9.621094 62.425782 3 3.035156 2.972656 7.925781-.0625 10.925781-1.875 1.851563-4.453125 2.550781-6.859375 2.097656zm0 0" fill="#1475cc"/><path d="m410.652344 406.316406h-26.667969c-21.742187 0-42.484375-9.332031-56.75-25.742187-.203125-.234375-.398437-.460938-.59375-.6875-3.3125-3.851563-8.683594-5.230469-13.441406-3.457031-61.121094 22.765624-99.683594-10.5-116.613281-31.152344-4.949219-6.035156-14.171876-5.902344-19.007813.226562-19.3125 24.453125-55.507813 43.238282-83.175781 54.902344-9.269532 3.910156-19.21875 5.910156-29.273438 5.910156h-38.480468c-4.234376 0-7.921876 3.261719-8.046876 7.492188-.132812 4.375 3.375 7.960937 7.722657 7.960937h384.65625c4.34375 0 7.855469-3.585937 7.722656-7.960937-.128906-4.230469-3.816406-7.492188-8.050781-7.492188zm0 0" fill="#b4cceb"/><path d="m475.257812 455.9375h-65.125c-4.265624 0-7.726562-3.460938-7.726562-7.726562 0-4.265626 3.460938-7.726563 7.726562-7.726563h65.125c4.269532 0 7.726563 3.460937 7.726563 7.726563 0 4.265624-3.457031 7.726562-7.726563 7.726562zm0 0" fill="#1475cc"/><path d="m313.175781 455.9375h-24.96875c-4.269531 0-7.726562-3.460938-7.726562-7.726562 0-4.265626 3.457031-7.726563 7.726562-7.726563h24.96875c4.265625 0 7.726563 3.460937 7.726563 7.726563 0 4.265624-3.460938 7.726562-7.726563 7.726562zm0 0" fill="#b4cceb"/><path d="m110.582031 111.90625c4.03125-1.460938 8.078125-2.882812 12.148438-4.234375l-5.089844-40.332031 21.160156-2.625c4.15625-.515625 6.609375-4.929688 4.84375-8.734375l-24.292969-52.398438c-1.128906-2.4375-3.703124-3.867187-6.367187-3.535156l-37.234375 4.617187c-4.210938.519532-6.65625 5.03125-4.796875 8.84375l18.960937 38.859376-17.835937 2.210937c-4.960937.617187-7.175781 6.554687-3.835937 10.269531zm0 0" fill="#fac574"/><path d="m149.597656 111c-8.695312-8.652344-21.742187-12.367188-34.296875-8.539062-12.550781 3.828124-21.304687 14.191406-23.6875 26.226562zm0 0" fill="#756f6f"/><path d="m91.621094 136.414062c-.5 0-1.003906-.046874-1.511719-.148437-4.183594-.832031-6.90625-4.894531-6.078125-9.082031 3.027344-15.273438 14.144531-27.578125 29.019531-32.113282 14.871094-4.535156 30.960938-.527343 41.996094 10.457032 3.023437 3.011718 3.035156 7.902344.023437 10.925781-3.011718 3.023437-7.902343 3.035156-10.925781.023437-6.988281-6.957031-17.175781-9.496093-26.589843-6.625-9.410157 2.871094-16.449219 10.664063-18.363282 20.335938-.726562 3.679688-3.957031 6.226562-7.570312 6.226562zm0 0" fill="#5b5555"/></svg>