<svg height="512pt" viewBox="0 -21 512 511" width="512pt" xmlns="http://www.w3.org/2000/svg"><path d="m311.296875 58.167969c0 15.269531-12.378906 27.648437-27.648437 27.648437-15.269532 0-27.648438-12.378906-27.648438-27.648437s12.378906-27.644531 27.648438-27.644531c15.269531 0 27.648437 12.375 27.648437 27.644531zm0 0" fill="#b9acac"/><path d="m304.269531 76.582031c-8.328125 9.332031-21.558593 11.691407-32.332031 6.632813 3.304688-1.523438 6.347656-3.75 8.917969-6.632813 10.175781-11.386719 9.1875-28.859375-2.199219-39.035156-2.0625-1.84375-4.328125-3.316406-6.710938-4.425781 9.722657-4.546875 21.613282-3.167969 30.113282 4.425781 11.398437 10.171875 12.386718 27.648437 2.210937 39.035156zm0 0" fill="#9e9797"/><path d="m381.355469 24.375c0 13.1875-10.691407 23.878906-23.878907 23.878906-13.183593 0-23.875-10.691406-23.875-23.878906 0-13.183594 10.691407-23.875 23.875-23.875 13.1875 0 23.878907 10.691406 23.878907 23.875zm0 0" fill="#b9acac"/><path d="m375.289062 40.277344c-7.195312 8.058594-18.621093 10.09375-27.925781 5.726562 2.855469-1.316406 5.484375-3.238281 7.703125-5.726562 8.789063-9.832032 7.933594-24.921875-1.898437-33.710938-1.785157-1.589844-3.738281-2.863281-5.796875-3.820312 8.398437-3.925782 18.664062-2.7382815 26.007812 3.820312 9.839844 8.789063 10.695313 23.875 1.910156 33.710938zm0 0" fill="#9e9797"/><path d="m10.300781 469.027344h491.398438c5.6875 0 10.300781-4.613282 10.300781-10.304688v-115.378906c0-5.691406-4.613281-10.300781-10.300781-10.300781h-491.398438c-5.6875 0-10.300781 4.613281-10.300781 10.300781v115.378906c0 5.691406 4.613281 10.304688 10.300781 10.304688zm0 0" fill="#5592d7"/><path d="m486.160156 409.644531c0-18.492187-102.160156-33.480469-228.183594-33.480469-126.023437 0-228.1875 14.988282-228.1875 33.480469 0 18.488281 102.164063 33.480469 228.1875 33.480469 126.023438 0 228.183594-14.992188 228.183594-33.480469zm0 0" fill="#1475cc"/><path d="m438.636719 398.941406c0-7.1875-69.8125-13.015625-155.925781-13.015625-86.117188 0-155.929688 5.828125-155.929688 13.015625s69.8125 13.011719 155.929688 13.011719c86.113281 0 155.925781-5.824219 155.925781-13.011719zm0 0" fill="#0057a1"/><path d="m432.996094 393.214844c-2.042969 3.933594-4.648438 7.644531-7.808594 11.023437-24.28125 4.542969-78.933594 7.714844-142.476562 7.714844-15.585938 0-30.625-.195313-44.820313-.546875l9.003906-9.003906 48.632813-48.625c4.800781-4.808594 7.34375-11.226563 7.34375-17.75 0-3.5-.730469-7.035156-2.242188-10.363282-5.90625-12.980468-3.132812-28.246093 6.941406-38.332031l32.429688-32.421875 25.023438-25.023437c2.636718-2.636719 6.902343-2.636719 9.539062 0l6.480469 6.480469c7.210937 7.210937 8.230469 18.554687 2.421875 26.941406l-12.671875 18.285156 53.207031 53.207031c15.816406 15.816407 18.8125 39.582031 8.996094 58.414063zm0 0" fill="#e19a77"/><path d="m416.925781 327.726562c-5.976562 2.648438-12.496093 4.050782-19.089843 4.050782-1.875 0-3.75-.113282-5.605469-.332032-5.683594 4.398438-12.609375 6.769532-19.890625 6.769532-9.140625 0-17.914063-3.882813-24.074219-10.652344-11.28125-12.382812-11.191406-31.707031.195313-44 .730468-.804688 1.503906-1.566406 2.316406-2.277344.585937-8.734375 3.59375-17.070312 8.746094-24.199218-1.441407.125-2.882813.1875-4.335938.1875-5.234375 0-10.332031-.804688-15.183594-2.359376l25.019532-25.023437c2.636718-2.636719 6.902343-2.636719 9.539062 0l6.480469 6.480469c7.210937 7.210937 8.230469 18.554687 2.421875 26.9375l-12.671875 18.289062zm0 0" fill="#d77f4f"/><path d="m432.996094 393.214844c-2.050782 3.925781-4.648438 7.644531-7.808594 11.023437-11.890625 2.222657-31.050781 4.121094-54.972656 5.480469l29.011718-29.011719c7.210938-7.210937 11.742188-16.058593 13.628907-25.339843 1.730469-8.480469 1.234375-17.316407-1.484375-25.589844-2.359375-7.210938-6.40625-14-12.144532-19.738282l24.765626 24.765626c15.8125 15.8125 18.8125 39.578124 9.003906 58.410156zm0 0" fill="#fbcc85"/><path d="m416.914062 327.726562c-1.804687.804688-3.65625 1.484376-5.542968 2.050782-2.359375-7.210938-6.40625-14-12.144532-19.738282zm0 0" fill="#e8b76b"/><path d="m300.636719 395.910156c-1.960938 0-3.925781-.742187-5.429688-2.230468l-.085937-.082032c-3.035156-3-3.0625-7.890625-.066406-10.925781 3-3.035156 7.890624-3.066406 10.929687-.066406l.082031.085937c3.035156 2.996094 3.066406 7.890625.066406 10.925782-1.511718 1.527343-3.503906 2.292968-5.496093 2.292968zm0 0" fill="#fde5c2"/><path d="m325.410156 371.136719c-1.992187 0-3.984375-.769531-5.496094-2.296875l-.082031-.085938c-2.996093-3.035156-2.96875-7.925781.066407-10.925781 3.035156-3 7.925781-2.96875 10.925781.0625l.082031.085937c3 3.035157 2.972656 7.929688-.0625 10.929688-1.507812 1.488281-3.46875 2.230469-5.433594 2.230469zm0 0" fill="#fde5c2"/><path d="m200.421875 409.996094c-5.460937-.277344-10.691406-.597656-15.667969-.925782l-1.742187-9.324218-4.304688-23.023438-40.589843-216.945312-8.890626-47.523438c-.277343-1.453125-.125-2.957031.433594-4.328125l17.988282-44.347656c1.605468-3.945313 6.109374-5.851563 10.0625-4.253906 3.957031 1.605469 5.863281 6.109375 4.257812 10.0625l-17.132812 42.25 8.476562 45.328125 40.578125 216.945312 5.019531 26.804688 1.398438 7.5c.113281.597656.15625 1.195312.113281 1.78125zm0 0" fill="#c86d3d"/><path d="m193.890625 373.910156-15.1875 2.8125-40.585937-216.945312 15.195312-2.8125zm0 0" fill="#ac5e33"/><path d="m246.851562 347.449219-118.445312 21.929687c-2.8125.519532-5.613281-.957031-6.773438-3.570312l-.394531-.882813c-2.203125-4.96875-9.292969-4.875-11.363281.152344l-2.164062 5.261719c-.800782 1.9375-2.527344 3.339844-4.59375 3.722656l-37.476563 6.9375c-3.902344.722656-7.117187-3.058594-5.777344-6.796875 11.765625-32.855469 15.265625-69.148437 8.457031-105.925781-6.808593-36.777344-23.074218-69.421875-45.820312-95.878906-2.585938-3.015626-.949219-7.695313 2.964844-8.414063l181.210937-33.554687c10.539063 11.207031 19.851563 23.652343 27.703125 37.167968 1.246094 2.144532.8125 4.863282-1.054687 6.492188-5.148438 4.511718-10.558594 9.28125-14.792969 13.03125-3.203125 2.84375-1.738281 8.128906 2.472656 8.921875l26.125 4.902343c1.8125.339844 3.328125 1.617188 3.925782 3.367188 2.015624 5.917969 3.769531 11.96875 5.246093 18.140625.605469 2.515625-.390625 5.144531-2.53125 6.597656l-4.140625 2.8125c-4.285156 2.90625-3.308594 9.480469 1.636719 11.015625l5.371094 1.667969c2.386719.742187 4.074219 2.84375 4.324219 5.328125 3.453124 34.148438-1.800782 67.480469-14.109376 97.574219zm0 0" fill="#756f6f"/><path d="m127.816406 387.503906-.308594.105469c.144532.179687.242188.121094.308594-.105469zm0 0" fill="#5b5555"/><path d="m260.964844 249.878906c-.257813-2.480468-1.945313-4.59375-4.328125-5.324218l-5.375-1.667969c-4.945313-1.535157-5.925781-8.121094-1.628907-11.023438l4.128907-2.8125c2.144531-1.453125 3.144531-4.078125 2.535156-6.59375-1.472656-6.171875-3.222656-12.226562-5.242187-18.140625-.601563-1.75-2.113282-3.03125-3.925782-3.367187l-26.125-4.90625c-4.214844-.792969-5.675781-6.078125-2.472656-8.921875 4.234375-3.75 9.640625-8.519532 14.792969-13.03125 1.863281-1.628906 2.296875-4.347656 1.050781-6.488282-7.851562-13.515624-17.164062-25.960937-27.703125-37.171874l-15.265625 2.824218c9.464844 10.46875 17.894531 21.953125 25.09375 34.347656 1.246094 2.140626.816406 4.859376-1.050781 6.488282-5.148438 4.511718-10.558594 9.28125-14.792969 13.03125-3.203125 2.84375-1.742188 8.128906 2.472656 8.921875l26.125 4.90625c1.8125.339843 3.328125 1.617187 3.925782 3.367187 2.019531 5.914063 3.769531 11.96875 5.253906 18.140625.597656 2.515625-.390625 5.140625-2.535156 6.59375l-4.140626 2.8125c-4.285156 2.902344-3.316406 9.488281 1.636719 11.023438l5.367188 1.667969c2.390625.730468 4.070312 2.84375 4.328125 5.324218 3.351562 33.164063-3.761719 71.386719-15.457032 101.128906l19.21875-3.558593c12.308594-30.09375 17.5625-63.429688 14.113282-97.570313zm0 0" fill="#5b5555"/><path d="m209.355469 229.390625-11.054688-7.601563c-4.265625-2.929687-10.097656-1.851562-13.03125 2.414063l-11.542969 16.789063-16.789062-11.542969c-4.265625-2.933594-10.101562-1.851563-13.035156 2.414062l-7.597656 11.054688c-2.933594 4.261719-1.851563 10.097656 2.414062 13.03125l16.789062 11.542969-11.542968 16.789062c-2.933594 4.265625-1.855469 10.101562 2.410156 13.035156l11.054688 7.597656c4.265624 2.933594 10.101562 1.851563 13.03125-2.414062l11.546874-16.789062 16.789063 11.542968c4.265625 2.933594 10.097656 1.855469 13.03125-2.410156l7.601563-11.054688c2.929687-4.265624 1.851562-10.101562-2.414063-13.03125l-16.789063-11.546874 11.542969-16.789063c2.929688-4.265625 1.851563-10.097656-2.414062-13.03125zm0 0" fill="#ea576b"/><path d="m74.796875 189.21875c-6.886719 0-13.605469-2.074219-19.402344-6.058594-7.566406-5.203125-12.652343-13.039062-14.324219-22.070312-.777343-4.195313 1.992188-8.226563 6.191407-9.003906 4.195312-.777344 8.222656 1.996093 9.003906 6.191406.917969 4.96875 3.71875 9.285156 7.882813 12.148437 4.167968 2.863281 9.199218 3.933594 14.167968 3.015625 10.261719-1.902344 17.0625-11.792968 15.164063-22.054687-.777344-4.195313 1.992187-8.226563 6.191406-9.003907 4.195313-.777343 8.226563 1.996094 9.003906 6.191407 3.449219 18.636719-8.90625 36.609375-27.542969 40.058593-2.113281.390626-4.234374.585938-6.335937.585938zm0 0" fill="#fbcc85"/><path d="m127.210938 179.511719c-6.890626.003906-13.609376-2.070313-19.40625-6.054688-7.566407-5.203125-12.652344-13.042969-14.324219-22.070312-.777344-4.195313 1.992187-8.226563 6.191406-9.003907 4.195313-.777343 8.226563 1.996094 9.003906 6.191407.921875 4.96875 3.71875 9.285156 7.886719 12.148437 4.164062 2.863282 9.195312 3.933594 14.164062 3.011719 10.261719-1.898437 17.0625-11.792969 15.164063-22.050781-.777344-4.195313 1.996094-8.226563 6.191406-9.003906 4.195313-.777344 8.226563 1.992187 9.003907 6.191406 3.449218 18.636718-8.90625 36.609375-27.542969 40.058594-2.113281.390624-4.234375.582031-6.332031.582031zm0 0" fill="#e8b76b"/><path d="m179.617188 169.808594c-6.882813 0-13.605469-2.070313-19.402344-6.058594-7.566406-5.203125-12.652344-13.039062-14.324219-22.070312-.777344-4.191407 1.992187-8.222657 6.1875-9.003907 4.199219-.777343 8.230469 1.996094 9.007813 6.191407.917968 4.972656 3.71875 9.285156 7.886718 12.148437 4.164063 2.867187 9.191406 3.933594 14.164063 3.015625 4.972656-.921875 9.285156-3.722656 12.148437-7.886719 2.867188-4.164062 3.9375-9.195312 3.015625-14.167969-.777343-4.195312 1.996094-8.226562 6.191407-9.003906 4.195312-.777344 8.226562 1.996094 9.003906 6.191406 1.671875 9.03125-.273438 18.167969-5.476563 25.734376-5.203125 7.566406-13.039062 12.65625-22.066406 14.328124-2.113281.390626-4.230469.582032-6.335937.582032zm0 0" fill="#fbcc85"/><path d="m474.757812 255.902344c-2.101562 2.089844-4.324218 3.984375-6.632812 5.707031.019531.019531.039062.050781.050781.070313 11.085938 13.847656 10.179688 34.101562-2.675781 46.90625-13.0625 13.019531-33.789062 13.636718-47.605469 1.90625-8.796875 6.839843-20.273437 8.558593-30.433593 5.179687-.667969 1-1.441407 1.957031-2.328126 2.84375-7.292968 7.25-19.210937 7.027344-26.207031-.660156-6.261719-6.882813-6.210937-17.667969.113281-24.496094 1.832032-1.988281 4.019532-3.460937 6.347657-4.429687-1.300781-9.777344 1.820312-20.027344 9.351562-27.527344 1.050781-1.050782 2.144531-2.011719 3.296875-2.875 2.535156-1.9375 3.96875-4.84375 4.089844-7.828125.09375-1.980469-.402344-3.988281-1.511719-5.78125-.03125-.058594-.074219-.121094-.113281-.183594-2.390625-3.871094-6.933594-5.6875-11.261719-4.667969-.453125.113282-.90625.25-1.347656.425782-12.621094 4.871093-27.476563 2.203124-37.644531-8.007813-12.339844-12.390625-13.535156-31.6875-3.613282-45.417969-.023437 0-.042968-.011718-.0625-.011718-5.019531-.824219-9.890624-2.730469-14.238281-5.738282-1.710937-1.175781-3.347656-2.523437-4.871093-4.050781-13.785157-13.71875-13.785157-36.179687 0-49.898437 13.78125-13.722657 36.074218-13.683594 49.796874.101562.238282.238281.464844.484375.691407.730469.03125-.019531.050781-.03125.082031-.050781 4.605469-2.988282 9.621094-5.101563 14.804688-6.316407 15.53125-3.699219 32.5625.535157 44.65625 12.683594 1.132812 1.144531 2.203124 2.328125 3.203124 3.554687 3.605469 4.429688 6.292969 9.351563 8.066407 14.511719.503906-.03125 1.011719-.050781 1.515625-.058593 16.109375-.476563 32.378906 5.449218 44.65625 17.777343 22.160156 22.242188 23.425781 57.402344 3.875 81.140625-1.257813 1.535156-2.609375 3.027344-4.050782 4.460938zm0 0" fill="#b9acac"/><g fill="#9e9797"><path d="m468.125 261.605469c11.136719 13.855469 10.25 34.160156-2.628906 46.984375-11.609375 11.570312-29.285156 13.34375-42.769532 5.335937 8.230469-.492187 16.328126-3.890625 22.640626-10.175781 12.878906-12.828125 13.765624-33.132812 2.628906-46.976562 2.308594-1.722657 4.523437-3.617188 6.621094-5.71875 23.695312-23.582032 23.769531-61.902344.1875-85.585938-5.585938-5.613281-11.992188-9.890625-18.84375-12.859375 14.207031.917969 28.136718 6.8125 38.972656 17.6875 23.589844 23.695313 23.507812 62.019531-.175782 85.601563-2.101562 2.089843-4.324218 3.984374-6.632812 5.707031zm0 0"/><path d="m373.769531 152.59375c-.164062.011719-.328125.023438-.492187.023438-4.050782 0-7.449219-3.152344-7.707032-7.242188-.402343-6.449219-3.082031-12.546875-7.542968-17.226562 4.605468-2.988282 9.625-5.097657 14.804687-6.3125 4.800781 6.5625 7.644531 14.371093 8.160157 22.558593.269531 4.265625-2.96875 7.933594-7.222657 8.199219zm0 0"/><path d="m397.867188 232.484375c-2.144532 4.6875-5.089844 8.914063-8.757813 12.570313-2.152344 2.140624-4.480469 4.027343-6.984375 5.644531.09375-1.980469-.402344-3.988281-1.515625-5.78125-.03125-.058594-.070313-.121094-.113281-.183594-2.390625-3.871094-6.933594-5.6875-11.257813-4.667969 3.355469-1.367187 6.367188-3.367187 8.960938-5.953125 2.359375-2.347656 4.246093-5.058593 5.617187-8.046875 1.769532-3.882812 6.355469-5.59375 10.238282-3.8125 3.882812 1.773438 5.582031 6.359375 3.8125 10.230469zm0 0"/><path d="m336.324219 178.359375c-2.390625 1.269531-4.585938 2.894531-6.523438 4.820313-1.203125 1.195312-2.296875 2.496093-3.234375 3.875-5.015625-.824219-9.890625-2.730469-14.238281-5.738282.21875-.8125.558594-1.617187 1.054687-2.359375 1.59375-2.410156 3.449219-4.675781 5.507813-6.726562 3.019531-3.007813 6.449219-5.53125 10.1875-7.519531 3.761719-2 8.449219-.566407 10.449219 3.203124 2 3.769532.566406 8.449219-3.203125 10.445313zm0 0"/><path d="m474.757812 255.902344c-2.101562 2.089844-4.324218 3.984375-6.632812 5.707031.019531.019531.039062.050781.050781.070313-.855469-.472657-1.636719-1.121094-2.285156-1.9375-.617187-.761719-1.289063-1.503907-1.980469-2.203126-5.179687-5.203124-12.082031-8.078124-19.417968-8.085937h-.0625c-7.324219 0-14.203126 2.839844-19.398438 8.003906-3.015625 3.015625-7.910156 3.007813-10.917969-.023437-3.007812-3.015625-3-7.910156.019531-10.929688 16.78125-16.699218 44.019532-16.644531 60.730469.136719 1.082031 1.082031 2.113281 2.234375 3.058594 3.417969.351563.433594.648437.898437.886719 1.382812-1.257813 1.535156-2.609375 3.027344-4.050782 4.460938zm0 0"/><path d="m430.277344 152.523438c-.363282.070312-.722656.125-1.101563.144531-2.628906.132812-5.265625.484375-7.851562 1.007812-.523438.113281-1.050781.167969-1.566407.167969-3.59375 0-6.808593-2.515625-7.5625-6.171875-.851562-4.171875 1.835938-8.261719 6.007813-9.128906.824219-.171875 1.660156-.328125 2.492187-.472657 3.605469 4.429688 6.292969 9.355469 8.066407 14.515626.503906-.03125 1.007812-.050782 1.515625-.0625zm0 0"/><path d="m438.3125 224.132812c-.746094 0-1.503906-.109374-2.257812-.339843-4.078126-1.242188-6.378907-5.5625-5.136719-9.644531 1.339843-4.382813.164062-9.117188-3.058594-12.355469-3.226563-3.242188-7.957031-4.433594-12.347656-3.117188-4.089844 1.226563-8.394531-1.089843-9.621094-5.175781-1.226563-4.089844 1.089844-8.394531 5.175781-9.625 9.859375-2.957031 20.488282-.273438 27.742188 7.011719 7.253906 7.285156 9.890625 17.925781 6.890625 27.769531-1.015625 3.332031-4.078125 5.476562-7.386719 5.476562zm0 0"/></g><path d="m432.996094 393.214844c-2.042969 3.933594-4.648438 7.644531-7.808594 11.023437-24.28125 4.542969-78.933594 7.714844-142.476562 7.714844-15.585938 0-30.625-.195313-44.820313-.546875l9.003906-9.003906c11.496094.226562 23.488281.351562 35.816407.351562 71.683593 0 132.0625-4.039062 150.285156-9.539062zm0 0" fill="#d77f4f"/><path d="m200.308594 408.214844c.113281.597656.15625 1.195312.113281 1.78125-5.460937-.277344-10.695313-.597656-15.667969-.925782l-1.742187-9.324218c5.039062.351562 10.34375.679687 15.894531.96875zm0 0" fill="#ac5e33"/><path d="m432.996094 393.214844c-2.050782 3.925781-4.648438 7.644531-7.808594 11.023437-11.890625 2.222657-31.050781 4.121094-54.972656 5.480469l9.808594-9.808594c25.269531-1.6875 44.113281-4.027344 52.972656-6.695312zm0 0" fill="#e8b76b"/></svg>