<svg height="512pt" viewBox="0 -35 512 511" width="512pt" xmlns="http://www.w3.org/2000/svg"><path d="m10.300781 440.820312h491.398438c5.6875 0 10.300781-4.613281 10.300781-10.304687v-115.378906c0-5.691407-4.613281-10.300781-10.300781-10.300781h-491.398438c-5.6875 0-10.300781 4.609374-10.300781 10.300781v115.378906c0 5.691406 4.613281 10.304687 10.300781 10.304687zm0 0" fill="#5592d7"/><path d="m478.0625 364.835938c0-25.667969-99.421875-46.476563-222.0625-46.476563s-222.0625 20.808594-222.0625 46.476563c0 25.667968 99.421875 46.476562 222.0625 46.476562s222.0625-20.808594 222.0625-46.476562zm0 0" fill="#1475cc"/><path d="m182.855469 293.648438-40.699219 12.980468-63.007812 20.089844-50.003907-82.601562c-2.78125-4.605469-1.554687-10.578126 2.8125-13.710938l7.167969-5.128906 12.558594-9.003906-.09375-.25-18.335938-49.128907c-1.679687-4.5-.03125-9.558593 3.976563-12.195312l28.546875-18.84375c4.738281-3.128907 11.113281-1.832031 14.257812 2.898437l9.796875 14.761719 4.140625 6.230469 4.410156 6.636718zm0 0" fill="#d8cdca"/><path d="m93.972656 159.746094 88.882813 133.90625-40.699219 12.980468c-4.277344-1.445312-8.128906-4.011718-11.128906-7.492187-25.84375-29.925781-40.09375-68.21875-40.09375-107.808594 0-10.683593 1.03125-21.253906 3.039062-31.585937zm0 0" fill="#b9acac"/><path d="m76.121094 271.417969c-1.257813.75-2.636719 1.113281-4 1.113281-2.613282 0-5.160156-1.320312-6.613282-3.71875l-26.382812-43.535156 12.558594-9.003906-.09375-.25 27.125 44.773437c2.214844 3.65625 1.050781 8.40625-2.59375 10.621094zm0 0" fill="#b9acac"/><path d="m481.023438 244.117188-50.007813 82.601562-62.097656-19.800781-41.609375-13.269531 90.296875-136.003907 12.535156-18.894531c3.140625-4.730469 9.519531-6.027344 14.257813-2.894531l11.363281 7.5 12.886719 8.507812 4.289062 2.832031c4.003906 2.636719 5.65625 7.695313 3.976562 12.199219l-18.421874 49.375.042968.03125 12.578125 9.015625 7.097657 5.085938c4.367187 3.136718 5.59375 9.109375 2.8125 13.714844zm0 0" fill="#d8cdca"/><g fill="#b9acac"><path d="m421.054688 190.355469c.105468 17.128906-2.417969 34.035156-7.488282 50.242187-1.976562 6.335938-6.921875 11.339844-13.132812 13.421875 2.644531 5.839844 2.53125 12.792969-.792969 18.667969-5.316406 9.363281-11.601563 18.273438-18.691406 26.472656-2.417969 2.804688-5.355469 4.996094-8.714844 6.523438-1.082031.492187-2.191406.90625-3.316406 1.234375l-41.609375-13.269531 90.296875-136.003907c2.234375 10.683594 3.386719 21.605469 3.449219 32.710938zm0 0"/><path d="m406.628906 306.058594c-1.410156 0-2.839844-.386719-4.121094-1.199219-3.605468-2.277344-4.683593-7.050781-2.402343-10.65625l23.359375-36.96875c2.277344-3.605469 7.050781-4.679687 10.65625-2.402344 3.609375 2.28125 4.683594 7.050781 2.40625 10.660157l-23.359375 36.964843c-1.46875 2.324219-3.976563 3.601563-6.539063 3.601563zm0 0"/><path d="m471.113281 225.316406-11.34375 17.964844c-1.472656 2.328125-3.976562 3.609375-6.542969 3.609375-1.410156 0-2.839843-.394531-4.121093-1.195313-3.605469-2.289062-4.683594-7.058593-2.410157-10.664062l11.828126-18.707031c0-.011719.007812-.011719.007812-.019531zm0 0"/></g><path d="m452.28125 348.988281c0 32.617188-87.878906 37.738281-196.28125 37.738281s-196.28125-5.121093-196.28125-37.738281c0-32.617187 87.878906-90.039062 196.28125-90.039062s196.28125 57.417969 196.28125 90.039062zm0 0" fill="#fde5c2"/><path d="m452.28125 348.992188c0 13.699218-15.515625 22.550781-41.546875 28.203124 11.382813-5.222656 17.726563-12 17.726563-20.765624 0-32.625-87.882813-90.039063-196.277344-90.039063-29.03125 0-56.589844 4.121094-81.375 10.777344 30.402344-10.898438 66.488281-18.214844 105.191406-18.214844 108.40625 0 196.28125 57.410156 196.28125 90.039063zm0 0" fill="#fbcc85"/><path d="m395.300781 240.503906-11.992187 2.8125c-5.09375 1.195313-6.492188 7.777344-2.332032 10.9375l4.453126 3.382813c2.449218 1.863281 3.175781 5.257812 1.660156 7.933593-4.886719 8.625-10.609375 16.710938-17.050782 24.164063-1.050781 1.214844-2.328124 2.164063-3.757812 2.8125-1.433594.648437-3 .988281-4.597656.988281-19.085938 0-34.5625 15.472656-34.5625 34.5625v.578125h-142.246094v-.578125c0-19.089844-15.472656-34.5625-34.5625-34.5625-3.203125 0-6.261719-1.371094-8.355469-3.800781-22.796875-26.394531-36.601562-60.792969-36.601562-98.40625 0-38.753906 14.636719-74.101563 38.695312-100.792969 2.109375-2.34375 5.667969-2.6875 8.214844-.824218l10.191406 7.433593c4.71875 3.445313 11.136719-.972656 9.609375-6.609375l-4.414062-16.257812c-.683594-2.53125.300781-5.21875 2.453125-6.714844 24.644531-17.140625 54.632812-27.101562 86.964843-26.875 39.300782.277344 75.144532 15.796875 101.878907 40.914062 3.566406 3.351563 4.265625 8.761719 1.6875 12.925782l-6.535157 10.558594c-4.125 6.65625.398438 15.300781 8.222657 15.710937l21.398437 1.113281c3.820313.199219 7.199219 2.511719 8.824219 5.976563 8.921875 19.054687 13.957031 40.242187 14.085937 62.546875.09375 15.980468-2.304687 31.386718-6.828124 45.859375-.65625 2.101562-2.363282 3.710937-4.503907 4.210937zm0 0" fill="#fff5f5"/><path d="m406.632812 190.4375c.09375 15.976562-2.308593 31.390625-6.828124 45.851562-.660157 2.101563-2.359376 3.707032-4.503907 4.214844l-11.992187 2.8125c-5.085938 1.195313-6.488282 7.777344-2.328125 10.941406l4.453125 3.378907c2.449218 1.863281 3.171875 5.261719 1.65625 7.941406-4.882813 8.621094-10.609375 16.710937-17.046875 24.15625-1.050781 1.21875-2.328125 2.164063-3.761719 2.8125-1.429688.648437-2.996094.988281-4.59375.988281-19.089844 0-34.5625 15.476563-34.5625 34.5625v.578125h-17.359375v-12.453125c0-19.089844 15.472656-34.566406 34.5625-34.566406 1.597656 0 3.164063-.339844 4.59375-.988281 1.433594-.648438 2.710937-1.597657 3.761719-2.8125 6.4375-7.457031 12.164062-15.542969 17.050781-24.167969 1.511719-2.675781.792969-6.066406-1.660156-7.929688l-4.449219-3.378906c-4.164062-3.164062-2.761719-9.746094 2.328125-10.941406l11.988281-2.8125c2.144532-.503906 3.84375-2.113281 4.503906-4.214844 4.523438-14.460937 6.921876-29.875 6.828126-45.851562-.121094-20.148438-4.234376-39.394532-11.609376-56.96875l6.058594.320312c3.820313.203125 7.199219 2.511719 8.816406 5.972656 8.933594 19.058594 13.960938 40.25 14.09375 62.554688zm0 0" fill="#efe2dd"/><path d="m284.351562 284.078125v42.640625h-65.097656v-42.640625c0-17.976563 14.578125-32.550781 32.554688-32.550781 5.59375 0 10.855468 1.410156 15.453125 3.902344 2.792969 1.503906 5.335937 3.410156 7.5625 5.636718 5.878906 5.882813 9.527343 14.019532 9.527343 23.011719zm0 0" fill="#756f6f"/><path d="m284.351562 284.078125v42.640625h-34.191406v-42.640625c0-12.382813 6.921875-23.15625 17.101563-28.648437 2.789062 1.503906 5.335937 3.410156 7.558593 5.636718 5.882813 5.882813 9.53125 14.019532 9.53125 23.011719zm0 0" fill="#5b5555"/><path d="m363.457031 339.320312c-26.175781-15.445312-64.609375-25.199218-107.457031-25.199218s-81.28125 9.753906-107.457031 25.199218zm0 0" fill="#fde5c2"/><path d="m363.449219 347.046875c-1.335938 0-2.6875-.34375-3.917969-1.070313-25.988281-15.335937-63.722656-24.128906-103.53125-24.128906s-77.546875 8.792969-103.53125 24.128906c-3.671875 2.167969-8.410156.949219-10.582031-2.730468-2.167969-3.671875-.945313-8.410156 2.730469-10.578125 28.292968-16.699219 68.890624-26.273438 111.382812-26.273438 42.488281 0 83.089844 9.574219 111.382812 26.273438 3.675782 2.167969 4.894532 6.902343 2.726563 10.578125-1.4375 2.441406-4.015625 3.800781-6.660156 3.800781zm0 0" fill="#fbcc85"/><path d="m350.230469 188.566406c7.347656 17.578125-.949219 37.785156-18.53125 45.128906-17.578125 7.347657-37.785157-.949218-45.132813-18.53125-7.34375-17.578124 4.492188-29.3125 22.074219-36.65625 17.578125-7.347656 34.246094-7.523437 41.589844 10.058594zm0 0" fill="#756f6f"/><path d="m331.699219 233.695312c-6.976563 2.914063-14.351563 3.367188-21.191407 1.75 1.8125-.421874 3.613282-1.011718 5.398438-1.75 17.574219-7.347656 25.875-27.546874 18.53125-45.132812-3.214844-7.707031-8.21875-11.992188-14.320312-13.773438 13.042968-2.832031 24.394531.101563 30.113281 13.773438 7.34375 17.585938-.949219 37.785156-18.53125 45.132812zm0 0" fill="#5b5555"/><path d="m151.9375 177.773438c-9.320312 22.3125 1.207031 47.957031 23.519531 57.277343 22.3125 9.320313 47.957031-1.207031 57.277344-23.519531 9.324219-22.308594-5.699219-37.203125-28.011719-46.523438-22.308594-9.324218-43.460937-9.546874-52.785156 12.765626zm0 0" fill="#756f6f"/><path d="m232.738281 211.535156c-9.324219 22.3125-34.976562 32.84375-57.277343 23.519532-1.925782-.804688-3.761719-1.730469-5.5-2.773438 19.726562 3.503906 39.949218-6.972656 48.003906-26.246094 8.796875-21.039062-4.070313-35.480468-24.28125-44.875 3.617187.988282 7.3125 2.296875 11.042968 3.851563 22.304688 9.324219 37.335938 24.210937 28.011719 46.523437zm0 0" fill="#5b5555"/><path d="m304.378906 135.640625 4.65625-4.65625c3.019532-3.019531 3.019532-7.910156 0-10.929687-3.015625-3.015626-7.910156-3.015626-10.925781 0l-4.65625 4.65625-4.65625-4.65625c-3.019531-3.015626-7.910156-3.015626-10.929687 0-3.015626 3.019531-3.015626 7.910156 0 10.929687l4.65625 4.65625-4.65625 4.652344c-3.015626 3.019531-3.015626 7.910156 0 10.929687 1.511718 1.507813 3.488281 2.261719 5.464843 2.261719 1.976563 0 3.953125-.753906 5.464844-2.261719l4.652344-4.65625 4.65625 4.65625c1.511719 1.507813 3.488281 2.261719 5.464843 2.261719 1.976563 0 3.953126-.753906 5.460938-2.261719 3.019531-3.019531 3.019531-7.910156 0-10.929687zm0 0" fill="#ea576b"/><path d="m468.648438 151.863281-25.960938 39.457031c-1.480469 2.257813-3.945312 3.484376-6.457031 3.484376-1.464844 0-2.9375-.414063-4.246094-1.269532-3.5625-2.347656-4.550781-7.136718-2.203125-10.703125l25.972656-39.464843s0-.011719.007813-.011719zm0 0" fill="#b9acac"/><path d="m98.382812 166.378906-14.246093 9.695313c-1.332031.90625-2.84375 1.339843-4.339844 1.339843-2.472656 0-4.902344-1.1875-6.394531-3.378906-2.402344-3.523437-1.484375-8.335937 2.039062-10.734375l14.390625-9.789062 4.140625 6.234375zm0 0" fill="#b9acac"/><path d="m452.582031 71.992188c-2.765625 0-5.441406-1.492188-6.828125-4.105469-1.382812-2.605469-4.066406-4.222657-7.007812-4.222657-2.9375 0-5.621094 1.617188-7.003906 4.222657-1.339844 2.523437-3.964844 4.101562-6.824219 4.101562s-5.484375-1.578125-6.824219-4.101562c-1.382812-2.605469-4.066406-4.222657-7.003906-4.222657-2.941406 0-5.625 1.617188-7.003906 4.222657-2.003907 3.769531-6.679688 5.199219-10.449219 3.203125-3.769531-2.003906-5.203125-6.679688-3.203125-10.449219 4.070312-7.667969 11.984375-12.429687 20.65625-12.429687 5.074218 0 9.890625 1.632812 13.828125 4.523437 3.9375-2.890625 8.753906-4.523437 13.828125-4.523437 8.671875 0 16.585937 4.761718 20.65625 12.429687 2 3.769531.566406 8.445313-3.203125 10.449219-1.152344.609375-2.394531.902344-3.617188.902344zm0 0" fill="#5b5555"/><path d="m401.851562 24.28125c-2.769531 0-5.445312-1.492188-6.832031-4.105469-1.382812-2.605469-4.066406-4.222656-7.003906-4.222656-2.941406 0-5.625 1.617187-7.007813 4.222656-1.339843 2.523438-3.964843 4.101563-6.824218 4.101563s-5.484375-1.578125-6.824219-4.101563c-1.382813-2.605469-4.066406-4.222656-7.003906-4.222656-2.941407 0-5.625 1.617187-7.007813 4.222656-2 3.769531-6.679687 5.203125-10.445312 3.199219-3.769532-2-5.203125-6.675781-3.203125-10.445312 4.070312-7.667969 11.984375-12.429688 20.65625-12.429688 5.074219 0 9.890625 1.632812 13.828125 4.523438 3.9375-2.890626 8.753906-4.523438 13.828125-4.523438 8.671875 0 16.585937 4.761719 20.65625 12.429688 2 3.769531.566406 8.445312-3.203125 10.445312-1.152344.613281-2.394532.90625-3.613282.90625zm0 0" fill="#5b5555"/><path d="m113.574219 76.152344c-2.769531 0-5.445313-1.488282-6.832031-4.105469-1.382813-2.601563-4.066407-4.21875-7.003907-4.21875-2.941406 0-5.625 1.617187-7.007812 4.21875-1.339844 2.527344-3.964844 4.105469-6.824219 4.105469-2.855469 0-5.480469-1.578125-6.824219-4.105469-1.382812-2.601563-4.066406-4.21875-7.003906-4.21875s-5.625 1.617187-7.003906 4.21875c-2.003907 3.769531-6.679688 5.203125-10.449219 3.203125s-5.203125-6.679688-3.199219-10.449219c4.066407-7.664062 11.980469-12.425781 20.652344-12.425781 5.074219 0 9.890625 1.632812 13.828125 4.519531 3.9375-2.886719 8.753906-4.519531 13.828125-4.519531 8.671875 0 16.585937 4.761719 20.65625 12.425781 2 3.769531.566406 8.445313-3.203125 10.449219-1.152344.613281-2.390625.902344-3.613281.902344zm0 0" fill="#5b5555"/></svg>