<svg height="512pt" viewBox="-44 0 512 512" width="512pt" xmlns="http://www.w3.org/2000/svg"><path d="m199.773438 60.605469-128.082032 128.082031v-48.066406l21.292969-21.296875 58.71875-58.71875zm0 0" fill="#904d29"/><path d="m71.691406 140.621094 21.292969-21.296875v48.070312l-21.292969 21.292969zm0 0" fill="#844225"/><path d="m199.773438 60.605469-22.128907 22.128906h-48.070312l22.128906-22.128906zm0 0" fill="#844225"/><path d="m78.5625 458.191406h-44v-447.890625c0-5.6875 4.613281-10.300781 10.300781-10.300781h23.398438c5.691406 0 10.300781 4.613281 10.300781 10.300781zm0 0" fill="#c86d3d"/><path d="m78.5625 10.300781v447.894531h-18.761719v-447.894531c0-5.6875-4.613281-10.300781-10.300781-10.300781h18.761719c5.683593 0 10.300781 4.613281 10.300781 10.300781zm0 0" fill="#ac5e33"/><path d="m113.125 483.667969v-25.3125c0-3.195313-1.484375-6.210938-4.015625-8.160157l-20.789063-16.011718c-1.804687-1.386719-4.011718-2.140625-6.289062-2.140625h-50.9375c-2.273438 0-4.484375.753906-6.285156 2.140625l-20.789063 16.011718c-2.535156 1.949219-4.01562475 4.964844-4.01562475 8.160157v25.3125zm0 0" fill="#fcd79f"/><path d="m87.472656 450.199219c2.535156 1.945312 4.019532 4.964843 4.019532 8.160156v25.304687h21.632812v-25.304687c0-3.195313-1.484375-6.214844-4.019531-8.160156l-20.789063-16.019531c-1.800781-1.378907-4.003906-2.132813-6.28125-2.132813h-21.636718c2.277343 0 4.484374.753906 6.285156 2.132813zm0 0" fill="#fac574"/><path d="m113.125 478.167969v23.53125c0 5.6875-4.613281 10.300781-10.300781 10.300781h-92.523438c-5.683593 0-10.300781-4.613281-10.300781-10.300781v-23.53125zm0 0" fill="#00b7a0"/><path d="m113.125 478.167969v23.53125c0 5.6875-4.613281 10.300781-10.300781 10.300781h-21.636719c5.6875 0 10.304688-4.613281 10.304688-10.300781v-23.53125zm0 0" fill="#009a8d"/><path d="m2.535156 58.011719v-23.398438c0-5.691406 4.609375-10.300781 10.300782-10.300781h400.5c5.691406 0 10.304687 4.609375 10.304687 10.300781v23.398438c0 5.6875-4.613281 10.300781-10.304687 10.300781h-400.5c-5.691407 0-10.300782-4.613281-10.300782-10.300781zm0 0" fill="#db885d"/><path d="m423.640625 34.613281v23.398438c0 5.683593-4.613281 10.300781-10.300781 10.300781h-20.933594c5.6875 0 10.304688-4.617188 10.304688-10.300781v-23.398438c0-5.6875-4.617188-10.300781-10.304688-10.300781h20.933594c5.6875 0 10.300781 4.617188 10.300781 10.300781zm0 0" fill="#c86d3d"/><path d="m54.753906 54.097656c-4.269531 0-7.726562-3.457031-7.726562-7.726562v-.117188c0-4.269531 3.460937-7.726562 7.726562-7.726562 4.269532 0 7.726563 3.457031 7.726563 7.726562v.117188c0 4.269531-3.457031 7.726562-7.726563 7.726562zm0 0" fill="#844225"/><path d="m318.730469 270.835938c-20.453125 0-37.089844-16.640626-37.089844-37.089844 0-17.242188 14.011719-56.453125 37.089844-56.453125 23.074219 0 37.085937 39.210937 37.085937 56.453125 0 20.449218-16.636718 37.089844-37.085937 37.089844zm0-78.089844c-3.960938 0-9.421875 5.550781-13.914063 14.140625-4.546875 8.683593-7.71875 19.730469-7.71875 26.859375 0 11.929687 9.703125 21.636718 21.632813 21.636718 11.929687 0 21.632812-9.707031 21.632812-21.636718 0-7.128906-3.171875-18.175782-7.71875-26.859375-4.496093-8.589844-9.957031-14.140625-13.914062-14.140625zm0 0" fill="#ac5e33"/><path d="m318.730469 204.320312c-4.269531 0-7.726563-3.460937-7.726563-7.726562v-175.816406c0-4.269532 3.457032-7.726563 7.726563-7.726563 4.265625 0 7.722656 3.457031 7.722656 7.726563v175.816406c0 4.265625-3.457031 7.726562-7.722656 7.726562zm0 0" fill="#c86d3d"/><path d="m331.011719 156.421875h-24.5625c-4.269531 0-7.726563-3.457031-7.726563-7.726563 0-4.265624 3.457032-7.722656 7.726563-7.722656h24.5625c4.269531 0 7.726562 3.457032 7.726562 7.722656 0 4.269532-3.460937 7.726563-7.726562 7.726563zm0 0" fill="#db885d"/><path d="m331.011719 170.324219h-24.5625c-4.269531 0-7.726563-3.460938-7.726563-7.726563 0-4.269531 3.457032-7.726562 7.726563-7.726562h24.5625c4.269531 0 7.726562 3.457031 7.726562 7.726562 0 4.265625-3.460937 7.726563-7.726562 7.726563zm0 0" fill="#c86d3d"/><path d="m331.011719 184.222656h-24.5625c-4.269531 0-7.726563-3.457031-7.726563-7.726562 0-4.265625 3.457032-7.722656 7.726563-7.722656h24.5625c4.269531 0 7.726562 3.457031 7.726562 7.722656 0 4.269531-3.460937 7.726562-7.726562 7.726562zm0 0" fill="#db885d"/></svg>