<svg height="512pt" viewBox="-6 0 512 512" width="512pt" xmlns="http://www.w3.org/2000/svg"><path d="m32.046875 373.667969h442.667969v44.070312h-442.667969zm0 0" fill="#fef0dc"/><path d="m32.046875 94.261719h442.667969v51.40625h-442.667969zm0 0" fill="#fef0dc"/><path d="m32.046875 134.347656h442.667969v243.304688h-442.667969zm0 0" fill="#5592d7"/><path d="m278.527344 134.347656c-2.089844 68.785156-25.664063 78.457032-67.363282 64.425782-32.304687-10.867188-32.753906-46.542969-30.78125-64.425782zm0 0" fill="#e19a77"/><path d="m278.527344 134.347656c-1.761719 57.78125-18.667969 73.851563-48.757813 69.183594 19.34375-3.914062 30.203125-23.527344 31.582031-69.183594zm0 0" fill="#db885d"/><path d="m474.714844 244.71875v132.9375h-203.820313s-4.8125-45.011719 34.335938-55.683594c39.144531-10.683594 67.308593 2.792969 95.464843-57.171875 6.292969-13.394531 15.390626-20.8125 25.734376-24.230469 15.082031-5.007812 32.789062-1.546874 48.285156 4.148438zm0 0" fill="#64e1c5"/><path d="m474.714844 244.71875v132.9375h-52.242188c7.820313-43.886719 5.996094-103.007812 3.957032-137.085938 15.082031-5.007812 32.789062-1.546874 48.285156 4.148438zm0 0" fill="#00d2b4"/><path d="m14.824219 47.136719h28.429687v417.726562h-28.429687zm0 0" fill="#c86d3d"/><path d="m58.078125 29.039062c0 16.039063-13 29.039063-29.039063 29.039063-16.039062 0-29.039062-13-29.039062-29.039063 0-16.039062 13-29.039062 29.039062-29.039062 16.039063 0 29.039063 13 29.039063 29.039062zm0 0" fill="#fcd79f"/><path d="m58.074219 29.039062c0 16.039063-12.996094 29.035157-29.035157 29.035157-3.191406 0-6.253906-.511719-9.121093-1.460938 11.566406-3.824219 19.914062-14.71875 19.914062-27.574219 0-12.855468-8.347656-23.75-19.914062-27.574218 2.867187-.949219 5.929687-1.46093775 9.121093-1.46093775 16.039063 0 29.035157 12.99218775 29.035157 29.03515575zm0 0" fill="#fac574"/><path d="m58.078125 482.960938c0 16.039062-13 29.039062-29.039063 29.039062-16.039062 0-29.039062-13-29.039062-29.039062 0-16.039063 13-29.039063 29.039062-29.039063 16.039063 0 29.039063 13 29.039063 29.039063zm0 0" fill="#fcd79f"/><path d="m58.074219 482.960938c0 16.042968-12.996094 29.035156-29.035157 29.035156-3.191406 0-6.253906-.511719-9.121093-1.460938 11.566406-3.824218 19.917969-14.714844 19.917969-27.574218 0-12.859376-8.351563-23.75-19.917969-27.574219 2.867187-.949219 5.929687-1.460938 9.121093-1.460938 16.039063 0 29.035157 12.996094 29.035157 29.035157zm0 0" fill="#fac574"/><path d="m46.175781 432.355469h-24.378906c-10.976563 0-19.878906-8.898438-19.878906-19.878907v-312.953124c0-10.980469 8.902343-19.878907 19.878906-19.878907h24.378906c5.511719 0 9.980469 4.46875 9.980469 9.980469v332.746094c0 5.515625-4.46875 9.984375-9.980469 9.984375zm0 0" fill="#fcd79f"/><path d="m56.160156 89.625v332.75c0 5.511719-4.46875 9.980469-9.980468 9.980469h-20.089844c5.511718 0 9.984375-4.46875 9.984375-9.980469v-332.75c0-5.511719-4.472657-9.980469-9.984375-9.980469h20.089844c5.511718 0 9.980468 4.46875 9.980468 9.980469zm0 0" fill="#fac574"/><path d="m457.492188 47.136719h28.429687v417.726562h-28.429687zm0 0" fill="#c86d3d"/><path d="m500.746094 29.039062c0 16.039063-13 29.039063-29.039063 29.039063-16.039062 0-29.039062-13-29.039062-29.039063 0-16.039062 13-29.039062 29.039062-29.039062 16.039063 0 29.039063 13 29.039063 29.039062zm0 0" fill="#fcd79f"/><path d="m500.742188 29.039062c0 16.039063-12.996094 29.035157-29.035157 29.035157-3.191406 0-6.253906-.511719-9.121093-1.460938 11.566406-3.824219 19.917968-14.714843 19.917968-27.574219 0-12.859374-8.351562-23.75-19.917968-27.574218 2.867187-.949219 5.929687-1.46093775 9.121093-1.46093775 16.042969 0 29.035157 12.99218775 29.035157 29.03515575zm0 0" fill="#fac574"/><path d="m500.746094 482.960938c0 16.039062-13 29.039062-29.039063 29.039062-16.039062 0-29.039062-13-29.039062-29.039062 0-16.039063 13-29.039063 29.039062-29.039063 16.039063 0 29.039063 13 29.039063 29.039063zm0 0" fill="#fcd79f"/><path d="m500.742188 482.960938c0 16.042968-12.996094 29.035156-29.035157 29.035156-3.191406 0-6.253906-.511719-9.121093-1.460938 11.566406-3.824218 19.917968-14.714844 19.917968-27.574218 0-12.859376-8.351562-23.75-19.917968-27.574219 2.867187-.949219 5.929687-1.460938 9.121093-1.460938 16.042969 0 29.035157 12.996094 29.035157 29.035157zm0 0" fill="#fac574"/><path d="m454.570312 432.355469h24.378907c10.976562 0 19.878906-8.898438 19.878906-19.878907v-312.953124c0-10.980469-8.902344-19.878907-19.878906-19.878907h-24.378907c-5.511718 0-9.980468 4.46875-9.980468 9.980469v332.746094c0 5.515625 4.46875 9.984375 9.980468 9.984375zm0 0" fill="#fcd79f"/><path d="m498.832031 99.527344v312.945312c0 10.984375-8.902343 19.882813-19.882812 19.882813h-21.820313c10.972656 0 19.871094-8.902344 19.871094-19.882813v-312.945312c0-10.984375-8.898438-19.882813-19.871094-19.882813h21.820313c10.980469 0 19.882812 8.898438 19.882812 19.882813zm0 0" fill="#fac574"/><path d="m135.386719 353.125c-4.171875 0-7.609375-3.320312-7.722657-7.515625-.113281-4.265625 3.246094-7.8125 7.507813-7.933594.058594 0 4.398437-.136719 11.664063-1.019531 4.25-.511719 8.089843 2.503906 8.601562 6.742188.515625 4.234374-2.5 8.085937-6.738281 8.597656-8.070313.980468-12.898438 1.121094-13.101563 1.125-.070312.003906-.144531.003906-.210937.003906zm36.769531-5.316406c-3.535156 0-6.722656-2.441406-7.53125-6.035156-.9375-4.164063 1.679688-8.296876 5.84375-9.234376 3.890625-.871093 7.8125-1.851562 11.660156-2.90625 4.117188-1.128906 8.367188 1.292969 9.496094 5.40625 1.128906 4.117188-1.292969 8.367188-5.40625 9.496094-4.078125 1.121094-8.238281 2.15625-12.363281 3.082032-.570313.128906-1.140625.191406-1.699219.191406zm35.539062-10.667969c-3.117187 0-6.050781-1.894531-7.222656-4.980469-1.519531-3.984375.484375-8.449218 4.472656-9.96875 3.746094-1.425781 7.480469-2.953125 11.089844-4.539062 3.910156-1.714844 8.46875.0625 10.183594 3.96875s-.0625 8.464844-3.96875 10.183594c-3.847656 1.6875-7.820312 3.3125-11.808594 4.832031-.90625.34375-1.835937.503906-2.746094.503906zm33.539063-15.792969c-2.679687 0-5.285156-1.398437-6.710937-3.890625-2.121094-3.703125-.835938-8.421875 2.867187-10.542969 3.457031-1.976562 6.882813-4.066406 10.1875-6.210937 3.578125-2.324219 8.363281-1.304687 10.6875 2.273437 2.324219 3.578126 1.304687 8.363282-2.273437 10.6875-3.542969 2.300782-7.21875 4.539063-10.925782 6.660157-1.210937.695312-2.527344 1.023437-3.832031 1.023437zm30.453125-21.082031c-2.214844 0-4.414062-.949219-5.941406-2.785156-2.730469-3.28125-2.285156-8.152344.996094-10.878907 3.039062-2.53125 6.035156-5.179687 8.898437-7.878906 3.101563-2.921875 7.996094-2.777344 10.921875.328125s2.777344 7.996094-.328125 10.921875c-3.09375 2.914063-6.324219 5.773438-9.609375 8.503906-1.441406 1.203126-3.195312 1.789063-4.9375 1.789063zm26.128906-26.210937c-1.730468 0-3.472656-.582032-4.914062-1.769532-3.289063-2.714844-3.753906-7.585937-1.039063-10.878906 2.507813-3.035156 4.949219-6.191406 7.265625-9.382812 2.503906-3.453126 7.335938-4.222657 10.789063-1.71875 3.453125 2.503906 4.222656 7.335937 1.71875 10.792968-2.5 3.449219-5.144531 6.863282-7.855469 10.148438-1.527344 1.851562-3.738281 2.808594-5.964844 2.808594zm0 0" fill="#ea576b"/><path d="m374.808594 184.589844-9.488282-9.484375c-3.660156-3.660157-9.59375-3.660157-13.253906 0l-7.851562 7.851562-7.851563-7.851562c-3.660156-3.660157-9.59375-3.660157-13.253906 0l-9.488281 9.484375c-3.65625 3.660156-3.65625 9.59375 0 13.253906l7.855468 7.851562-7.855468 7.855469c-3.65625 3.660157-3.65625 9.59375 0 13.253907l9.488281 9.484374c3.660156 3.660157 9.59375 3.660157 13.253906 0l7.851563-7.851562 7.851562 7.851562c3.660156 3.660157 9.59375 3.660157 13.253906 0l9.488282-9.484374c3.660156-3.660157 3.660156-9.59375 0-13.253907l-7.855469-7.855469 7.855469-7.851562c3.65625-3.660156 3.65625-9.59375 0-13.253906zm0 0" fill="#ea576b"/><path d="m219.746094 262.398438c0-17.78125-14.414063-32.195313-32.191406-32.195313h-13.34375c-10.082032 0-19.410157 5.34375-24.515626 14.039063-5.105468 8.695312-14.4375 14.035156-24.519531 14.035156h-5.226562c-10.027344 0-18.160157 8.128906-18.160157 18.15625s8.132813 18.15625 18.160157 18.15625h67.605469c17.777343 0 32.191406-14.410156 32.191406-32.191406zm0 0" fill="#64e1c5"/><path d="m219.742188 262.398438c0 17.78125-14.410157 32.191406-32.191407 32.191406h-17.851562c17.78125 0 32.191406-14.410156 32.191406-32.191406 0-16.988282-13.15625-30.894532-29.832031-32.113282.710937-.050781 1.429687-.082031 2.152344-.082031h13.339843c17.78125 0 32.191407 14.414063 32.191407 32.195313zm0 0" fill="#00d2b4"/><path d="m128.941406 208.125h-17.609375c-9.21875 0-16.691406-7.476562-16.691406-16.695312s7.472656-16.691407 16.691406-16.691407h17.609375c9.21875 0 16.691406 7.472657 16.691406 16.691407s-7.472656 16.695312-16.691406 16.695312zm0 0" fill="#64e1c5"/></svg>