<svg height="512pt" viewBox="-57 0 512 512.001" width="512pt" xmlns="http://www.w3.org/2000/svg"><path d="m152.566406 59.207031h25.824219v105.882813h-25.824219zm0 0" fill="#fbcc85"/><path d="m220.632812 59.207031h25.820313v105.882813h-25.820313zm0 0" fill="#fbcc85"/><path d="m279.710938 495.457031h-160.398438l6.015625-95.394531.96875-15.453125 8.355469-132.453125.976562-15.429688 5.644532-89.585937h116.472656l3.914062 62.101563.96875 15.328124 8.292969 131.480469.96875 15.453125zm0 0" fill="#db885d"/><path d="m279.710938 495.457031h-18.328126l-21.972656-348.316406h18.335938zm0 0" fill="#c86d3d"/><path d="m221.953125 324.09375h-44.886719v-32.820312c0-12.394532 10.050782-22.445313 22.445313-22.445313s22.445312 10.050781 22.445312 22.445313v32.820312zm0 0" fill="#fcd79f"/><path d="m221.960938 291.273438v32.824218h-16.679688v-32.824218c0-6.203126-2.515625-11.804688-6.574219-15.875-2.132812-2.132813-4.6875-3.832032-7.53125-4.964844 2.574219-1.039063 5.386719-1.609375 8.335938-1.609375 6.199219 0 11.804687 2.515625 15.875 6.574219 4.058593 4.070312 6.574219 9.675781 6.574219 15.875zm0 0" fill="#e8b76b"/><path d="m221.953125 473.238281h-44.886719v-32.816406c0-12.398437 10.050782-22.445313 22.445313-22.445313s22.445312 10.046876 22.445312 22.445313v32.816406zm0 0" fill="#9e552e"/><path d="m221.960938 440.425781v32.808594h-16.679688v-32.808594c0-6.203125-2.515625-11.816406-6.574219-15.875-2.132812-2.132812-4.6875-3.832031-7.53125-4.964843 2.574219-1.042969 5.386719-1.609376 8.335938-1.609376 6.199219 0 11.804687 2.515626 15.875 6.574219 4.058593 4.058594 6.574219 9.671875 6.574219 15.875zm0 0" fill="#844225"/><g fill="#c86d3d"><path d="m271.890625 371.503906h-27.050781v6.832032c0 4.265624-3.460938 7.726562-7.726563 7.726562s-7.726562-3.460938-7.726562-7.726562v-6.832032h-6.4375c-4.265625 0-7.726563-3.460937-7.726563-7.726562 0-4.273438 3.460938-7.722656 7.726563-7.722656h47.976562zm0 0"/><path d="m262.628906 224.570312c-.402344.082032-.824218.113282-1.246094.113282h-27.617187v7.105468c0 4.277344-3.460937 7.726563-7.726563 7.726563-4.265624 0-7.726562-3.449219-7.726562-7.726563v-7.105468h-29.585938c-4.265624 0-7.726562-3.460938-7.726562-7.726563 0-4.273437 3.460938-7.726562 7.726562-7.726562h5.429688v-10.207031h-24.394531c-4.277344 0-7.726563-3.460938-7.726563-7.726563s3.449219-7.726563 7.726563-7.726563h56.277343c4.265626 0 7.726563 3.460938 7.726563 7.726563s-3.460937 7.726563-7.726563 7.726563h-16.429687v10.207031h51.777344c.089843 0 .183593 0 .277343.011719zm0 0"/><path d="m176.835938 392.335938c0 4.265624-3.460938 7.726562-7.726563 7.726562h-43.78125l.96875-15.453125h23.28125v-10.273437c0-4.265626 3.460937-7.726563 7.726563-7.726563 4.265624 0 7.726562 3.460937 7.726562 7.726563v10.273437h4.078125c4.265625 0 7.726563 3.460937 7.726563 7.726563zm0 0"/><path d="m175.074219 244.453125c0 4.265625-3.460938 7.726563-7.726563 7.726563h-32.203125c-.164062 0-.328125-.011719-.492187-.023438l.980468-15.429688h31.71875c4.261719 0 7.722657 3.453126 7.722657 7.726563zm0 0"/></g><path d="m304.734375 512h-210.445313v-19.199219c0-13.285156 10.769532-24.050781 24.050782-24.050781h162.34375c13.28125 0 24.050781 10.765625 24.050781 24.050781zm0 0" fill="#b9acac"/><path d="m304.734375 492.796875v19.203125h-20.800781v-19.203125c0-13.277344-10.765625-24.042969-24.054688-24.042969h20.800782c13.289062 0 24.054687 10.765625 24.054687 24.042969zm0 0" fill="#9e9797"/><path d="m257.949219 54.25-51.285157-51.285156c-3.949218-3.953125-10.355468-3.953125-14.308593 0l-51.285157 51.285156c-6.371093 6.375-1.859374 17.269531 7.152344 17.269531h102.574219c9.015625 0 13.527344-10.894531 7.152344-17.269531zm0 0" fill="#ac5e33"/><path d="m250.792969 71.515625h-5.40625c.359375-2.863281-.496094-5.921875-2.90625-8.332031l-51.28125-51.292969c-1.433594-1.433594-3.183594-2.339844-5.027344-2.730469l6.191406-6.191406c3.945313-3.957031 10.351563-3.957031 14.296875 0l51.292969 51.28125c6.367187 6.378906 1.855469 17.265625-7.160156 17.265625zm0 0" fill="#904d29"/><path d="m265.492188 160.367188h-131.960938c-3.042969 0-5.507812-2.464844-5.507812-5.507813v-14.78125c0-3.042969 2.464843-5.507813 5.507812-5.507813h131.960938c3.039062 0 5.507812 2.464844 5.507812 5.507813v14.78125c0 3.042969-2.46875 5.507813-5.507812 5.507813zm0 0" fill="#ac5e33"/><path d="m270.996094 140.074219v14.785156c0 3.046875-2.464844 5.507813-5.503906 5.507813h-17.171876c3.039063 0 5.511719-2.460938 5.511719-5.507813v-14.785156c0-3.039063-2.472656-5.5-5.511719-5.5h17.171876c3.039062 0 5.503906 2.460937 5.503906 5.5zm0 0" fill="#904d29"/><path d="m285.546875 86.675781c-3.371094 0-6.46875-2.222656-7.433594-5.625-1.160156-4.105469 1.226563-8.375 5.332031-9.535156l105.742188-29.90625c4.109375-1.164063 8.375 1.222656 9.539062 5.332031 1.160157 4.105469-1.226562 8.375-5.332031 9.535156l-105.742187 29.90625c-.703125.199219-1.410156.292969-2.105469.292969zm0 0" fill="#fcd79f"/><path d="m391.296875 150.179688c-.695313 0-1.402344-.097657-2.105469-.296876l-105.746094-29.902343c-4.105468-1.164063-6.492187-5.433594-5.332031-9.539063 1.164063-4.105468 5.429688-6.496094 9.539063-5.332031l105.742187 29.90625c4.105469 1.160156 6.492188 5.429687 5.332031 9.535156-.960937 3.40625-4.058593 5.628907-7.429687 5.628907zm0 0" fill="#fcd79f"/><path d="m7.726562 150.179688c-3.371093 0-6.46875-2.222657-7.433593-5.628907-1.160157-4.105469 1.226562-8.375 5.332031-9.535156l105.742188-29.90625c4.109374-1.164063 8.375 1.226563 9.539062 5.332031 1.160156 4.105469-1.226562 8.375-5.332031 9.539063l-105.742188 29.902343c-.703125.199219-1.410156.296876-2.105469.296876zm0 0" fill="#fcd79f"/><path d="m113.476562 86.675781c-.695312 0-1.402343-.09375-2.105468-.292969l-105.742188-29.90625c-4.109375-1.160156-6.496094-5.429687-5.332031-9.535156 1.160156-4.109375 5.425781-6.496094 9.535156-5.332031l105.742188 29.90625c4.105469 1.160156 6.492187 5.429687 5.332031 9.535156-.960938 3.402344-4.058594 5.625-7.429688 5.625zm0 0" fill="#fcd79f"/><path d="m232.21875 331.820312h-65.417969c-4.269531 0-7.726562-3.460937-7.726562-7.726562 0-4.269531 3.460937-7.726562 7.726562-7.726562h65.417969c4.269531 0 7.726562 3.457031 7.726562 7.726562 0 4.265625-3.457031 7.726562-7.726562 7.726562zm0 0" fill="#ac5e33"/><path d="m239.945312 324.097656c0 4.261719-3.460937 7.722656-7.726562 7.722656h-11.886719c4.265625 0 7.726563-3.460937 7.726563-7.722656 0-4.277344-3.460938-7.726562-7.726563-7.726562h11.886719c4.265625 0 7.726562 3.449218 7.726562 7.726562zm0 0" fill="#904d29"/></svg>