<svg height="512pt" viewBox="0 -17 512 511" width="512pt" xmlns="http://www.w3.org/2000/svg"><path d="m501.480469 77.851562-44.890625 207.730469h-49.511719l37.34375-163.328125h-376.902344l37.332031 163.328125h-49.511718l-44.890625-207.730469 245.550781-21zm0 0" fill="#904d29"/><path d="m501.515625 77.847656h-491.03125c0-42.71875 34.628906-77.347656 77.347656-77.347656h336.335938c42.71875 0 77.347656 34.628906 77.347656 77.347656zm0 0" fill="#fcd79f"/><path d="m501.515625 77.847656h-31.296875c0-42.710937-34.621094-77.34375-77.34375-77.34375h31.296875c42.714844 0 77.34375 34.632813 77.34375 77.34375zm0 0" fill="#fac574"/><path d="m456.761719 112.257812-36.71875 173.320313h-328.160157l-10.53125-49.714844-26.175781-123.605469zm0 0" fill="#c93146"/><path d="m456.761719 112.257812-36.71875 173.320313h-328.160157l-10.53125-49.714844c241.902344 10.390625 315.675782-70.367187 338.101563-123.605469zm0 0" fill="#ac283b"/><path d="m283.730469 192.925781c0 24.007813-19.460938 43.46875-43.464844 43.46875-24.007813 0-43.46875-19.460937-43.46875-43.46875 0-24.007812 19.460937-43.46875 43.46875-43.46875 24.003906 0 43.464844 19.460938 43.464844 43.46875zm0 0" fill="#5592d7"/><path d="m283.738281 192.925781c0 19.921875-13.402343 36.714844-31.691406 41.855469 8.558594-7.941406 13.914063-19.292969 13.914063-31.882812 0-24.007813-19.453126-43.460938-43.460938-43.460938-4.09375 0-8.046875.566406-11.800781 1.625 7.761719-7.203125 18.152343-11.609375 29.566406-11.609375 24.007813 0 43.472656 19.464844 43.472656 43.472656zm0 0" fill="#1475cc"/><path d="m380.386719 272.589844c7.964843-12.101563 12.613281-26.578125 12.613281-42.152344 0-42.398438-34.371094-76.769531-76.769531-76.769531-39.722657 0-72.398438 30.171875-76.363281 68.847656-2.632813-.507813-5.34375-.78125-8.121094-.78125-4.558594 0-8.949219.71875-13.066406 2.042969-9.640626-14.953125-26.421876-24.863282-45.535157-24.863282-29.902343 0-54.144531 24.242188-54.144531 54.148438 0 6.886719 1.296875 13.46875 3.644531 19.527344zm0 0" fill="#fac574"/><path d="m393 230.441406c0 15.566406-4.648438 30.046875-12.613281 42.148438h-22.359375c7.960937-12.101563 12.613281-26.582032 12.613281-42.148438 0-38.605468-28.5-70.554687-65.601563-75.964844 3.65625-.535156 7.386719-.8125 11.195313-.8125 42.402344 0 76.765625 34.375 76.765625 76.777344zm0 0" fill="#d8aa64"/><path d="m40.332031 263.820312h434v55.023438h-434zm0 0" fill="#ac5e33"/><path d="m40.332031 368.84375h434v60h-434zm0 0" fill="#ac5e33"/><path d="m40.332031 316.996094h434v53.171875h-434zm0 0" fill="#db885d"/><path d="m40.332031 423.34375h434v53.175781h-434zm0 0" fill="#db885d"/><path d="m49.894531 263.820312v212.699219h-36.652343c-7.308594 0-13.242188-5.929687-13.242188-13.253906v-186.199219c0-7.3125 5.933594-13.246094 13.242188-13.246094zm0 0" fill="#fcd79f"/><path d="m27.527344 263.820312h22.363281v212.703126h-22.363281zm0 0" fill="#fac574"/><path d="m512 277.066406v186.199219c0 7.324219-5.933594 13.253906-13.242188 13.253906h-36.652343v-212.699219h36.652343c7.308594 0 13.242188 5.933594 13.242188 13.246094zm0 0" fill="#fcd79f"/><path d="m512 277.074219v186.199219c0 7.3125-5.933594 13.246093-13.246094 13.246093h-23.632812c7.3125 0 13.25-5.933593 13.25-13.246093v-186.199219c0-7.328125-5.9375-13.25-13.25-13.25h23.632812c7.3125 0 13.246094 5.921875 13.246094 13.25zm0 0" fill="#fac574"/><path d="m256 370.171875c-25.003906 0-45.277344-20.269531-45.277344-45.277344v-61.074219h90.554688v61.074219c0 25.007813-20.273438 45.277344-45.277344 45.277344zm0 0" fill="#fcd79f"/><path d="m301.277344 263.820312v61.070313c0 25.011719-20.273438 45.277344-45.277344 45.277344-3.574219 0-7.046875-.410157-10.382812-1.203125 20.003906-4.679688 34.902343-22.636719 34.902343-44.074219v-61.070313zm0 0" fill="#fac574"/><path d="m264.015625 293.011719h-16.03125c-4.269531 0-7.726563 3.457031-7.726563 7.726562 0 4.265625 3.457032 7.726563 7.726563 7.726563h.289063v17.34375c0 4.265625 3.460937 7.726562 7.726562 7.726562s7.726562-3.460937 7.726562-7.726562v-17.34375h.289063c4.269531 0 7.726563-3.460938 7.726563-7.726563 0-4.269531-3.457032-7.726562-7.726563-7.726562zm0 0" fill="#904d29"/><path d="m306.238281 239.292969c-2.101562 0-4.199219-.855469-5.722656-2.539063-2.925781-3.222656-7.09375-5.070312-11.4375-5.070312-4.347656 0-8.515625 1.847656-11.4375 5.070312-2.867187 3.164063-7.753906 3.402344-10.914063.535156-3.164062-2.863281-3.402343-7.75-.535156-10.910156 5.84375-6.449218 14.1875-10.148437 22.886719-10.148437 8.695313 0 17.039063 3.699219 22.882813 10.148437 2.867187 3.160156 2.628906 8.046875-.535157 10.910156-1.476562 1.34375-3.332031 2.003907-5.1875 2.003907zm0 0" fill="#d8aa64"/><path d="m392.5625 177.324219c0 13.0625-10.589844 23.652343-23.65625 23.652343-13.0625 0-23.652344-10.589843-23.652344-23.652343 0-13.066407 10.589844-23.65625 23.652344-23.65625 13.066406 0 23.65625 10.589843 23.65625 23.65625zm0 0" fill="#00d2b4"/><path d="m392.5625 177.320312c0 13.070313-10.59375 23.652344-23.65625 23.652344-3.410156 0-6.648438-.726562-9.578125-2.03125 8.285156-3.675781 14.058594-11.96875 14.058594-21.621094 0-9.640624-5.773438-17.949218-14.058594-21.625 2.929687-1.304687 6.167969-2.03125 9.578125-2.03125 13.0625 0 23.65625 10.59375 23.65625 23.65625zm0 0" fill="#00b7a0"/><path d="m169.597656 224.320312-18.535156 8.71875c-3.03125 1.425782-6.636719.125-8.0625-2.902343l-13.324219-28.335938c-1.421875-3.027343-.125-6.636719 2.902344-8.0625l18.539063-8.714843c3.027343-1.425782 6.636718-.125 8.0625 2.902343l13.324218 28.335938c1.421875 3.027343.125 6.636719-2.90625 8.058593zm0 0" fill="#f48c99"/><path d="m159.171875 187.925781 13.328125 28.339844c1.425781 3.027344.132812 6.636719-2.894531 8.058594l-14.75 6.9375c3.027343-1.421875 4.316406-5.03125 2.894531-8.058594l-13.328125-28.339844c-1.425781-3.027343-5.023437-4.324219-8.050781-2.902343l14.753906-6.9375c3.027344-1.421876 6.625-.125 8.046875 2.902343zm0 0" fill="#f07382"/></svg>