<svg height="511pt" viewBox="0 -19 511.99931 511" width="511pt" xmlns="http://www.w3.org/2000/svg"><path d="m408.148438 143.414062c-4.855469 0-9.789063-.832031-14.609376-2.585937-10.753906-3.914063-19.34375-11.785156-24.179687-22.15625-4.835937-10.375-5.34375-22.007813-1.429687-32.765625l3.070312-8.441406c8.675781-23.835938-3.65625-50.289063-27.496094-58.964844-23.835937-8.675781-50.289062 3.660156-58.964844 27.496094l-4.820312 13.242187c-1.4375 3.949219-5.804688 5.984375-9.753906 4.550781-3.949219-1.4375-5.988282-5.808593-4.550782-9.757812l4.820313-13.242188c11.546875-31.722656 46.75-48.140624 78.476563-36.59375 31.726562 11.546876 48.140624 46.75 36.59375 78.476563l-3.070313 8.441406c-2.527344 6.933594-2.199219 14.433594.921875 21.121094 3.117188 6.6875 8.652344 11.761719 15.585938 14.285156 14.3125 5.207031 30.195312-2.199219 35.40625-16.511719l10.8125-29.714843c1.441406-3.949219 5.808593-5.984375 9.757812-4.546875s5.988281 5.804687 4.550781 9.753906l-10.816406 29.714844c-6.324219 17.382812-22.796875 28.195312-40.304687 28.199218zm0 0" fill="#fbcc85"/><path d="m367.417969 349.785156c-35.773438 98.292969-144.453125 148.972656-242.742188 113.199219-98.300781-35.785156-148.980469-144.464844-113.199219-242.757813 27.332032-75.097656 97.214844-122.390624 172.519532-124.582031l.050781-.144531 5.558594-15.292969 11.113281-30.527343c3.410156-9.367188 13.75-14.1875 23.121094-10.777344l97.457031 35.46875c9.367187 3.410156 14.1875 13.761718 10.785156 23.117187l-16.734375 45.964844c56.273438 50.074219 79.414063 131.234375 52.070313 206.332031zm0 0" fill="#756f6f"/><path d="m367.425781 349.785156c-24.808593 68.15625-84.667969 113.414063-151.808593 122.832032 52.335937-17.890626 96.394531-58.441407 116.78125-114.457032 26.296874-72.246094 5.890624-150.09375-45.792969-200.484375-3.773438-3.679687-5.039063-9.230469-3.238281-14.183593l20.484374-56.273438c3.40625-9.363281-1.429687-19.714844-10.78125-23.121094l28.226563 10.273438c9.363281 3.40625 14.1875 13.757812 10.78125 23.121094l-16.726563 45.960937c56.269532 50.082031 79.40625 131.238281 52.074219 206.332031zm0 0" fill="#5b5555"/><path d="m261.375 101.894531c-1.125 3.085938-4.039062 5.003907-7.152344 5.003907-.863281 0-1.734375-.140626-2.597656-.457032-21.78125-7.925781-44.472656-11.601562-67.417969-10.941406h-.164062l5.5625-15.292969c22.894531.011719 45.476562 4.019531 67.226562 11.925781 3.945313 1.441407 5.988281 5.816407 4.542969 9.761719zm0 0" fill="#5b5555"/><g fill="#ea576b"><path d="m258.820312 275.277344-15.347656-32.914063c-1.441406-3.085937-5.109375-4.421875-8.195312-2.980469l-35.195313 16.410157-16.414062-35.195313c-1.4375-3.085937-5.105469-4.421875-8.195313-2.984375l-32.910156 15.347657c-3.089844 1.4375-4.425781 5.109374-2.984375 8.195312l16.410156 35.195312-35.195312 16.414063c-3.085938 1.4375-4.421875 5.105469-2.980469 8.195313l15.34375 32.910156c1.441406 3.089844 5.109375 4.421875 8.195312 2.984375l35.195313-16.414063 16.414063 35.199219c1.4375 3.085937 5.109374 4.421875 8.195312 2.980469l32.914062-15.347656c3.085938-1.4375 4.421876-5.105469 2.980469-8.191407l-16.410156-35.199219 35.195313-16.410156c3.085937-1.441406 4.421874-5.109375 2.984374-8.195312zm0 0"/><path d="m474.984375 27.683594c-.867187 0-1.742187-.144532-2.605469-.460938-3.949218-1.4375-5.984375-5.804687-4.546875-9.753906l3.515625-9.664062c1.4375-3.949219 5.808594-5.988282 9.757813-4.550782s5.984375 5.804688 4.546875 9.757813l-3.515625 9.664062c-1.125 3.089844-4.046875 5.007813-7.152344 5.007813zm0 0"/><path d="m504.386719 73.53125c-.867188 0-1.742188-.148438-2.605469-.460938l-9.664062-3.519531c-3.949219-1.4375-5.984376-5.804687-4.546876-9.753906 1.4375-3.953125 5.804688-5.988281 9.753907-4.550781l9.664062 3.515625c3.949219 1.441406 5.988281 5.808593 4.550781 9.757812-1.125 3.089844-4.046874 5.011719-7.152343 5.011719zm0 0"/><path d="m432.65625 47.421875c-.863281 0-1.742188-.148437-2.601562-.460937l-9.667969-3.515626c-3.949219-1.4375-5.984375-5.804687-4.546875-9.757812 1.4375-3.949219 5.804687-5.988281 9.753906-4.550781l9.664062 3.519531c3.953126 1.4375 5.988282 5.804688 4.550782 9.753906-1.125 3.09375-4.042969 5.011719-7.152344 5.011719zm0 0"/><path d="m493.625 44.761719c-2.867188 0-5.613281-1.628907-6.90625-4.398438-1.773438-3.808593-.125-8.335937 3.683594-10.113281l9.320312-4.347656c3.808594-1.777344 8.339844-.128906 10.117188 3.683594 1.773437 3.808593.125 8.335937-3.683594 10.113281l-9.320312 4.347656c-1.039063.484375-2.136719.714844-3.210938.714844zm0 0"/><path d="m424.441406 77.019531c-2.867187 0-5.609375-1.625-6.902344-4.394531-1.777343-3.8125-.128906-8.339844 3.683594-10.117188l9.320313-4.34375c3.808593-1.78125 8.339843-.128906 10.117187 3.679688s.125 8.339844-3.683594 10.117188l-9.320312 4.34375c-1.042969.484374-2.136719.714843-3.214844.714843zm0 0"/><path d="m481.996094 97.96875c-2.867188 0-5.613282-1.628906-6.902344-4.398438l-4.347656-9.320312c-1.777344-3.808594-.128906-8.335938 3.679687-10.113281 3.8125-1.777344 8.339844-.128907 10.117188 3.679687l4.347656 9.320313c1.777344 3.8125.128906 8.339843-3.683594 10.117187-1.039062.484375-2.132812.714844-3.210937.714844zm0 0"/><path d="m449.738281 28.789062c-2.867187 0-5.613281-1.628906-6.902343-4.398437l-4.347657-9.320313c-1.777343-3.8125-.128906-8.339843 3.679688-10.117187 3.8125-1.777344 8.339843-.125 10.117187 3.683594l4.34375 9.320312c1.777344 3.808594.128906 8.339844-3.679687 10.113281-1.039063.488282-2.132813.71875-3.210938.71875zm0 0"/></g></svg>