<svg height="512pt" viewBox="0 -42 512 512" width="512pt" xmlns="http://www.w3.org/2000/svg"><path d="m10.300781 428.261719h491.398438c5.6875 0 10.300781-4.613281 10.300781-10.304688v-115.378906c0-5.6875-4.613281-10.300781-10.300781-10.300781h-491.398438c-5.6875 0-10.300781 4.613281-10.300781 10.300781v115.378906c0 5.691407 4.613281 10.304688 10.300781 10.304688zm0 0" fill="#5592d7"/><path d="m478.0625 352.277344c0-25.667969-99.421875-46.476563-222.0625-46.476563s-222.0625 20.808594-222.0625 46.476563c0 25.667968 99.421875 46.476562 222.0625 46.476562s222.0625-20.808594 222.0625-46.476562zm0 0" fill="#1475cc"/><path d="m452.28125 336.429688c0 32.617187-87.878906 37.738281-196.28125 37.738281s-196.28125-5.121094-196.28125-37.738281c0-32.617188 87.878906-90.035157 196.28125-90.035157s196.28125 57.417969 196.28125 90.035157zm0 0" fill="#fde5c2"/><path d="m452.28125 336.433594c0 13.699218-15.515625 22.550781-41.546875 28.207031 11.382813-5.226563 17.726563-12.003906 17.726563-20.769531 0-32.625-87.882813-90.039063-196.277344-90.039063-29.03125 0-56.589844 4.121094-81.375 10.777344 30.402344-10.898437 66.488281-18.214844 105.191406-18.214844 108.40625 0 196.28125 57.414063 196.28125 90.039063zm0 0" fill="#fbcc85"/><path d="m327.855469 10.152344-63.253907 90.804687-13.820312 19.847657c-18.773438-25.414063-20.269531-60.964844-1.210938-88.335938 0 0 .007813 0 .003907-.007812 17.222656-24.71875 46.523437-36.015626 74.398437-31.476563 4.273438.695313 6.359375 5.613281 3.882813 9.167969zm0 0" fill="#00b7a0"/><path d="m251.550781 120.445312-24.097656-2.046874-110.269531-9.375c-4.316406-.367188-6.765625-5.113282-4.570313-8.847657 14.320313-24.34375 41.738281-39.660156 71.753907-37.113281.003906.007812.007812.003906.007812.003906 33.234375 2.828125 59.621094 26.695313 67.175781 57.378906zm0 0" fill="#009a8d"/><path d="m306.902344 215.128906c-4.324219-15.09375-9.179688-29.109375-14.328125-42h-31.015625c5.515625 12.699219 10.800781 26.71875 15.527344 42zm0 0" fill="#db885d"/><path d="m286.0625 249.128906c2.660156 12.078125 4.929688 24.769532 6.664062 38.113282h28.730469c-1.617187-13.289063-3.730469-25.984376-6.21875-38.113282zm0 0" fill="#db885d"/><path d="m279.21875 143.128906c-7.75-15.699218-15.636719-29.160156-22.917969-40.332031l-23.570312 16.269531c4.542969 7.023438 9.367187 15.058594 14.242187 24.0625zm0 0" fill="#db885d"/><path d="m279.21875 143.128906c-7.75-15.699218-15.636719-29.160156-22.917969-40.332031l-8.820312 6.089844c6.164062 9.867187 12.648437 21.296875 19.039062 34.242187zm0 0" fill="#c86d3d"/><path d="m306.902344 215.128906c-4.324219-15.09375-9.179688-29.109375-14.328125-42h-12.699219c5.148438 12.890625 10.003906 26.90625 14.328125 42zm0 0" fill="#c86d3d"/><path d="m302.535156 249.128906c2.488282 12.128906 4.601563 24.824219 6.21875 38.113282h12.703125c-1.617187-13.289063-3.730469-25.984376-6.21875-38.113282zm0 0" fill="#c86d3d"/><path d="m315.628906 251.042969h-29.136718c-2.832032-13.136719-6.148438-25.527344-9.785157-37.171875h29.84375c3.398438 11.726562 6.460938 24.117187 9.078125 37.171875zm0 0" fill="#ac5e33"/><path d="m293.992188 176.703125h-30.902344c-5.882813-13.90625-12.054688-26.300781-18.09375-37.167969h32.433594c5.664062 11.199219 11.277343 23.589844 16.5625 37.167969zm0 0" fill="#ac5e33"/><path d="m386.046875 113.429688c1.535156 4.050781-1.679687 8.320312-5.996094 7.953124l-116.160156-9.875-18.203125-1.546874c12.621094-28.972657 42.664062-48.042969 75.890625-45.214844 9.488281.808594 18.425781 3.328125 26.519531 7.242187 17.515625 8.449219 31.105469 23.386719 37.949219 41.441407zm0 0" fill="#64e1c5"/><path d="m246.464844 109.597656-10.441406 14.988282-66.628907 95.664062c-2.476562 3.554688-7.816406 3.300781-9.953125-.46875-9.511718-16.804688-12.316406-36.800781-7.625-55.671875 2.160156-8.726563 5.933594-17.214844 11.375-25.03125 19.054688-27.367187 52.921875-38.285156 83.273438-29.480469zm0 0" fill="#00d2b4"/><g fill="#fbcc85"><path d="m323.902344 348.207031c-4.265625 0-7.726563-3.457031-7.726563-7.726562v-.148438c0-4.265625 3.460938-7.726562 7.726563-7.726562 4.269531 0 7.726562 3.460937 7.726562 7.726562v.148438c0 4.269531-3.457031 7.726562-7.726562 7.726562zm0 0"/><path d="m303.5625 332.230469c-4.269531 0-7.726562-3.460938-7.726562-7.726563v-.148437c0-4.269531 3.457031-7.726563 7.726562-7.726563 4.265625 0 7.722656 3.457032 7.722656 7.726563v.148437c.003906 4.265625-3.457031 7.726563-7.722656 7.726563zm0 0"/><path d="m372.925781 336.285156c-4.269531 0-7.726562-3.460937-7.726562-7.726562v-.148438c0-4.269531 3.460937-7.726562 7.726562-7.726562 4.269531 0 7.726563 3.457031 7.726563 7.726562v.148438c0 4.265625-3.460938 7.726562-7.726563 7.726562zm0 0"/></g><path d="m154.195312 408.53125 9.613282-20.234375c2.808594-5.902344 2.050781-12.566406-1.378906-17.605469l11.84375-24.921875-27.3125-12.980469-11.84375 24.917969c-6.070313.523438-11.71875 4.148438-14.523438 10.050781l-19.378906 40.773438zm0 0" fill="#64e1c5"/><path d="m135.945312 408.53125h18.25l9.617188-20.234375c2.808594-5.90625 2.046875-12.5625-1.382812-17.605469l11.84375-24.925781-14.886719-7.074219-11.871094 24.976563c-1.511719 3.183593-1.613281 6.808593-.507813 10.15625 1.378907 4.175781 1.21875 8.863281-.816406 13.148437zm0 0" fill="#00d2b4"/><path d="m174.273438 416.253906h-89.628907c-4.265625 0-7.722656-3.457031-7.722656-7.722656 0-4.269531 3.457031-7.726562 7.722656-7.726562h89.628907c4.265624 0 7.726562 3.457031 7.726562 7.726562 0 4.265625-3.457031 7.722656-7.726562 7.722656zm0 0" fill="#1475cc"/><path d="m165.960938 351.773438-18.40625-8.746094c-6.507813-3.09375-9.277344-10.878906-6.183594-17.386719 3.09375-6.511719 10.878906-9.277344 17.386718-6.183594l18.40625 8.746094c6.507813 3.09375 9.277344 10.878906 6.183594 17.386719-3.09375 6.507812-10.878906 9.277344-17.386718 6.183594zm0 0" fill="#a8f4e6"/><path d="m183.34375 345.59375c-1.546875 3.257812-4.265625 5.566406-7.410156 6.6875-3.144532 1.117188-6.71875 1.035156-9.976563-.511719l-15.121093-7.1875c3.257812 1.550781 6.835937 1.628907 9.976562.511719 3.144531-1.117188 5.863281-3.429688 7.410156-6.6875 3.097656-6.511719.328125-14.296875-6.183594-17.390625l15.117188 7.1875c6.515625 3.09375 9.285156 10.875 6.1875 17.390625zm0 0" fill="#64e1c5"/><path d="m347.316406 297.558594c-6.386718-10.464844-22.222656-17.875-40.761718-17.875-18.539063 0-34.375 7.410156-40.761719 17.875zm0 0" fill="#fde5c2"/><path d="m347.320312 305.285156c-2.601562 0-5.144531-1.316406-6.601562-3.703125-4.304688-7.054687-16.539062-14.171875-34.164062-14.171875-17.628907 0-29.863282 7.117188-34.167969 14.171875-2.222657 3.644531-6.980469 4.792969-10.621094 2.570313-3.644531-2.222656-4.792969-6.976563-2.570313-10.621094 8-13.105469 26.589844-21.574219 47.359376-21.574219 20.765624 0 39.355468 8.46875 47.355468 21.574219 2.222656 3.644531 1.070313 8.398438-2.570312 10.621094-1.257813.765625-2.644532 1.132812-4.019532 1.132812zm0 0" fill="#fbcc85"/><path d="m293.859375 176.570312h-12.703125c-5.285156-13.589843-10.898438-25.980468-16.5625-37.167968h12.699219c5.667969 11.199218 11.28125 23.589844 16.566406 37.167968zm0 0" fill="#9e552e"/><path d="m315.628906 251.042969h-12.695312c-2.617188-13.0625-5.6875-25.445313-9.074219-37.171875h12.691406c3.351563 11.566406 6.429688 23.964844 9.078125 37.171875zm0 0" fill="#9e552e"/></svg>