<svg height="512pt" viewBox="0 -22 512 512" width="512pt" xmlns="http://www.w3.org/2000/svg"><path d="m346.273438 180.347656-21.472657 6.035156-25.050781-6.035156h-91.25l-20 6.035156-22.773438-6.035156c-9.210937 0-15.390624-9.449218-11.703124-17.882812l11.105468-25.355469 6.757813-15.453125 8.519531-19.449219c2.027344-4.644531 6.621094-7.652343 11.691406-7.652343h127.792969c5.082031 0 9.664063 3.007812 11.703125 7.652343l26.375 60.253907c3.695312 8.4375-2.484375 17.886718-11.695312 17.886718zm0 0" fill="#fcd79f"/><path d="m243.214844 266.140625h-180.550782c-9.207031 0-15.390624-9.445313-11.699218-17.882813l26.382812-60.253906c2.027344-4.648437 6.621094-7.644531 11.691406-7.644531h127.792969c5.078125 0 9.664063 2.996094 11.703125 7.644531l9.808594 22.394532 6.757812 15.453124 9.804688 22.40625c3.699219 8.4375-2.480469 17.882813-11.691406 17.882813zm0 0" fill="#fac574"/><path d="m243.21875 266.148438h-9.839844l-34.207031-78.152344c-2.042969-4.636719-6.625-7.636719-11.695313-7.636719h29.367188c5.066406 0 9.652344 3 11.695312 7.636719l26.375 60.265625c3.695313 8.433593-2.484374 17.886719-11.695312 17.886719zm0 0" fill="#e8b76b"/><path d="m449.335938 266.140625h-180.550782c-9.210937 0-15.390625-9.445313-11.703125-17.882813l26.382813-60.253906c2.027344-4.648437 6.625-7.644531 11.691406-7.644531h127.792969c5.082031 0 9.664062 2.996094 11.703125 7.644531l9.808594 22.394532 6.769531 15.453124 9.804687 22.40625c3.691406 8.4375-2.492187 17.882813-11.699218 17.882813zm0 0" fill="#fac574"/><path d="m449.339844 266.148438h-9.84375l-34.207032-78.152344c-2.042968-4.636719-6.625-7.636719-11.695312-7.636719h29.367188c5.070312 0 9.652343 3 11.695312 7.636719l26.378906 60.265625c3.691406 8.433593-2.488281 17.886719-11.695312 17.886719zm0 0" fill="#e8b76b"/><path d="m346.277344 180.351562h-9.839844l-34.207031-78.152343c-2.042969-4.632813-6.625-7.632813-11.695313-7.632813h29.367188c5.070312 0 9.652344 3 11.695312 7.632813l26.378906 60.265625c3.691407 8.4375-2.488281 17.886718-11.699218 17.886718zm0 0" fill="#fac574"/><path d="m47 299.800781h419.332031v168.464844h-419.332031zm0 0" fill="#ac5e33"/><path d="m47 263.273438h419.332031v45.0625h-419.332031zm0 0" fill="#db885d"/><path d="m57.359375 263.269531v204.996094h-44.59375c-7.046875 0-12.765625-5.714844-12.765625-12.773437v-179.457032c0-7.046875 5.71875-12.765625 12.765625-12.765625zm0 0" fill="#898383"/><path d="m34.902344 263.265625h22.457031v204.996094h-22.457031zm0 0" fill="#756f6f"/><path d="m512 276.035156v179.457032c0 7.058593-5.71875 12.773437-12.765625 12.773437h-44.59375v-204.996094h44.597656c7.042969 0 12.761719 5.71875 12.761719 12.765625zm0 0" fill="#898383"/><path d="m512 276.042969v179.453125c0 7.050781-5.71875 12.769531-12.769531 12.769531h-25.75c7.046875 0 12.765625-5.71875 12.765625-12.769531v-179.453125c0-7.0625-5.71875-12.769531-12.765625-12.769531h25.75c7.050781 0 12.769531 5.707031 12.769531 12.769531zm0 0" fill="#756f6f"/><path d="m286.867188 350.042969h-61.734376c-7.054687 0-12.769531-5.714844-12.769531-12.769531v-74.003907h87.273438v74.003907c0 7.050781-5.714844 12.769531-12.769531 12.769531zm0 0" fill="#898383"/><path d="m299.636719 263.265625v74.007813c0 7.046874-5.714844 12.765624-12.773438 12.765624h-24.878906c7.046875 0 12.765625-5.71875 12.765625-12.765624v-74.007813zm0 0" fill="#756f6f"/><path d="m256 314.382812c-4.265625 0-7.726562-3.457031-7.726562-7.726562v-9.335938c0-4.269531 3.460937-7.726562 7.726562-7.726562s7.726562 3.457031 7.726562 7.726562v9.335938c0 4.265625-3.460937 7.726562-7.726562 7.726562zm0 0" fill="#5b5555"/><path d="m235.5 129.382812c0 4.277344-3.460938 7.726563-7.726562 7.726563h-62.644532l6.757813-15.453125h55.886719c4.265624 0 7.726562 3.460938 7.726562 7.726562zm0 0" fill="#fac574"/><path d="m245.101562 225.851562h-60.925781c-4.273437 0-7.726562-3.460937-7.726562-7.726562s3.453125-7.726562 7.726562-7.726562h54.167969zm0 0" fill="#e8b76b"/><path d="m451.230469 225.851562h-40.445313c-4.265625 0-7.726562-3.460937-7.726562-7.726562s3.460937-7.726562 7.726562-7.726562h33.675782zm0 0" fill="#e8b76b"/><path d="m111.140625 402.550781h-65.929687c-5.691407 0-10.304688-4.609375-10.304688-10.300781v-16.824219c0-5.691406 4.613281-10.304687 10.304688-10.304687h65.929687c5.691406 0 10.300781 4.613281 10.300781 10.304687v16.824219c0 5.691406-4.613281 10.300781-10.300781 10.300781zm0 0" fill="#b9acac"/><path d="m466.789062 402.550781h-65.929687c-5.6875 0-10.300781-4.609375-10.300781-10.300781v-16.824219c0-5.691406 4.613281-10.304687 10.300781-10.304687h65.933594c5.6875 0 10.300781 4.613281 10.300781 10.304687v16.824219c0 5.691406-4.613281 10.300781-10.304688 10.300781zm0 0" fill="#b9acac"/><path d="m87.710938 437.203125c-4.269532 0-7.726563-3.457031-7.726563-7.726563v-.117187c0-4.265625 3.457031-7.726563 7.726563-7.726563 4.265624 0 7.722656 3.460938 7.722656 7.726563v.117187c0 4.269532-3.457032 7.726563-7.722656 7.726563zm0 0" fill="#db885d"/><path d="m87.710938 346.039062c-4.269532 0-7.726563-3.457031-7.726563-7.722656v-.121094c0-4.265624 3.457031-7.726562 7.726563-7.726562 4.265624 0 7.722656 3.460938 7.722656 7.726562v.121094c0 4.265625-3.457032 7.722656-7.722656 7.722656zm0 0" fill="#db885d"/><path d="m424.289062 437.203125c-4.265624 0-7.722656-3.457031-7.722656-7.726563v-.117187c0-4.265625 3.457032-7.726563 7.722656-7.726563 4.269532 0 7.726563 3.460938 7.726563 7.726563v.117187c.003906 4.269532-3.457031 7.726563-7.726563 7.726563zm0 0" fill="#db885d"/><path d="m424.289062 346.039062c-4.265624 0-7.722656-3.457031-7.722656-7.722656v-.121094c0-4.265624 3.457032-7.726562 7.722656-7.726562 4.269532 0 7.726563 3.460938 7.726563 7.726562v.121094c.003906 4.265625-3.457031 7.722656-7.726563 7.722656zm0 0" fill="#db885d"/><g fill="#fcd79f"><path d="m332.730469 22.800781c-4.269531 0-7.726563-3.457031-7.726563-7.726562v-7.347657c0-4.265624 3.457032-7.726562 7.726563-7.726562 4.265625 0 7.722656 3.460938 7.722656 7.726562v7.347657c0 4.269531-3.457031 7.726562-7.722656 7.726562zm0 0"/><path d="m332.730469 58.375c-4.269531 0-7.726563-3.460938-7.726563-7.726562v-7.351563c0-4.265625 3.457032-7.726563 7.726563-7.726563 4.265625 0 7.722656 3.460938 7.722656 7.726563v7.351563c0 4.265624-3.457031 7.726562-7.722656 7.726562zm0 0"/><path d="m354.191406 36.914062h-7.351562c-4.265625 0-7.726563-3.460937-7.726563-7.726562s3.460938-7.726562 7.726563-7.726562h7.351562c4.265625 0 7.722656 3.460937 7.722656 7.726562s-3.457031 7.726562-7.722656 7.726562zm0 0"/><path d="m318.617188 36.914062h-7.347657c-4.269531 0-7.726562-3.460937-7.726562-7.726562s3.457031-7.726562 7.726562-7.726562h7.347657c4.269531 0 7.726562 3.460937 7.726562 7.726562s-3.457031 7.726562-7.726562 7.726562zm0 0"/><path d="m391.296875 65.628906c-4.269531 0-7.726563-3.460937-7.726563-7.726562v-7.351563c0-4.265625 3.457032-7.726562 7.726563-7.726562 4.265625 0 7.726563 3.460937 7.726563 7.726562v7.351563c0 4.265625-3.460938 7.726562-7.726563 7.726562zm0 0"/><path d="m391.296875 101.199219c-4.269531 0-7.726563-3.457031-7.726563-7.726563v-7.347656c0-4.269531 3.457032-7.726562 7.726563-7.726562 4.265625 0 7.726563 3.457031 7.726563 7.726562v7.347656c0 4.269532-3.460938 7.726563-7.726563 7.726563zm0 0"/><path d="m412.757812 79.738281h-7.351562c-4.265625 0-7.722656-3.457031-7.722656-7.726562 0-4.265625 3.457031-7.726563 7.722656-7.726563h7.351562c4.265626 0 7.726563 3.460938 7.726563 7.726563 0 4.269531-3.460937 7.726562-7.726563 7.726562zm0 0"/><path d="m377.183594 79.738281h-7.347656c-4.269532 0-7.726563-3.457031-7.726563-7.726562 0-4.265625 3.457031-7.726563 7.726563-7.726563h7.347656c4.269531 0 7.726562 3.460938 7.726562 7.726563 0 4.269531-3.457031 7.726562-7.726562 7.726562zm0 0"/></g><path d="m109.078125 108.445312c-4.265625 0-7.722656-3.457031-7.722656-7.726562v-7.347656c0-4.269532 3.457031-7.726563 7.722656-7.726563 4.269531 0 7.726563 3.457031 7.726563 7.726563v7.347656c0 4.269531-3.457032 7.726562-7.726563 7.726562zm0 0" fill="#fac574"/><path d="m109.078125 144.019531c-4.265625 0-7.722656-3.460937-7.722656-7.726562v-7.351563c0-4.265625 3.457031-7.722656 7.722656-7.722656 4.269531 0 7.726563 3.457031 7.726563 7.722656v7.351563c0 4.265625-3.457032 7.726562-7.726563 7.726562zm0 0" fill="#fac574"/><path d="m130.539062 122.558594h-7.347656c-4.265625 0-7.726562-3.460938-7.726562-7.726563s3.460937-7.726562 7.726562-7.726562h7.347656c4.269532 0 7.726563 3.460937 7.726563 7.726562s-3.457031 7.726563-7.726563 7.726563zm0 0" fill="#fac574"/><path d="m94.96875 122.558594h-7.351562c-4.265626 0-7.726563-3.460938-7.726563-7.726563s3.460937-7.726562 7.726563-7.726562h7.351562c4.265625 0 7.726562 3.460937 7.726562 7.726562s-3.460937 7.726563-7.726562 7.726563zm0 0" fill="#fac574"/><path d="m121.4375 375.421875v16.832031c0 5.6875-4.605469 10.304688-10.300781 10.304688h-18.027344c5.695313 0 10.300781-4.617188 10.300781-10.304688v-16.832031c0-5.6875-4.605468-10.300781-10.300781-10.300781h18.027344c5.695312 0 10.300781 4.613281 10.300781 10.300781zm0 0" fill="#9e9797"/><path d="m477.097656 375.421875v16.832031c0 5.6875-4.617187 10.304688-10.300781 10.304688h-18.03125c5.6875 0 10.304687-4.617188 10.304687-10.304688v-16.832031c0-5.6875-4.617187-10.300781-10.304687-10.300781h18.03125c5.683594 0 10.300781 4.613281 10.300781 10.300781zm0 0" fill="#9e9797"/></svg>