<svg height="511pt" viewBox="0 -72 511.99637 511" width="511pt" xmlns="http://www.w3.org/2000/svg"><path d="m370.214844 279.210938v-164.765626l-98.339844 18.804688-58.484375 53.6875c-2.425781 2.226562-3.804687 5.367188-3.804687 8.660156v24.957032c0 6.488281-5.261719 11.753906-11.753907 11.753906h-29.296875c-2.941406 0-5.777344 1.101562-7.945312 3.09375l-47.734375 43.808594zm0 0" fill="#d77f4f"/><path d="m370.214844 279.210938v-164.765626l-18.378906 3.511719v161.253907zm0 0" fill="#c86d3d"/><path d="m118.859375 273.699219-21.90625 20.105469v15.964843h273.261719v-36.070312zm0 0" fill="#fcd79f"/><path d="m151.777344 302.722656c0 21.710938-17.601563 39.3125-39.3125 39.3125-21.714844 0-39.316406-17.601562-39.316406-39.3125 0-21.714844 17.601562-39.316406 39.316406-39.316406 21.710937 0 39.3125 17.601562 39.3125 39.316406zm0 0" fill="#e7ad8f"/><path d="m151.78125 302.71875c0 21.71875-17.605469 39.3125-39.3125 39.3125-3.984375 0-7.839844-.585938-11.460938-1.691406 16.113282-4.898438 27.855469-19.886719 27.855469-37.621094 0-17.722656-11.742187-32.707031-27.855469-37.621094 3.621094-1.105468 7.476563-1.691406 11.460938-1.691406 21.707031 0 39.3125 17.605469 39.3125 39.3125zm0 0" fill="#e19a77"/><path d="m403.050781 302.722656c0 21.710938-17.601562 39.3125-39.3125 39.3125-21.710937 0-39.3125-17.601562-39.3125-39.3125 0-21.714844 17.601563-39.316406 39.3125-39.316406 21.710938 0 39.3125 17.601562 39.3125 39.316406zm0 0" fill="#e7ad8f"/><path d="m403.050781 302.71875c0 21.71875-17.605469 39.3125-39.3125 39.3125-3.984375 0-7.839843-.597656-11.460937-1.691406 16.125-4.910156 27.855468-19.898438 27.855468-37.621094s-11.730468-32.707031-27.855468-37.621094c3.621094-1.09375 7.476562-1.691406 11.460937-1.691406 21.707031 0 39.3125 17.605469 39.3125 39.3125zm0 0" fill="#e19a77"/><path d="m295.429688 241.355469c-8.199219 0-16.394532-3.121094-22.640626-9.363281-12.480468-12.484376-12.480468-32.796876 0-45.28125 3.019532-3.015626 7.910157-3.015626 10.929688 0 3.015625 3.019531 3.015625 7.910156 0 10.929687-6.457031 6.457031-6.457031 16.964844 0 23.425781 6.457031 6.457032 16.96875 6.457032 23.425781 0 6.457031-6.460937 6.457031-16.96875 0-23.425781-3.019531-3.019531-3.019531-7.910156 0-10.929687 3.015625-3.015626 7.90625-3.015626 10.925781 0 12.484376 12.484374 12.484376 32.796874 0 45.28125-6.242187 6.242187-14.441406 9.363281-22.640624 9.363281zm0 0" fill="#5b5555"/><path d="m495.238281 101.042969-369.003906 71.390625c-32.835937 6.351562-64.347656-15.9375-69.292969-49.015625-4.941406-33.078125 18.675782-63.609375 51.933594-67.136719l373.753906-39.617188zm0 0" fill="#756f6f"/><path d="m495.246094 101.046875-369.011719 71.390625c-32.839844 6.347656-64.347656-15.941406-69.289063-49.015625-.433593-2.9375-.652343-5.863281-.65625-8.738281 0-3.636719.335938-7.210938.984376-10.691406 5.902343 31.953124 36.789062 53.199218 68.949218 46.988281l365.898438-70.792969zm0 0" fill="#5b5555"/><path d="m131.96875 149.863281c-1.273438 8.054688-3.371094 15.671875-6.179688 22.648438-32.683593 6.066406-63.933593-16.167969-68.84375-49.09375-.996093-6.640625-.832031-13.183594.316407-19.429688h.011719c4.457031-24.027343 23.730468-43.589843 49.0625-47.375.6875-.101562 1.378906-.199219 2.089843-.269531 11.660157 14.417969 20.273438 33.800781 23.570313 55.855469 1.96875 13.101562 1.851562 25.867187-.027344 37.664062zm0 0" fill="#9e9797"/><path d="m131.96875 149.863281c-1.273438 8.054688-3.371094 15.671875-6.179688 22.648438-32.683593 6.066406-63.933593-16.167969-68.84375-49.09375-.996093-6.640625-.832031-13.183594.316407-19.429688h.011719c5.898437 31.957031 36.789062 53.199219 68.949218 46.992188zm0 0" fill="#898383"/><path d="m497.921875 116.941406c-9.019531 1.347656-17.425781-4.871094-18.773437-13.894531l-12.492188-83.59375c-1.347656-9.019531 4.871094-17.421875 13.890625-18.769531 9.019531-1.351563 17.425781 4.871094 18.773437 13.890625l12.492188 83.59375c1.347656 9.019531-4.871094 17.425781-13.890625 18.773437zm0 0" fill="#fcd79f"/><path d="m508.976562 79.210938 2.832032 18.960937c1.347656 9.015625-4.863282 17.425781-13.890625 18.773437-9.019531 1.347657-17.417969-4.875-18.765625-13.890624l-2.832032-18.964844c1.347657 9.027344 9.746094 15.242187 18.761719 13.894531 9.027344-1.351563 15.242188-9.746094 13.894531-18.773437zm0 0" fill="#fac574"/><path d="m370.355469 139.785156c-9.019531 1.347656-17.425781-4.871094-18.773438-13.894531l-13.597656-90.984375c-1.347656-9.019531 4.871094-17.425781 13.890625-18.773438 9.019531-1.347656 17.425781 4.871094 18.773438 13.894532l13.597656 90.984375c1.347656 9.019531-4.871094 17.425781-13.890625 18.773437zm0 0" fill="#fcd79f"/><path d="m381.410156 102.054688 2.832032 18.949218c1.351562 9.027344-4.875 17.429688-13.890626 18.777344-9.015624 1.347656-17.425781-4.867188-18.773437-13.894531l-2.832031-18.949219c1.347656 9.015625 9.757812 15.238281 18.773437 13.890625s15.238281-9.757813 13.890625-18.773437zm0 0" fill="#fac574"/><path d="m239.644531 166.875c-9.019531 1.347656-17.425781-4.871094-18.773437-13.890625l-15.808594-105.769531c-1.347656-9.019532 4.871094-17.425782 13.894531-18.773438 9.019531-1.347656 17.425781 4.871094 18.773438 13.890625l15.804687 105.769531c1.347656 9.019532-4.871094 17.425782-13.890625 18.773438zm0 0" fill="#fcd79f"/><path d="m250.703125 129.152344 2.832031 18.949218c1.347656 9.019532-4.875 17.425782-13.894531 18.773438-9.015625 1.351562-17.425781-4.875-18.773437-13.890625l-2.832032-18.949219c1.347656 9.015625 9.757813 15.238282 18.773438 13.890625 9.019531-1.347656 15.242187-9.757812 13.894531-18.773437zm0 0" fill="#fac574"/><path d="m63.039062 127.21875c0 17.40625-14.113281 31.515625-31.519531 31.515625s-31.519531-14.109375-31.519531-31.515625c0-17.410156 14.113281-31.519531 31.519531-31.519531s31.519531 14.109375 31.519531 31.519531zm0 0" fill="#756f6f"/><path d="m36.175781 158.386719c-7.933593 1.191406-15.617187-.691407-21.855469-4.757813 1.320313-.03125 2.660157-.132812 3.996094-.339844 17.214844-2.566406 29.082032-18.613281 26.519532-35.828124-1.386719-9.277344-6.6875-17.003907-13.972657-21.757813 15.636719-.347656 29.449219 10.984375 31.828125 26.859375 2.574219 17.210938-9.292968 33.25-26.515625 35.824219zm0 0" fill="#5b5555"/><path d="m112.464844 310.449219c-4.269532 0-7.726563-3.460938-7.726563-7.726563v-.136718c0-4.265626 3.457031-7.722657 7.726563-7.722657 4.265625 0 7.722656 3.457031 7.722656 7.722657v.136718c0 4.265625-3.457031 7.726563-7.722656 7.726563zm0 0" fill="#c86d3d"/><path d="m425.433594 354.75c-2.988282 3.339844-6.40625 6.058594-10.105469 8.128906-14.296875 8.023438-32.6875 6.542969-45.605469-4.984375-16.246094-14.507812-17.660156-39.449219-3.144531-55.707031 12.558594-14.082031 32.957031-17.019531 48.75-8.117188 2.441406 1.371094 4.78125 3.019532 6.953125 4.964844 16.257812 14.519532 17.667969 39.460938 3.152344 55.714844zm0 0" fill="#756f6f"/><path d="m425.433594 354.75c-2.988282 3.339844-6.40625 6.058594-10.105469 8.128906-16.347656-19.667968-16.6875-48.707031 0-68.808594 2.441406 1.371094 4.78125 3.019532 6.953125 4.964844 16.257812 14.519532 17.667969 39.460938 3.152344 55.714844zm0 0" fill="#5b5555"/><path d="m425.433594 354.746094c-9.445313 10.574218-23.300782 14.867187-36.304688 12.578125 8.421875-1.480469 16.429688-5.703125 22.566406-12.578125 14.515626-16.25 13.101563-41.195313-3.148437-55.707032-5.679687-5.070312-12.417969-8.199218-19.40625-9.425781 11.488281-2.023437 23.761719 1.046875 33.144531 9.425781 16.25 14.511719 17.664063 39.457032 3.148438 55.707032zm0 0" fill="#5b5555"/><path d="m496.246094 328.46875c0 21.789062-17.664063 39.453125-39.457032 39.453125-21.789062 0-39.453124-17.664063-39.453124-39.453125 0-21.792969 17.664062-39.457031 39.453124-39.457031 21.792969 0 39.457032 17.664062 39.457032 39.457031zm0 0" fill="#756f6f"/><path d="m486.222656 354.746094c-9.445312 10.574218-23.304687 14.867187-36.308594 12.578125 8.425782-1.480469 16.433594-5.703125 22.570313-12.578125 14.511719-16.25 13.101563-41.195313-3.152344-55.707032-5.679687-5.070312-12.417969-8.199218-19.402343-9.425781 11.488281-2.023437 23.761718 1.046875 33.140624 9.425781 16.25 14.511719 17.664063 39.457032 3.152344 55.707032zm0 0" fill="#5b5555"/><path d="m91.882812 328.46875c0 21.789062-17.664062 39.453125-39.453124 39.453125-21.792969 0-39.457032-17.664063-39.457032-39.453125 0-21.792969 17.664063-39.457031 39.457032-39.457031 21.789062 0 39.453124 17.664062 39.453124 39.457031zm0 0" fill="#756f6f"/><path d="m81.859375 354.746094c-9.445313 10.574218-23.304687 14.867187-36.308594 12.578125 8.425781-1.480469 16.433594-5.703125 22.570313-12.578125 14.515625-16.25 13.101562-41.195313-3.152344-55.707032-5.679688-5.070312-12.417969-8.199218-19.402344-9.425781 11.488282-2.023437 23.761719 1.046875 33.140625 9.425781 16.253907 14.511719 17.664063 39.457032 3.152344 55.707032zm0 0" fill="#5b5555"/></svg>