<svg height="512.001pt" viewBox="0 0 512.001 512.001" width="512.001pt" xmlns="http://www.w3.org/2000/svg"><path d="m57.714844 347.425781c-5.691406 0-10.304688-4.613281-10.304688-10.300781v-76.464844c0-28.890625 23.421875-52.3125 52.316406-52.3125h18.765626v78.296875c0 33.570313-27.210938 60.78125-60.777344 60.78125zm0 0" fill="#009a8d"/><path d="m118.488281 208.347656v78.292969c0 33.574219-27.207031 60.78125-60.78125 60.78125-2.140625 0-4.128906-.660156-5.777343-1.773437 26.515624-6.53125 46.171874-30.472657 46.171874-59.007813v-78.261719c.535157-.023437 1.082032-.03125 1.628907-.03125zm0 0" fill="#007d73"/><path d="m12.316406 181.097656c0-4.417968 3.585938-8.003906 8.003906-8.003906h66.59375c22.445313 0 40.636719 18.195312 40.636719 40.636719v14.578125h-68.019531c-26.074219 0-47.214844-21.136719-47.214844-47.210938zm0 0" fill="#00b7a0"/><path d="m78.839844 287.441406c-.191406 0-.386719-.007812-.582032-.023437-4.257812-.316407-7.449218-4.023438-7.128906-8.277344 1.84375-24.714844 18.875-32.128906 27.617188-32.59375l.824218 15.429687.128907-.007812c-1.980469.179688-11.9375 1.898438-13.164063 18.320312-.300781 4.058594-3.691406 7.152344-7.695312 7.152344zm0 0" fill="#007d73"/><path d="m104.148438 208.742188h-25.316407c-4.265625 0-7.726562-3.460938-7.726562-7.726563 0-4.269531 3.460937-7.726563 7.726562-7.726563h25.316407c4.269531 0 7.726562 3.457032 7.726562 7.726563 0 4.265625-3.457031 7.726563-7.726562 7.726563zm0 0" fill="#009a8d"/><path d="m500.011719 120.894531c-15.988281 15.988281-41.910157 15.988281-57.898438 0-2.976562-2.96875-5.378906-6.285156-7.242187-9.808593l-323.785156 323.785156c3.523437 1.863281 6.839843 4.265625 9.804687 7.242187 15.988281 15.988281 15.988281 41.90625 0 57.894531-15.988281 15.988282-41.90625 15.988282-57.894531 0-11.03125-11.03125-14.441406-26.785156-10.261719-40.742187-13.957031 4.179687-29.710937.773437-40.742187-10.261719-15.988282-15.988281-15.988282-41.90625 0-57.894531 15.988281-15.988281 41.90625-15.988281 57.894531 0 2.976562 2.964844 5.378906 6.28125 7.242187 9.804687l323.785156-323.785156c-3.519531-1.863281-6.839843-4.265625-9.804687-7.242187-15.988281-15.988281-15.988281-41.90625 0-57.894531 15.988281-15.988282 41.90625-15.988282 57.894531 0 11.035156 11.03125 14.445313 26.785156 10.261719 40.742187 13.960937-4.183594 29.710937-.773437 40.746094 10.261719 15.984375 15.988281 15.984375 41.90625 0 57.898437zm0 0" fill="#cdbfbb"/><path d="m169.269531 376.6875v-16.503906h-20.714843c-7.46875 0-14.558594-3.234375-19.429688-8.890625-.371094-.433594-.730469-.855469-1.082031-1.289063l235.953125-235.953125c12.269531 10.394531 23.042968 22.511719 31.933594 35.976563zm0 0" fill="#b9acac"/><path d="m500.011719 449.003906c-11.035157 11.035156-26.785157 14.445313-40.746094 10.261719 4.183594 13.960937.773437 29.710937-10.261719 40.746094-15.988281 15.984375-41.90625 15.984375-57.894531 0-15.988281-15.988281-15.988281-41.910157 0-57.898438 2.964844-2.976562 6.285156-5.378906 9.804687-7.242187l-323.78125-323.785156c-1.867187 3.523437-4.265624 6.839843-7.242187 9.804687-15.988281 15.988281-41.910156 15.988281-57.898437 0-15.988282-15.988281-15.988282-41.90625 0-57.894531 11.035156-11.03125 26.785156-14.441406 40.746093-10.261719-4.183593-13.957031-.773437-29.710937 10.257813-40.742187 15.988281-15.988282 41.910156-15.988282 57.898437 0 15.988281 15.988281 15.988281 41.90625 0 57.894531-2.96875 2.976562-6.285156 5.378906-9.808593 7.242187l323.785156 323.785156c1.867187-3.523437 4.265625-6.839843 7.242187-9.804687 15.988281-15.988281 41.910157-15.988281 57.898438 0 15.984375 15.988281 15.984375 41.90625 0 57.894531zm0 0" fill="#cdbfbb"/><path d="m383.96875 350.015625c-.359375.433594-.730469.863281-1.101562 1.296875-4.871094 5.636719-11.949219 8.871094-19.417969 8.871094h-20.71875v16.503906l-226.761719-226.765625c8.871094-13.472656 19.636719-25.597656 31.925781-35.984375zm0 0" fill="#b9acac"/><path d="m290.15625 152.554688c-29.296875 7.074218-58.378906 15.277343-86.984375 24.777343-14.296875 4.75-28.484375 9.828125-42.558594 15.210938-14.023437 5.363281-27.652343 10.933593-39.132812 15.90625-5.488281 2.378906-10.949219 4.8125-16.394531 7.277343-1.460938 8.492188-2.230469 17.222657-2.230469 26.128907 0 38.230469 14.019531 73.183593 37.1875 100.023437 2.132812 2.472656 5.246093 3.882813 8.511719 3.882813h35.136718v86.214843c0 7.582032 6.152344 13.742188 13.742188 13.742188 4.113281 0 7.800781-1.8125 10.3125-4.667969 4.925781-5.59375 11.808594-9.074219 19.265625-9.074219h57.976562c7.460938 0 14.339844 3.480469 19.265625 9.074219 2.515625 2.855469 6.203125 4.667969 10.3125 4.667969 3.800782 0 7.230469-1.542969 9.714844-4.027344 2.492188-2.484375 4.027344-5.925781 4.027344-9.714844v-86.214843h35.140625c3.253906 0 6.367187-1.410157 8.496093-3.875 23.355469-27.050781 37.417969-62.347657 37.191407-100.9375-.226563-38.808594-15.082031-74.316407-39.300781-101.261719-26.957032 1.363281-51.902344 6.15625-79.679688 12.867188zm0 0" fill="#efe2dd"/><path d="m352.324219 141.058594c23.496093 26.773437 37.859375 61.734375 38.089843 99.890625.214844 38.589843-13.839843 73.894531-37.195312 100.9375-2.136719 2.464843-5.25 3.878906-8.507812 3.878906h18.738281c3.257812 0 6.371093-1.414063 8.496093-3.878906 23.359376-27.042969 37.417969-62.347657 37.195313-100.9375-.226563-38.8125-15.082031-74.316407-39.300781-101.261719-5.917969.296875-11.742188.757812-17.515625 1.371094zm0 0" fill="#d8cdca"/><path d="m328.308594 345.765625v86.203125c0 7.597656-6.148438 13.746094-13.734375 13.746094h-.011719c-3.617188 0-6.914062-1.40625-9.363281-3.699219.113281-.101563.238281-.210937.347656-.324219 2.484375-2.484375 4.023437-5.925781 4.023437-9.722656v-86.203125zm0 0" fill="#d8cdca"/><path d="m376.101562 147.101562c-5.699218.667969-11.394531 1.378907-17.082031 2.132813-11.691406 1.542969-23.363281 3.285156-34.996093 5.253906-5.449219.925781-10.886719 1.894531-16.328126 2.925781-7.160156 1.347657-14.316406 2.8125-21.457031 4.386719-54.476562 11.929688-108.054687 30.277344-156.074219 58.773438-9.3125 5.53125-18.417968 11.464843-27.257812 17.78125.546875-24.40625 6.800781-47.410157 17.492188-67.714844 3.925781-7.480469 8.46875-14.597656 13.546874-21.285156 26.207032-34.539063 66.746094-57.605469 112.765626-60.367188 3.417968-.207031 6.890624-.300781 10.382812-.277343 8.550781.0625 16.9375.832031 25.105469 2.253906 8.960937 1.558594 17.65625 3.90625 26.011719 6.964844 26.929687 9.839843 50.386718 27.054687 67.890624 49.171874zm0 0" fill="#00d2b4"/><path d="m376.105469 147.105469c-5.699219.664062-11.398438 1.371093-17.085938 2.125-26.234375-34.375-66.644531-57.429688-112.3125-60.238281 3.425781-.214844 6.890625-.304688 10.386719-.28125 48.105469.335937 91.113281 23.144531 119.011719 58.394531zm0 0" fill="#00b7a0"/><path d="m216.347656 353.496094c0 4.265625-3.460937 7.726562-7.726562 7.726562h-24.929688v-15.453125h24.929688c4.265625 0 7.726562 3.453125 7.726562 7.726563zm0 0" fill="#d8cdca"/><path d="m328.308594 345.769531v15.453125h-24.929688c-4.265625 0-7.726562-3.460937-7.726562-7.726562 0-4.273438 3.460937-7.722656 7.726562-7.722656h24.929688zm0 0" fill="#d8cdca"/><path d="m274.734375 323.128906c0 16.105469-8.386719 19.046875-18.734375 19.046875-10.34375 0-18.734375-2.941406-18.734375-19.046875 0-16.105468 8.386719-39.28125 18.734375-39.28125s18.734375 23.175782 18.734375 39.28125zm0 0" fill="#756f6f"/><path d="m274.738281 323.128906c0 16.105469-8.394531 19.050782-18.738281 19.050782-2.953125 0-5.753906-.234376-8.238281-.964844 6.207031-1.800782 10.476562-6.589844 10.476562-18.085938 0-11.5-4.269531-26.609375-10.488281-34.308594 2.496094-3.078124 5.296875-4.976562 8.25-4.976562 10.34375 0 18.738281 23.175781 18.738281 39.285156zm0 0" fill="#5b5555"/><path d="m324.023438 154.488281c-5.449219.925781-10.886719 1.894531-16.328126 2.925781-7.160156 1.347657-14.316406 2.8125-21.457031 4.386719-106.492187-15.359375-156.042969 5.007813-156.578125 5.191407-2.265625.765624-5.644531 2.113281-9.261718 3.648437 3.925781-7.480469 8.46875-14.597656 13.546874-21.285156 21.832032-6.078125 78.5-16.523438 175.089844.445312 2.019532.347657 8.683594 2.296875 14.988282 4.6875zm0 0" fill="#00b7a0"/><path d="m308.210938 97.929688c-4.84375 1.628906-8.921876 2.882812-10.238282 3.316406-32.234375 10.714844-75.070312 51.058594-75.503906 51.46875-1.492188 1.410156-3.410156 2.113281-5.316406 2.113281-2.039063 0-4.089844-.804687-5.601563-2.414063-2.9375-3.097656-2.804687-7.980468.285157-10.917968 1.671874-1.585938 37.367187-35.210938 70.363281-50.53125 8.960937 1.558594 17.65625 3.90625 26.011719 6.964844zm0 0" fill="#00b7a0"/><g fill="#756f6f"><path d="m225.640625 402.734375c-4.265625 0-7.726563-3.460937-7.726563-7.726563v-22.105468c0-4.269532 3.460938-7.726563 7.726563-7.726563s7.726563 3.457031 7.726563 7.726563v22.105468c0 4.265626-3.457032 7.726563-7.726563 7.726563zm0 0"/><path d="m256 402.734375c-4.265625 0-7.726562-3.460937-7.726562-7.726563v-22.105468c0-4.269532 3.460937-7.726563 7.726562-7.726563 4.269531 0 7.726562 3.457031 7.726562 7.726563v22.105468c0 4.265626-3.457031 7.726563-7.726562 7.726563zm0 0"/><path d="m286.359375 402.734375c-4.265625 0-7.722656-3.460937-7.722656-7.726563v-22.105468c0-4.269532 3.457031-7.726563 7.722656-7.726563 4.269531 0 7.726563 3.457031 7.726563 7.726563v22.105468c0 4.265626-3.457032 7.726563-7.726563 7.726563zm0 0"/><path d="m346.488281 265.742188c0 15.128906-12.265625 27.390624-27.390625 27.390624-15.128906 0-27.390625-12.261718-27.390625-27.390624 0-15.125 12.261719-27.390626 27.390625-27.390626 15.125 0 27.390625 12.265626 27.390625 27.390626zm0 0"/></g><path d="m346.488281 265.742188c0 15.128906-12.261719 27.390624-27.390625 27.390624-2.671875 0-5.261718-.378906-7.695312-1.105468 11.378906-3.3125 19.691406-13.824219 19.691406-26.285156 0-12.457032-8.3125-22.96875-19.691406-26.285157 2.433594-.722656 5.023437-1.105469 7.695312-1.105469 15.128906 0 27.390625 12.261719 27.390625 27.390626zm0 0" fill="#5b5555"/><path d="m220.296875 265.742188c0 15.128906-12.265625 27.390624-27.390625 27.390624-15.128906 0-27.390625-12.261718-27.390625-27.390624 0-15.125 12.261719-27.390626 27.390625-27.390626 15.125 0 27.390625 12.265626 27.390625 27.390626zm0 0" fill="#756f6f"/><path d="m220.296875 265.742188c0 15.128906-12.261719 27.390624-27.390625 27.390624-2.671875 0-5.261719-.378906-7.695312-1.105468 11.378906-3.3125 19.691406-13.824219 19.691406-26.285156 0-12.457032-8.3125-22.96875-19.691406-26.285157 2.433593-.722656 5.023437-1.105469 7.695312-1.105469 15.128906 0 27.390625 12.261719 27.390625 27.390626zm0 0" fill="#5b5555"/></svg>