<svg height="512pt" viewBox="0 -7 512.00011 512" width="512pt" xmlns="http://www.w3.org/2000/svg"><path d="m511.988281 187.816406c-.082031 2.269532-.90625 4.503906-2.449219 6.335938l-245.78125 281.707031c-1.667968 1.855469-3.828124 2.960937-6.089843 3.324219l26.980469-167.902344 60.539062-123.464844 79.3125-12zm0 0" fill="#009a8d"/><path d="m511.988281 187.816406c-.082031 2.269532-.90625 4.503906-2.449219 6.335938l-245.78125 281.707031c-1.667968 1.855469-3.828124 2.960937-6.089843 3.324219l10.644531-35.445313.011719-.007812 223.28125-255.914063zm0 0" fill="#008c80"/><g fill="#a8f4e6"><path d="m114.585938 423.15625c-4.320313 0-7.820313-3.5-7.820313-7.816406v-7.441406c0-4.316407 3.5-7.816407 7.820313-7.816407 4.316406 0 7.816406 3.5 7.816406 7.816407v7.441406c0 4.316406-3.5 7.816406-7.816406 7.816406zm0 0"/><path d="m114.585938 459.15625c-4.320313 0-7.820313-3.5-7.820313-7.820312v-7.4375c0-4.316407 3.5-7.816407 7.820313-7.816407 4.316406 0 7.816406 3.5 7.816406 7.816407v7.4375c0 4.320312-3.5 7.820312-7.816406 7.820312zm0 0"/><path d="m136.304688 437.4375h-7.441407c-4.316406 0-7.816406-3.5-7.816406-7.816406 0-4.320313 3.5-7.820313 7.816406-7.820313h7.441407c4.316406 0 7.816406 3.5 7.816406 7.820313 0 4.316406-3.5 7.816406-7.816406 7.816406zm0 0"/><path d="m100.304688 437.4375h-7.4375c-4.320313 0-7.820313-3.5-7.820313-7.816406 0-4.320313 3.5-7.820313 7.820313-7.820313h7.4375c4.316406 0 7.816406 3.5 7.816406 7.820313 0 4.316406-3.5 7.816406-7.816406 7.816406zm0 0"/></g><path d="m377.945312 23.074219c-4.316406 0-7.816406-3.5-7.816406-7.816407v-7.4375c0-4.320312 3.5-7.820312 7.816406-7.820312 4.320313 0 7.820313 3.5 7.820313 7.820312v7.4375c0 4.316407-3.5 7.816407-7.820313 7.816407zm0 0" fill="#00d2b4"/><path d="m377.945312 59.074219c-4.316406 0-7.816406-3.5-7.816406-7.816407v-7.441406c0-4.316406 3.5-7.816406 7.816406-7.816406 4.320313 0 7.820313 3.5 7.820313 7.816406v7.441406c0 4.316407-3.5 7.816407-7.820313 7.816407zm0 0" fill="#00d2b4"/><path d="m399.664062 37.355469h-7.4375c-4.316406 0-7.820312-3.5-7.820312-7.816407 0-4.320312 3.503906-7.820312 7.820312-7.820312h7.4375c4.316407 0 7.820313 3.5 7.820313 7.820312 0 4.316407-3.503906 7.816407-7.820313 7.816407zm0 0" fill="#00d2b4"/><path d="m363.667969 37.355469h-7.441407c-4.316406 0-7.816406-3.5-7.816406-7.816407 0-4.320312 3.5-7.820312 7.816406-7.820312h7.441407c4.316406 0 7.816406 3.5 7.816406 7.820312 0 4.316407-3.5 7.816407-7.816406 7.816407zm0 0" fill="#00d2b4"/><path d="m175.578125 462.875c-4.316406 0-7.820313-3.5-7.820313-7.820312v-7.4375c0-4.316407 3.503907-7.820313 7.820313-7.820313 4.320313 0 7.820313 3.503906 7.820313 7.820313v7.4375c0 4.320312-3.5 7.820312-7.820313 7.820312zm0 0" fill="#64e1c5"/><path d="m175.578125 498.875c-4.316406 0-7.820313-3.503906-7.820313-7.820312v-7.4375c0-4.320313 3.503907-7.820313 7.820313-7.820313 4.320313 0 7.820313 3.5 7.820313 7.820313v7.4375c0 4.316406-3.5 7.820312-7.820313 7.820312zm0 0" fill="#64e1c5"/><path d="m197.296875 477.15625h-7.4375c-4.320313 0-7.820313-3.503906-7.820313-7.820312 0-4.316407 3.5-7.820313 7.820313-7.820313h7.4375c4.316406 0 7.820313 3.503906 7.820313 7.820313 0 4.316406-3.503907 7.820312-7.820313 7.820312zm0 0" fill="#64e1c5"/><path d="m161.296875 477.15625h-7.4375c-4.316406 0-7.816406-3.503906-7.816406-7.820312 0-4.316407 3.5-7.820313 7.816406-7.820313h7.4375c4.320313 0 7.820313 3.503906 7.820313 7.820313 0 4.316406-3.5 7.820312-7.820313 7.820312zm0 0" fill="#64e1c5"/><path d="m254.332031 479.1875c-2.28125-.371094-4.472656-1.5-6.140625-3.390625l-27.960937-32.050781-217.667969-249.488282c-1.613281-1.851562-2.460938-4.128906-2.5507812-6.441406l89.9882812-12 76.8125 12 49.1875 105.621094zm0 0" fill="#a8f4e6"/><path d="m254.332031 479.1875c-2.28125-.371094-4.472656-1.5-6.140625-3.390625l-27.960937-32.050781-76.871094-255.929688h23.453125l49.1875 105.621094zm0 0" fill="#64e1c5"/><path d="m433.570312 83.898438-20.507812 55.53125-67.875 48.386718-56.726562-49.792968-32.449219-55.0625-.011719-.011719h173.246094c1.511718 0 2.988281.332031 4.324218.949219zm0 0" fill="#64e1c5"/><path d="m433.570312 83.898438-11.507812 13.53125-76.875 90.386718-11.726562-13.792968 77.457031-91.074219h18.328125c1.511718 0 2.988281.332031 4.324218.949219zm0 0" fill="#00d2b4"/><path d="m256 82.949219-30.523438 58.46875-58.664062 46.390625-56.605469-46.972656-31.777343-56.9375c1.332031-.621094 2.8125-.953126 4.332031-.953126h173.238281zm0 0" fill="#a8f4e6"/><path d="m256.007812 82.949219-89.1875 104.867187-11.726562-13.792968 77.457031-91.074219zm0 0" fill="#64e1c5"/><path d="m345.191406 187.816406-76.871094 255.910156-.011718.011719-10.636719 35.449219c-1.109375.179688-2.230469.179688-3.339844 0l-10.0625-33.492188-77.457031-257.878906 87.519531-15zm0 0" fill="#00d2b4"/><path d="m345.1875 187.816406-76.863281 255.914063-.011719.007812-10.644531 35.445313c-1.101563.175781-2.230469.175781-3.335938 0l-10.058593-33.484375 77.457031-257.882813zm0 0" fill="#00b7a0"/><path d="m345.191406 187.808594h-178.378906l89.1875-104.859375zm0 0" fill="#00b7a0"/><path d="m345.1875 187.816406h-23.457031l-77.457031-91.074218 11.726562-13.792969zm0 0" fill="#009a8d"/><path d="m166.8125 187.808594v.007812h-166.8007812c-.109375-2.359375.5976562-4.757812 2.1210932-6.75l64.347657-83.636718 8.019531-10.410157c1.050781-1.371093 2.402344-2.433593 3.929688-3.121093zm0 0" fill="#64e1c5"/><path d="m166.8125 187.816406h-23.453125l-76.875-90.386718 8.015625-10.414063c1.054688-1.367187 2.398438-2.429687 3.929688-3.117187zm0 0" fill="#00d2b4"/><path d="m511.988281 187.816406h-166.800781l76.875-90.386718 11.507812-13.53125c1.53125.6875 2.878907 1.75 3.929688 3.117187l72.371094 94.054687c1.523437 1.992188 2.230468 4.386719 2.117187 6.746094zm0 0" fill="#00b7a0"/><path d="m511.988281 187.816406h-20.382812l-69.542969-90.386718 11.507812-13.53125c1.53125.6875 2.875 1.75 3.929688 3.117187l72.371094 94.054687c1.523437 1.992188 2.230468 4.386719 2.117187 6.746094zm0 0" fill="#009a8d"/></svg>