<svg height="512pt" viewBox="0 0 512 512" width="512pt" xmlns="http://www.w3.org/2000/svg"><path d="m256 4.550781c-138.871094 0-251.449219 112.578125-251.449219 251.449219s112.578125 251.449219 251.449219 251.449219 251.449219-112.578125 251.449219-251.449219-112.578125-251.449219-251.449219-251.449219zm0 440.058594c-104.160156 0-188.609375-84.449219-188.609375-188.609375s84.449219-188.609375 188.609375-188.609375 188.609375 84.449219 188.609375 188.609375-84.449219 188.609375-188.609375 188.609375zm0 0" fill="#fbcc85"/><path d="m256 46.550781c-115.488281 0-209.449219 93.960938-209.449219 209.449219s93.960938 209.449219 209.449219 209.449219 209.449219-93.960938 209.449219-209.449219-93.960938-209.449219-209.449219-209.449219zm0 398.058594c-104.160156 0-188.609375-84.449219-188.609375-188.609375s84.449219-188.609375 188.609375-188.609375 188.609375 84.449219 188.609375 188.609375-84.449219 188.609375-188.609375 188.609375zm0 0" fill="#e8b76b"/><path d="m451.289062 256c0 107.855469-87.433593 195.289062-195.289062 195.289062s-195.289062-87.433593-195.289062-195.289062 87.433593-195.289062 195.289062-195.289062 195.289062 87.433593 195.289062 195.289062zm0 0" fill="#fde5c2"/><path d="m256 423.957031c-92.613281 0-167.957031-75.34375-167.957031-167.957031 0-1.066406.011719-2.140625.03125-3.191406.816406-44.15625 18.644531-85.585938 50.203125-116.605469 31.601562-31.058594 73.410156-48.164063 117.722656-48.164063 89.101562 0 162.761719 69.628907 167.695312 158.515626.175782 3.097656.265626 6.28125.265626 9.445312-.003907 92.613281-75.347657 167.957031-167.960938 167.957031zm0 0" fill="#fcd79f"/><path d="m409.789062 256c0 .488281 0 .96875-.007812 1.460938-66.78125 26.71875-128.609375 71.878906-213.050781 28.269531-32.582031-16.808594-64.921875-24.601563-94.5-27.160157-.011719-.859374-.019531-1.710937-.019531-2.570312 0-.960938.007812-1.929688.027343-2.878906 1.542969-83.609375 69.792969-150.910156 153.761719-150.910156 82.03125 0 149.058594 64.21875 153.550781 145.128906.160157 2.859375.238281 5.761718.238281 8.660156zm0 0" fill="#b4cceb"/><path d="m373.9375 258.457031c0 49.160157-39.851562 89.011719-89.011719 89.011719-49.160156 0-89.011719-39.851562-89.011719-89.011719 0-49.160156 39.851563-89.011719 89.011719-89.011719 49.160157 0 89.011719 39.851563 89.011719 89.011719zm0 0" fill="#fac574"/><path d="m373.933594 258.460938c0 49.152343-39.847656 89.011718-89.003906 89.011718-4.117188 0-8.175782-.285156-12.144532-.832031 43.410156-5.917969 76.863282-43.144531 76.863282-88.179687 0-45.039063-33.453126-82.265626-76.863282-88.183594 3.96875-.546875 8.027344-.832032 12.144532-.832032 49.15625 0 89.003906 39.859376 89.003906 89.015626zm0 0" fill="#d8aa64"/><path d="m409.792969 256c0 84.933594-68.859375 153.792969-153.792969 153.792969s-153.792969-68.859375-153.792969-153.792969c0-.960938.011719-1.933594.03125-2.882812 30.578125.707031 65.347657 7.183593 100.417969 25.285156 82.34375 42.519531 140.789062-8.730469 206.894531-31.0625.160157 2.863281.242188 5.757812.242188 8.660156zm0 0" fill="#1475cc"/><path d="m409.792969 256c0 6.011719-.34375 11.941406-1.011719 17.769531-65.792969 22.460938-124.105469 73.15625-206.128906 30.800781-34.410156-17.757812-68.53125-24.335937-98.683594-25.238281-1.164062-7.609375-1.761719-15.398437-1.761719-23.332031 0-.960938.007813-1.933594.027344-2.882812 30.578125.707031 65.347656 7.183593 100.417969 25.285156 82.34375 42.519531 140.789062-8.730469 206.894531-31.0625.164063 2.863281.246094 5.757812.246094 8.660156zm0 0" fill="#5592d7"/><path d="m256 70.613281c-4.191406 0-7.589844-3.398437-7.589844-7.589843v-55.433594c0-4.191406 3.398438-7.589844 7.589844-7.589844s7.589844 3.398438 7.589844 7.589844v55.433594c0 4.191406-3.398438 7.589843-7.589844 7.589843zm0 0" fill="#fde5c2"/><path d="m256 512c-4.191406 0-7.589844-3.398438-7.589844-7.589844v-55.433594c0-4.191406 3.398438-7.589843 7.589844-7.589843s7.589844 3.398437 7.589844 7.589843v55.433594c0 4.191406-3.398438 7.589844-7.589844 7.589844zm0 0" fill="#fde5c2"/><path d="m504.410156 263.589844h-55.433594c-4.191406 0-7.589843-3.398438-7.589843-7.589844s3.398437-7.589844 7.589843-7.589844h55.433594c4.191406 0 7.589844 3.398438 7.589844 7.589844s-3.398438 7.589844-7.589844 7.589844zm0 0" fill="#fde5c2"/><path d="m63.023438 263.589844h-55.433594c-4.191406 0-7.589844-3.398438-7.589844-7.589844s3.398438-7.589844 7.589844-7.589844h55.433594c4.191406 0 7.589843 3.398438 7.589843 7.589844s-3.398437 7.589844-7.589843 7.589844zm0 0" fill="#fde5c2"/><g fill="#d8aa64"><path d="m478.890625 292.515625c-4.191406 0-7.585937-3.398437-7.585937-7.589844v-.117187c0-4.191406 3.394531-7.589844 7.585937-7.589844 4.195313 0 7.589844 3.398438 7.589844 7.589844v.117187c0 4.191407-3.394531 7.589844-7.589844 7.589844zm0 0"/><path d="m478.890625 234.78125c-4.191406 0-7.585937-3.398438-7.585937-7.589844v-.117187c0-4.191407 3.394531-7.589844 7.585937-7.589844 4.195313 0 7.589844 3.398437 7.589844 7.589844v.117187c0 4.191406-3.394531 7.589844-7.589844 7.589844zm0 0"/><path d="m33.109375 292.515625c-4.195313 0-7.589844-3.398437-7.589844-7.589844v-.117187c0-4.191406 3.394531-7.589844 7.589844-7.589844 4.191406 0 7.585937 3.398438 7.585937 7.589844v.117187c0 4.191407-3.394531 7.589844-7.585937 7.589844zm0 0"/><path d="m33.109375 234.78125c-4.195313 0-7.589844-3.398438-7.589844-7.589844v-.117187c0-4.191407 3.394531-7.589844 7.589844-7.589844 4.191406 0 7.585937 3.398437 7.585937 7.589844v.117187c0 4.191406-3.394531 7.589844-7.585937 7.589844zm0 0"/><path d="m227.191406 486.480469h-.117187c-4.191407 0-7.589844-3.394531-7.589844-7.585938 0-4.191406 3.398437-7.589843 7.589844-7.589843h.117187c4.191406 0 7.589844 3.398437 7.589844 7.589843 0 4.191407-3.398438 7.585938-7.589844 7.585938zm0 0"/><path d="m284.925781 486.480469h-.117187c-4.191406 0-7.589844-3.394531-7.589844-7.585938 0-4.191406 3.398438-7.589843 7.589844-7.589843h.117187c4.191407 0 7.589844 3.398437 7.589844 7.589843 0 4.191407-3.398437 7.585938-7.589844 7.585938zm0 0"/><path d="m227.191406 40.695312h-.117187c-4.191407 0-7.589844-3.398437-7.589844-7.589843 0-4.191407 3.398437-7.585938 7.589844-7.585938h.117187c4.191406 0 7.589844 3.394531 7.589844 7.585938 0 4.191406-3.398438 7.589843-7.589844 7.589843zm0 0"/><path d="m284.925781 40.695312h-.117187c-4.191406 0-7.589844-3.398437-7.589844-7.589843 0-4.191407 3.398438-7.585938 7.589844-7.585938h.117187c4.191407 0 7.589844 3.394531 7.589844 7.585938 0 4.191406-3.398437 7.589843-7.589844 7.589843zm0 0"/><path d="m78.019531 400.828125c-1.933593 0-3.867187-.734375-5.347656-2.207031l-.082031-.082032c-2.976563-2.957031-2.988282-7.761718-.035156-10.734374 2.957031-2.972657 7.761718-2.984376 10.730468-.03125l.085938.082031c2.972656 2.957031 2.984375 7.761719.03125 10.734375-1.480469 1.492187-3.433594 2.238281-5.382813 2.238281zm0 0"/><path d="m118.84375 441.652344c-1.949219 0-3.898438-.75-5.382812-2.242188l-.082032-.082031c-2.953125-2.96875-2.9375-7.773437.035156-10.730469 2.972657-2.953125 7.777344-2.941406 10.730469.035156l.082031.082032c2.957032 2.972656 2.941407 7.777344-.03125 10.730468-1.480468 1.46875-3.417968 2.207032-5.351562 2.207032zm0 0"/><path d="m393.238281 85.609375c-1.949219 0-3.898437-.746094-5.382812-2.238281l-.082031-.082032c-2.953126-2.972656-2.9375-7.777343.035156-10.734374 2.972656-2.953126 7.777344-2.941407 10.730468.035156l.082032.082031c2.953125 2.972656 2.941406 7.777344-.03125 10.730469-1.480469 1.472656-3.417969 2.207031-5.351563 2.207031zm0 0"/><path d="m434.0625 126.433594c-1.933594 0-3.871094-.734375-5.351562-2.207032l-.082032-.082031c-2.972656-2.957031-2.988281-7.761719-.03125-10.734375 2.957032-2.972656 7.761719-2.984375 10.730469-.03125l.082031.082032c2.972656 2.953124 2.988282 7.761718.035156 10.734374-1.484374 1.492188-3.433593 2.238282-5.382812 2.238282zm0 0"/><path d="m118.761719 85.609375c-1.933594 0-3.871094-.734375-5.351563-2.207031-2.96875-2.957032-2.984375-7.761719-.03125-10.730469l.082032-.085937c2.957031-2.972657 7.761718-2.984376 10.730468-.03125 2.972656 2.953124 2.988282 7.757812.035156 10.730468l-.082031.082032c-1.484375 1.496093-3.433593 2.242187-5.382812 2.242187zm0 0"/><path d="m77.9375 126.433594c-1.949219 0-3.898438-.746094-5.382812-2.238282-2.953126-2.972656-2.941407-7.78125.035156-10.734374l.082031-.082032c2.972656-2.953125 7.777344-2.941406 10.730469.03125 2.957031 2.972656 2.941406 7.777344-.03125 10.734375l-.082032.082031c-1.480468 1.472657-3.417968 2.207032-5.351562 2.207032zm0 0"/><path d="m433.980469 400.828125c-1.953125 0-3.902344-.75-5.382813-2.238281-2.957031-2.976563-2.941406-7.78125.03125-10.734375l.085938-.082031c2.972656-2.957032 7.777344-2.941407 10.730468.03125 2.953126 2.972656 2.941407 7.777343-.035156 10.730468l-.082031.082032c-1.480469 1.476562-3.414063 2.210937-5.347656 2.210937zm0 0"/><path d="m393.15625 441.652344c-1.933594 0-3.871094-.738282-5.351562-2.207032-2.96875-2.957031-2.984376-7.761718-.03125-10.734374l.082031-.082032c2.957031-2.972656 7.761719-2.984375 10.730469-.03125 2.972656 2.953125 2.988281 7.757813.035156 10.730469l-.082032.082031c-1.484374 1.492188-3.433593 2.242188-5.382812 2.242188zm0 0"/></g><path d="m293.796875 230.324219c-2.71875 0-5.347656-1.464844-6.710937-4.035157-1.355469-2.554687-3.992188-4.144531-6.878907-4.144531s-5.523437 1.589844-6.878906 4.144531c-1.316406 2.480469-3.894531 4.03125-6.707031 4.03125-2.808594 0-5.382813-1.550781-6.703125-4.03125-1.355469-2.554687-3.992188-4.144531-6.878907-4.144531-2.886718 0-5.523437 1.589844-6.878906 4.144531-1.964844 3.703126-6.558594 5.113282-10.261718 3.148438-3.703126-1.964844-5.109376-6.558594-3.144532-10.261719 3.996094-7.53125 11.769532-12.207031 20.285156-12.207031 4.984376 0 9.71875 1.601562 13.585938 4.441406 3.867188-2.839844 8.597656-4.441406 13.582031-4.441406 8.519531 0 16.289063 4.675781 20.289063 12.207031 1.964844 3.703125.554687 8.296875-3.148438 10.261719-1.132812.597656-2.351562.886719-3.550781.886719zm0 0" fill="#5b5555"/><path d="m234.78125 166.097656c-2.714844 0-5.34375-1.460937-6.707031-4.03125-1.035157-1.945312-3.039063-3.152344-5.234375-3.152344-2.195313 0-4.199219 1.207032-5.234375 3.152344-1.316407 2.480469-3.894531 4.03125-6.703125 4.03125s-5.386719-1.550781-6.703125-4.03125c-1.035157-1.945312-3.039063-3.152344-5.230469-3.152344-2.195312 0-4.203125 1.207032-5.234375 3.152344-1.964844 3.703125-6.558594 5.113282-10.261719 3.144532-3.703125-1.964844-5.109375-6.558594-3.144531-10.261719 3.671875-6.917969 10.8125-11.214844 18.640625-11.214844 4.347656 0 8.484375 1.328125 11.933594 3.695313 3.449218-2.367188 7.589844-3.695313 11.9375-3.695313 7.824218 0 14.96875 4.296875 18.640625 11.214844 1.964843 3.703125.554687 8.296875-3.144531 10.261719-1.136719.601562-2.355469.886718-3.554688.886718zm0 0" fill="#5b5555"/><path d="m270.441406 352.238281c-53.601562 0-89.332031-25.632812-90.925781-26.796875-3.382813-2.472656-4.121094-7.222656-1.648437-10.605468 2.46875-3.378907 7.207031-4.121094 10.59375-1.65625.425781.304687 38.164062 27.152343 92.226562 23.535156 4.183594-.273438 7.796875 2.882812 8.078125 7.066406s-2.882813 7.796875-7.066406 8.078125c-3.832031.257813-7.585938.378906-11.257813.378906zm0 0" fill="#5592d7"/></svg>