<svg height="512pt" viewBox="-73 0 512 512" width="512pt" xmlns="http://www.w3.org/2000/svg"><path d="m365.46875 10.300781v293.324219c0 2.089844-.628906 4.121094-1.816406 5.839844l-16.347656 23.746094c-3.78125 5.492187-1.433594 13.074218 4.789062 15.464843l6.757812 2.59375c3.988282 1.527344 6.617188 5.347657 6.617188 9.613281v140.816407c0 5.6875-4.617188 10.300781-10.304688 10.300781h-51.890624c-3.71875 0-7.160157-2.007812-8.980469-5.253906l-4.8125-8.5625c-3.070313-5.457032-10.269531-6.941406-15.246094-3.121094l-19.328125 14.816406c-1.792969 1.367188-3.996094 2.121094-6.261719 2.121094h-238.34375c-5.6875 0-10.300781-4.613281-10.300781-10.300781v-279.652344c0-2.886719 1.203125-5.636719 3.339844-7.582031l10.929687-10.046875c5.027344-4.613281 4.253907-12.761719-1.558593-16.347657l-7.828126-4.84375c-3.039062-1.875-4.882812-5.191406-4.882812-8.753906v-43.207031c0-3.605469 1.875-6.945313 4.953125-8.808594l22.398437-13.589843c6.003907-3.644532 6.683594-12.09375 1.339844-16.644532l-25.074218-21.386718c-2.296876-1.957032-3.617188-4.820313-3.617188-7.828126v-52.707031c0-5.6875 4.617188-10.300781 10.300781-10.300781h344.863281c5.6875 0 10.304688 4.613281 10.304688 10.300781zm0 0" fill="#db885d"/><path d="m347.304688 333.210938c-3.78125 5.492187-1.429688 13.074218 4.792968 15.464843l6.757813 2.59375c3.984375 1.527344 6.613281 5.347657 6.613281 9.613281v140.816407c0 5.6875-4.617188 10.300781-10.304688 10.300781h-23.742187c5.695313 0 10.300781-4.613281 10.300781-10.300781v-140.816407c0-4.265624-2.625-8.085937-6.605468-9.613281l-6.757813-2.59375c-6.230469-2.390625-8.578125-9.972656-4.800781-15.464843l16.351562-23.746094c1.183594-1.71875 1.8125-3.75 1.8125-5.839844v-293.324219c0-5.6875-4.605468-10.300781-10.300781-10.300781h23.742187c5.6875 0 10.304688 4.613281 10.304688 10.300781v293.324219c0 2.089844-.628906 4.121094-1.816406 5.839844zm0 0" fill="#c86d3d"/><path d="m291.578125 459.621094h-217.6875c-5.691406 0-10.300781-4.609375-10.300781-10.300782v-48.160156c0-5.6875 4.609375-10.300781 10.300781-10.300781h217.6875c5.691406 0 10.300781 4.613281 10.300781 10.300781v48.160156c0 5.691407-4.609375 10.300782-10.300781 10.300782zm0 0" fill="#fcd79f"/><path d="m301.886719 401.164062v48.160157c0 5.6875-4.617188 10.300781-10.304688 10.300781h-17.636719c5.6875 0 10.300782-4.613281 10.300782-10.300781v-48.160157c0-5.6875-4.613282-10.304687-10.300782-10.304687h17.636719c5.6875 0 10.304688 4.617187 10.304688 10.304687zm0 0" fill="#fbcc85"/><path d="m290.90625 358.527344h-216.34375c-5.691406 0-10.300781-4.613282-10.300781-10.304688v-216.339844c0-5.691406 4.609375-10.304687 10.300781-10.304687h216.34375c5.6875 0 10.300781 4.613281 10.300781 10.304687v216.339844c0 5.691406-4.613281 10.304688-10.300781 10.304688zm0 0" fill="#fcd79f"/><path d="m301.203125 131.882812v216.339844c0 5.695313-4.601563 10.300782-10.300781 10.300782h-17.625c5.6875 0 10.300781-4.605469 10.300781-10.300782v-216.339844c0-5.695312-4.613281-10.300781-10.300781-10.300781h17.625c5.699218 0 10.300781 4.605469 10.300781 10.300781zm0 0" fill="#fbcc85"/><path d="m291.578125 89.230469h-217.6875c-5.691406 0-10.300781-4.609375-10.300781-10.300781v-16.25c0-5.691407 4.609375-10.300782 10.300781-10.300782h217.6875c5.691406 0 10.300781 4.609375 10.300781 10.300782v16.25c0 5.6875-4.609375 10.300781-10.300781 10.300781zm0 0" fill="#e43c53"/><path d="m301.886719 62.675781v16.257813c0 5.683594-4.617188 10.300781-10.304688 10.300781h-17.636719c5.6875 0 10.300782-4.617187 10.300782-10.300781v-16.257813c0-5.6875-4.613282-10.300781-10.300782-10.300781h17.636719c5.6875 0 10.304688 4.613281 10.304688 10.300781zm0 0" fill="#c93146"/><path d="m143.914062 432.96875h-41.171874c-4.269532 0-7.726563-3.460938-7.726563-7.726562 0-4.265626 3.457031-7.726563 7.726563-7.726563h41.171874c4.265626 0 7.726563 3.460937 7.726563 7.726563 0 4.265624-3.460937 7.726562-7.726563 7.726562zm0 0" fill="#756f6f"/><path d="m262.726562 432.96875h-87.5c-4.265624 0-7.726562-3.460938-7.726562-7.726562 0-4.265626 3.460938-7.726563 7.726562-7.726563h87.5c4.269532 0 7.726563 3.460937 7.726563 7.726563 0 4.265624-3.457031 7.726562-7.726563 7.726562zm0 0" fill="#756f6f"/><path d="m47.265625 0v35.199219c0 4.265625-3.460937 7.726562-7.726563 7.726562-4.265624 0-7.726562-3.460937-7.726562-7.726562v-35.199219zm0 0" fill="#c86d3d"/><path d="m75.421875 0v13.90625c0 4.265625-3.453125 7.726562-7.726563 7.726562-4.265624 0-7.726562-3.460937-7.726562-7.726562v-13.90625zm0 0" fill="#c86d3d"/><g fill="#904d29"><path d="m365.46875 417.511719v15.453125h-23.746094c-4.265625 0-7.726562-3.449219-7.726562-7.726563 0-4.265625 3.460937-7.726562 7.726562-7.726562zm0 0"/><path d="m365.46875 232.324219v15.453125h-10.003906c-4.277344 0-7.726563-3.460938-7.726563-7.722656 0-4.265626 3.449219-7.726563 7.726563-7.726563h10.003906zm0 0"/><path d="m365.46875 442.082031v15.453125h-10.003906c-4.277344 0-7.726563-3.449218-7.726563-7.726562 0-4.265625 3.449219-7.726563 7.726563-7.726563zm0 0"/></g><path d="m32.996094 252.949219c0 4.265625-3.449219 7.726562-7.726563 7.726562h-25.269531v-15.453125h25.269531c4.277344 0 7.726563 3.464844 7.726563 7.726563zm0 0" fill="#c86d3d"/><path d="m151.644531 501.523438v10.476562h-15.453125v-10.476562c0-4.265626 3.449219-7.726563 7.722656-7.726563 4.269532 0 7.730469 3.460937 7.730469 7.726563zm0 0" fill="#c86d3d"/><path d="m251.410156 242.503906c0 9.144532-7.417968 16.5625-16.566406 16.5625s-16.5625-7.417968-16.5625-16.5625c0-9.148437 7.414062-16.566406 16.5625-16.566406s16.566406 7.417969 16.566406 16.566406zm0 0" fill="#d68a5a"/><path d="m147.1875 242.503906c0 9.144532-7.414062 16.5625-16.5625 16.5625s-16.566406-7.417968-16.566406-16.5625c0-9.148437 7.417968-16.566406 16.566406-16.566406s16.5625 7.417969 16.5625 16.566406zm0 0" fill="#d68a5a"/><path d="m182.734375 295.4375c-23.96875 0-43.398437-19.429688-43.398437-43.398438v-28.1875h86.796874v28.1875c0 23.96875-19.429687 43.398438-43.398437 43.398438zm0 0" fill="#e89a5e"/><path d="m243.621094 186.320312-5.1875 24.675782-2.917969 13.890625c-.324219 1.527343-1.671875 2.628906-3.242187 2.628906h-99.082032c-1.566406 0-2.914062-1.101563-3.238281-2.628906l-2.921875-13.890625-5.183594-24.675782c-.546875-2.59375 2.03125-4.746093 4.484375-3.75l7.667969 3.105469c1.792969.726563 3.636719 1.066407 5.4375 1.066407 6.691406 0 12.863281-4.691407 14.21875-11.75 1.339844-6.96875 5.058594-12.972657 10.222656-17.234376 5.160156-4.265624 11.757813-6.78125 18.855469-6.78125 14.195313 0 26.398437 10.074219 29.078125 24.015626 1.722656 8.957031 11.203125 14.109374 19.65625 10.683593l7.667969-3.105469c2.457031-.996093 5.027343 1.15625 4.484375 3.75zm0 0" fill="#756f6f"/><path d="m225.433594 259.527344c-14.464844 17.308594-35.917969 9.832031-42.699219 6.492187-6.78125 3.339844-28.199219 10.816407-42.664063-6.492187 0 0-26.382812 63.84375 42.664063 65.292968 69.046875-1.449218 42.699219-65.292968 42.699219-65.292968zm0 0" fill="#e43c53"/><path d="m182.734375 324.824219c-2.628906-.050781-5.121094-.207031-7.480469-.433594 45.050782-4.378906 42.113282-39.199219 38.003906-55.929687 4.273438-1.667969 8.457032-4.480469 12.175782-8.929688 0 0 26.34375 63.839844-42.699219 65.292969zm0 0" fill="#c93146"/><path d="m193.660156 197.179688 1.8125-1.816407c3.019532-3.015625 3.019532-7.90625 0-10.925781-3.015625-3.015625-7.90625-3.015625-10.925781 0l-1.8125 1.816406-1.8125-1.816406c-3.019531-3.015625-7.910156-3.015625-10.929687 0-3.015626 3.015625-3.015626 7.910156 0 10.925781l1.816406 1.816407-1.816406 1.8125c-3.015626 3.019531-3.015626 7.910156 0 10.929687 1.511718 1.507813 3.488281 2.261719 5.464843 2.261719 1.976563 0 3.953125-.753906 5.464844-2.265625l1.8125-1.8125 1.8125 1.8125c1.507813 1.511719 3.484375 2.265625 5.464844 2.265625 1.976562 0 3.953125-.753906 5.460937-2.261719 3.019532-3.019531 3.019532-7.910156.003906-10.929687zm0 0" fill="#ea576b"/></svg>