<svg height="512pt" viewBox="0 -44 512.00058 512" width="512pt" xmlns="http://www.w3.org/2000/svg"><path d="m100.679688 292.996094v74.25c0 31.828125-25.800782 57.636718-57.636719 57.636718-5.390625 0-9.765625-4.375-9.765625-9.769531v-72.511719c0-6.191406 1.132812-12.113281 3.210937-17.582031 7.09375-18.714843 25.195313-32.019531 46.390625-32.019531h17.800782zm0 0" fill="#c93146"/><path d="m100.679688 292.996094v32.609375h-55.917969c-2.800781 0-5.566407-.195313-8.273438-.585938 7.09375-18.714843 25.195313-32.023437 46.390625-32.023437zm0 0" fill="#ac283b"/><path d="m100.675781 293v74.238281c0 31.835938-25.800781 57.636719-57.636719 57.636719-2.03125 0-3.917968-.625-5.480468-1.679688 25.144531-6.195312 43.785156-28.894531 43.785156-55.957031v-74.210937c.507812-.019532 1.023438-.027344 1.542969-.027344zm0 0" fill="#ac283b"/><path d="m0 267.160156c0-4.191406 3.398438-7.585937 7.589844-7.585937h63.144531c21.28125 0 38.53125 17.25 38.53125 38.53125v13.824219h-64.496094c-24.726562 0-44.769531-20.042969-44.769531-44.769532zm0 0" fill="#c93146"/><path d="m63.078125 368.398438c-.191406 0-.386719-.007813-.582031-.019532-4.257813-.320312-7.449219-4.027344-7.128906-8.28125 2.070312-27.746094 23.285156-36.277344 24.1875-36.625 3.980468-1.546875 8.453124.433594 9.996093 4.414063 1.53125 3.953125-.410156 8.398437-4.34375 9.964843-.679687.289063-13.113281 5.753907-14.433593 23.394532-.300782 4.0625-3.691407 7.152344-7.695313 7.152344zm0 0" fill="#ac283b"/><path d="m190.179688 58.894531v78.796875h-123.054688c2.164062-6.386718 7.222656-18.832031 17.316406-31.976562 11.363282-14.804688 29.09375-30.503906 56.21875-39.4375 13.90625-4.582032 30.277344-7.382813 49.519532-7.382813zm0 0" fill="#fbcc85"/><path d="m471.378906 137.691406h-123.054687v-78.796875c19.253906 0 35.632812 2.808594 49.539062 7.394531 27.113281 8.933594 44.832031 24.621094 56.1875 39.425782 10.09375 13.144531 15.171875 25.589844 17.328125 31.976562zm0 0" fill="#fbcc85"/><path d="m458.273438 260.125v146.082031c0 6.53125-5.996094 11.402344-12.394532 10.082031l-357.429687-73.882812c-4.789063-.988281-8.21875-5.203125-8.21875-10.09375v-72.1875zm0 0" fill="#e43c53"/><path d="m458.273438 260.125v146.082031c0 6.53125-5.996094 11.402344-12.394532 10.082031l-12.773437-2.636718c1.949219-1.851563 3.183593-4.480469 3.183593-7.445313v-146.082031zm0 0" fill="#c93146"/><path d="m140.660156 66.277344c13.90625-4.582032 30.277344-7.382813 49.519532-7.382813v78.796875h-123.054688c2.164062-6.386718 7.222656-18.832031 17.316406-31.976562 4.050782 1.226562 8.210938 1.84375 12.394532 1.84375 20.695312 0 38.558593-14.761719 42.464843-35.089844.402344-2.078125.84375-4.140625 1.359375-6.191406zm0 0" fill="#e8b76b"/><path d="m471.378906 137.691406h-123.054687v-78.796875c19.253906 0 35.632812 2.808594 49.539062 7.394531.496094 2.039063.9375 4.101563 1.339844 6.183594 3.902344 20.324219 21.769531 35.085938 42.453125 35.085938 4.203125 0 8.355469-.617188 12.394531-1.84375 10.09375 13.144531 15.171875 25.589844 17.328125 31.976562zm0 0" fill="#e8b76b"/><path d="m493.835938 105.355469-30.523438 12.371093c-33.667969 13.640626-71.414062-6.871093-78.273438-42.535156-5.851562-30.453125-23.109374-56.269531-46.832031-73.371094-5.203125-3.75-12.570312-1.453124-14.792969 4.5625-8.992187 24.375-29.855468 41.445313-54.167968 41.445313-24.300782 0-45.164063-17.070313-54.15625-41.445313-2.246094-6.078124-9.683594-8.261718-14.9375-4.460937-2.039063 1.484375-4.050782 3.03125-5.996094 4.636719-20.550781 16.96875-35.34375 40.878906-40.691406 68.628906-5.398438 28.09375-29.980469 46.792969-56.628906 46.792969-7.171876 0-14.496094-1.359375-21.644532-4.253907l-30.523437-12.375c-9.777344-3.964843-20.039063 4.617188-17.875 14.9375l12.515625 59.554688 3.257812 15.453125 4.882813 23.253906 1.03125 4.890625h441.542969l1.03125-4.890625 4.882812-23.253906 3.253906-15.453125 12.519532-59.554688c2.160156-10.320312-8.101563-18.902343-17.875-14.933593zm0 0" fill="#756f6f"/><path d="m493.839844 105.359375-9.992188 4.046875c2.292969 2.882812 3.421875 6.746094 2.550782 10.886719l-20.65625 98.253906-1.027344 4.894531h25.304687l1.03125-4.894531 20.652344-98.253906c2.167969-10.332031-8.085937-18.902344-17.863281-14.933594zm0 0" fill="#5b5555"/><path d="m491.050781 218.546875-11.628906 55.304687c-1.285156 6.097657-6.664063 10.472657-12.898437 10.472657h-394.542969c-6.238281 0-11.617188-4.375-12.898438-10.472657l-11.628906-55.304687zm0 0" fill="#fbcc85"/><path d="m491.050781 218.546875-11.628906 55.304687c-1.285156 6.097657-6.664063 10.472657-12.898437 10.472657h-25.304688c6.234375 0 11.617188-4.375 12.898438-10.472657l11.625-55.304687zm0 0" fill="#e8b76b"/><g fill="#c93146"><path d="m458.273438 351.359375v15.699219l-131.605469-23.382813c-4.203125-.753906-7.003907-4.761719-6.253907-8.964843.742188-4.203126 4.75-6.996094 8.953126-6.253907zm0 0"/><path d="m458.273438 310.027344v15.453125h-30.769532c-4.265625 0-7.726562-3.449219-7.726562-7.722657 0-4.265624 3.460937-7.726562 7.726562-7.726562h30.769532zm0 0"/><path d="m118.40625 319.65625c0 4.261719-3.460938 7.726562-7.722656 7.726562h-30.453125v-15.453124h30.453125c4.261718 0 7.722656 3.460937 7.722656 7.726562zm0 0"/></g><path d="m304.476562 101.636719-8.996093-8.996094c-3.46875-3.46875-9.097657-3.46875-12.570313 0l-13.660156 13.664063-13.660156-13.664063c-3.46875-3.46875-9.097656-3.46875-12.566406 0l-8.996094 8.996094c-3.46875 3.46875-3.46875 9.097656 0 12.566406l13.660156 13.664063-13.660156 13.660156c-3.46875 3.46875-3.46875 9.097656 0 12.570312l8.996094 8.992188c3.46875 3.472656 9.09375 3.472656 12.566406 0l13.664062-13.660156 13.660156 13.660156c3.46875 3.472656 9.097657 3.472656 12.566407 0l8.996093-8.992188c3.46875-3.472656 3.46875-9.097656 0-12.570312l-13.660156-13.660156 13.660156-13.664063c3.46875-3.46875 3.46875-9.097656 0-12.566406zm0 0" fill="#e43c53"/><path d="m136.386719 187.570312c0 4.265626-3.460938 7.726563-7.726563 7.726563h-86.09375l-3.253906-15.453125h89.347656c4.261719 0 7.726563 3.464844 7.726563 7.726562zm0 0" fill="#5b5555"/><path d="m499.191406 179.84375-3.253906 15.453125h-86.09375c-4.265625 0-7.726562-3.460937-7.726562-7.726563 0-4.261718 3.460937-7.722656 7.726562-7.722656h89.347656zm0 0" fill="#5b5555"/></svg>