<svg height="512pt" viewBox="-15 0 512 512.00031" width="512pt" xmlns="http://www.w3.org/2000/svg"><path d="m400.414062 254.734375c-1.722656-3.445313-5.257812-5.59375-9.109374-5.59375h-300.761719c-3.851563 0-7.386719 2.160156-9.105469 5.605469-11.808594 23.738281-18.484375 50.480468-18.554688 78.773437-.234374 98.011719 79.703126 178.296875 177.707032 178.480469 98.480468.183594 178.375-79.601562 178.375-178.039062 0-28.457032-6.683594-55.367188-18.550782-79.226563zm-267.070312 74.058594c0 8.160156-6.609375 14.773437-14.761719 14.773437-8.152343 0-14.761719-6.613281-14.761719-14.773437v-29.921875c0-8.160156 6.609376-14.765625 14.761719-14.765625 4.074219 0 7.765625 1.652343 10.433594 4.320312 2.679687 2.671875 4.328125 6.359375 4.328125 10.445313zm244.683594 0c0 8.160156-6.609375 14.773437-14.761719 14.773437s-14.761719-6.613281-14.761719-14.773437v-29.921875c0-8.160156 6.609375-14.765625 14.761719-14.765625 4.074219 0 7.761719 1.652343 10.433594 4.320312 2.679687 2.671875 4.328125 6.359375 4.328125 10.445313zm0 0" fill="#756f6f"/><path d="m418.964844 333.957031c0 98.441407-79.898438 178.226563-178.375 178.042969-3.464844-.011719-6.898438-.113281-10.3125-.316406 93.324218-5.5625 167.292968-83.003906 167.292968-177.726563 0-28.453125-6.683593-55.363281-18.554687-79.222656-1.71875-3.445313-5.253906-5.59375-9.105469-5.59375h21.394532c3.851562 0 7.386718 2.148437 9.109374 5.59375 11.867188 23.859375 18.550782 50.769531 18.550782 79.222656zm0 0" fill="#5b5555"/><path d="m312.511719 361.992188c.101562 18.035156-6.464844 34.535156-17.382813 47.183593-.996094 1.15625-2.457031 1.804688-3.980468 1.804688h-16.417969v40.308593c0 1.765626-.722657 3.382813-1.890625 4.535157-1.15625 1.167969-2.769532 1.890625-4.535156 1.890625-1.925782 0-3.652344-.855469-4.832032-2.183594-2.292968-2.617188-5.507812-4.242188-9-4.242188h-27.097656c-3.492188 0-6.707031 1.625-9 4.242188-1.179688 1.328125-2.90625 2.183594-4.832031 2.183594-3.542969 0-6.425781-2.882813-6.425781-6.425782v-40.308593h-16.421876c-1.53125 0-2.980468-.660157-3.976562-1.816407-10.828125-12.546874-17.382812-28.882812-17.382812-46.757812 0-39.699219 32.320312-71.859375 72.09375-71.585938 39.011718.273438 70.859374 32.160157 71.082031 71.171876zm0 0" fill="#fff5f5"/><path d="m222.046875 418.765625c0 4.199219-3.398437 7.609375-7.609375 7.609375h-7.316406v-15.222656h7.316406c4.210938 0 7.609375 3.410156 7.609375 7.613281zm0 0" fill="#efe2dd"/><path d="m274.730469 411.152344v15.222656h-7.316407c-4.214843 0-7.613281-3.410156-7.613281-7.609375 0-4.203125 3.398438-7.613281 7.613281-7.613281zm0 0" fill="#efe2dd"/><path d="m269 335.085938-8.1875-8.183594c-3.15625-3.160156-8.277344-3.160156-11.433594 0l-8.453125 8.453125-8.457031-8.453125c-3.15625-3.15625-8.277344-3.15625-11.433594 0l-8.1875 8.1875c-3.15625 3.15625-3.15625 8.277344 0 11.433594l8.457032 8.453124-8.457032 8.457032c-3.15625 3.15625-3.15625 8.277344 0 11.433594l8.1875 8.1875c3.15625 3.15625 8.277344 3.15625 11.433594 0l8.457031-8.457032 8.453125 8.457032c3.15625 3.15625 8.277344 3.15625 11.433594 0l8.1875-8.1875c3.15625-3.15625 3.15625-8.277344 0-11.433594l-8.453125-8.457032 8.453125-8.453124c3.15625-3.15625 3.15625-8.277344 0-11.4375zm0 0" fill="#e43c53"/><path d="m412.992188 315.328125h-40.558594c-4.203125 0-7.609375-3.40625-7.609375-7.609375s3.40625-7.613281 7.609375-7.613281h40.558594c29.574218 0 53.632812-24.058594 53.632812-53.632813 0-29.574218-24.058594-53.632812-53.632812-53.632812h-70.675782c-20.675781 0-37.496094-16.820313-37.496094-37.496094 0-20.679688 16.820313-37.5 37.496094-37.5h22.140625c28.292969 0 51.308594-23.015625 51.308594-51.308594 0-28.292968-23.015625-51.3125-51.308594-51.3125h-198.757812c-21.363281 0-38.742188 17.382813-38.742188 38.746094s17.378907 38.746094 38.742188 38.746094h73.152343c18.992188 0 34.441407 15.449218 34.441407 34.4375 0 18.992187-15.449219 34.441406-34.441407 34.441406h-155.335937c-37.65625 0-68.292969 30.636719-68.292969 68.296875 0 37.65625 30.636719 68.292969 68.292969 68.292969h25.898437c4.203126 0 7.613282 3.40625 7.613282 7.613281 0 4.203125-3.410156 7.609375-7.613282 7.609375h-25.898437c-46.050781 0-83.515625-37.464844-83.515625-83.515625s37.464844-83.519531 83.515625-83.519531h155.335937c10.59375 0 19.214844-8.617188 19.214844-19.214844s-8.621094-19.21875-19.214844-19.21875h-73.152343c-29.757813 0-53.96875-24.210938-53.96875-53.96875s24.210937-53.96875 53.96875-53.96875h198.757812c36.683594 0 66.53125 29.847656 66.53125 66.535156s-29.847656 66.53125-66.53125 66.53125h-22.140625c-12.28125 0-22.273437 9.992188-22.273437 22.277344 0 12.28125 9.992187 22.273438 22.273437 22.273438h70.675782c37.96875 0 68.855468 30.890624 68.855468 68.855468 0 37.96875-30.886718 68.855469-68.855468 68.855469zm0 0" fill="#5b5555"/></svg>