<svg height="512pt" viewBox="0 -19 512 512" width="512pt" xmlns="http://www.w3.org/2000/svg"><path d="m10.300781 473.164062h491.398438c5.6875 0 10.300781-4.609374 10.300781-10.300781v-115.378906c0-5.691406-4.613281-10.304687-10.300781-10.304687h-491.398438c-5.6875.003906-10.300781 4.613281-10.300781 10.304687v115.378906c0 5.691407 4.613281 10.300781 10.300781 10.300781zm0 0" fill="#5592d7"/><path d="m486.160156 413.78125c0-18.488281-102.160156-33.480469-228.183594-33.480469-126.023437 0-228.1875 14.992188-228.1875 33.480469 0 18.492188 102.164063 33.484375 228.1875 33.484375 126.023438 0 228.183594-14.992187 228.183594-33.484375zm0 0" fill="#1475cc"/><path d="m273.597656 10.300781v371.980469c0 5.6875-4.605468 10.300781-10.304687 10.300781h-10.640625c-5.6875 0-10.300782-4.613281-10.300782-10.300781v-371.980469c0-5.695312 4.613282-10.300781 10.300782-10.300781h10.640625c5.699219 0 10.304687 4.605469 10.304687 10.300781zm0 0" fill="#c86d3d"/><g fill="#ac5e33"><path d="m242.351562 108.695312h31.242188v146.285157h-31.242188zm0 0"/><path d="m242.351562 282.351562h31.242188v31.257813h-31.242188zm0 0"/><path d="m242.351562 50.066406h31.242188v31.257813h-31.242188zm0 0"/></g><path d="m142.265625 93.726562c-5.65625 0-9.320313 5.988282-6.722656 11.011719 9.625 18.609375 15.058593 39.734375 15.058593 62.128907 0 22.398437-5.433593 43.523437-15.058593 62.128906-2.597657 5.027344 1.066406 11.015625 6.722656 11.015625h212.46875c3.226563 0 6.210937-1.707031 7.847656-4.488281 11.863281-20.128907 18.667969-43.597657 18.667969-68.65625 0-25.054688-6.804688-48.523438-18.667969-68.652344-1.636719-2.78125-4.621093-4.488282-7.847656-4.488282zm0 0" fill="#fde5c2"/><path d="m381.257812 166.875c0 25.050781-6.8125 48.523438-18.675781 68.652344-1.636719 2.785156-4.617187 4.480468-7.839843 4.480468h-24.703126c3.238282 0 6.21875-1.695312 7.855469-4.480468 11.863281-20.128906 18.660157-43.601563 18.660157-68.652344 0-25.0625-6.796876-48.519531-18.660157-68.664062-1.636719-2.769532-4.617187-4.480469-7.855469-4.480469h24.703126c3.222656 0 6.203124 1.707031 7.839843 4.480469 11.863281 20.140624 18.675781 43.601562 18.675781 68.664062zm0 0" fill="#fbcc85"/><path d="m375.417969 298.636719h-234.886719c-5.6875 0-10.300781-4.613281-10.300781-10.300781v-10.648438c0-5.6875 4.613281-10.300781 10.300781-10.300781h234.886719c5.6875 0 10.300781 4.613281 10.300781 10.300781v10.648438c0 5.6875-4.613281 10.300781-10.300781 10.300781zm0 0" fill="#e19a77"/><path d="m385.71875 277.691406v10.640625c0 5.6875-4.617188 10.304688-10.304688 10.304688h-15.96875c5.6875 0 10.304688-4.617188 10.304688-10.304688v-10.640625c0-5.6875-4.617188-10.300781-10.304688-10.300781h15.96875c5.6875 0 10.304688 4.613281 10.304688 10.300781zm0 0" fill="#d77f4f"/><path d="m178.40625 307.734375c-4.269531 0-7.726562-3.457031-7.726562-7.722656v-70.582031c0-4.269532 3.457031-7.726563 7.726562-7.726563 4.265625 0 7.726562 3.457031 7.726562 7.726563v70.582031c0 4.265625-3.460937 7.722656-7.726562 7.722656zm0 0" fill="#ea576b"/><path d="m337.542969 307.734375c-4.269531 0-7.726563-3.457031-7.726563-7.722656v-70.582031c0-4.269532 3.460938-7.726563 7.726563-7.726563 4.269531 0 7.726562 3.457031 7.726562 7.726563v70.582031c0 4.265625-3.457031 7.722656-7.726562 7.722656zm0 0" fill="#ea576b"/><path d="m140.53125 35.105469h234.886719c5.6875 0 10.300781 4.609375 10.300781 10.300781v10.644531c0 5.691407-4.613281 10.300781-10.300781 10.300781h-234.886719c-5.6875 0-10.300781-4.609374-10.300781-10.300781v-10.644531c0-5.691406 4.613281-10.300781 10.300781-10.300781zm0 0" fill="#e19a77"/><path d="m385.71875 45.40625v10.640625c0 5.699219-4.617188 10.304687-10.304688 10.304687h-15.96875c5.6875 0 10.304688-4.605468 10.304688-10.304687v-10.640625c0-5.6875-4.617188-10.300781-10.304688-10.300781h15.96875c5.6875 0 10.304688 4.613281 10.304688 10.300781zm0 0" fill="#d77f4f"/><path d="m337.542969 112.039062c-4.269531 0-7.726563-3.460937-7.726563-7.726562v-70.582031c0-4.269531 3.460938-7.726563 7.726563-7.726563 4.269531 0 7.726562 3.460938 7.726562 7.726563v70.582031c0 4.265625-3.457031 7.726562-7.726562 7.726562zm0 0" fill="#ea576b"/><path d="m178.40625 112.039062c-4.269531 0-7.726562-3.460937-7.726562-7.726562v-70.582031c0-4.269531 3.457031-7.726563 7.726562-7.726563 4.265625 0 7.726562 3.460938 7.726562 7.726563v70.582031c0 4.265625-3.460937 7.726562-7.726562 7.726562zm0 0" fill="#ea576b"/><path d="m448.644531 392.871094c0 5.222656-2.121093 9.960937-5.542969 13.390625-3.429687 3.421875-8.160156 5.542969-13.390624 5.542969h-343.464844c-10.464844 0-18.945313-8.480469-18.945313-18.9375 0-5.230469 2.125-9.96875 5.554688-13.402344 3.417969-3.417969 8.160156-5.539063 13.390625-5.539063h343.464844c10.453124 0 18.933593 8.476563 18.933593 18.945313zm0 0" fill="#e19a77"/><path d="m142.421875 373.925781v16.234375c0 4.277344-3.460937 7.726563-7.726563 7.726563-4.273437 0-7.722656-3.449219-7.722656-7.726563v-16.234375zm0 0" fill="#d77f4f"/><path d="m170.679688 373.925781v6.964844c0 4.273437-3.460938 7.722656-7.726563 7.722656-4.273437 0-7.726563-3.449219-7.726563-7.722656v-6.964844zm0 0" fill="#d77f4f"/><path d="m448.640625 392.867188c0 5.230468-2.121094 9.972656-5.542969 13.402343-3.429687 3.417969-8.160156 5.542969-13.390625 5.542969h-15.96875c5.234375 0 9.960938-2.121094 13.390625-5.542969 3.421875-3.429687 5.542969-8.167969 5.542969-13.402343 0-10.457032-8.476563-18.9375-18.933594-18.9375h15.964844c10.457031 0 18.9375 8.480468 18.9375 18.9375zm0 0" fill="#d77f4f"/><path d="m295.121094 137.425781-9.484375-9.488281c-3.660157-3.660156-9.59375-3.660156-13.253907 0l-14.410156 14.410156-14.40625-14.410156c-3.660156-3.660156-9.59375-3.660156-13.253906 0l-9.488281 9.488281c-3.660157 3.660157-3.660157 9.59375 0 13.253907l14.410156 14.40625-14.410156 14.410156c-3.660157 3.660156-3.660157 9.59375 0 13.253906l9.488281 9.484375c3.660156 3.660156 9.59375 3.660156 13.253906 0l14.40625-14.40625 14.410156 14.40625c3.660157 3.660156 9.59375 3.660156 13.253907 0l9.484375-9.484375c3.660156-3.660156 3.660156-9.59375 0-13.253906l-14.40625-14.410156 14.40625-14.40625c3.660156-3.660157 3.660156-9.59375 0-13.253907zm0 0" fill="#ea576b"/></svg>