<svg height="512pt" viewBox="0 -72 512 512" width="512pt" xmlns="http://www.w3.org/2000/svg"><path d="m10.300781 367.039062h491.398438c5.6875 0 10.300781-4.613281 10.300781-10.304687v-115.378906c0-5.691407-4.613281-10.300781-10.300781-10.300781h-491.398438c-5.6875 0-10.300781 4.609374-10.300781 10.300781v115.378906c0 5.691406 4.613281 10.304687 10.300781 10.304687zm0 0" fill="#5592d7"/><path d="m460.191406 307.167969c0-17.53125-86.242187-31.738281-192.628906-31.738281-106.390625 0-192.632812 14.207031-192.632812 31.738281 0 17.527343 86.242187 31.738281 192.632812 31.738281 106.386719 0 192.628906-14.210938 192.628906-31.738281zm0 0" fill="#1475cc"/><path d="m353.828125 295.644531c0-6.367187-52.53125-11.527343-117.335937-11.527343-64.800782 0-117.332032 5.160156-117.332032 11.527343 0 6.363281 52.53125 11.523438 117.332032 11.523438 64.804687 0 117.335937-5.160157 117.335937-11.523438zm0 0" fill="#0057a1"/><path d="m397.625 59.960938-31.28125-18.945313 13.851562-35.214844c2.074219-5.273437 8.398438-7.410156 13.242188-4.476562l26.808594 16.234375c4.847656 2.9375 5.882812 9.53125 2.167968 13.8125zm0 0" fill="#fcd79f"/><path d="m422.414062 31.367188-24.789062 28.59375-15.789062-9.5625 24.789062-28.59375c3.714844-4.28125 2.683594-10.871094-2.164062-13.808594l15.785156 9.5625c4.851562 2.9375 5.882812 9.527344 2.167968 13.808594zm0 0" fill="#e8b76b"/><path d="m376.5 120.667969c-1.019531 9.929687.761719 20.097656 5.480469 29.234375.566406 1.105468 1.101562 2.21875 1.597656 3.351562.75 1.6875 1.421875 3.417969 2.019531 5.160156.597656 1.75 1.113282 3.523438 1.542969 5.316407.257813 1.101562.496094 2.203125.703125 3.316406 2.058594 11.0625 1.121094 22.703125-3.132812 33.644531-.527344 1.320313-1.082032 2.617188-1.691407 3.90625v.007813c-.914062 1.949219-1.945312 3.855469-3.078125 5.730469l-47.625 78.652343-3.410156 5.636719h-.011719l-5.285156 8.734375c-6.992187.761719-15.007813 1.433594-23.835937 2-18.253907 1.140625-39.972657 1.8125-63.273438 1.8125-43.1875 0-80.921875-2.289063-101.289062-5.707031l4.503906-7.429688 3.234375-5.347656 98.320312-162.34375c11.570313-19.089844 31.8125-29.679688 52.609375-29.792969 18.339844-.09375 35.242188-9.953125 44.742188-25.640625l19.222656-31.742187c2.617188-4.324219 8.242188-5.707031 12.558594-3.089844l13.164062 7.972656c.011719.011719.023438.011719.03125.023438l16.523438 10.003906c.527344.316406 1.011718.679687 1.453125 1.089844.144531.144531.289062.277343.421875.421875.144531.144531.28125.289062.402344.445312 2.445312 2.914063 2.886718 7.167969.804687 10.601563l-19.222656 31.738281c-.320313.523438-.628907 1.0625-.9375 1.605469-.90625 1.609375-1.71875 3.269531-2.441407 4.945312-1.214843 2.804688-2.171874 5.6875-2.882812 8.625-.28125 1.171875-.527344 2.359375-.734375 3.554688-.207031 1.183593-.359375 2.367187-.484375 3.5625zm0 0" fill="#a8f4e6"/><path d="m376.5 120.667969c-1.019531 9.929687.761719 20.097656 5.480469 29.234375.566406 1.105468 1.101562 2.21875 1.597656 3.351562.75 1.6875 1.421875 3.410156 2.019531 5.160156s1.113282 3.523438 1.542969 5.316407c.269531 1.101562.507813 2.203125.703125 3.316406 2.058594 11.0625 1.121094 22.703125-3.132812 33.644531-.515626 1.308594-1.070313 2.617188-1.691407 3.90625 0 0 .011719.007813 0 .007813-.90625 1.9375-1.933593 3.855469-3.070312 5.730469l-47.632813 78.652343-8.707031 14.371094c-6.996094.761719-15.007813 1.433594-23.835937 2l11.269531-18.617187 46.667969-77.046876c11.558593-19.089843 11.566406-41.949218 2.027343-60.429687-8.40625-16.296875-7.5-35.839844 2-51.53125l24.910157-41.125c2.605468-4.304687 1.246093-9.90625-3.050782-12.535156l16.523438 10.003906c.523437.316406 1.011718.679687 1.453125 1.089844.144531.144531.289062.28125.421875.425781.144531.140625.277344.285156.402344.441406 2.441406 2.914063 2.882812 7.171875.804687 10.601563l-19.222656 31.738281c-.320313.527344-.628907 1.0625-.9375 1.609375-.898438 1.605469-1.710938 3.265625-2.441407 4.945313-1.207031 2.800781-2.164062 5.6875-2.886718 8.621093-.277344 1.175781-.523438 2.359375-.730469 3.554688-.195313 1.183593-.359375 2.367187-.484375 3.5625zm0 0" fill="#64e1c5"/><path d="m313.511719 163.542969c3.191406-5.273438.375-12.191407-5.617188-13.617188-15.917969-3.78125-33.121093 2.871094-42.050781 17.617188l-32.871094 54.273437 33.101563 20.050782zm0 0" fill="#c86d3d"/><path d="m317.304688 231.988281-32.191407 53.15625-7.984375 13.1875-5.027344 8.300781c-11.230468.351563-23.1875.539063-35.601562.539063-19.648438 0-38.160156-.476563-54.425781-1.308594l4.78125-7.902343 7.929687-13.09375 71.054688-117.316407c-11.074219 18.273438-5.226563 42.070313 13.050781 53.144531 10.09375 6.109376 21.878906 7.066407 32.265625 3.617188 1.460938-.484375 3.070312-.320312 4.386719.484375 2.472656 1.496094 3.265625 4.71875 1.761719 7.191406zm0 0" fill="#fcd79f"/><path d="m317.304688 231.988281-32.203126 53.15625-13.007812 21.492188c-7.015625.214843-14.332031.371093-21.851562.453125l13.722656-22.65625 35.199218-58.132813c4.089844-.019531 8.140626-.710937 11.992188-1.988281 1.460938-.472656 3.070312-.316406 4.390625.476562 2.46875 1.503907 3.253906 4.726563 1.757813 7.199219zm0 0" fill="#e8b76b"/><path d="m328.894531 294.625-5.285156 8.734375c-6.992187.761719-15.007813 1.433594-23.835937 2-18.253907 1.140625-39.972657 1.8125-63.273438 1.8125-43.1875 0-80.921875-2.289063-101.289062-5.707031l4.503906-7.429688c21.148437 3.019532 56.609375 5.007813 96.785156 5.007813 37.519531 0 70.914062-1.730469 92.394531-4.417969zm0 0" fill="#64e1c5"/><path d="m277.128906 298.332031-5.027344 8.304688c-11.230468.347656-23.1875.535156-35.601562.535156-19.648438 0-38.160156-.472656-54.425781-1.308594l4.78125-7.902343c15.082031.691406 31.902343 1.082031 49.644531 1.082031 14.277344 0 27.96875-.246094 40.628906-.710938zm0 0" fill="#e8b76b"/></svg>