<svg height="512pt" viewBox="-31 0 511 512" width="512pt" xmlns="http://www.w3.org/2000/svg"><path d="m200.503906 10.300781v491.398438c0 5.6875 4.613282 10.300781 10.304688 10.300781h27.621094c5.6875 0 10.300781-4.613281 10.300781-10.300781v-491.398438c0-5.6875-4.613281-10.300781-10.304688-10.300781h-27.617187c-5.691406 0-10.304688 4.613281-10.304688 10.300781zm0 0" fill="#c86d3d"/><path d="m248.734375 10.300781v491.386719c0 5.691406-4.613281 10.304688-10.300781 10.304688h-10.066406v-511.992188h10.066406c5.6875 0 10.300781 4.613281 10.300781 10.300781zm0 0" fill="#ac5e33"/><path d="m422 126.21875 23.664062 13.804688c1.90625 1.113281 3.070313 3.140624 3.070313 5.34375v28.332031c0 2.132812-1.09375 4.109375-2.894531 5.234375l-7.605469 4.777344c-3.925781 2.464843-3.84375 8.210937.15625 10.558593l7.292969 4.296875c1.886718 1.113282 3.050781 3.144532 3.050781 5.328125v95.300781c0 3.410157-2.773437 6.179688-6.183594 6.179688h-92.753906c-2.050781 0-3.976563-1.019531-5.121094-2.71875l-7.976562-11.828125c-2.492188-3.6875-7.960938-3.613281-10.339844.144531l-7.316406 11.53125c-1.132813 1.789063-3.101563 2.871094-5.222657 2.871094h-307.136718c-3.410156 0-6.183594-2.769531-6.183594-6.179688v-61.050781c0-1.523437.566406-2.996093 1.585938-4.128906l18.171874-20.171875c2.011719-2.234375 2.125-5.582031.269532-7.953125l-18.707032-23.890625c-.855468-1.089844-1.320312-2.429688-1.320312-3.8125v-139.421875c0-3.410156 2.769531-6.179687 6.179688-6.179687h82.085937c2.175781 0 4.171875 1.132812 5.296875 2.988281l6.550781 10.855469c2.574219 4.257812 8.871094 3.886718 10.929688-.648438l4.328125-9.570312c1.007812-2.203126 3.203125-3.625 5.632812-3.625h14.105469c2.171875 0 4.171875 1.132812 5.292969 2.988281l6.550781 10.859375c2.578125 4.253906 8.871094 3.882812 10.933594-.652344l4.324219-9.566406c1.011718-2.207032 3.203124-3.628906 5.636718-3.628906h274.203125c3.410157 0 6.179688 2.773437 6.179688 6.183593v56.71875c0 2.132813-1.101563 4.121094-2.914063 5.246094l-23.960937 14.894531c-3.957031 2.460938-3.875 8.238282.144531 10.589844zm0 0" fill="#db885d"/><g fill="#c86d3d"><path d="m422 126.21875 23.664062 13.804688c1.90625 1.113281 3.070313 3.140624 3.070313 5.34375v28.332031c0 2.132812-1.09375 4.109375-2.894531 5.234375l-7.605469 4.777344c-3.925781 2.464843-3.84375 8.210937.15625 10.558593l7.292969 4.296875c1.886718 1.113282 3.050781 3.144532 3.050781 5.328125v95.300781c0 3.410157-2.773437 6.179688-6.183594 6.179688h-20.960937c3.40625 0 6.179687-2.769531 6.179687-6.179688v-95.300781c0-2.183593-1.15625-4.214843-3.050781-5.328125l-7.292969-4.296875c-3.996093-2.347656-4.078125-8.09375-.152343-10.558593l7.601562-4.777344c1.804688-1.125 2.894531-3.101563 2.894531-5.234375v-28.332031c0-2.203126-1.164062-4.230469-3.070312-5.34375l-23.664063-13.804688c-4.015625-2.351562-4.097656-8.128906-.140625-10.589844l23.960938-14.898437c1.8125-1.121094 2.914062-3.109375 2.914062-5.242188v-56.722656c0-3.410156-2.769531-6.179687-6.179687-6.179687h20.964844c3.410156 0 6.179687 2.769531 6.179687 6.179687v56.722656c0 2.132813-1.101563 4.121094-2.914063 5.242188l-23.964843 14.898437c-3.957031 2.460938-3.875 8.238282.144531 10.589844zm0 0"/><path d="m64.425781 142.339844c0 4.265625-3.460937 7.726562-7.726562 7.726562h-56.199219v-15.453125h56.195312c4.265626 0 7.730469 3.453125 7.730469 7.726563zm0 0"/><path d="m24.585938 110.054688c0 4.273437-3.449219 7.726562-7.726563 7.726562h-16.359375v-15.453125h16.359375c4.277344 0 7.726563 3.460937 7.726563 7.726563zm0 0"/><path d="m445.074219 228.839844h-75.203125c-4.265625 0-7.722656 3.460937-7.722656 7.726562 0 4.269532 3.457031 7.726563 7.722656 7.726563h75.203125zm0 0"/><path d="m402.839844 271.484375h-24.089844c-4.265625 0-7.726562-3.457031-7.726562-7.722656 0-4.269531 3.460937-7.726563 7.726562-7.726563h24.089844c4.265625 0 7.722656 3.457032 7.722656 7.726563 0 4.265625-3.457031 7.722656-7.722656 7.722656zm0 0"/><path d="m128.675781 270.203125h-85.949219c-4.265624 0-7.726562-3.457031-7.726562-7.726563 0-4.265624 3.460938-7.722656 7.726562-7.722656h85.949219c4.265625 0 7.726563 3.457032 7.726563 7.722656 0 4.269532-3.460938 7.726563-7.726563 7.726563zm0 0"/></g><path d="m311.191406 154.136719c.125 21.808593-7.816406 41.773437-21.023437 57.0625-1.207031 1.390625-2.96875 2.183593-4.8125 2.183593h-19.863281v48.738282c0 2.140625-.863282 4.089844-2.273438 5.5-1.414062 1.402344-3.351562 2.277344-5.492188 2.277344-2.328124 0-4.410156-1.03125-5.832031-2.648438-2.78125-3.152344-6.675781-5.128906-10.886719-5.128906h-32.78125c-4.214843 0-8.109374 1.976562-10.890624 5.128906-1.421876 1.617188-3.5 2.648438-5.828126 2.648438-4.289062 0-7.769531-3.484376-7.769531-7.777344v-48.738282h-19.859375c-1.847656 0-3.609375-.792968-4.8125-2.195312-13.105468-15.164062-21.027344-34.933594-21.027344-56.546875 0-48.015625 39.097657-86.90625 87.195313-86.566406 47.171875.328125 85.679687 38.878906 85.957031 86.0625zm0 0" fill="#fff5f5"/><path d="m200.316406 221.117188c0 4.265624-3.460937 7.726562-7.726562 7.726562h-8.851563v-15.453125h8.851563c4.265625 0 7.726562 3.453125 7.726562 7.726563zm0 0" fill="#efe2dd"/><path d="m265.496094 213.390625v15.453125h-8.851563c-4.261719 0-7.722656-3.460938-7.722656-7.726562 0-4.273438 3.460937-7.722657 7.722656-7.722657h8.851563zm0 0" fill="#efe2dd"/><path d="m212.152344 245.589844c-4.265625 0-7.726563-3.460938-7.726563-7.726563v-9.132812c0-4.269531 3.460938-7.726563 7.726563-7.726563 4.269531 0 7.726562 3.457032 7.726562 7.726563v9.132812c0 4.265625-3.457031 7.726563-7.726562 7.726563zm0 0" fill="#756f6f"/><path d="m237.082031 245.589844c-4.269531 0-7.726562-3.460938-7.726562-7.726563v-9.132812c0-4.269531 3.457031-7.726563 7.726562-7.726563 4.265625 0 7.726563 3.457032 7.726563 7.726563v9.132812c0 4.265625-3.460938 7.726563-7.726563 7.726563zm0 0" fill="#756f6f"/><path d="m299.269531 201.84375c-1.976562 0-3.957031-.753906-5.464843-2.261719l-114.199219-114.199219c-3.019531-3.019531-3.019531-7.910156 0-10.929687 3.015625-3.015625 7.910156-3.015625 10.925781 0l114.203125 114.199219c3.015625 3.019531 3.015625 7.910156 0 10.929687-1.511719 1.507813-3.488281 2.261719-5.464844 2.261719zm0 0" fill="#5b5555"/><path d="m279.796875 146.570312c5.382813 12.878907-.695313 27.683594-13.578125 33.066407-12.878906 5.382812-27.683594-.699219-33.066406-13.578125-5.378906-12.878906 3.292968-21.476563 16.171875-26.859375 12.878906-5.378907 25.089843-5.507813 30.472656 7.371093zm0 0" fill="#756f6f"/><path d="m190.675781 142.027344c-11.414062 0-20.703125 9.289062-20.703125 20.703125 0 11.414062 9.289063 20.703125 20.703125 20.703125 11.417969 0 20.703125-9.289063 20.703125-20.703125 0-11.414063-9.285156-20.703125-20.703125-20.703125zm0 0" fill="#5b5555"/><path d="m376.570312 87.644531h-37.601562c-4.269531 0-7.726562-3.460937-7.726562-7.726562 0-4.269531 3.457031-7.726563 7.726562-7.726563h37.601562c4.265626 0 7.726563 3.460938 7.726563 7.726563s-3.460937 7.726562-7.726563 7.726562zm0 0" fill="#c86d3d"/></svg>