<svg height="512pt" viewBox="-127 0 512 512" width="512pt" xmlns="http://www.w3.org/2000/svg"><path d="m193.4375 446.644531c-.742188.804688-1.515625 1.585938-2.296875 2.359375-2.90625 2.832032-6.046875 5.40625-9.40625 7.734375-12.445313 8.59375-27.886719 13.601563-45.472656 14.722657-2.523438.164062-5.097657.246093-7.714844.246093s-5.191406-.082031-7.71875-.246093c-17.582031-1.121094-33.027344-6.128907-45.46875-14.722657-3.359375-2.328125-6.5-4.902343-9.40625-7.734375-.785156-.773437-1.558594-1.554687-2.296875-2.359375-11.785156-12.558593-19.140625-29.265625-22.007812-49.871093-.730469-5.203126-1.164063-10.640626-1.304688-16.339844-.042969-1.453125-.0625-2.925782-.0625-4.417969 0-13.949219 1.75-28.886719 4.996094-43.816406 1.265625-5.890625 2.78125-11.792969 4.5-17.625v-.007813c4.925781-16.671875 11.601562-32.800781 19.636718-46.976562 2.050782-3.625 4.160157-7.066406 6.304688-10.324219 3.378906-5.117187 6.859375-9.785156 10.414062-13.957031 13.703126-16.070313 28.472657-24.898438 42.414063-24.898438 13.9375 0 28.710937 8.828125 42.414063 24.898438 3.574218 4.203125 7.085937 8.902344 10.484374 14.0625 2.121094 3.222656 4.203126 6.632812 6.234376 10.21875 8.035156 14.175781 14.710937 30.308594 19.632812 46.976562v.007813c1.722656 5.832031 3.238281 11.734375 4.503906 17.625 3.246094 14.929687 4.996094 29.867187 4.996094 43.816406 0 1.492187-.023438 2.964844-.0625 4.417969-.144531 5.699218-.578125 11.136718-1.308594 16.339844-2.863281 20.605468-10.21875 37.316406-22.003906 49.871093zm63.171875-84.988281c-.339844-5.367188-.878906-10.789062-1.609375-16.246094-3.140625-24.015625-9.816406-48.585937-19.335938-71.226562-2.203124-5.265625-4.574218-10.425782-7.078124-15.453125-1.875-3.75-3.832032-7.429688-5.859376-11.015625-25.445312-44.875-58.886718-69.597656-94.179687-69.597656s-68.734375 24.722656-94.179687 69.597656c-2.027344 3.585937-3.988282 7.265625-5.863282 11.015625-2.5 5.027343-4.871094 10.1875-7.074218 15.453125-9.519532 22.640625-16.195313 47.210937-19.339844 71.226562-.730469 5.457032-1.265625 10.878906-1.605469 16.246094-.320313 4.839844-.484375 9.628906-.484375 14.359375 0 24.332031 4.296875 46.277344 12.621094 65.117187 2.140625 4.875 4.550781 9.539063 7.242187 13.980469 5.058594 8.386719 11.050781 15.988281 17.964844 22.726563 12.351563 12.042968 27.15625 21.027344 43.886719 26.734375 4.808594 1.65625 9.773437 3.039062 14.894531 4.140625 10.105469 2.171875 20.789063 3.285156 31.9375 3.285156 11.144531 0 21.828125-1.113281 31.933594-3.285156 5.121093-1.101563 10.085937-2.484375 14.898437-4.140625 16.730469-5.707031 31.53125-14.691407 43.886719-26.734375 6.910156-6.738282 12.90625-14.339844 17.964844-22.726563 2.6875-4.4375 5.097656-9.105469 7.242187-13.980469 8.324219-18.839843 12.621094-40.785156 12.621094-65.117187 0-4.730469-.167969-9.519531-.484375-14.359375zm0 0" fill="#ac5e33"/><path d="m184.050781 199.773438c-4.636719 2.328124-9.867187 3.625-15.390625 3.625h-5.550781v24.21875c0 2.308593-.226563 4.574218-.660156 6.761718-11.1875-10.375-22.808594-15.96875-33.902344-15.96875-11.097656 0-22.714844 5.59375-33.902344 15.96875-.433593-2.1875-.660156-4.453125-.660156-6.761718v-24.21875h-5.554687c-5.519532 0-10.753907-1.296876-15.390626-3.625 17.265626-14.1875 36.109376-21.65625 55.507813-21.65625s38.238281 7.46875 55.503906 21.65625zm0 0" fill="#904d29"/><path d="m148.6875 10.300781v217.316407c0 11.128906-9.015625 20.152343-20.140625 20.152343-5.5625 0-10.601563-2.257812-14.238281-5.902343-3.648438-3.648438-5.902344-8.683594-5.902344-14.25v-217.316407c0-5.6875 4.605469-10.300781 10.300781-10.300781h19.675781c5.699219 0 10.304688 4.613281 10.304688 10.300781zm0 0" fill="#c86d3d"/><path d="m188.8125 88.265625c0 5.5625-2.257812 10.601563-5.902344 14.238281-3.648437 3.644532-8.683594 5.902344-14.25 5.902344h-80.230468c-11.125 0-20.148438-9.015625-20.148438-20.140625 0-5.5625 2.253906-10.601563 5.902344-14.238281 3.648437-3.644532 8.683594-5.902344 14.246094-5.902344h80.230468c11.125 0 20.152344 9.015625 20.152344 20.140625zm0 0" fill="#db885d"/><path d="m188.8125 88.265625c0 5.5625-2.257812 10.601563-5.902344 14.238281-3.648437 3.644532-8.683594 5.902344-14.25 5.902344h-18.191406c5.5625 0 10.601562-2.257812 14.238281-5.902344 3.644531-3.636718 5.902344-8.675781 5.902344-14.238281 0-11.125-9.015625-20.140625-20.140625-20.140625h18.191406c11.125 0 20.152344 9.015625 20.152344 20.140625zm0 0" fill="#c86d3d"/><path d="m188.8125 128.546875c0 5.5625-2.257812 10.601563-5.902344 14.246094-3.648437 3.648437-8.683594 5.902343-14.25 5.902343h-80.230468c-11.125 0-20.148438-9.023437-20.148438-20.148437 0-5.5625 2.253906-10.589844 5.902344-14.238281 3.648437-3.648438 8.683594-5.902344 14.246094-5.902344h80.230468c11.125 0 20.152344 9.023438 20.152344 20.140625zm0 0" fill="#c86d3d"/><path d="m188.8125 128.546875c0 5.5625-2.257812 10.601563-5.902344 14.246094-3.648437 3.648437-8.683594 5.902343-14.25 5.902343h-18.191406c5.5625 0 10.601562-2.253906 14.238281-5.902343 3.644531-3.648438 5.902344-8.683594 5.902344-14.246094 0-11.117187-9.015625-20.140625-20.140625-20.140625h18.191406c11.125 0 20.152344 9.023438 20.152344 20.140625zm0 0" fill="#ac5e33"/><path d="m188.8125 168.835938c0 5.5625-2.257812 10.601562-5.902344 14.25-3.648437 3.636718-8.683594 5.890624-14.25 5.890624h-80.230468c-11.125 0-20.148438-9.011718-20.148438-20.140624 0-5.5625 2.253906-10.601563 5.902344-14.246094 3.648437-3.636719 8.683594-5.894532 14.246094-5.894532h80.230468c11.125 0 20.152344 9.015626 20.152344 20.140626zm0 0" fill="#db885d"/><path d="m188.8125 168.835938c0 5.5625-2.257812 10.601562-5.902344 14.25-3.648437 3.636718-8.683594 5.890624-14.25 5.890624h-18.191406c5.5625 0 10.601562-2.253906 14.238281-5.890624 3.644531-3.648438 5.902344-8.6875 5.902344-14.25 0-11.125-9.015625-20.140626-20.140625-20.140626h18.191406c11.125 0 20.152344 9.015626 20.152344 20.140626zm0 0" fill="#c86d3d"/><g fill="#904d29"><path d="m191.171875 234.800781-6.542969 15.902344c-1.320312 2.867187-2.359375 5.050781-3.183594 6.667969-3.398437-5.160156-6.910156-9.859375-10.484374-14.0625l5.921874-14.394532c1.628907-3.945312 6.140626-5.828124 10.085938-4.210937 3.945312 1.628906 5.828125 6.148437 4.203125 10.097656zm0 0"/><path d="m235.664062 274.183594h-14.917968c-4.265625 0-7.726563-3.460938-7.726563-7.726563s3.460938-7.726562 7.726563-7.726562h7.839844c2.503906 5.027343 4.875 10.1875 7.078124 15.453125zm0 0"/><path d="m224.847656 316.667969-9.167968 12.710937c-.992188 1.382813-2.359376 2.328125-3.863282 2.824219-1.269531-5.894531-2.785156-11.796875-4.503906-17.625v-.011719l5.007812-6.945312c2.492188-3.460938 7.324219-4.230469 10.785157-1.738282 3.460937 2.492188 4.246093 7.324219 1.742187 10.785157zm0 0"/><path d="m256.609375 361.65625-18.214844-4.296875c-4.152343-.988281-6.71875-5.152344-5.738281-9.304687.980469-4.148438 5.152344-6.714844 9.292969-5.738282l13.050781 3.09375c.730469 5.457032 1.269531 10.878906 1.609375 16.246094zm0 0"/><path d="m229.792969 392.972656-14.351563 3.800782c.734375-5.203126 1.164063-10.640626 1.308594-16.339844l9.085938-2.398438c4.121093-1.101562 8.355468 1.359375 9.445312 5.480469 1.09375 4.132813-1.367188 8.355469-5.488281 9.457031zm0 0"/><path d="m244.472656 441.132812c-2.144531 4.875-4.554687 9.539063-7.242187 13.980469l-12.652344-10.035156c-3.347656-2.644531-3.902344-7.507813-1.257813-10.847656 2.660157-3.347657 7.511719-3.902344 10.859376-1.253907zm0 0"/><path d="m200.402344 466.703125c-1.453125 1.246094-3.246094 1.855469-5.019532 1.855469-2.183593 0-4.347656-.929688-5.878906-2.710938l-7.769531-9.109375c3.359375-2.328125 6.5-4.902343 9.40625-7.734375.78125-.773437 1.554687-1.554687 2.296875-2.359375l7.820312 9.167969c2.769532 3.246094 2.386719 8.121094-.855468 10.890625zm0 0"/><path d="m175.378906 504.570312c-4.8125 1.660157-9.777344 3.039063-14.898437 4.144532l-2.832031-10.707032c-1.089844-4.121093 1.359374-8.355468 5.492187-9.445312 4.121094-1.09375 8.355469 1.359375 9.445313 5.492188zm0 0"/><path d="m136.273438 471.710938v15.050781c0 4.265625-3.460938 7.726562-7.726563 7.726562s-7.726563-3.460937-7.726563-7.726562v-15.050781c0-.082032 0-.164063.007813-.246094 2.527344.164062 5.101563.246094 7.71875.246094s5.191406-.082032 7.714844-.246094c.011719.082031.011719.164062.011719.246094zm0 0"/><path d="m86.132812 243.308594c-3.554687 4.171875-7.035156 8.839844-10.414062 13.957031-1.585938-2.976563-2.832031-5.550781-3.253906-6.5625l-6.542969-15.902344c-1.628906-3.949219.257813-8.46875 4.203125-10.097656 3.933594-1.617187 8.457031.257813 10.085938 4.210937zm0 0"/><path d="m44.070312 266.457031c0 4.265625-3.460937 7.726563-7.726562 7.726563h-14.914062c2.203124-5.265625 4.574218-10.425782 7.074218-15.453125h7.839844c4.265625 0 7.726562 3.460937 7.726562 7.726562zm0 0"/><path d="m49.777344 314.566406v.007813c-1.71875 5.832031-3.234375 11.734375-4.5 17.628906-1.503906-.496094-2.875-1.441406-3.863282-2.824219l-9.171874-12.710937c-2.5-3.464844-1.71875-8.292969 1.742187-10.785157 3.460937-2.503906 8.292969-1.722656 10.785156 1.738282zm0 0"/><path d="m18.699219 357.359375-18.214844 4.296875c.339844-5.367188.875-10.785156 1.605469-16.246094l13.054687-3.089844c4.152344-.980468 8.3125 1.585938 9.289063 5.738282.980468 4.152344-1.585938 8.3125-5.734375 9.300781zm0 0"/><path d="m41.648438 396.773438-14.347657-3.800782c-4.121093-1.101562-6.582031-5.324218-5.492187-9.445312 1.09375-4.132813 5.328125-6.59375 9.449218-5.492188l9.085938 2.398438c.140625 5.699218.574219 11.136718 1.304688 16.339844zm0 0"/><path d="m32.511719 445.078125-12.648438 10.035156c-2.691406-4.441406-5.101562-9.105469-7.242187-13.980469l10.289062-8.160156c3.351563-2.648437 8.203125-2.089844 10.859375 1.257813 2.648438 3.339843 2.089844 8.203125-1.257812 10.847656zm0 0"/><path d="m75.359375 456.742188-7.769531 9.105468c-1.535156 1.78125-3.699219 2.710938-5.882813 2.710938-1.769531 0-3.5625-.609375-5.015625-1.855469-3.246094-2.769531-3.625-7.644531-.855468-10.886719l7.820312-9.167968c.742188.800781 1.511719 1.585937 2.296875 2.359374 2.902344 2.832032 6.046875 5.40625 9.40625 7.734376zm0 0"/><path d="m99.441406 498.011719-2.832031 10.703125c-5.121094-1.101563-10.085937-2.484375-14.894531-4.140625l2.792968-10.519531c1.089844-4.128907 5.324219-6.582032 9.445313-5.492188 4.132813 1.09375 6.582031 5.328125 5.488281 9.449219zm0 0"/></g><path d="m119.789062 148.695312v12.980469c0 4.265625-3.460937 7.726563-7.726562 7.726563s-7.726562-3.460938-7.726562-7.726563v-12.980469zm0 0" fill="#c86d3d"/><path d="m146.058594 137.816406v10.878906h-15.453125v-10.878906c0-4.261718 3.460937-7.722656 7.726562-7.722656 4.265625-.003906 7.726563 3.460938 7.726563 7.722656zm0 0" fill="#ac5e33"/><path d="m116.132812 68.125v14.289062c0 4.265626-3.460937 7.726563-7.726562 7.726563s-7.726562-3.460937-7.726562-7.726563v-14.289062zm0 0" fill="#c86d3d"/><path d="m148.6875 24.960938v15.453124h-11.382812c-4.265626 0-7.726563-3.449218-7.726563-7.726562 0-4.265625 3.460937-7.726562 7.726563-7.726562zm0 0" fill="#ac5e33"/><path d="m130.515625 213.246094c0 4.265625-3.453125 7.726562-7.726563 7.726562h-14.382812v-15.453125h14.378906c4.277344 0 7.730469 3.460938 7.730469 7.726563zm0 0" fill="#ac5e33"/></svg>