<svg height="512pt" viewBox="-35 0 511 512" width="512pt" xmlns="http://www.w3.org/2000/svg"><path d="m220.917969 85.449219c-23.558594 0-42.726563-19.164063-42.726563-42.722657 0-23.558593 19.167969-42.726562 42.726563-42.726562 23.558593 0 42.726562 19.167969 42.726562 42.726562 0 23.558594-19.167969 42.722657-42.726562 42.722657zm0-70.226563c-15.164063 0-27.503907 12.339844-27.503907 27.503906 0 15.164063 12.339844 27.5 27.503907 27.5 15.164062 0 27.503906-12.335937 27.503906-27.5 0-15.164062-12.339844-27.503906-27.503906-27.503906zm0 0" fill="#efe2dd"/><path d="m340.519531 166.121094-98.820312-80.859375c-12.089844-9.894531-29.476563-9.894531-41.566407 0l-98.820312 80.859375zm0 0" fill="#756f6f"/><path d="m340.515625 166.117188h-28.625l-98.824219-80.855469c-2.019531-1.660157-4.195312-3.03125-6.460937-4.132813 11.289062-5.488281 25.035156-4.105468 35.09375 4.132813zm0 0" fill="#5b5555"/><path d="m89.785156 189.253906h82.800782v290.890625h-82.800782zm0 0" fill="#fde5c2"/><path d="m273.917969 189.253906h78.132812v290.890625h-78.132812zm0 0" fill="#fde5c2"/><path d="m152.976562 189.253906h18.421876v290.890625h-18.421876zm0 0" fill="#fcd79f"/><path d="m334.355469 189.253906h17.691406v290.890625h-17.691406zm0 0" fill="#fcd79f"/><path d="m171.398438 189.253906h99.039062v92.414063h-99.039062zm0 0" fill="#d8aa64"/><path d="m171.398438 388.332031h99.039062v91.8125h-99.039062zm0 0" fill="#d8aa64"/><path d="m252.304688 189.25h18.128906v290.894531h-18.128906zm0 0" fill="#c99d5c"/><path d="m171.398438 281.15625h99.039062v107.085938h-99.039062zm0 0" fill="#fbcc85"/><path d="m252.304688 281.148438h18.128906v107.097656h-18.128906zm0 0" fill="#d8aa64"/><path d="m352.050781 181.640625h-262.265625c-4.203125 0-7.609375 3.410156-7.609375 7.613281v290.890625c0 4.203125 3.40625 7.609375 7.609375 7.609375h262.265625c4.203125 0 7.609375-3.40625 7.609375-7.609375v-290.890625c0-4.203125-3.40625-7.613281-7.609375-7.613281zm-7.613281 91.902344h-66.386719v-76.679688h66.386719zm0 107.085937h-66.386719v-91.863281h66.386719zm-247.039062-91.863281h66.386718v91.863281h-66.386718zm81.609374 0h83.820313v91.863281h-83.820313zm83.816407-91.902344v76.679688h-83.816407v-76.679688zm-99.039063 0v76.679688h-66.386718v-76.679688zm-66.386718 198.988281h66.386718v76.679688h-66.386718zm81.609374 76.679688v-76.675781h83.820313v76.675781zm99.042969 0v-76.675781h66.386719v76.675781zm0 0" fill="#ac5e33"/><path d="m363.765625 196.496094h-285.695313c-5.488281 0-9.9375-4.449219-9.9375-9.941406v-19.214844c0-5.488282 4.449219-9.9375 9.9375-9.9375h285.695313c5.488281 0 9.9375 4.449218 9.9375 9.9375v19.214844c0 5.492187-4.449219 9.941406-9.9375 9.941406zm0 0" fill="#898383"/><path d="m373.703125 167.335938v19.222656c0 5.484375-4.449219 9.9375-9.9375 9.9375h-20.871094c5.484375 0 9.9375-4.453125 9.9375-9.9375v-19.222656c0-5.488282-4.453125-9.941407-9.9375-9.941407h20.871094c5.488281 0 9.9375 4.453125 9.9375 9.941407zm0 0" fill="#756f6f"/><path d="m363.765625 511.996094h-285.695313c-5.488281 0-9.9375-4.449219-9.9375-9.9375v-19.21875c0-5.488282 4.449219-9.9375 9.9375-9.9375h285.695313c5.488281 0 9.9375 4.449218 9.9375 9.9375v19.21875c0 5.488281-4.449219 9.9375-9.9375 9.9375zm0 0" fill="#898383"/><path d="m373.703125 482.839844v19.222656c0 5.484375-4.449219 9.9375-9.9375 9.9375h-20.871094c5.484375 0 9.9375-4.453125 9.9375-9.9375v-19.222656c0-5.488282-4.453125-9.941406-9.9375-9.941406h20.871094c5.488281 0 9.9375 4.453124 9.9375 9.941406zm0 0" fill="#756f6f"/><path d="m220.917969 105.492188c-4.203125 0-7.613281-3.40625-7.613281-7.609376v-30.515624c0-4.203126 3.410156-7.609376 7.613281-7.609376s7.609375 3.40625 7.609375 7.609376v30.515624c0 4.203126-3.40625 7.609376-7.609375 7.609376zm0 0" fill="#898383"/><g fill="#fcd79f"><path d="m29.253906 242.734375c-4.203125 0-7.613281-3.410156-7.613281-7.613281v-7.238282c0-4.207031 3.410156-7.613281 7.613281-7.613281s7.609375 3.410157 7.609375 7.613281v7.238282c0 4.203125-3.40625 7.613281-7.609375 7.613281zm0 0"/><path d="m29.253906 277.777344c-4.203125 0-7.613281-3.410156-7.613281-7.613282v-7.238281c0-4.203125 3.410156-7.613281 7.613281-7.613281s7.609375 3.410156 7.609375 7.613281v7.238281c0 4.203126-3.40625 7.613282-7.609375 7.613282zm0 0"/><path d="m50.394531 256.632812h-7.238281c-4.207031 0-7.613281-3.40625-7.613281-7.609374 0-4.203126 3.410156-7.613282 7.613281-7.613282h7.238281c4.203125 0 7.613281 3.410156 7.613281 7.613282 0 4.203124-3.410156 7.609374-7.613281 7.609374zm0 0"/><path d="m15.351562 256.632812h-7.242187c-4.203125 0-7.609375-3.40625-7.609375-7.609374 0-4.203126 3.40625-7.613282 7.609375-7.613282h7.242187c4.203126 0 7.613282 3.410156 7.613282 7.613282 0 4.203124-3.410156 7.609374-7.613282 7.609374zm0 0"/><path d="m412.582031 402.636719c-4.203125 0-7.609375-3.40625-7.609375-7.609375v-7.242188c0-4.203125 3.40625-7.609375 7.609375-7.609375s7.613281 3.40625 7.613281 7.609375v7.242188c0 4.203125-3.410156 7.609375-7.613281 7.609375zm0 0"/><path d="m412.582031 437.679688c-4.203125 0-7.609375-3.40625-7.609375-7.609376v-7.242187c0-4.203125 3.40625-7.609375 7.609375-7.609375s7.613281 3.410156 7.613281 7.609375v7.242187c0 4.203126-3.410156 7.609376-7.613281 7.609376zm0 0"/><path d="m433.726562 416.539062h-7.242187c-4.203125 0-7.613281-3.40625-7.613281-7.613281 0-4.203125 3.410156-7.609375 7.613281-7.609375h7.242187c4.203126 0 7.609376 3.40625 7.609376 7.609375 0 4.207031-3.40625 7.613281-7.609376 7.613281zm0 0"/><path d="m398.679688 416.539062h-7.238282c-4.203125 0-7.613281-3.40625-7.613281-7.613281 0-4.203125 3.410156-7.609375 7.613281-7.609375h7.238282c4.207031 0 7.613281 3.40625 7.613281 7.609375 0 4.207031-3.40625 7.613281-7.613281 7.613281zm0 0"/></g></svg>