<svg height="511.99946pt" viewBox="0 0 511.99946 511.99946" width="511.99946pt" xmlns="http://www.w3.org/2000/svg"><path d="m98.886719 374.558594 38.554687 38.554687-97.609375 97.609375c-3.929687 3.929688-15.742187-1.519531-26.390625-12.164062-10.644531-10.648438-16.09375-22.460938-12.164062-26.390625zm0 0" fill="#cdbfbb"/><path d="m137.445312 413.117188-97.609374 97.609374c-3.574219 3.570313-13.671876-.621093-23.492188-9.421874l104.644531-104.644532zm0 0" fill="#b9acac"/><path d="m157.820312 293.996094 60.183594 60.1875-86.625 86.621094c-6.132812 6.132812-24.574218-2.371094-41.191406-18.992188-16.621094-16.617188-25.125-35.058594-18.992188-41.191406zm0 0" fill="#e8b76b"/><path d="m218.003906 354.183594-86.625 86.628906c-4.363281 4.363281-14.953125 1.3125-26.679687-6.78125.667969-.308594 1.25-.707031 1.757812-1.214844l95.089844-95.089844zm0 0" fill="#c99d5c"/><path d="m159.355469 412.835938-27.976563 27.976562c-4.363281 4.363281-14.953125 1.3125-26.679687-6.78125-4.757813-3.292969-9.714844-7.421875-14.507813-12.214844-16.628906-16.625-25.128906-35.058594-18.996094-41.1875l27.972657-27.976562c-6.128907 6.128906 2.371093 24.5625 18.996093 41.1875 4.910157 4.910156 9.976563 9.113281 14.839844 12.433594 11.59375 7.925781 22.035156 10.878906 26.351563 6.5625zm0 0" fill="#fde5c2"/><path d="m159.355469 412.835938-27.976563 27.976562c-4.363281 4.363281-14.953125 1.3125-26.679687-6.78125.667969-.308594 1.25-.707031 1.757812-1.214844l26.546875-26.546875c11.59375 7.929688 22.035156 10.882813 26.351563 6.566407zm0 0" fill="#fbcc85"/><path d="m262.207031 160.453125 89.335938 89.335937-116.019531 116.019532c-9.101563 9.101562-36.472657-3.519532-61.144532-28.191406-24.667968-24.667969-37.292968-52.042969-28.191406-61.140626zm0 0" fill="#e8b76b"/><path d="m351.546875 249.792969-116.023437 116.023437c-5.492188 5.492188-17.613282 3.074219-31.785157-5.117187 2.839844-.242188 5.171875-1.183594 6.867188-2.875l124.484375-124.488281zm0 0" fill="#c99d5c"/><path d="m264.496094 336.84375-28.972656 28.972656c-5.492188 5.492188-17.613282 3.074219-31.785157-5.117187-9.335937-5.386719-19.558593-13.277344-29.359375-23.074219-24.671875-24.675781-37.292968-52.042969-28.191406-61.144531l28.972656-28.972657c-9.101562 9.101563 3.519532 36.46875 28.195313 61.144532 10.699219 10.699218 21.898437 19.136718 31.914062 24.503906 13.0625 7.027344 24.074219 8.839844 29.226563 3.6875zm0 0" fill="#fde5c2"/><path d="m264.496094 336.84375-28.972656 28.972656c-5.492188 5.492188-17.613282 3.074219-31.785157-5.117187 2.839844-.242188 5.171875-1.183594 6.867188-2.875l24.664062-24.667969c13.0625 7.027344 24.074219 8.839844 29.226563 3.6875zm0 0" fill="#fbcc85"/><path d="m393.480469 3.796875 114.722656 114.722656-159.863281 159.863281c-11.6875 11.691407-46.839844-4.523437-78.519532-36.203124-31.683593-31.679688-47.894531-66.832032-36.203124-78.519532zm0 0" fill="#fde5c2"/><path d="m508.203125 118.527344-159.863281 159.863281c-6.488282 6.488281-20.207032 4.371094-36.550782-4.203125 4.917969.140625 8.914063-1.074219 11.632813-3.789062l168.324219-168.328126zm0 0" fill="#fbcc85"/><path d="m374.671875 252.058594-26.332031 26.332031c-6.488282 6.488281-20.199219 4.382813-36.535156-4.203125h-.015626c-13.082031-6.875-27.882812-17.914062-41.96875-32.003906-31.683593-31.679688-47.894531-66.832032-36.207031-78.519532l26.332031-26.332031c-11.691406 11.691407 4.523438 46.84375 36.203126 78.523438 16.023437 16.023437 32.921874 28.089843 47.234374 34.578125 13.996094 6.355468 25.503907 7.410156 31.289063 1.625zm0 0" fill="#db885d"/><path d="m374.671875 252.058594-26.332031 26.332031c-6.488282 6.488281-20.199219 4.382813-36.535156-4.203125 4.910156.128906 8.898437-1.074219 11.617187-3.789062l19.960937-19.964844c13.996094 6.355468 25.503907 7.410156 31.289063 1.625zm0 0" fill="#c86d3d"/><path d="m508.203125 118.527344-34.792969 34.792968c-5.785156 5.785157-17.292968 4.730469-31.285156-1.625-14.3125-6.492187-31.210938-18.554687-47.238281-34.578124-31.679688-31.679688-47.890625-66.832032-36.203125-78.519532l34.796875-34.796875zm0 0" fill="#e8b76b"/><path d="m508.203125 118.527344-34.792969 34.792968c-5.785156 5.785157-17.292968 4.730469-31.285156-1.625l49.621094-49.625zm0 0" fill="#c99d5c"/><path d="m471.996094 40.003906c-31.679688-31.679687-66.835938-47.890625-78.519532-36.203125-11.6875 11.683594 4.523438 46.835938 36.203126 78.519531 31.679687 31.679688 66.835937 47.886719 78.519531 36.203126 11.683593-11.6875-4.523438-46.839844-36.203125-78.519532zm0 0" fill="#a8f4e6"/><path d="m472 40c31.679688 31.679688 47.890625 66.832031 36.203125 78.519531-3.382813 3.386719-8.714844 4.429688-15.367187 3.445313-2.414063-16.355469-17.121094-40.636719-39.644532-63.15625-22.523437-22.523438-46.800781-37.230469-63.15625-39.648438-.984375-6.644531.058594-11.976562 3.445313-15.363281 11.6875-11.691406 46.839843 4.523437 78.519531 36.203125zm0 0" fill="#64e1c5"/></svg>